<?xml version="1.0" encoding="UTF-8" standalone="no"?>
<svg
   height="128px"
   viewBox="0 0 128 128"
   width="128px"
   version="1.1"
   id="svg176"
   xmlns="http://www.w3.org/2000/svg"
   xmlns:svg="http://www.w3.org/2000/svg">
  <defs
     id="defs180" />
  <linearGradient
     id="a"
     gradientUnits="userSpaceOnUse"
     x1="9.000005"
     x2="118.999992"
     y1="63.999996"
     y2="63.999996">
    <stop
       offset="0"
       stop-color="#151515"
       id="stop2" />
    <stop
       offset="1"
       stop-color="#1e282e"
       id="stop4" />
  </linearGradient>
  <linearGradient
     id="b"
     gradientUnits="userSpaceOnUse"
     x1="12.99999"
     x2="115"
     y1="63.999996"
     y2="63.999996">
    <stop
       offset="0"
       stop-color="#1e282e"
       id="stop7" />
    <stop
       offset="1"
       stop-color="#5a6368"
       id="stop9" />
  </linearGradient>
  <clipPath
     id="c">
    <rect
       height="128"
       width="128"
       id="rect12" />
  </clipPath>
  <clipPath
     id="d">
    <rect
       height="128"
       width="128"
       id="rect15" />
  </clipPath>
  <filter
     id="e"
     height="1"
     width="1"
     x="0"
     y="0">
    <feColorMatrix
       in="SourceGraphic"
       type="matrix"
       values="0 0 0 0 1 0 0 0 0 1 0 0 0 0 1 0 0 0 1 0"
       id="feColorMatrix18" />
  </filter>
  <mask
     id="f">
    <g
       clip-path="url(#d)"
       filter="url(#e)"
       id="g85">
      <g
         clip-path="url(#c)"
         id="g83">
        <path
           d="m 12.300781 9 h 103.398438 c 1.828125 0 3.300781 1.472656 3.300781 3.300781 v 106.699219 s -78.328125 0 -110 0 c 0 0 0 -76.132812 0 -106.699219 c 0 -1.828125 1.472656 -3.300781 3.300781 -3.300781 z m 0 0"
           fill="url(#a)"
           id="path21" />
        <path
           d="m 16.058594 13 h 95.882812 c 1.695313 0 3.058594 1.363281 3.058594 3.058594 v 98.941406 h -102 v -98.941406 c 0 -1.695313 1.363281 -3.058594 3.058594 -3.058594 z m 0 0"
           fill="url(#b)"
           id="path23" />
        <path
           d="m 19.820312 17 h 88.359376 c 1.5625 0 2.820312 1.257812 2.820312 2.820312 v 91.179688 h -94 v -91.179688 c 0 -1.5625 1.257812 -2.820312 2.820312 -2.820312 z m 0 0"
           fill="#e2e2e2"
           id="path25" />
        <path
           d="m 59.992188 2 h 8.183593 c 5.824219 33 -3.175781 90 -3.175781 90 h -5.007812 c -0.085938 -30.910156 0 -90 0 -90 z m 0 0"
           fill="#242424"
           id="path27" />
        <path
           d="m 60 95 c 1.277344 -1.085938 3.410156 0 5.117188 0 l 1.277343 7.609375 h -7.675781 z m 0 0"
           fill="#515151"
           id="path29" />
        <path
           d="m 17 20 h 38 v 2 h -38 z m 0 0"
           fill="#c9c9c9"
           id="path31" />
        <path
           d="m 17 26 h 38 v 2 h -38 z m 0 0"
           fill="#c9c9c9"
           id="path33" />
        <path
           d="m 17 29 h 28 v 2 h -28 z m 0 0"
           fill="#c9c9c9"
           id="path35" />
        <path
           d="m 17 71 h 18 v 2 h -18 z m 0 0"
           fill="#c9c9c9"
           id="path37" />
        <path
           d="m 20 98 h 30 v 2 h -30 z m 0 0"
           fill="#c9c9c9"
           id="path39" />
        <path
           d="m 17 38 h 33 v 2 h -33 z m 0 0"
           fill="#c9c9c9"
           id="path41" />
        <path
           d="m 55 32 h -38 v 2 h 38 z m 0 0"
           fill="#c9c9c9"
           id="path43" />
        <path
           d="m 55 35 h -38 v 2 h 38 z m 0 0"
           fill="#c9c9c9"
           id="path45" />
        <path
           d="m 25 44 h 20 v 20 h -20 z m 0 0"
           fill="#a3a3a3"
           id="path47" />
        <path
           d="m 73 108 h 38 v -2 h -38 z m 0 0"
           fill="#c9c9c9"
           id="path49" />
        <path
           d="m 73 102 h 38 v -2 h -38 z m 0 0"
           fill="#c9c9c9"
           id="path51" />
        <path
           d="m 73 99 h 28 v -2 h -28 z m 0 0"
           fill="#c9c9c9"
           id="path53" />
        <path
           d="m 73 57 h 18 v -2 h -18 z m 0 0"
           fill="#c9c9c9"
           id="path55" />
        <path
           d="m 76 42 h 35 v -2 h -35 z m 0 0"
           fill="#c9c9c9"
           id="path57" />
        <path
           d="m 76 39 h 35 v -2 h -35 z m 0 0"
           fill="#c9c9c9"
           id="path59" />
        <path
           d="m 76 30 h 30 v -2 h -30 z m 0 0"
           fill="#c9c9c9"
           id="path61" />
        <path
           d="m 73 90 h 33 v -2 h -33 z m 0 0"
           fill="#c9c9c9"
           id="path63" />
        <path
           d="m 73 54 h 38 v -2 h -38 z m 0 0"
           fill="#c9c9c9"
           id="path65" />
        <path
           d="m 73 45 h 38 v -2 h -38 z m 0 0"
           fill="#c9c9c9"
           id="path67" />
        <path
           d="m 73 48 h 38 v -2 h -38 z m 0 0"
           fill="#c9c9c9"
           id="path69" />
        <path
           d="m 111 96 h -38 v -2 h 38 z m 0 0"
           fill="#c9c9c9"
           id="path71" />
        <path
           d="m 111 93 h -38 v -2 h 38 z m 0 0"
           fill="#c9c9c9"
           id="path73" />
        <path
           d="m 78 81 h 26 v -8 h -26 z m 0 0"
           fill="#a3a3a3"
           id="path75" />
        <path
           d="m 78 71 h 26 v -8 h -26 z m 0 0"
           fill="#a3a3a3"
           id="path77" />
        <path
           d="m 17.832031 85.726562 s 8.277344 -3.183593 12.582031 -2.726562 c 4.804688 0.511719 7.742188 4 12.585938 4 c 4.167969 0 10.832031 -3.179688 10.832031 -3.179688"
           fill="none"
           stroke="#c9c9c9"
           stroke-width="4.66879"
           id="path79" />
        <path
           d="m 17.832031 92.726562 s 8.277344 -3.183593 12.582031 -2.726562 c 4.804688 0.511719 7.742188 4 12.585938 4 c 4.167969 0 10.832031 -3.179688 10.832031 -3.179688"
           fill="none"
           stroke="#c9c9c9"
           stroke-width="4.66879"
           id="path81" />
      </g>
    </g>
  </mask>
  <mask
     id="g">
    <g
       filter="url(#e)"
       id="g90">
      <rect
         fill-opacity="0.8"
         height="128"
         width="128"
         id="rect88" />
    </g>
  </mask>
  <linearGradient
     id="h"
     gradientTransform="matrix(0 0.37 -0.98462 0 295.38501 -30.360001)"
     gradientUnits="userSpaceOnUse"
     x1="300"
     x2="428"
     y1="235"
     y2="235">
    <stop
       offset="0"
       stop-color="#f9f06b"
       id="stop93" />
    <stop
       offset="1"
       stop-color="#f5c211"
       id="stop95" />
  </linearGradient>
  <clipPath
     id="i">
    <rect
       height="128"
       width="128"
       id="rect98" />
  </clipPath>
  <clipPath
     id="j">
    <rect
       height="128"
       width="128"
       id="rect101" />
  </clipPath>
  <path
     d="m 12.300781 9 h 103.398438 c 1.828125 0 3.300781 1.472656 3.300781 3.300781 v 106.699219 s -78.328125 0 -110 0 c 0 0 0 -76.132812 0 -106.699219 c 0 -1.828125 1.472656 -3.300781 3.300781 -3.300781 z m 0 0"
     fill="url(#a)"
     id="path104" />
  <path
     d="m 16.058594 13 h 95.882812 c 1.695313 0 3.058594 1.363281 3.058594 3.058594 v 98.941406 h -102 v -98.941406 c 0 -1.695313 1.363281 -3.058594 3.058594 -3.058594 z m 0 0"
     fill="url(#b)"
     id="path106" />
  <path
     d="m 19.820312 17 h 88.359376 c 1.5625 0 2.820312 1.257812 2.820312 2.820312 v 91.179688 h -94 v -91.179688 c 0 -1.5625 1.257812 -2.820312 2.820312 -2.820312 z m 0 0"
     fill="#e2e2e2"
     id="path108" />
  <path
     d="m 17 20 h 38 v 2 h -38 z m 0 0"
     fill="#c9c9c9"
     id="path114" />
  <path
     d="m 17 26 h 38 v 2 h -38 z m 0 0"
     fill="#c9c9c9"
     id="path116" />
  <path
     d="m 17 29 h 28 v 2 h -28 z m 0 0"
     fill="#c9c9c9"
     id="path118" />
  <path
     d="m 17 71 h 18 v 2 h -18 z m 0 0"
     fill="#c9c9c9"
     id="path120" />
  <path
     d="m 20 98 h 30 v 2 h -30 z m 0 0"
     fill="#c9c9c9"
     id="path122" />
  <path
     d="m 17 38 h 33 v 2 h -33 z m 0 0"
     fill="#c9c9c9"
     id="path124" />
  <path
     d="m 55 32 h -38 v 2 h 38 z m 0 0"
     fill="#c9c9c9"
     id="path126" />
  <path
     d="m 55 35 h -38 v 2 h 38 z m 0 0"
     fill="#c9c9c9"
     id="path128" />
  <path
     d="m 25 44 h 20 v 20 h -20 z m 0 0"
     fill="#a3a3a3"
     id="path130" />
  <g
     fill="#c9c9c9"
     id="g158">
    <path
       d="m 73 108 h 38 v -2 h -38 z m 0 0"
       id="path132" />
    <path
       d="m 73 102 h 38 v -2 h -38 z m 0 0"
       id="path134" />
    <path
       d="m 73 99 h 28 v -2 h -28 z m 0 0"
       id="path136" />
    <path
       d="m 73 57 h 18 v -2 h -18 z m 0 0"
       id="path138" />
    <path
       d="m 76 42 h 35 v -2 h -35 z m 0 0"
       id="path140" />
    <path
       d="m 76 39 h 35 v -2 h -35 z m 0 0"
       id="path142" />
    <path
       d="m 76 30 h 30 v -2 h -30 z m 0 0"
       id="path144" />
    <path
       d="m 73 90 h 33 v -2 h -33 z m 0 0"
       id="path146" />
    <path
       d="m 73 54 h 38 v -2 h -38 z m 0 0"
       id="path148" />
    <path
       d="m 73 45 h 38 v -2 h -38 z m 0 0"
       id="path150" />
    <path
       d="m 73 48 h 38 v -2 h -38 z m 0 0"
       id="path152" />
    <path
       d="m 111 96 h -38 v -2 h 38 z m 0 0"
       id="path154" />
    <path
       d="m 111 93 h -38 v -2 h 38 z m 0 0"
       id="path156" />
  </g>
  <path
     d="m 78 81 h 26 v -8 h -26 z m 0 0"
     fill="#a3a3a3"
     id="path160" />
  <path
     d="m 78 71 h 26 v -8 h -26 z m 0 0"
     fill="#a3a3a3"
     id="path162" />
  <path
     d="m 17.832031 85.726562 s 8.277344 -3.183593 12.582031 -2.726562 c 4.804688 0.511719 7.742188 4 12.585938 4 c 4.167969 0 10.832031 -3.179688 10.832031 -3.179688"
     fill="none"
     stroke="#c9c9c9"
     stroke-width="4.66879"
     id="path164" />
  <path
     d="m 17.832031 92.726562 s 8.277344 -3.183593 12.582031 -2.726562 c 4.804688 0.511719 7.742188 4 12.585938 4 c 4.167969 0 10.832031 -3.179688 10.832031 -3.179688"
     fill="none"
     stroke="#c9c9c9"
     stroke-width="4.66879"
     id="path166" />
  <g
     clip-path="url(#j)"
     mask="url(#f)"
     id="g174">
    <g
       clip-path="url(#i)"
       mask="url(#g)"
       id="g172">
      <path
         d="m 128 80.640625 v 47.359375 h -128 v -47.359375 z m 0 0"
         fill="url(#h)"
         id="path168" />
      <path
         d="m 13.308594 80.640625 l 47.355468 47.359375 h 21.214844 l -47.359375 -47.359375 z m 42.421875 0 l 47.363281 47.359375 h 21.214844 l -47.363282 -47.359375 z m 42.429687 0 l 29.839844 29.839844 v -21.210938 l -8.628906 -8.628906 z m -98.160156 7.90625 v 21.214844 l 18.238281 18.238281 h 21.214844 z m 0 0"
         id="path170" />
    </g>
  </g>
  <g
     id="g999">
    <path
       d="m 59.992188 2 h 8.183593 c 5.824219 33 -3.175781 90 -3.175781 90 h -5.007812 c -0.085938 -30.910156 0 -90 0 -90 z m 0 0"
       fill="#242424"
       id="path110" />
    <path
       d="m 60 95 c 1.277344 -1.085938 3.410156 0 5.117188 0 l 1.277343 7.609375 h -7.675781 z m 0 0"
       fill="#515151"
       id="path112" />
  </g>
</svg>
