<?xml version="1.0" encoding="UTF-8"?>
<svg height="128px" viewBox="0 0 128 128" width="128px" xmlns="http://www.w3.org/2000/svg" xmlns:xlink="http://www.w3.org/1999/xlink">
    <linearGradient id="a" gradientUnits="userSpaceOnUse" x1="9.000005" x2="118.999992" y1="63.999996" y2="63.999996">
        <stop offset="0" stop-color="#151515"/>
        <stop offset="1" stop-color="#1e282e"/>
    </linearGradient>
    <linearGradient id="b" gradientUnits="userSpaceOnUse" x1="12.99999" x2="115" y1="63.999996" y2="63.999996">
        <stop offset="0" stop-color="#1e282e"/>
        <stop offset="1" stop-color="#5a6368"/>
    </linearGradient>
    <path d="m 12.300781 9 h 103.398438 c 1.828125 0 3.300781 1.472656 3.300781 3.300781 v 106.699219 s -78.328125 0 -110 0 c 0 0 0 -76.132812 0 -106.699219 c 0 -1.828125 1.472656 -3.300781 3.300781 -3.300781 z m 0 0" fill="url(#a)"/>
    <path d="m 16.058594 13 h 95.882812 c 1.695313 0 3.058594 1.363281 3.058594 3.058594 v 98.941406 h -102 v -98.941406 c 0 -1.695313 1.363281 -3.058594 3.058594 -3.058594 z m 0 0" fill="url(#b)"/>
    <path d="m 19.820312 17 h 88.359376 c 1.5625 0 2.820312 1.257812 2.820312 2.820312 v 91.179688 h -94 v -91.179688 c 0 -1.5625 1.257812 -2.820312 2.820312 -2.820312 z m 0 0" fill="#e2e2e2"/>
    <path d="m 59.992188 2 h 8.183593 c 5.824219 33 -3.175781 90 -3.175781 90 h -5.007812 c -0.085938 -30.910156 0 -90 0 -90 z m 0 0" fill="#242424"/>
    <path d="m 60 95 c 1.277344 -1.085938 3.410156 0 5.117188 0 l 1.277343 7.609375 h -7.675781 z m 0 0" fill="#515151"/>
    <path d="m 17 20 h 38 v 2 h -38 z m 0 0" fill="#c9c9c9"/>
    <path d="m 17 26 h 38 v 2 h -38 z m 0 0" fill="#c9c9c9"/>
    <path d="m 17 29 h 28 v 2 h -28 z m 0 0" fill="#c9c9c9"/>
    <path d="m 17 71 h 18 v 2 h -18 z m 0 0" fill="#c9c9c9"/>
    <path d="m 20 98 h 30 v 2 h -30 z m 0 0" fill="#c9c9c9"/>
    <path d="m 17 38 h 33 v 2 h -33 z m 0 0" fill="#c9c9c9"/>
    <path d="m 55 32 h -38 v 2 h 38 z m 0 0" fill="#c9c9c9"/>
    <path d="m 55 35 h -38 v 2 h 38 z m 0 0" fill="#c9c9c9"/>
    <path d="m 25 44 h 20 v 20 h -20 z m 0 0" fill="#a3a3a3"/>
    <g fill="#c9c9c9">
        <path d="m 73 108 h 38 v -2 h -38 z m 0 0"/>
        <path d="m 73 102 h 38 v -2 h -38 z m 0 0"/>
        <path d="m 73 99 h 28 v -2 h -28 z m 0 0"/>
        <path d="m 73 57 h 18 v -2 h -18 z m 0 0"/>
        <path d="m 76 42 h 35 v -2 h -35 z m 0 0"/>
        <path d="m 76 39 h 35 v -2 h -35 z m 0 0"/>
        <path d="m 76 30 h 30 v -2 h -30 z m 0 0"/>
        <path d="m 73 90 h 33 v -2 h -33 z m 0 0"/>
        <path d="m 73 54 h 38 v -2 h -38 z m 0 0"/>
        <path d="m 73 45 h 38 v -2 h -38 z m 0 0"/>
        <path d="m 73 48 h 38 v -2 h -38 z m 0 0"/>
        <path d="m 111 96 h -38 v -2 h 38 z m 0 0"/>
        <path d="m 111 93 h -38 v -2 h 38 z m 0 0"/>
    </g>
    <path d="m 78 81 h 26 v -8 h -26 z m 0 0" fill="#a3a3a3"/>
    <path d="m 78 71 h 26 v -8 h -26 z m 0 0" fill="#a3a3a3"/>
    <path d="m 17.832031 85.726562 s 8.277344 -3.183593 12.582031 -2.726562 c 4.804688 0.511719 7.742188 4 12.585938 4 c 4.167969 0 10.832031 -3.179688 10.832031 -3.179688" fill="none" stroke="#c9c9c9" stroke-width="4.66879"/>
    <path d="m 17.832031 92.726562 s 8.277344 -3.183593 12.582031 -2.726562 c 4.804688 0.511719 7.742188 4 12.585938 4 c 4.167969 0 10.832031 -3.179688 10.832031 -3.179688" fill="none" stroke="#c9c9c9" stroke-width="4.66879"/>
</svg>
