<?xml version="1.0" encoding="UTF-8" standalone="no"?>
<svg
   height="128px"
   viewBox="0 0 128 128"
   width="128px"
   version="1.1"
   id="svg76"
   xmlns:xlink="http://www.w3.org/1999/xlink"
   xmlns="http://www.w3.org/2000/svg"
   xmlns:svg="http://www.w3.org/2000/svg">
  <defs
     id="defs80">
    <linearGradient
       xlink:href="#a"
       id="linearGradient3593"
       x1="121.84935"
       y1="90.858627"
       x2="70.198143"
       y2="-17.608906"
       gradientUnits="userSpaceOnUse"
       gradientTransform="matrix(0.96803161,0,0,0.96803161,2.0459785,2.04598)" />
    <linearGradient
       id="linearGradient3637"
       gradientUnits="userSpaceOnUse"
       x1="9.0000048"
       x2="118.99999"
       y1="63.999996"
       y2="63.999996">
      <stop
         offset="0"
         stop-color="#151515"
         id="stop2-7" />
      <stop
         offset="1"
         stop-color="#1e282e"
         id="stop4-5" />
    </linearGradient>
    <linearGradient
       id="linearGradient930"
       gradientUnits="userSpaceOnUse"
       x1="12.99999"
       x2="115"
       y1="63.999996"
       y2="63.999996">
      <stop
         offset="0"
         stop-color="#1e282e"
         id="stop7-3" />
      <stop
         offset="1"
         stop-color="#5a6368"
         id="stop9-6" />
    </linearGradient>
    <filter
       style="color-interpolation-filters:sRGB;"
       id="filter3642"
       x="-0.080000002"
       y="-0.080000002"
       width="1.16"
       height="1.16">
      <feFlood
         flood-opacity="1"
         flood-color="rgb(18,18,18)"
         result="flood"
         id="feFlood3632" />
      <feComposite
         in="flood"
         in2="SourceGraphic"
         operator="in"
         result="composite1"
         id="feComposite3634" />
      <feGaussianBlur
         in="composite1"
         stdDeviation="3.4"
         result="blur"
         id="feGaussianBlur3636" />
      <feOffset
         dx="-1.94289e-16"
         dy="1.38778e-16"
         result="offset"
         id="feOffset3638" />
      <feComposite
         in="SourceGraphic"
         in2="offset"
         operator="over"
         result="composite2"
         id="feComposite3640" />
    </filter>
    <filter
       style="color-interpolation-filters:sRGB"
       id="filter3642-3"
       x="-0.080000002"
       y="-0.080000002"
       width="1.16"
       height="1.16">
      <feFlood
         flood-opacity="1"
         flood-color="rgb(18,18,18)"
         result="flood"
         id="feFlood3632-5" />
      <feComposite
         in="flood"
         in2="SourceGraphic"
         operator="in"
         result="composite1"
         id="feComposite3634-6" />
      <feGaussianBlur
         in="composite1"
         stdDeviation="3.4"
         result="blur"
         id="feGaussianBlur3636-2" />
      <feOffset
         dx="-1.94289e-16"
         dy="1.38778e-16"
         result="offset"
         id="feOffset3638-9" />
      <feComposite
         in="SourceGraphic"
         in2="offset"
         operator="over"
         result="composite2"
         id="feComposite3640-1" />
    </filter>
    <linearGradient
       id="linearGradient18408"
       gradientUnits="userSpaceOnUse"
       x1="9.0000048"
       x2="118.99999"
       y1="63.999996"
       y2="63.999996">
      <stop
         offset="0"
         stop-color="#151515"
         id="stop2-70" />
      <stop
         offset="1"
         stop-color="#1e282e"
         id="stop4-9"
         style="stop-color:#454e54;stop-opacity:1" />
    </linearGradient>
  </defs>
  <linearGradient
     id="a"
     gradientUnits="userSpaceOnUse"
     x1="9.000005"
     x2="118.999992"
     y1="63.999996"
     y2="63.999996">
    <stop
       offset="0"
       stop-color="#151515"
       id="stop2" />
    <stop
       offset="1"
       stop-color="#1e282e"
       id="stop4"
       style="stop-color:#454e54;stop-opacity:1" />
  </linearGradient>
  <linearGradient
     id="b"
     gradientUnits="userSpaceOnUse"
     x1="12.99999"
     x2="115"
     y1="63.999996"
     y2="63.999996">
    <stop
       offset="0"
       stop-color="#1e282e"
       id="stop7" />
    <stop
       offset="1"
       stop-color="#5a6368"
       id="stop9" />
  </linearGradient>
  <path
     id="rect3468"
     style="fill:url(#linearGradient3593);fill-opacity:1;stroke:none;stroke-width:1.02084"
     d="M 15.000001,7.85417 H 113 c 3.95879,0 7.14583,3.187042 7.14583,7.145833 0,35.048611 0,70.097227 0,105.145827 H 7.8541685 c 0,-35.0486 0,-70.097216 0,-105.145827 0,-3.958791 3.1870415,-7.145833 7.1458325,-7.145833 z" />
  <path
     id="rect3468-3"
     style="fill:#ffffff;stroke-width:0.927277;filter:url(#filter3642)"
     d="M 19.490909,13 H 108.50909 C 112.10505,13 115,15.894945 115,19.490909 V 115 H 13 C 13,83.163636 13,51.327273 13,19.490909 13,15.894945 15.894945,13 19.490909,13 Z" />
  <g
     id="g18223">
    <g
       fill="#c9c9c9"
       id="g66"
       style="fill:#dddddd;fill-opacity:1">
      <path
         d="m 73 108 h 38 v -2 h -38 z m 0 0"
         id="path40"
         style="fill:#dddddd;fill-opacity:1" />
      <path
         d="m 73 102 h 38 v -2 h -38 z m 0 0"
         id="path42"
         style="fill:#dddddd;fill-opacity:1" />
      <path
         d="m 73 99 h 28 v -2 h -28 z m 0 0"
         id="path44"
         style="fill:#dddddd;fill-opacity:1" />
      <path
         d="m 73 57 h 18 v -2 h -18 z m 0 0"
         id="path46"
         style="fill:#dddddd;fill-opacity:1" />
      <path
         d="m 76 42 h 35 v -2 h -35 z m 0 0"
         id="path48"
         style="fill:#dddddd;fill-opacity:1" />
      <path
         d="m 76 39 h 35 v -2 h -35 z m 0 0"
         id="path50"
         style="fill:#dddddd;fill-opacity:1" />
      <path
         d="m 76 30 h 30 v -2 h -30 z m 0 0"
         id="path52"
         style="fill:#dddddd;fill-opacity:1" />
      <path
         d="m 73 90 h 33 v -2 h -33 z m 0 0"
         id="path54"
         style="fill:#dddddd;fill-opacity:1" />
      <path
         d="m 73 54 h 38 v -2 h -38 z m 0 0"
         id="path56"
         style="fill:#dddddd;fill-opacity:1" />
      <path
         d="m 73 45 h 38 v -2 h -38 z m 0 0"
         id="path58"
         style="fill:#dddddd;fill-opacity:1" />
      <path
         d="m 73 48 h 38 v -2 h -38 z m 0 0"
         id="path60"
         style="fill:#dddddd;fill-opacity:1" />
      <path
         d="m 111 96 h -38 v -2 h 38 z m 0 0"
         id="path62"
         style="fill:#dddddd;fill-opacity:1" />
      <path
         d="m 111 93 h -38 v -2 h 38 z m 0 0"
         id="path64"
         style="fill:#dddddd;fill-opacity:1" />
    </g>
    <path
       d="m 78 81 h 26 v -8 h -26 z m 0 0"
       fill="#a3a3a3"
       id="path68"
       style="fill:#b8b7b7;fill-opacity:1" />
    <path
       d="m 78 71 h 26 v -8 h -26 z m 0 0"
       fill="#a3a3a3"
       id="path70"
       style="fill:#b8b7b7;fill-opacity:1" />
  </g>
  <g
     id="g18205">
    <path
       d="m 17 20 h 38 v 2 h -38 z m 0 0"
       fill="#c9c9c9"
       id="path22"
       style="fill:#dddddd;fill-opacity:1" />
    <path
       d="m 17 26 h 38 v 2 h -38 z m 0 0"
       fill="#c9c9c9"
       id="path24"
       style="fill:#dddddd;fill-opacity:1" />
    <path
       d="m 17 29 h 28 v 2 h -28 z m 0 0"
       fill="#c9c9c9"
       id="path26"
       style="fill:#dddddd;fill-opacity:1" />
    <path
       d="m 17 71 h 18 v 2 h -18 z m 0 0"
       fill="#c9c9c9"
       id="path28"
       style="fill:#dddddd;fill-opacity:1" />
    <path
       d="m 20 98 h 30 v 2 h -30 z m 0 0"
       fill="#c9c9c9"
       id="path30"
       style="fill:#dddddd;fill-opacity:1" />
    <path
       d="m 17 38 h 33 v 2 h -33 z m 0 0"
       fill="#c9c9c9"
       id="path32"
       style="fill:#dddddd;fill-opacity:1" />
    <path
       d="m 55 32 h -38 v 2 h 38 z m 0 0"
       fill="#c9c9c9"
       id="path34"
       style="fill:#dddddd;fill-opacity:1" />
    <path
       d="m 55 35 h -38 v 2 h 38 z m 0 0"
       fill="#c9c9c9"
       id="path36"
       style="fill:#dddddd;fill-opacity:1" />
    <path
       d="m 25 44 h 20 v 20 h -20 z m 0 0"
       fill="#a3a3a3"
       id="path38"
       style="fill:#b8b7b7;fill-opacity:1;stroke:none;stroke-opacity:1" />
    <path
       d="m 17.832031 85.726562 s 8.277344 -3.183593 12.582031 -2.726562 c 4.804688 0.511719 7.742188 4 12.585938 4 c 4.167969 0 10.832031 -3.179688 10.832031 -3.179688"
       fill="none"
       stroke="#c9c9c9"
       stroke-width="4.66879"
       id="path72"
       style="fill:none;fill-opacity:1;stroke:#b8b7b7;stroke-opacity:1" />
    <path
       d="m 17.832031 92.726562 s 8.277344 -3.183593 12.582031 -2.726562 c 4.804688 0.511719 7.742188 4 12.585938 4 c 4.167969 0 10.832031 -3.179688 10.832031 -3.179688"
       fill="none"
       stroke="#c9c9c9"
       stroke-width="4.66879"
       id="path74"
       style="fill:none;fill-opacity:1;stroke:#b8b7b7;stroke-opacity:1" />
  </g>
  <g
     id="g1769"
     transform="matrix(0.95703599,-0.28596362,0.26385324,0.99192689,-19.802357,8.510725)">
    <path
       d="m 65.056588,16.236601 7.741278,0.67915 C 75.568652,48.615483 62.324713,101.78779 62.324713,101.78779 l -4.737145,-0.41559 c 2.483911,-29.246629 7.46902,-85.135599 7.46902,-85.135599 z m 0,0"
       fill="#242424"
       id="path18"
       style="fill:#2b2b2b;fill-opacity:1;stroke-width:0.949584" />
    <path
       d="m 57.34599,104.2107 c 1.298426,-0.92124 3.225841,0.28301 4.84061,0.42467 l 0.576808,7.30411 -7.260913,-0.63701 z m 0,0"
       fill="#515151"
       id="path20"
       style="stroke-width:0.949584" />
  </g>
</svg>
