<?xml version="1.0" encoding="UTF-8"?>
<svg height="16px" viewBox="0 0 16 16" width="16px" xmlns="http://www.w3.org/2000/svg">
    <g fill="#2e3436">
        <path d="m 7 15 c 0 -0.550781 -0.449219 -1 -1 -1 h -4 v -4 c 0 -0.550781 -0.449219 -1 -1 -1 c -0.554688 0 -1 0.449219 -1 1 v 5 c 0 0.554688 0.445312 1 1 1 h 5 c 0.550781 0 1 -0.445312 1 -1 z m 0 0"/>
        <path d="m 7.5 9.5 c 0 -0.265625 -0.105469 -0.519531 -0.292969 -0.707031 c -0.390625 -0.390625 -1.023437 -0.390625 -1.414062 0 l -5.5 5.5 c -0.1875 0.1875 -0.292969 0.441406 -0.292969 0.707031 s 0.105469 0.519531 0.292969 0.707031 c 0.390625 0.390625 1.023437 0.390625 1.414062 0 l 5.5 -5.5 c 0.1875 -0.1875 0.292969 -0.441406 0.292969 -0.707031 z m 0 0"/>
        <path d="m 0 15 h 1 v 1 h -1 z m 0 0"/>
        <path d="m 0 9 h 1 v 1 h -1 z m 0 0"/>
        <path d="m 6 15 h 1 v 1 h -1 z m 0 0"/>
        <path d="m 9 1 c 0 0.550781 0.449219 1 1 1 h 4 v 4 c 0 0.550781 0.449219 1 1 1 c 0.554688 0 1 -0.449219 1 -1 v -5 c 0 -0.554688 -0.445312 -1 -1 -1 h -5 c -0.550781 0 -1 0.445312 -1 1 z m 0 0"/>
        <path d="m 8.5 6.5 c 0 0.265625 0.105469 0.519531 0.292969 0.707031 c 0.390625 0.390625 1.023437 0.390625 1.414062 0 l 5.5 -5.5 c 0.1875 -0.1875 0.292969 -0.441406 0.292969 -0.707031 s -0.105469 -0.519531 -0.292969 -0.707031 c -0.390625 -0.3906252 -1.023437 -0.3906252 -1.414062 0 l -5.5 5.5 c -0.1875 0.1875 -0.292969 0.441406 -0.292969 0.707031 z m 0 0"/>
        <path d="m 16 1 h -1 v -1 h 1 z m 0 0"/>
        <path d="m 16 7 h -1 v -1 h 1 z m 0 0"/>
        <path d="m 10 1 h -1 v -1 h 1 z m 0 0"/>
    </g>
</svg>
