<?xml version="1.0" encoding="UTF-8"?>
<svg width="16" height="16" fill="#bebebe" version="1.1" xmlns="http://www.w3.org/2000/svg"><path d="m11 0v5.5l3.5 1 1.5-4c-2 0-1-2.5-5-2.5zm-9 0.17v0.33c3.66 1.46 0 9 0 12 0 6.1 4.05 1 4.05 1v-1s-1.83 3.07-2.37-0.26c-0.91-5.6 6.79-12.07-1.68-12.07zm8.72 6.39c-0.96 0.07-1.86 0.61-2.38 1.5-0.39 0.69-0.51 1.44-0.34 2.16 0.17 0.74 0.9 1.6-0.31 3.9-0.01 0.01-0.02 0.03-0.03 0.04-0.09 0.09-0.16 0.2-0.16 0.34 0 0.28 0.22 0.5 0.5 0.5 1.44-0.72 3.17-1.32 4.28-2.4 0.56-0.57 1.01-1.12 1.25-1.54 0.83-1.43 0.34-3.26-1.09-4.09-0.54-0.31-1.14-0.45-1.72-0.41z"/></svg>
