<?xml version="1.0" encoding="UTF-8" standalone="no"?>
<svg
   height="16px"
   viewBox="0 0 16 16"
   width="16px"
   version="1.1"
   id="svg16"
   xmlns="http://www.w3.org/2000/svg"
   xmlns:svg="http://www.w3.org/2000/svg">
  <defs
     id="defs20" />
  <path
     id="path1179"
     style="fill:#2e3436;stroke-width:1.09091"
     d="M 14,2 V 6.3636364 H 11.818182 V 4.1818182 H 9.6363636 V 2 Z M 4.181818,9.6363636 V 11.818182 H 6.3636364 V 14 H 2 V 9.6363636 Z" />
  <g
     id="g1070"
     transform="matrix(-1,0,0,1,15,-1)">
    <path
       d="M 9,2 C 8.449219,2 8,2.449219 8,3 8,3.550781 8.449219,4 9,4 h 3 v 3 c 0,0.550781 0.449219,1 1,1 0.550781,0 1,-0.449219 1,-1 V 3 C 14,2.449219 13.550781,2 13,2 Z m 0,0"
       id="path1176"
       style="fill:#2e3436" />
    <path
       d="m 13,2 h 1 v 1 h -1 z m 0,0"
       id="path1173"
       style="fill:#2e3436" />
    <path
       d="m 12.292969,2.289062 -4.5,4.46875 c -0.390625,0.390626 -0.390625,1.027344 0,1.414063 0.390625,0.394531 1.023437,0.394531 1.414062,0.00781 l 4.5,-4.46875 c 0.390625,-0.390626 0.390625,-1.027344 0,-1.414063 C 13.320312,1.902344 12.6875,1.902344 12.292969,2.289062 Z m 0,0"
       id="path1170"
       style="fill:#2e3436" />
    <path
       d="m 13,7 h 1 v 1 h -1 z m 0,0"
       id="path1167"
       style="fill:#2e3436" />
    <path
       d="M 8,2 H 9 V 3 H 8 Z m 0,0"
       id="path1164"
       style="fill:#2e3436" />
  </g>
  <g
     id="g1061"
     transform="matrix(-1,0,0,1,17.175018,1.001045)">
    <path
       d="m 7.1750178,13.998955 c 0.550781,0 1,-0.449219 1,-1 0,-0.550781 -0.449219,-1 -1,-1 h -3 V 8.9989554 c 0,-0.550781 -0.449219,-1 -1,-1 -0.550781,0 -1,0.449219 -1,1 v 3.9999996 c 0,0.550781 0.449219,1 1,1 z m 0,0"
       id="path1161"
       style="fill:#2e3436" />
    <path
       d="m 3.1750178,13.998955 h -1 v -1 h 1 z m 0,0"
       id="path1158"
       style="fill:#2e3436" />
    <path
       d="m 3.8820488,13.709893 4.5,-4.4687496 c 0.390625,-0.390626 0.390625,-1.027344 0,-1.414063 -0.390625,-0.394531 -1.023437,-0.394531 -1.414062,-0.0078 l -4.5,4.4687496 c -0.390625,0.390626 -0.390625,1.027344 0,1.414063 0.386719,0.394528 1.019531,0.394528 1.414062,0.0078 z m 0,0"
       id="path1155"
       style="fill:#2e3436" />
    <path
       d="m 3.1750178,8.9989554 h -1 v -1 h 1 z m 0,0"
       id="path1152"
       style="fill:#2e3436" />
    <path
       d="m 8.1750178,13.998955 h -1 v -1 h 1 z m 0,0"
       id="path1149"
       style="fill:#2e3436" />
  </g>
</svg>
