<?xml version="1.0" encoding="UTF-8" standalone="no"?>
<!-- Created with Inkscape (http://www.inkscape.org/) -->

<svg
   width="16"
   height="16"
   id="svg5594"
   version="1.1"
   xmlns="http://www.w3.org/2000/svg"
   xmlns:svg="http://www.w3.org/2000/svg"
   xmlns:rdf="http://www.w3.org/1999/02/22-rdf-syntax-ns#"
   xmlns:cc="http://creativecommons.org/ns#"
   xmlns:dc="http://purl.org/dc/elements/1.1/">
  <defs
     id="defs5596" />
  <metadata
     id="metadata5599">
    <rdf:RDF>
      <cc:Work
         rdf:about="">
        <dc:format>image/svg+xml</dc:format>
        <dc:type
           rdf:resource="http://purl.org/dc/dcmitype/StillImage" />
      </cc:Work>
    </rdf:RDF>
  </metadata>
  <path
     d="M 3.2317869,0.58277917 A 2.655365,2.655365 0 0 0 0.58277907,3.2317866 v 9.5364264 c 0,1.458014 1.19099373,2.649008 2.64900783,2.649008 h 9.5364261 c 1.458014,0 2.649008,-1.190994 2.649008,-2.649008 V 3.2317866 c 0,-1.4580137 -1.190994,-2.64900743 -2.649008,-2.64900743 z m 0,1.05960293 h 9.5364261 c 0.890066,0 1.589405,0.6993379 1.589405,1.5894045 v 9.5364264 c 0,0.890066 -0.699339,1.589405 -1.589405,1.589405 H 3.2317869 c -0.8900666,0 -1.5894049,-0.699339 -1.5894049,-1.589405 V 3.2317866 c 0,-0.8900666 0.6993383,-1.5894045 1.5894049,-1.5894045 z"
     style="fill:#3f3f3f;fill-opacity:1;stroke:#00000000;stroke-width:0.566;stroke-miterlimit:4;stroke-dasharray:none;stroke-opacity:1"
     id="path824-3" />
</svg>
