<?xml version="1.0" encoding="UTF-8" standalone="no"?>
<!-- Created with Inkscape (http://www.inkscape.org/) -->

<svg
   width="100"
   height="100"
   viewBox="0 0 26.458333 26.458333"
   version="1.1"
   id="svg5"
   xmlns="http://www.w3.org/2000/svg"
   xmlns:svg="http://www.w3.org/2000/svg">
  <defs
     id="defs2" />
  <g
     id="g924"
     transform="matrix(0.89866171,0,0,0.89866171,1.3403285,0.72755533)">
    <g
       fill="#2e3436"
       id="g952"
       transform="matrix(0.91056928,0,0,0.91056928,5.9446122,7.2710855)"
       style="fill:#bebebe;fill-opacity:1">
      <path
         d="m 7.78125,0.996094 -3.03125,3 H 7 v 2 h 2 v -2 h 2.25 l -3.03125,-3 z m 0,0"
         id="path950"
         style="fill:#bebebe;fill-opacity:1" />
      <path
         d="m 1,6.996094 h 14 v 2 H 1 Z m 0,0"
         id="path947"
         style="fill:#bebebe;fill-opacity:1" />
      <path
         d="m 7.78125,14.996094 -3.03125,-3 H 7 v -2 h 2 v 2 h 2.25 l -3.03125,3 z m 0,0"
         id="path943"
         style="fill:#bebebe;fill-opacity:1" />
    </g>
    <path
       style="color:#000000;fill:#bebebe;stroke-width:0.877232;stroke-dasharray:5.08795, 2.54397;stroke-dashoffset:2.54397;-inkscape-stroke:none"
       d="m 0,4.0824961 v 2.231957 h 2.9003906 v -2.231957 z m 5.8007812,0 v 2.231957 h 5.7988278 v -2.231957 z m 8.6992188,0 v 2.231957 h 5.800781 v -2.231957 z m 8.699219,0 v 2.231957 h 3.259765 v -2.231957 z"
       id="path940" />
    <path
       style="color:#000000;fill:#bebebe;stroke-dashoffset:1;-inkscape-stroke:none"
       d="m 0,22.740234 v 1 h 26.458984 v -1 z"
       id="path937" />
  </g>
</svg>
