<?xml version="1.0" encoding="UTF-8" standalone="no"?>
<!-- Created with Inkscape (http://www.inkscape.org/) -->

<svg
   width="100"
   height="100"
   viewBox="0 0 26.458333 26.458333"
   version="1.1"
   id="svg5"
   xmlns="http://www.w3.org/2000/svg"
   xmlns:svg="http://www.w3.org/2000/svg">
  <defs
     id="defs2" />
  <path
     style="color:#000000;fill:#bebebe;fill-opacity:0.332902;-inkscape-stroke:none"
     d="m 13.228516,1.1953125 c -6.6409787,0 -12.0332035,5.3922248 -12.0332035,12.0332035 0,6.640978 5.3922248,12.035156 12.0332035,12.035156 6.640978,0 12.035156,-5.394178 12.035156,-12.035156 0,-6.6409787 -5.394178,-12.0332035 -12.035156,-12.0332035 z m 0,0.9003906 c 6.154582,0 11.134765,4.9782298 11.134765,11.1328129 0,6.154582 -4.980183,11.134765 -11.134765,11.134765 -6.1545831,0 -11.1328129,-4.980183 -11.1328129,-11.134765 0,-6.1545831 4.9782298,-11.1328129 11.1328129,-11.1328129 z"
     id="circle2" />
  <path
     style="color:#000000;fill:#bebebe;fill-opacity:0.549847;-inkscape-stroke:none"
     d="M 13.228516,3.125 C 7.6538336,3.125 3.125,7.6538336 3.125,13.228516 c 0,5.574682 4.5288336,10.103515 10.103516,10.103515 5.574682,0 10.103515,-4.528833 10.103515,-10.103515 C 23.332031,7.6538336 18.803198,3.125 13.228516,3.125 Z m 0,0.9003906 c 5.088286,0 9.205078,4.1148386 9.205078,9.2031254 0,5.088286 -4.116792,9.205078 -9.205078,9.205078 -5.0882868,0 -9.2031254,-4.116792 -9.2031254,-9.205078 0,-5.0882868 4.1148386,-9.2031254 9.2031254,-9.2031254 z"
     id="circle4" />
  <path
     style="color:#000000;fill:#bebebe;fill-opacity:0.868729;-inkscape-stroke:none"
     d="m 13.228516,5.0566406 c -4.5083853,0 -8.1718754,3.6634901 -8.1718754,8.1718754 0,4.508385 3.6634901,8.173828 8.1718754,8.173828 4.508385,0 8.173828,-3.665443 8.173828,-8.173828 0,-4.5083853 -3.665443,-8.1718754 -8.173828,-8.1718754 z m 0,0.9003906 c 4.021989,0 7.273437,3.2494951 7.273437,7.2714848 0,4.021989 -3.251448,7.273437 -7.273437,7.273437 -4.0219897,0 -7.2714848,-3.251448 -7.2714848,-7.273437 0,-4.0219897 3.2494951,-7.2714848 7.2714848,-7.2714848 z"
     id="circle6" />
  <path
     style="color:#000000;fill:#bebebe;-inkscape-stroke:none"
     d="m 13.228516,6.9863281 c -3.4420885,0 -6.2421879,2.8000994 -6.2421879,6.2421879 0,3.442088 2.8000994,6.242187 6.2421879,6.242187 3.442088,0 6.242187,-2.800099 6.242187,-6.242187 0,-3.4420885 -2.800099,-6.2421879 -6.242187,-6.2421879 z m 0,0.9003906 c 2.955692,0 5.341796,2.3861043 5.341796,5.3417973 0,2.955692 -2.386104,5.341797 -5.341796,5.341796 -2.955693,0 -5.3417972,-2.386104 -5.3417973,-5.341796 0,-2.955693 2.3861043,-5.3417973 5.3417973,-5.3417973 z"
     id="circle8" />
</svg>
