<?xml version="1.0" encoding="UTF-8" standalone="no"?>
<svg
   width="16"
   height="16"
   fill="#bebebe"
   version="1.1"
   id="svg6"
   xmlns="http://www.w3.org/2000/svg"
   xmlns:svg="http://www.w3.org/2000/svg">
  <defs
     id="defs10" />
  <g
     id="g8792"
     transform="matrix(0.84674745,0,0,0.84674745,1.2260204,1.2260203)">
    <g
       id="g829"
       transform="matrix(0.46185731,0,0,0.46185731,5.7859895,5.226972)">
      <path
         d="m 2,7 v 8 H 12 V 7 Z"
         id="path2" />
      <path
         d="M 7,1 C 4.5,1 3,2.5 3,5 V 8 H 5 V 5 C 5,4 5.5,3 7,3 8.5,3 9,4 9,5 v 3 h 2 V 5 C 11,2.5 9.5,1 7,1 Z"
         id="path4" />
    </g>
    <path
       style="color:#000000;fill:#bebebe;-inkscape-stroke:none"
       d="M 3.8847656,0.94921875 V 1.3496094 13.75 H 13.685547 V 0.94921875 Z M 4.6855469,1.75 H 12.884766 V 12.949219 H 4.6855469 Z"
       id="rect3326" />
    <path
       style="color:#000000;fill:#bebebe;stroke-dasharray:2.22197, 2.22197;-inkscape-stroke:none"
       d="M 1.2851562,3.9804688 V 4.3496094 H 0.9140625 V 6.3554687 H 1.65625 V 4.7207031 H 3.5078125 V 3.9804688 Z m 4.4433594,0 V 4.7207031 H 7.9511719 V 3.9804688 Z m 4.4453124,0 v 0.7402343 h 2.220703 V 3.9804688 Z m 2.740235,1.7011718 V 7.9042969 H 13.65625 V 5.6816406 Z M 0.9140625,8.5761719 V 10.798828 H 1.65625 V 8.5761719 Z M 12.914063,10.125 v 2.222656 H 13.65625 V 10.125 Z m -11.6289068,2.855469 0.039063,0.03906 H 0.9140625 v 0.701172 h 2.2636719 v -0.740234 z m 4.1152344,0 v 0.740234 h 2.2207031 v -0.740234 z m 4.4433594,0 v 0.740234 h 2.222656 v -0.740234 z"
       id="rect3432" />
    <path
       style="color:#000000;fill:#bebebe;-inkscape-stroke:none"
       d="m 4.0859375,14.150391 v 0.90039 h 9.3984375 v -0.90039 h -0.398437 v 0.5 H 4.484375 v -0.5 z"
       id="path5912" />
    <path
       style="color:#000000;fill:#bebebe;-inkscape-stroke:none"
       d="m 14.185547,1.1503906 v 0.4003906 h 0.5 V 13.150391 h -0.5 v 0.40039 h 0.900391 V 1.1503906 Z"
       id="path5912-3" />
  </g>
</svg>
