<?xml version="1.0" encoding="UTF-8" standalone="no"?>
<svg
   width="16"
   height="16"
   version="1.1"
   id="svg4"
   xmlns="http://www.w3.org/2000/svg"
   xmlns:svg="http://www.w3.org/2000/svg">
  <defs
     id="defs8" />
  <path
     d="M 8,3.520945 A 4.4751987,4.4751987 0 0 0 3.520945,8 4.4751987,4.4751987 0 0 0 8,12.479055 4.4751987,4.4751987 0 0 0 12.479055,8 4.4751987,4.4751987 0 0 0 8,3.520945 Z M 6.0718661,6.0718661 h 0.6626354 c 0.1638913,0.00707 0.3277827,0.08291 0.4421853,0.2011687 L 8,7.0957052 8.8432372,6.2730348 C 9.0141984,6.1245685 9.1305292,6.0763651 9.2854226,6.0718661 h 0.6427113 v 0.6427113 c 0,0.1838154 -0.021852,0.3534912 -0.1606779,0.4820335 L 8.9441429,8.0199241 9.747532,8.8233132 C 9.8683617,8.9441429 9.9281339,9.1151041 9.9281339,9.2854226 V 9.9281339 H 9.2854226 c -0.1703185,0 -0.340637,-0.059772 -0.4621094,-0.1806019 L 8,8.9242188 7.1766868,9.7468893 A 0.65235196,0.65235196 0 0 1 6.7145774,9.9281339 H 6.0718661 V 9.2854226 c 0,-0.1703185 0.059772,-0.340637 0.1806019,-0.4621094 L 7.0757812,8.0199241 6.2531107,7.1966109 A 0.58422456,0.58422456 0 0 1 6.0718661,6.7145774 Z"
     style="line-height:normal;-inkscape-font-specification:'Andale Mono';text-indent:0;text-align:start;text-decoration-line:none;text-transform:none;stroke-width:0.642711;marker:none"
     color="#bebebe"
     font-weight="400"
     font-family="'Andale Mono'"
     overflow="visible"
     fill="#474747"
     id="path2" />
</svg>
