<svg xmlns="http://www.w3.org/2000/svg" width="16" height="16"><path d="M8 1.031A6.963 6.963 0 001.031 8 6.963 6.963 0 008 14.969 6.963 6.963 0 0014.969 8 6.963 6.963 0 008 1.031zM5 5h1.031c.255.011.51.129.688.313L8 6.593l1.312-1.28c.266-.231.447-.306.688-.313h1v1c0 .286-.034.55-.25.75L9.469 8.031l1.25 1.25c.188.188.281.454.281.719v1h-1c-.265 0-.53-.093-.719-.281L8 9.438l-1.281 1.28A1.015 1.015 0 016 11H5v-1c0-.265.093-.53.281-.719l1.281-1.25-1.28-1.281A.909.909 0 015 6z" style="line-height:normal;-inkscape-font-specification:'Andale Mono';text-indent:0;text-align:start;text-decoration-line:none;text-transform:none;marker:none" color="#bebebe" font-weight="400" font-family="Andale Mono" overflow="visible" fill="#474747"/></svg>