<?xml version="1.0" encoding="UTF-8" standalone="no"?>
<svg
   height="16px"
   viewBox="0 0 16 16"
   width="16px"
   version="1.1"
   id="svg2971"
   xmlns="http://www.w3.org/2000/svg"
   xmlns:svg="http://www.w3.org/2000/svg">
  <defs
     id="defs2975" />
  <filter
     id="a"
     height="1"
     width="1"
     x="0"
     y="0">
    <feColorMatrix
       in="SourceGraphic"
       type="matrix"
       values="0 0 0 0 1 0 0 0 0 1 0 0 0 0 1 0 0 0 1 0"
       id="feColorMatrix2810" />
  </filter>
  <mask
     id="b">
    <g
       filter="url(#a)"
       id="g2815">
      <path
         d="m 0 0 h 16 v 16 h -16 z"
         fill-opacity="0.3"
         id="path2813" />
    </g>
  </mask>
  <clipPath
     id="c">
    <path
       d="m 0 0 h 1024 v 800 h -1024 z"
       id="path2818" />
  </clipPath>
  <mask
     id="d">
    <g
       filter="url(#a)"
       id="g2823">
      <path
         d="m 0 0 h 16 v 16 h -16 z"
         fill-opacity="0.05"
         id="path2821" />
    </g>
  </mask>
  <clipPath
     id="e">
    <path
       d="m 0 0 h 1024 v 800 h -1024 z"
       id="path2826" />
  </clipPath>
  <mask
     id="f">
    <g
       filter="url(#a)"
       id="g2831">
      <path
         d="m 0 0 h 16 v 16 h -16 z"
         fill-opacity="0.05"
         id="path2829" />
    </g>
  </mask>
  <clipPath
     id="g">
    <path
       d="m 0 0 h 1024 v 800 h -1024 z"
       id="path2834" />
  </clipPath>
  <mask
     id="h">
    <g
       filter="url(#a)"
       id="g2839">
      <path
         d="m 0 0 h 16 v 16 h -16 z"
         fill-opacity="0.05"
         id="path2837" />
    </g>
  </mask>
  <clipPath
     id="i">
    <path
       d="m 0 0 h 1024 v 800 h -1024 z"
       id="path2842" />
  </clipPath>
  <mask
     id="j">
    <g
       filter="url(#a)"
       id="g2847">
      <path
         d="m 0 0 h 16 v 16 h -16 z"
         fill-opacity="0.05"
         id="path2845" />
    </g>
  </mask>
  <clipPath
     id="k">
    <path
       d="m 0 0 h 1024 v 800 h -1024 z"
       id="path2850" />
  </clipPath>
  <mask
     id="l">
    <g
       filter="url(#a)"
       id="g2855">
      <path
         d="m 0 0 h 16 v 16 h -16 z"
         fill-opacity="0.05"
         id="path2853" />
    </g>
  </mask>
  <clipPath
     id="m">
    <path
       d="m 0 0 h 1024 v 800 h -1024 z"
       id="path2858" />
  </clipPath>
  <mask
     id="n">
    <g
       filter="url(#a)"
       id="g2863">
      <path
         d="m 0 0 h 16 v 16 h -16 z"
         fill-opacity="0.05"
         id="path2861" />
    </g>
  </mask>
  <clipPath
     id="o">
    <path
       d="m 0 0 h 1024 v 800 h -1024 z"
       id="path2866" />
  </clipPath>
  <mask
     id="p">
    <g
       filter="url(#a)"
       id="g2871">
      <path
         d="m 0 0 h 16 v 16 h -16 z"
         fill-opacity="0.3"
         id="path2869" />
    </g>
  </mask>
  <clipPath
     id="q">
    <path
       d="m 0 0 h 1024 v 800 h -1024 z"
       id="path2874" />
  </clipPath>
  <mask
     id="r">
    <g
       filter="url(#a)"
       id="g2879">
      <path
         d="m 0 0 h 16 v 16 h -16 z"
         fill-opacity="0.5"
         id="path2877" />
    </g>
  </mask>
  <clipPath
     id="s">
    <path
       d="m 0 0 h 1024 v 800 h -1024 z"
       id="path2882" />
  </clipPath>
  <mask
     id="t">
    <g
       filter="url(#a)"
       id="g2887">
      <path
         d="m 0 0 h 16 v 16 h -16 z"
         fill-opacity="0.4"
         id="path2885" />
    </g>
  </mask>
  <clipPath
     id="u">
    <path
       d="m 0 0 h 1024 v 800 h -1024 z"
       id="path2890" />
  </clipPath>
  <mask
     id="v">
    <g
       filter="url(#a)"
       id="g2895">
      <path
         d="m 0 0 h 16 v 16 h -16 z"
         fill-opacity="0.4"
         id="path2893" />
    </g>
  </mask>
  <clipPath
     id="w">
    <path
       d="m 0 0 h 1024 v 800 h -1024 z"
       id="path2898" />
  </clipPath>
  <mask
     id="x">
    <g
       filter="url(#a)"
       id="g2903">
      <path
         d="m 0 0 h 16 v 16 h -16 z"
         fill-opacity="0.5"
         id="path2901" />
    </g>
  </mask>
  <clipPath
     id="y">
    <path
       d="m 0 0 h 1024 v 800 h -1024 z"
       id="path2906" />
  </clipPath>
  <mask
     id="z">
    <g
       filter="url(#a)"
       id="g2911">
      <path
         d="m 0 0 h 16 v 16 h -16 z"
         fill-opacity="0.5"
         id="path2909" />
    </g>
  </mask>
  <clipPath
     id="A">
    <path
       d="m 0 0 h 1024 v 800 h -1024 z"
       id="path2914" />
  </clipPath>
  <path
     style="color:#000000;fill:#2e3436;stroke-width:0.983946;-inkscape-stroke:none"
     d="m 10.2946,4.9001837 c -0.252148,0 -0.500879,0.099228 -0.6879926,0.2863435 L 5.1865393,9.6065953 C 4.8075945,9.9855388 4.8075171,10.60929 5.188458,10.986425 l 4.4181463,4.418147 c 0.3771341,0.380945 1.0008847,0.380867 1.3798297,0.002 l 4.420069,-4.420069 c 0.377812,-0.377814 0.377725,-1.0002287 0.002,-1.3798295 h -0.002 L 10.986437,5.1846054 h -0.002 C 10.796491,5.0003429 10.547824,4.9001837 10.2946,4.9001837 Z m 0,1.4643877 L 14.226539,10.29651 10.2946,14.228449 6.3626618,10.29651 Z"
     id="path2917" />
  <g
     clip-path="url(#c)"
     mask="url(#b)"
     transform="matrix(1 0 0 1 -540 -520)"
     id="g2921">
    <path
       d="m 562.460938 212.058594 h 10.449218 c -1.183594 0.492187 -1.296875 2.460937 0 3 h -10.449218 z m 0 0"
       fill="#2e3436"
       id="path2919" />
  </g>
  <g
     clip-path="url(#e)"
     mask="url(#d)"
     transform="matrix(1 0 0 1 -540 -520)"
     id="g2925">
    <path
       d="m 16 632 h 1 v 1 h -1 z m 0 0"
       fill="#2e3436"
       fill-rule="evenodd"
       id="path2923" />
  </g>
  <g
     clip-path="url(#g)"
     mask="url(#f)"
     transform="matrix(1 0 0 1 -540 -520)"
     id="g2929">
    <path
       d="m 17 631 h 1 v 1 h -1 z m 0 0"
       fill="#2e3436"
       fill-rule="evenodd"
       id="path2927" />
  </g>
  <g
     clip-path="url(#i)"
     mask="url(#h)"
     transform="matrix(1 0 0 1 -540 -520)"
     id="g2933">
    <path
       d="m 18 634 h 1 v 1 h -1 z m 0 0"
       fill="#2e3436"
       fill-rule="evenodd"
       id="path2931" />
  </g>
  <g
     clip-path="url(#k)"
     mask="url(#j)"
     transform="matrix(1 0 0 1 -540 -520)"
     id="g2937">
    <path
       d="m 16 634 h 1 v 1 h -1 z m 0 0"
       fill="#2e3436"
       fill-rule="evenodd"
       id="path2935" />
  </g>
  <g
     clip-path="url(#m)"
     mask="url(#l)"
     transform="matrix(1 0 0 1 -540 -520)"
     id="g2941">
    <path
       d="m 17 635 h 1 v 1 h -1 z m 0 0"
       fill="#2e3436"
       fill-rule="evenodd"
       id="path2939" />
  </g>
  <g
     clip-path="url(#o)"
     mask="url(#n)"
     transform="matrix(1 0 0 1 -540 -520)"
     id="g2945">
    <path
       d="m 19 635 h 1 v 1 h -1 z m 0 0"
       fill="#2e3436"
       fill-rule="evenodd"
       id="path2943" />
  </g>
  <g
     clip-path="url(#q)"
     mask="url(#p)"
     transform="matrix(1 0 0 1 -540 -520)"
     id="g2949">
    <path
       d="m 136 660 v 7 h 7 v -7 z m 0 0"
       fill="#2e3436"
       id="path2947" />
  </g>
  <g
     clip-path="url(#s)"
     mask="url(#r)"
     transform="matrix(1 0 0 1 -540 -520)"
     id="g2953">
    <path
       d="m 199 642 h 3 v 12 h -3 z m 0 0"
       fill="#2e3436"
       id="path2951" />
  </g>
  <g
     clip-path="url(#u)"
     mask="url(#t)"
     transform="matrix(1 0 0 1 -540 -520)"
     id="g2957">
    <path
       d="m 209.5 144.160156 c 0.277344 0 0.5 0.222656 0.5 0.5 v 1 c 0 0.277344 -0.222656 0.5 -0.5 0.5 s -0.5 -0.222656 -0.5 -0.5 v -1 c 0 -0.277344 0.222656 -0.5 0.5 -0.5 z m 0 0"
       fill="#2e3436"
       id="path2955" />
  </g>
  <g
     clip-path="url(#w)"
     mask="url(#v)"
     transform="matrix(1 0 0 1 -540 -520)"
     id="g2961">
    <path
       d="m 206.5 144.160156 c 0.277344 0 0.5 0.222656 0.5 0.5 v 1 c 0 0.277344 -0.222656 0.5 -0.5 0.5 s -0.5 -0.222656 -0.5 -0.5 v -1 c 0 -0.277344 0.222656 -0.5 0.5 -0.5 z m 0 0"
       fill="#2e3436"
       id="path2959" />
  </g>
  <g
     clip-path="url(#y)"
     mask="url(#x)"
     transform="matrix(1 0 0 1 -540 -520)"
     id="g2965">
    <path
       d="m 229.5 143.160156 c -0.546875 0 -1 0.457032 -1 1 c 0 0.546875 0.453125 1 1 1 s 1 -0.453125 1 -1 c 0 -0.542968 -0.453125 -1 -1 -1 z m 0 0"
       fill="#2e3436"
       id="path2963" />
  </g>
  <g
     clip-path="url(#A)"
     mask="url(#z)"
     transform="matrix(1 0 0 1 -540 -520)"
     id="g2969">
    <path
       d="m 226.453125 143.160156 c -0.519531 0 -0.953125 0.433594 -0.953125 0.953125 v 0.09375 c 0 0.519531 0.433594 0.953125 0.953125 0.953125 h 0.09375 c 0.519531 0 0.953125 -0.433594 0.953125 -0.953125 v -0.09375 c 0 -0.519531 -0.433594 -0.953125 -0.953125 -0.953125 z m 0 0"
       fill="#2e3436"
       id="path2967" />
  </g>
  <path
     style="color:#000000;fill:#2e3436;stroke-width:0.983946;-inkscape-stroke:none"
     d="m 1.2661311,4.9001837 c -0.52387014,0 -0.95511909,0.4331726 -0.95511909,0.9570407 v 6.1208336 c 10e-9,0.523869 0.43125008,0.957041 0.95511909,0.957041 h 6.1227551 c 0.523869,0 0.9551192,-0.433172 0.9551192,-0.957041 V 5.8572244 c 0,-0.5238681 -0.431249,-0.9570407 -0.9551192,-0.9570407 z M 1.6101277,6.2012211 H 7.0429679 V 11.634061 H 1.6101277 Z"
     id="path109" />
  <path
     style="color:#000000;fill:#2e3436;stroke-width:0.983946;-inkscape-stroke:none"
     d="m 8.0000087,0.30907812 c -2.7159646,0 -4.9351021,2.21913738 -4.9351021,4.93510208 0,2.715964 2.2191374,4.9370238 4.9351021,4.9370238 2.7159653,0 4.9351023,-2.2210598 4.9351023,-4.9370238 0,-2.7159647 -2.219137,-4.93510208 -4.9351023,-4.93510208 z m 0,1.34523808 c 1.9802181,0 3.5917863,1.6096478 3.5917863,3.589864 0,1.9802161 -1.6115682,3.5917858 -3.5917863,3.5917858 -1.9802182,0 -3.589864,-1.6115697 -3.589864,-3.5917858 0,-1.9802162 1.6096459,-3.589864 3.589864,-3.589864 z"
     id="path109-6" />
</svg>
