<svg xmlns="http://www.w3.org/2000/svg" width="16" height="16"><g fill="#474747" fill-rule="evenodd"><path d="M3 9h1v1H3zm-1 1h1v1H2zm1 1h1v1H3zm-1 1h1v1H2zm1 1h1v1H3zm-1 1h1v1H2zm2 0h1v1H4zm2 0h1v1H6zm2 0h1v1H8zm2 0h1v1h-1zm-7 1h1v1H3zm2 0h1v1H5zm2 0h1v1H7zm2 0h1v1H9zm2 0h1v1h-1zm1-1h1v1h-1z" style="marker:none" color="#000" overflow="visible"/><path d="M3 1a1 1 0 00-1 1v7h2V3h5.086L12 5.914V14h2V5.5a1 1 0 00-.293-.707l-3.5-3.5A1 1 0 009.5 1z" style="line-height:normal;font-variant-ligatures:normal;font-variant-position:normal;font-variant-caps:normal;font-variant-numeric:normal;font-variant-alternates:normal;font-feature-settings:normal;text-indent:0;text-align:start;text-decoration-line:none;text-decoration-style:solid;text-decoration-color:#000;text-transform:none;text-orientation:mixed;shape-padding:0;isolation:auto;mix-blend-mode:normal" color="#000" font-weight="400" font-family="sans-serif" overflow="visible"/><path d="M9 2v4h4z"/></g></svg>