<?xml version="1.0" encoding="UTF-8"?>
<svg height="128px" viewBox="0 0 128 128" width="128px" xmlns="http://www.w3.org/2000/svg" xmlns:xlink="http://www.w3.org/1999/xlink">
    <linearGradient id="a" gradientUnits="userSpaceOnUse" x1="12.007052" x2="28.007051" y1="68.02153" y2="68.02153">
        <stop offset="0" stop-color="#485468"/>
        <stop offset="0.234003" stop-color="#6b83ad"/>
        <stop offset="0.92616" stop-color="#192027"/>
    </linearGradient>
    <linearGradient id="b" gradientUnits="userSpaceOnUse" x1="12.007812" x2="28.007812" y1="8.023438" y2="112.023438">
        <stop offset="0" stop-color="#4b5465" stop-opacity="0.698039"/>
        <stop offset="0.759382" stop-color="#1a2026" stop-opacity="0.501961"/>
    </linearGradient>
    <linearGradient id="c" gradientUnits="userSpaceOnUse" x1="12.0625" x2="24.699459" y1="104.039062" y2="116.676033">
        <stop offset="0" stop-color="#13161a"/>
        <stop offset="1" stop-color="#192027"/>
    </linearGradient>
    <linearGradient id="d" gradientUnits="userSpaceOnUse" x1="28" x2="116" y1="60" y2="60">
        <stop offset="0" stop-color="#d6d6d6"/>
        <stop offset="0.0506329" stop-color="#f6f5f4"/>
    </linearGradient>
    <linearGradient id="e" gradientUnits="userSpaceOnUse" x1="108" x2="116" y1="102.000366" y2="102.000366">
        <stop offset="0" stop-color="#bfbfbd"/>
        <stop offset="0.448168" stop-color="#d4d4d3"/>
        <stop offset="0.87714" stop-color="#a8a7a1"/>
    </linearGradient>
    <linearGradient id="f" gradientUnits="userSpaceOnUse" x1="12.0625" x2="20.007812" y1="104.039062" y2="112.023438">
        <stop offset="0" stop-color="#647696"/>
        <stop offset="1" stop-color="#485468"/>
    </linearGradient>
    <linearGradient id="g" gradientUnits="userSpaceOnUse" x1="35.518288" x2="128" y1="8" y2="100.481712">
        <stop offset="0" stop-color="#6a6a6a"/>
        <stop offset="0.743929" stop-color="#333333"/>
    </linearGradient>
    <path d="m 20 104 h 60 c 4.417969 0 8 3.582031 8 8 s -3.582031 8 -8 8 h -60 c -4.417969 0 -8 -3.582031 -8 -8 s 3.582031 -8 8 -8 z m 0 0" fill="#192027"/>
    <path d="m 20.007812 8.023438 c 4.433594 0 8 3.566406 8 8 v 96 h -16 v -96 c 0 -4.433594 3.566407 -8 8 -8 z m 0 0" fill="url(#a)"/>
    <path d="m 20.007812 8.023438 c 4.433594 0 8 3.566406 8 8 v 96 h -16 v -96 c 0 -4.433594 3.566407 -8 8 -8 z m 0 0" fill="url(#b)"/>
    <path d="m 27.9375 111.976562 c 0 4.386719 -3.554688 7.941407 -7.9375 7.941407 s -7.9375 -3.554688 -7.9375 -7.941407 c 0 -4.382812 3.554688 -7.9375 7.9375 -7.9375 s 7.9375 3.554688 7.9375 7.9375 z m 0 0" fill="url(#c)"/>
    <g fill="url(#d)">
        <path d="m 28 36 h 18 v 76 h -18 z m 0 0"/>
        <path d="m 36 88 h 72 c 4.417969 0 8 3.582031 8 8 s -3.582031 8 -8 8 h -72 c -4.417969 0 -8 -3.582031 -8 -8 s 3.582031 -8 8 -8 z m 0 0"/>
        <path d="m 28 16 h 88 v 80 h -88 z m 0 0"/>
        <path d="m 36 8 h 72 c 4.417969 0 8 3.582031 8 8 s -3.582031 8 -8 8 h -72 c -4.417969 0 -8 -3.582031 -8 -8 s 3.582031 -8 8 -8 z m 0 0"/>
        <path d="m 36 88 h 72 c 4.417969 0 8 3.582031 8 8 s -3.582031 8 -8 8 h -72 c -4.417969 0 -8 -3.582031 -8 -8 s 3.582031 -8 8 -8 z m 0 0"/>
    </g>
    <path d="m 116 96 c 0 4.398438 -3.613281 8 -8 8 h -72 c -4.417969 0 -8 3.582031 -8 8 h 80 c 4.417969 0 8 -3.582031 8 -8 z m 0 0" fill="url(#e)"/>
    <path d="m 116 71.210938 l -79.75 -0.085938 c -4.417969 0 -8 3.582031 -8 8" fill="none" stroke="#c8c6c5" stroke-width="0.5"/>
    <path d="m 116 87.710938 l -79.75 -0.085938 c -4.417969 0 -8 3.582031 -8 8" fill="none" stroke="#c8c6c5" stroke-width="0.5"/>
    <path d="m 116 54.710938 l -79.75 -0.085938 c -4.417969 0 -8 3.582031 -8 8" fill="none" stroke="#c8c6c5" stroke-width="0.5"/>
    <path d="m 116 38.210938 l -79.75 -0.085938 c -4.417969 0 -8 3.582031 -8 8" fill="none" stroke="#c8c6c5" stroke-width="0.5"/>
    <path d="m 116 21.710938 l -79.75 -0.085938 c -4.417969 0 -8 3.582031 -8 8" fill="none" stroke="#c8c6c5" stroke-width="0.5"/>
    <path d="m 20 104 c -4.417969 0 -8 3.582031 -8 8 s 3.582031 8 8 8 h 60.027344 c 4.71875 0 7.972656 -3.8125 7.972656 -8 c 0.015625 2.265625 -4.097656 5.195312 -7.972656 5.195312 h -60.027344 c -2.867188 -0.003906 -5.191406 -2.328124 -5.191406 -5.195312 s 2.324218 -5.191406 5.191406 -5.195312 c 2.867188 0.003906 5.191406 2.328124 5.191406 5.195312 h 2.808594 c 0 -4.417969 -3.582031 -8 -8 -8 z m 0 0" fill="url(#f)"/>
    <path d="m 40.3125 104 v -96" fill="none" stroke="#870707"/>
    <path d="m 40.3125 104 v 8" fill="none" stroke="#5b0505"/>
    <path d="m 96.113281 37.414062 c -0.144531 -1.113281 0.757813 -2.875 0.636719 -5.273437 c -0.125 -2.402344 -1.355469 -5.75 -6.40625 -8.179687 c -0.089844 -0.042969 -0.179688 -0.085938 -0.273438 -0.128907 c -3.285156 -1.515625 -8.074218 -2.601562 -13.660156 -2.070312 c -4.339844 0.414062 -8.847656 1.785156 -13.097656 4.203125 c -3.824219 2.167968 -7.347656 5.136718 -10.207031 8.808594 c -1.679688 2.308593 -3.144531 4.921874 -4.191407 7.742187 c -0.453124 1.21875 -0.828124 2.480469 -1.109374 3.769531 c -0.363282 1.675782 -0.5625 3.507813 -0.484376 5.441406 c 0.207032 3.066407 1.121094 6.417969 3.164063 9.433594 c 0.964844 1.429688 2.164063 2.726563 3.550781 3.808594 c 1.378906 1.082031 2.957032 1.957031 4.679688 2.53125 c 2.761718 0.902344 5.476562 0.902344 7.722656 0.5625 c 1.191406 -0.179688 2.285156 -0.457031 3.25 -0.765625 c 1.191406 -0.378906 2.285156 -0.816406 3.148438 -1.1875 c 1.882812 -0.824219 3.648437 -1.8125 5.054687 -2.609375 s 2.785156 -1.597656 4.109375 -2.246094 c 0.789062 -0.375 1.726562 -0.792968 2.652344 -1.109375 c 0.246094 -0.082031 0.492187 -0.160156 0.738281 -0.226562 c 0.921875 -0.253907 1.832031 -0.367188 2.640625 -0.285157 c 0.691406 0.066407 1.277344 0.292969 1.671875 0.570313 c 0.167969 0.105469 0.3125 0.253906 0.433594 0.410156 c 0.105469 0.144531 0.175781 0.28125 0.214843 0.355469 c 0.042969 0.09375 0.066407 0.285156 -0.007812 0.5625 c -0.070312 0.28125 -0.222656 0.605469 -0.457031 0.929688 c -0.242188 0.332031 -0.578125 0.675781 -1.03125 1.03125 c -0.445313 0.34375 -0.976563 0.679687 -1.59375 1.003906 c -1.355469 0.652344 -2.703125 1.089844 -4.597657 1.796875 c -1.71875 0.640625 -3.769531 1.46875 -5.691406 2.78125 c -1.007812 0.710937 -2.015625 1.597656 -2.882812 2.671875 c -0.863282 1.074218 -1.613282 2.371094 -2.03125 3.890625 c -0.375 1.519531 -0.394532 3.207031 0.109375 4.828125 c 0.253906 0.824218 0.644531 1.605468 1.144531 2.300781 c 0.507812 0.703125 1.144531 1.339844 1.898438 1.847656 c 1.339843 0.890625 2.816406 1.21875 4.09375 1.253907 h 0.433593 c 1.082031 -0.027344 2.113281 -0.25 3.054688 -0.566407 c 0.984375 -0.300781 1.875 -0.707031 2.640625 -1.066406 c 0.78125 -0.371094 1.382812 -0.671875 2.011718 -0.921875 c 0.574219 -0.253906 1.074219 -0.417969 1.527344 -0.488281 c 0.429688 -0.066407 0.78125 -0.035157 1.035156 0.035156 c 0.113282 0.03125 0.214844 0.082031 0.296876 0.132813 c 0.078124 0.050781 0.132812 0.097656 0.160156 0.121093 c 0.042968 0.019531 0.082031 0.050781 0.109375 0.058594 c 0.03125 0 0.058593 0.015625 0.097656 0.007813 c 0.035156 -0.007813 0 0.117187 -0.140625 0.28125 c -0.164062 0.191406 -0.402344 0.382812 -0.769531 0.667968 c -0.355469 0.269532 -0.839844 0.625 -1.28125 1.0625 c -0.488281 0.480469 -0.964844 1.089844 -1.257813 1.84375 c -0.292968 0.761719 -0.339844 1.542969 -0.21875 2.230469 c 0.140625 0.800781 0.511719 1.457031 0.941406 1.921875 c 0.578126 0.632812 1.25 0.902344 1.746094 0.976562 c 0.121094 0.015626 0.234375 0.023438 0.339844 0.019532 c 0.882812 -0.03125 1.238281 -0.707032 1.394531 -0.90625 c -0.21875 -0.207032 -0.441406 -0.738282 -0.617187 -1.191406 c -0.019532 -0.050782 -0.039063 -0.097657 -0.054688 -0.148438 c -0.070312 -0.199219 -0.132812 -0.417969 -0.117187 -0.613281 c 0.007812 -0.140625 0.042969 -0.289063 0.109375 -0.382813 c 0.054687 -0.082031 0.132812 -0.15625 0.203125 -0.183594 c 0.070312 -0.03125 0.1875 -0.125 0.398437 -0.253906 c 0.261719 -0.15625 0.445313 -0.246094 0.910156 -0.496094 c 0.363282 -0.191406 0.902344 -0.488281 1.417969 -0.890624 c 0.515625 -0.402344 1.109375 -0.988282 1.53125 -1.804688 c 0.375 -0.730469 0.558594 -1.539062 0.558594 -2.335938 c 0.003906 -0.796874 -0.175781 -1.570312 -0.488281 -2.261718 c -0.328125 -0.695313 -0.78125 -1.289063 -1.296875 -1.777344 c -0.519531 -0.492188 -1.109375 -0.882812 -1.726563 -1.175781 c -1.238281 -0.582031 -2.542968 -0.746094 -3.6875 -0.703125 c -1.183594 0.042968 -2.269531 0.308594 -3.164062 0.589844 c -0.882813 0.296874 -1.796875 0.6875 -2.445313 0.949218 c -0.746093 0.300782 -1.320312 0.507813 -1.863281 0.632813 c -0.511719 0.089843 -0.898438 0.082031 -1.179688 0.019531 c -0.035156 -0.007812 -0.070312 -0.015625 -0.105468 -0.027344 c -0.285156 -0.089844 -0.441406 -0.246094 -0.398438 -0.324218 c 0.023438 -0.03125 0.027344 -0.070313 0.035156 -0.136719 c 0.007813 -0.0625 0.015626 -0.132813 0.046876 -0.195313 c 0.046874 -0.132812 0.125 -0.363281 0.285156 -0.578125 c 0.117187 -0.238281 0.3125 -0.507812 0.632812 -0.8125 c 0.328125 -0.3125 0.757813 -0.628906 1.273438 -0.910156 c 1.039062 -0.625 2.277344 -1.089844 3.882812 -1.59375 c 1.484375 -0.46875 3.519532 -1.042969 5.390625 -1.820313 c 1.007813 -0.398437 2.054688 -0.886718 3.070313 -1.503906 c 1.039062 -0.628906 2.066406 -1.402344 3.003906 -2.359375 c 0.972656 -1 1.816406 -2.179687 2.4375 -3.5 c 0.636719 -1.359375 1.050781 -2.902343 1.089844 -4.554687 c 0.039062 -1.628906 -0.292969 -3.167969 -0.847656 -4.527344 c -0.570313 -1.410156 -1.402344 -2.675781 -2.394532 -3.734375 c -2.101562 -2.242187 -4.761718 -3.460937 -7.152344 -3.988281 c -2.769531 -0.613282 -5.367187 -0.386719 -7.363281 0.035156 c -0.554687 0.121094 -1.078125 0.253906 -1.566406 0.398438 c -1.84375 0.542968 -3.375 1.273437 -4.449219 1.839843 c -1.746094 0.902344 -3.484375 2 -4.667968 2.722657 c -1.375 0.839843 -2.605469 1.566406 -3.839844 2.125 c -0.550782 0.253906 -1.152344 0.480468 -1.777344 0.636718 c -0.5 0.121094 -0.988281 0.203125 -1.46875 0.226563 c -0.917969 0.046875 -1.691406 -0.117188 -2.214844 -0.417969 c -0.304687 -0.164062 -0.617187 -0.402344 -0.902344 -0.714844 c -0.285156 -0.316406 -0.527343 -0.683594 -0.691406 -1.074218 c -0.375 -0.867188 -0.492187 -1.917969 -0.328125 -2.914063 c 0.042969 -0.621094 0.179688 -1.246094 0.394531 -1.867187 c 0.167969 -0.480469 0.398438 -0.96875 0.691407 -1.460938 c 0.6875 -1.15625 1.683593 -2.25 2.851562 -3.191406 c 1.816407 -1.675782 3.941407 -2.886719 6.097657 -3.671875 c 2.398437 -0.875 4.695312 -1.175781 6.710937 -1.191407 c 2.578125 -0.015624 4.886719 0.425782 6.695313 0.636719 c 0.050781 0.003907 0.101562 0.011719 0.152343 0.015625 c 2.859375 0.316406 5.050781 -0.351562 6.996094 -1.28125 c 1.886719 -0.898437 3.574219 -2.113281 4.628906 -2.121094 z m 0 0" fill="#303030"/>
    <path d="m 96.613281 36.074219 c -0.144531 -1.113281 0.757813 -2.875 0.636719 -5.273438 c -0.125 -2.402343 -1.355469 -5.75 -6.40625 -8.179687 c -0.089844 -0.042969 -0.179688 -0.085938 -0.273438 -0.128906 c -3.285156 -1.515626 -8.074218 -2.601563 -13.660156 -2.070313 c -4.339844 0.414063 -8.847656 1.785156 -13.097656 4.203125 c -3.824219 2.167969 -7.347656 5.136719 -10.207031 8.808594 c -1.679688 2.308594 -3.144531 4.921875 -4.191407 7.742187 c -0.453124 1.21875 -0.828124 2.480469 -1.109374 3.769531 c -0.363282 1.675782 -0.5625 3.507813 -0.484376 5.441407 c 0.207032 3.066406 1.121094 6.417969 3.164063 9.433593 c 0.964844 1.429688 2.164063 2.726563 3.550781 3.808594 c 1.378906 1.082032 2.957032 1.957032 4.679688 2.53125 c 2.761718 0.902344 5.476562 0.902344 7.722656 0.5625 c 1.191406 -0.179687 2.285156 -0.457031 3.25 -0.765625 c 1.191406 -0.378906 2.285156 -0.816406 3.148438 -1.1875 c 1.882812 -0.824219 3.648437 -1.8125 5.054687 -2.609375 s 2.785156 -1.597656 4.109375 -2.246094 c 0.789062 -0.375 1.726562 -0.792968 2.652344 -1.109374 c 0.246094 -0.082032 0.492187 -0.160157 0.738281 -0.226563 c 0.921875 -0.253906 1.832031 -0.367187 2.640625 -0.285156 c 0.691406 0.066406 1.277344 0.292969 1.671875 0.570312 c 0.167969 0.105469 0.3125 0.253907 0.433594 0.410157 c 0.105469 0.144531 0.175781 0.28125 0.214843 0.355468 c 0.042969 0.09375 0.066407 0.285156 -0.007812 0.5625 c -0.070312 0.28125 -0.222656 0.605469 -0.457031 0.929688 c -0.242188 0.332031 -0.578125 0.675781 -1.03125 1.03125 c -0.445313 0.34375 -0.976563 0.679687 -1.59375 1.003906 c -1.355469 0.652344 -2.703125 1.089844 -4.597657 1.796875 c -1.71875 0.640625 -3.769531 1.46875 -5.691406 2.78125 c -1.007812 0.710937 -2.015625 1.597656 -2.882812 2.671875 c -0.863282 1.074219 -1.613282 2.371094 -2.03125 3.890625 c -0.375 1.519531 -0.394532 3.207031 0.109375 4.828125 c 0.253906 0.824219 0.644531 1.605469 1.144531 2.300781 c 0.507812 0.703125 1.144531 1.339844 1.898438 1.847657 c 1.339843 0.890624 2.816406 1.21875 4.09375 1.253906 h 0.433593 c 1.082031 -0.027344 2.113281 -0.25 3.054688 -0.566406 c 0.984375 -0.300782 1.875 -0.707032 2.640625 -1.066407 c 0.78125 -0.371093 1.382812 -0.671875 2.011718 -0.921875 c 0.574219 -0.253906 1.074219 -0.417968 1.527344 -0.488281 c 0.429688 -0.066406 0.78125 -0.035156 1.035156 0.035156 c 0.113282 0.03125 0.214844 0.082031 0.296876 0.132813 c 0.078124 0.050781 0.132812 0.097656 0.160156 0.121094 c 0.042968 0.019531 0.082031 0.050781 0.109375 0.058593 c 0.03125 0 0.058593 0.015625 0.097656 0.007813 c 0.035156 -0.007813 0 0.117187 -0.140625 0.28125 c -0.164062 0.191406 -0.402344 0.382812 -0.769531 0.667968 c -0.355469 0.269532 -0.839844 0.625 -1.28125 1.0625 c -0.488281 0.480469 -0.964844 1.089844 -1.257813 1.84375 c -0.292968 0.761719 -0.339844 1.542969 -0.21875 2.230469 c 0.140625 0.800781 0.511719 1.457031 0.941406 1.921875 c 0.578126 0.632813 1.25 0.902344 1.746094 0.976563 c 0.121094 0.015625 0.234375 0.023437 0.339844 0.019531 c 0.882812 -0.03125 1.238281 -0.707031 1.394531 -0.90625 c -0.21875 -0.207031 -0.441406 -0.738281 -0.617187 -1.191406 c -0.019532 -0.050782 -0.039063 -0.097656 -0.054688 -0.148438 c -0.070312 -0.199218 -0.132812 -0.417968 -0.117187 -0.613281 c 0.007812 -0.140625 0.042969 -0.289063 0.109375 -0.382813 c 0.054687 -0.082031 0.132812 -0.15625 0.203125 -0.183593 c 0.070312 -0.03125 0.1875 -0.125 0.398437 -0.253907 c 0.261719 -0.15625 0.445313 -0.246093 0.910156 -0.496093 c 0.363282 -0.191407 0.902344 -0.488281 1.417969 -0.890625 s 1.109375 -0.988282 1.53125 -1.804688 c 0.375 -0.730468 0.558594 -1.539062 0.558594 -2.335937 c 0.003906 -0.796875 -0.175781 -1.570313 -0.488281 -2.261719 c -0.328125 -0.695312 -0.78125 -1.289062 -1.296875 -1.777344 c -0.519531 -0.492187 -1.109375 -0.882812 -1.726563 -1.175781 c -1.238281 -0.582031 -2.542968 -0.746094 -3.6875 -0.703125 c -1.183594 0.042969 -2.269531 0.308594 -3.164062 0.589844 c -0.882813 0.296875 -1.796875 0.6875 -2.445313 0.949218 c -0.746093 0.300782 -1.320312 0.507813 -1.863281 0.632813 c -0.511719 0.089844 -0.898438 0.082031 -1.179688 0.019531 c -0.035156 -0.007812 -0.070312 -0.015625 -0.105468 -0.027344 c -0.285156 -0.089843 -0.441406 -0.246093 -0.398438 -0.324218 c 0.023438 -0.03125 0.027344 -0.070313 0.035156 -0.136719 c 0.007813 -0.0625 0.015626 -0.132813 0.046876 -0.195313 c 0.046874 -0.132812 0.125 -0.363281 0.285156 -0.578124 c 0.117187 -0.238282 0.3125 -0.507813 0.632812 -0.8125 c 0.328125 -0.3125 0.757813 -0.628907 1.273438 -0.910157 c 1.039062 -0.625 2.277344 -1.089843 3.882812 -1.59375 c 1.484375 -0.46875 3.519532 -1.042969 5.390625 -1.820312 c 1.007813 -0.398438 2.054688 -0.886719 3.070313 -1.503907 c 1.039062 -0.628906 2.066406 -1.402343 3.003906 -2.359374 c 0.972656 -1 1.816406 -2.179688 2.4375 -3.5 c 0.636719 -1.359376 1.050781 -2.902344 1.089844 -4.554688 c 0.039062 -1.628906 -0.292969 -3.167969 -0.847656 -4.527344 c -0.570313 -1.410156 -1.402344 -2.675781 -2.394532 -3.734375 c -2.101562 -2.242187 -4.761718 -3.460937 -7.152344 -3.988281 c -2.769531 -0.613281 -5.367187 -0.386719 -7.363281 0.035156 c -0.554687 0.121094 -1.078125 0.253906 -1.566406 0.398438 c -1.84375 0.542968 -3.375 1.273437 -4.449219 1.839844 c -1.746094 0.902343 -3.484375 2 -4.667968 2.722656 c -1.375 0.839844 -2.605469 1.566406 -3.839844 2.125 c -0.550782 0.253906 -1.152344 0.480468 -1.777344 0.636718 c -0.5 0.121094 -0.988281 0.203126 -1.46875 0.226563 c -0.917969 0.046875 -1.691406 -0.117187 -2.214844 -0.417969 c -0.304687 -0.164062 -0.617187 -0.402344 -0.902344 -0.714844 c -0.285156 -0.316406 -0.527343 -0.683593 -0.691406 -1.074218 c -0.375 -0.867188 -0.492187 -1.917969 -0.328125 -2.914063 c 0.042969 -0.621093 0.179688 -1.246093 0.394531 -1.867187 c 0.167969 -0.480469 0.398438 -0.96875 0.691407 -1.460938 c 0.6875 -1.15625 1.683593 -2.25 2.851562 -3.191406 c 1.816407 -1.675781 3.941407 -2.886719 6.097657 -3.671875 c 2.398437 -0.875 4.695312 -1.175781 6.710937 -1.191406 c 2.578125 -0.015625 4.886719 0.425781 6.695313 0.636719 c 0.050781 0.003906 0.101562 0.011718 0.152343 0.015624 c 2.859375 0.316407 5.050781 -0.351562 6.996094 -1.28125 c 1.886719 -0.898437 3.574219 -2.113281 4.628906 -2.121093 z m 0 0" fill="url(#g)"/>
</svg>
