<?xml version="1.0" encoding="UTF-8" standalone="no"?>
<svg
   height="16px"
   viewBox="0 0 16 16"
   width="16px"
   version="1.1"
   id="svg4"
   xmlns="http://www.w3.org/2000/svg"
   xmlns:svg="http://www.w3.org/2000/svg">
  <defs
     id="defs8" />
  <path
     id="path244"
     d="m 7.8084746,2.8745762 c -0.177688,0 -0.320339,0.1426511 -0.320339,0.320339 v 0.320339 h -0.961017 c -0.177688,0 -0.3203389,0.1426511 -0.3203389,0.320339 v 1.922034 c 0,0.1776879 0.1426509,0.3203388 0.3203389,0.3203388 h 3.2033899 c 0.1776878,0 0.3203385,-0.1426509 0.3203385,-0.3203388 v -1.922034 c 0,-0.1776879 -0.1426507,-0.320339 -0.3203385,-0.320339 h -0.961017 v -0.320339 c 0,-0.1776879 -0.142651,-0.320339 -0.3203389,-0.320339 z m -2.2423728,0.640678 c -1.0536139,0 -1.922034,0.8684201 -1.922034,1.9220339 v 5.7661009 c 0,1.053614 0.8684201,1.922035 1.922034,1.922035 H 9.2387381 V 11.844068 H 5.5661018 c -0.365386,0 -0.640678,-0.275292 -0.640678,-0.640679 V 5.4372881 c 0,-0.3653859 0.275292,-0.6406779 0.640678,-0.6406779 z m 5.1254232,0 v 1.281356 c 0.365387,0 0.640678,0.275292 0.640678,0.6406779 V 8.3065744 H 12.61356 V 5.4372881 c 0,-1.0536138 -0.868422,-1.9220339 -1.922035,-1.9220339 z"
     style="fill:#222222;fill-opacity:1;stroke-width:0.640678" />
  <g
     aria-label="C"
     id="text291"
     style="font-size:55.5401px;font-family:'Noto Sans';-inkscape-font-specification:'Noto Sans, Normal';fill:#222222;stroke-width:1.73563"
     transform="matrix(0.74237289,0,0,0.74237289,2.1898305,2.0610169)">
    <path
       d="m 13.935751,16 c 0.694254,0 1.490332,-0.185135 1.980938,-0.45358 l -0.351755,-1.157089 c -0.370269,0.129594 -0.842362,0.203647 -1.2404,0.203647 -1.286684,0 -2.027222,-0.759051 -2.027222,-2.008708 0,-1.175603 0.657227,-1.77729 1.823574,-1.77729 0.499863,0 1.083036,0.09257 1.434791,0.240675 L 16,9.7887409 C 15.3798,9.520296 14.778113,9.390702 14.139399,9.390702 c -2.064248,0 -3.508297,1.332968 -3.508297,3.350932 0,1.953168 1.351481,3.258366 3.304649,3.258366 z"
       style="font-size:9.25672px;font-family:Cantarell;-inkscape-font-specification:'Cantarell, @wght=800';font-variation-settings:'wght' 800"
       id="path247" />
  </g>
</svg>
