<?xml version="1.0" encoding="UTF-8" standalone="no"?>
<svg
   height="16px"
   viewBox="0 0 16 16"
   width="16px"
   version="1.1"
   id="svg6"
   xmlns="http://www.w3.org/2000/svg"
   xmlns:svg="http://www.w3.org/2000/svg">
  <defs
     id="defs10" />
  <path
     id="path4"
     d="M 5,1 C 3.3398457,1 2,2.3398457 2,4 v 9 c 0,1.660154 1.3398457,3 3,3 h 6 c 1.660154,0 3,-1.339846 3,-3 V 7 C 14,5.8243164 12,5.8719219 12,7 v 6 c 0,0.546874 -0.453126,1 -1,1 H 5 C 4.4531255,14 4,13.546874 4,13 V 4 C 4,3.4531255 4.4531255,3 5,3 H 8 C 9.2468143,3 9.2706278,1 8,1 Z" />
  <path
     id="path237"
     style="fill:#000000;fill-opacity:1;stroke-width:0.2;stroke-linecap:round;stroke-dashoffset:1.125"
     d="M 11.731185,6.6053401 C 10.997061,6.4948355 11.404898,5.0698244 10.875933,4.5489184 10.346967,4.0280124 8.9283839,4.4576774 8.8066239,3.7253378 8.6848629,2.9929982 10.166157,2.9405205 10.498109,2.2764761 10.830061,1.6124316 9.9830597,0.39605326 10.64193,0.05394631 c 0.65887,-0.3421067 1.166525,1.05047209 1.900647,1.16097589 0.734124,0.1104987 1.629229,-1.07092429 2.158194,-0.5500184 0.528966,0.5209061 -0.638581,1.4340446 -0.516821,2.1663841 0.121761,0.7323398 1.521969,1.2185553 1.190017,1.8825999 -0.331952,0.6640444 -1.56119,-0.1641837 -2.220059,0.1779232 -0.658871,0.3421067 -0.688602,1.8240329 -1.422723,1.7135291 z" />
</svg>
