<?xml version="1.0" encoding="UTF-8" standalone="no"?>
<svg
   height="16px"
   viewBox="0 0 16 16"
   width="16px"
   version="1.1"
   id="svg169"
   xml:space="preserve"
   xmlns="http://www.w3.org/2000/svg"
   xmlns:svg="http://www.w3.org/2000/svg"><defs
     id="defs173" /><filter
     id="a"
     height="1"
     width="1"
     x="0"
     y="0"><feColorMatrix
       in="SourceGraphic"
       type="matrix"
       values="0 0 0 0 1 0 0 0 0 1 0 0 0 0 1 0 0 0 1 0"
       id="feColorMatrix2" /></filter><mask
     id="b"><g
       filter="url(#a)"
       id="g7"><path
         d="m 0 0 h 16 v 16 h -16 z"
         fill-opacity="0.3"
         id="path5" /></g></mask><clipPath
     id="c"><path
       d="m 0 0 h 1024 v 800 h -1024 z"
       id="path10" /></clipPath><mask
     id="d"><g
       filter="url(#a)"
       id="g15"><path
         d="m 0 0 h 16 v 16 h -16 z"
         fill-opacity="0.05"
         id="path13" /></g></mask><clipPath
     id="e"><path
       d="m 0 0 h 1024 v 800 h -1024 z"
       id="path18" /></clipPath><mask
     id="f"><g
       filter="url(#a)"
       id="g23"><path
         d="m 0 0 h 16 v 16 h -16 z"
         fill-opacity="0.05"
         id="path21" /></g></mask><clipPath
     id="g"><path
       d="m 0 0 h 1024 v 800 h -1024 z"
       id="path26" /></clipPath><mask
     id="h"><g
       filter="url(#a)"
       id="g31"><path
         d="m 0 0 h 16 v 16 h -16 z"
         fill-opacity="0.05"
         id="path29" /></g></mask><clipPath
     id="i"><path
       d="m 0 0 h 1024 v 800 h -1024 z"
       id="path34" /></clipPath><mask
     id="j"><g
       filter="url(#a)"
       id="g39"><path
         d="m 0 0 h 16 v 16 h -16 z"
         fill-opacity="0.05"
         id="path37" /></g></mask><clipPath
     id="k"><path
       d="m 0 0 h 1024 v 800 h -1024 z"
       id="path42" /></clipPath><mask
     id="l"><g
       filter="url(#a)"
       id="g47"><path
         d="m 0 0 h 16 v 16 h -16 z"
         fill-opacity="0.05"
         id="path45" /></g></mask><clipPath
     id="m"><path
       d="m 0 0 h 1024 v 800 h -1024 z"
       id="path50" /></clipPath><mask
     id="n"><g
       filter="url(#a)"
       id="g55"><path
         d="m 0 0 h 16 v 16 h -16 z"
         fill-opacity="0.05"
         id="path53" /></g></mask><clipPath
     id="o"><path
       d="m 0 0 h 1024 v 800 h -1024 z"
       id="path58" /></clipPath><mask
     id="p"><g
       filter="url(#a)"
       id="g63"><path
         d="m 0 0 h 16 v 16 h -16 z"
         fill-opacity="0.3"
         id="path61" /></g></mask><clipPath
     id="q"><path
       d="m 0 0 h 1024 v 800 h -1024 z"
       id="path66" /></clipPath><mask
     id="r"><g
       filter="url(#a)"
       id="g71"><path
         d="m 0 0 h 16 v 16 h -16 z"
         fill-opacity="0.5"
         id="path69" /></g></mask><clipPath
     id="s"><path
       d="m 0 0 h 1024 v 800 h -1024 z"
       id="path74" /></clipPath><mask
     id="t"><g
       filter="url(#a)"
       id="g79"><path
         d="m 0 0 h 16 v 16 h -16 z"
         fill-opacity="0.4"
         id="path77" /></g></mask><clipPath
     id="u"><path
       d="m 0 0 h 1024 v 800 h -1024 z"
       id="path82" /></clipPath><mask
     id="v"><g
       filter="url(#a)"
       id="g87"><path
         d="m 0 0 h 16 v 16 h -16 z"
         fill-opacity="0.4"
         id="path85" /></g></mask><clipPath
     id="w"><path
       d="m 0 0 h 1024 v 800 h -1024 z"
       id="path90" /></clipPath><mask
     id="x"><g
       filter="url(#a)"
       id="g95"><path
         d="m 0 0 h 16 v 16 h -16 z"
         fill-opacity="0.5"
         id="path93" /></g></mask><clipPath
     id="y"><path
       d="m 0 0 h 1024 v 800 h -1024 z"
       id="path98" /></clipPath><mask
     id="z"><g
       filter="url(#a)"
       id="g103"><path
         d="m 0 0 h 16 v 16 h -16 z"
         fill-opacity="0.5"
         id="path101" /></g></mask><clipPath
     id="A"><path
       d="m 0 0 h 1024 v 800 h -1024 z"
       id="path106" /></clipPath><g
     clip-path="url(#c)"
     mask="url(#b)"
     transform="matrix(1 0 0 1 -156 -620)"
     id="g111"><path
       d="m 562.460938 212.058594 h 10.449218 c -1.183594 0.492187 -1.296875 2.460937 0 3 h -10.449218 z m 0 0"
       fill="#2e3436"
       id="path109" /></g><g
     clip-path="url(#e)"
     mask="url(#d)"
     transform="matrix(1 0 0 1 -156 -620)"
     id="g115"><path
       d="m 16 632 h 1 v 1 h -1 z m 0 0"
       fill="#2e3436"
       fill-rule="evenodd"
       id="path113" /></g><g
     clip-path="url(#g)"
     mask="url(#f)"
     transform="matrix(1 0 0 1 -156 -620)"
     id="g119"><path
       d="m 17 631 h 1 v 1 h -1 z m 0 0"
       fill="#2e3436"
       fill-rule="evenodd"
       id="path117" /></g><g
     clip-path="url(#i)"
     mask="url(#h)"
     transform="matrix(1 0 0 1 -156 -620)"
     id="g123"><path
       d="m 18 634 h 1 v 1 h -1 z m 0 0"
       fill="#2e3436"
       fill-rule="evenodd"
       id="path121" /></g><g
     clip-path="url(#k)"
     mask="url(#j)"
     transform="matrix(1 0 0 1 -156 -620)"
     id="g127"><path
       d="m 16 634 h 1 v 1 h -1 z m 0 0"
       fill="#2e3436"
       fill-rule="evenodd"
       id="path125" /></g><g
     clip-path="url(#m)"
     mask="url(#l)"
     transform="matrix(1 0 0 1 -156 -620)"
     id="g131"><path
       d="m 17 635 h 1 v 1 h -1 z m 0 0"
       fill="#2e3436"
       fill-rule="evenodd"
       id="path129" /></g><g
     clip-path="url(#o)"
     mask="url(#n)"
     transform="matrix(1 0 0 1 -156 -620)"
     id="g135"><path
       d="m 19 635 h 1 v 1 h -1 z m 0 0"
       fill="#2e3436"
       fill-rule="evenodd"
       id="path133" /></g><g
     clip-path="url(#q)"
     mask="url(#p)"
     transform="matrix(1 0 0 1 -156 -620)"
     id="g147"><path
       d="m 136 660 v 7 h 7 v -7 z m 0 0"
       fill="#2e3436"
       id="path145" /></g><g
     clip-path="url(#s)"
     mask="url(#r)"
     transform="matrix(1 0 0 1 -156 -620)"
     id="g151"><path
       d="m 199 642 h 3 v 12 h -3 z m 0 0"
       fill="#2e3436"
       id="path149" /></g><g
     clip-path="url(#u)"
     mask="url(#t)"
     transform="matrix(1 0 0 1 -156 -620)"
     id="g155"><path
       d="m 209.5 144.160156 c 0.277344 0 0.5 0.222656 0.5 0.5 v 1 c 0 0.277344 -0.222656 0.5 -0.5 0.5 s -0.5 -0.222656 -0.5 -0.5 v -1 c 0 -0.277344 0.222656 -0.5 0.5 -0.5 z m 0 0"
       fill="#2e3436"
       id="path153" /></g><g
     clip-path="url(#w)"
     mask="url(#v)"
     transform="matrix(1 0 0 1 -156 -620)"
     id="g159"><path
       d="m 206.5 144.160156 c 0.277344 0 0.5 0.222656 0.5 0.5 v 1 c 0 0.277344 -0.222656 0.5 -0.5 0.5 s -0.5 -0.222656 -0.5 -0.5 v -1 c 0 -0.277344 0.222656 -0.5 0.5 -0.5 z m 0 0"
       fill="#2e3436"
       id="path157" /></g><g
     clip-path="url(#y)"
     mask="url(#x)"
     transform="matrix(1 0 0 1 -156 -620)"
     id="g163"><path
       d="m 229.5 143.160156 c -0.546875 0 -1 0.457032 -1 1 c 0 0.546875 0.453125 1 1 1 s 1 -0.453125 1 -1 c 0 -0.542968 -0.453125 -1 -1 -1 z m 0 0"
       fill="#2e3436"
       id="path161" /></g><g
     clip-path="url(#A)"
     mask="url(#z)"
     transform="matrix(1 0 0 1 -156 -620)"
     id="g167"><path
       d="m 226.453125 143.160156 c -0.519531 0 -0.953125 0.433594 -0.953125 0.953125 v 0.09375 c 0 0.519531 0.433594 0.953125 0.953125 0.953125 h 0.09375 c 0.519531 0 0.953125 -0.433594 0.953125 -0.953125 v -0.09375 c 0 -0.519531 -0.433594 -0.953125 -0.953125 -0.953125 z m 0 0"
       fill="#2e3436"
       id="path165" /></g><path
     d="M 12.247892,0.00470403 C 10.979252,0.10116522 9.7120576,1.864526 9.8488643,3.6254595 L 8.7398081,2.9203876 8.2745291,3.6568646 9.518335,4.4485113 7.3812303,7.875092 6.7606466,9.4653149 l 0.556362,0.3749129 1.1769457,-1.21531 2.1495777,-3.4576392 1.315216,0.838358 0.465279,-0.736477 -1.109056,-0.7050718 C 13.355196,3.8036647 14.580705,1.1651567 13.10714,0.22713967 12.837029,0.04653091 12.538793,-0.01913648 12.247892,0.00470403 Z M 6.7954904,9.8904775 c 0,0 -1.0486673,0.5815425 -0.955627,1.6251905 0.120672,1.289183 2.0729707,1.196766 2.0378918,0.03573 C 7.8544085,10.900022 6.7954904,9.8904775 6.7954904,9.8904775 Z"
     id="path409"
     style="fill:#2e3436;fill-opacity:1;stroke-width:1" /><rect
     style="fill:#2e3436;fill-opacity:0.258621;stroke-width:1.51641;stroke-linejoin:bevel"
     id="rect442"
     width="12"
     height="9.198019"
     x="-1.8544565"
     y="7.1540155"
     ry="2.0440044"
     transform="matrix(1,0,0.20638194,0.97847151,0,0)" /></svg>
