<?xml version="1.0" encoding="UTF-8" standalone="no"?>
<svg
   height="16px"
   viewBox="0 0 16 16"
   width="16px"
   version="1.1"
   id="svg8"
   xmlns="http://www.w3.org/2000/svg"
   xmlns:svg="http://www.w3.org/2000/svg">
  <defs
     id="defs12" />
  <path
     id="rect1"
     style="fill:#222222;stroke:#222222;stroke-linejoin:round"
     d="m 4.5,11 h 9 c 0.554,0 1,0.446 1,1 0,0.554 -0.446,1 -1,1 h -9 c -0.554,0 -1,-0.446 -1,-1 0,-0.554 0.446,-1 1,-1 z" />
  <path
     id="rect2"
     style="fill:#222222;stroke:#222222;stroke-linejoin:round"
     d="m 1.5,8 h 2 C 3.777,8 4,8.223 4,8.5 4,8.777 3.777,9 3.5,9 h -2 C 1.223,9 1,8.777 1,8.5 1,8.223 1.223,8 1.5,8 Z" />
  <path
     id="rect4"
     style="fill:#222222;fill-opacity:0.33;stroke-linejoin:round"
     d="m 6.5,7.5 h 1 c 0.554,0 1,0.446 1,1 0,0.554 -0.446,1 -1,1 h -1 c -0.554,0 -1,-0.446 -1,-1 0,-0.554 0.446,-1 1,-1 z" />
  <path
     id="rect4-5"
     style="fill:#222222;fill-opacity:0.33;stroke-linejoin:round"
     d="m 10,7.5 h 1 c 0.554,0 1,0.446 1,1 0,0.554 -0.446,1 -1,1 h -1 c -0.554,0 -1,-0.446 -1,-1 0,-0.554 0.446,-1 1,-1 z" />
  <path
     id="rect4-5-2"
     style="fill:#222222;fill-opacity:0.33;stroke-linejoin:round"
     d="m 13.5,7.5 h 1 c 0.554,0 1,0.446 1,1 0,0.554 -0.446,1 -1,1 h -1 c -0.554,0 -1,-0.446 -1,-1 0,-0.554 0.446,-1 1,-1 z" />
  <path
     id="rect4-8"
     style="fill:#222222;fill-opacity:0.33;stroke-linejoin:round"
     d="m 5.5,5.0183058 h 1 c 0.554,0 1,0.446 1,1 0,0.554 -0.446,1 -1,1 h -1 c -0.554,0 -1,-0.446 -1,-1 0,-0.554 0.446,-1 1,-1 z" />
  <path
     id="rect4-5-9"
     style="fill:#222222;fill-opacity:0.33;stroke-linejoin:round"
     d="m 9,5.0183058 h 1 c 0.554,0 1,0.446 1,1 0,0.554 -0.446,1 -1,1 H 9 c -0.554,0 -1,-0.446 -1,-1 0,-0.554 0.446,-1 1,-1 z" />
  <path
     id="rect4-5-2-7"
     style="fill:#222222;fill-opacity:0.33;stroke-linejoin:round"
     d="m 12.5,5.0183058 h 1 c 0.554,0 1,0.446 1,1 0,0.554 -0.446,1 -1,1 h -1 c -0.554,0 -1,-0.446 -1,-1 0,-0.554 0.446,-1 1,-1 z" />
</svg>
