<?xml version="1.0" encoding="UTF-8" standalone="no"?>
<svg
   height="16px"
   viewBox="0 0 16 16"
   width="16px"
   version="1.1"
   id="svg8"
   xmlns="http://www.w3.org/2000/svg"
   xmlns:svg="http://www.w3.org/2000/svg">
  <defs
     id="defs12" />
  <path
     id="path1"
     style="color:#000000;fill:#222222;stroke-linejoin:round;-inkscape-stroke:none"
     d="M 6,10 C 5.1776502,10 4.5,10.67765 4.5,11.5 4.5,12.32235 5.1776502,13 6,13 h 8 c 0.82235,0 1.5,-0.67765 1.5,-1.5 C 15.5,10.67765 14.82235,10 14,10 Z" />
  <path
     id="path2"
     style="color:#000000;fill:#222222;fill-opacity:0.33;stroke-linejoin:round;-inkscape-stroke:none"
     d="M 2,4 C 1.4546497,4 1,4.4546497 1,4.9999997 c 0,0.545351 0.4546497,1 1,1 h 2 c 0.5453503,0 1,-0.454649 1,-1 C 5,4.4546497 4.5453503,4 4,4 Z" />
  <path
     id="path2-6"
     style="color:#000000;fill:#222222;stroke-linejoin:round;-inkscape-stroke:none"
     d="M 1.9999999,10.5 C 1.4546497,10.5 1,10.95465 1,11.5 c 0,0.54535 0.4546497,1 0.9999999,1 H 3.0000001 C 3.5453503,12.5 4,12.04535 4,11.5 c 0,-0.54535 -0.4546497,-1 -0.9999999,-1 z" />
  <path
     id="rect4"
     style="fill:#222222;fill-opacity:0.33;stroke-linejoin:round"
     d="m 5.5,7 h 1 c 0.554,0 1,0.446 1,1 0,0.554 -0.446,1 -1,1 h -1 c -0.554,0 -1,-0.446 -1,-1 0,-0.554 0.446,-1 1,-1 z" />
  <path
     id="rect4-5"
     style="fill:#222222;fill-opacity:0.33;stroke-linejoin:round"
     d="m 9,7 h 1 c 0.554,0 1,0.446 1,1 0,0.554 -0.446,1 -1,1 H 9 C 8.446,9 8,8.554 8,8 8,7.446 8.446,7 9,7 Z" />
  <path
     id="rect4-5-2"
     style="fill:#222222;fill-opacity:0.33;stroke-linejoin:round"
     d="m 12.5,7 h 1 c 0.554,0 1,0.446 1,1 0,0.554 -0.446,1 -1,1 h -1 c -0.554,0 -1,-0.446 -1,-1 0,-0.554 0.446,-1 1,-1 z" />
  <path
     id="rect4-8"
     style="fill:#222222;fill-opacity:0.33;stroke-linejoin:round"
     d="m 6.5,4.0423729 h 1 c 0.554,0 1,0.446 1,1 0,0.554 -0.446,1 -1,1 h -1 c -0.554,0 -1,-0.446 -1,-1 0,-0.554 0.446,-1 1,-1 z" />
  <path
     id="rect4-8-5"
     style="fill:#222222;fill-opacity:0.33;stroke-linejoin:round"
     d="M 2,7 H 3 C 3.554,7 4,7.446 4,8 4,8.554 3.554,9 3,9 H 2 C 1.446,9 1,8.554 1,8 1,7.446 1.446,7 2,7 Z" />
  <path
     id="rect4-5-9"
     style="fill:#222222;fill-opacity:0.33;stroke-linejoin:round"
     d="m 10,4.0423729 h 1 c 0.554,0 1,0.446 1,1 0,0.554 -0.446,1 -1,1 h -1 c -0.554,0 -1,-0.446 -1,-1 0,-0.554 0.446,-1 1,-1 z" />
  <path
     id="rect4-5-2-7"
     style="fill:#222222;fill-opacity:0.33;stroke-linejoin:round"
     d="m 13.5,4.0423729 h 1 c 0.554,0 1,0.446 1,1 0,0.554 -0.446,1 -1,1 h -1 c -0.554,0 -1,-0.446 -1,-1 0,-0.554 0.446,-1 1,-1 z" />
</svg>
