<?xml version="1.0" encoding="UTF-8" standalone="no"?>
<svg
   height="16.85247"
   viewBox="0 0 16.85247 16.85247"
   width="16.85247"
   xmlns="http://www.w3.org/2000/svg">
   <defs
      id="defs2" />
   <g
      id="g2"
      transform="translate(0.42623524,0.42623524)">
      <path
         id="path1"
         d="M 6.9570312,3.015625 C 6.8554694,3.019531 6.7578124,3.0390625 6.6640625,3.0703125 6.6015626,3.0937505 6.5390619,3.125 6.484375,3.15625 6.453125,3.175781 6.4257807,3.1953118 6.4023438,3.2148438 6.3203118,3.2734377 6.2500002,3.3476563 6.1914062,3.4257812 6.1093753,3.5351561 6.0546877,3.6601566 6.0273438,3.7890625 c -0.00781,0.03125 -0.015624,0.066406 -0.019531,0.097656 C 6.0039065,3.9257807 6,3.960938 6,4 v 3.1660156 l 7.761719,7.7597654 C 13.905396,14.654087 14,14.338983 14,14 V 10 C 14,9.5390625 13.687499,9.1406249 13.242188,9.03125 l -4.0000005,-1 C 9.1640616,8.007812 9.0820309,8 9,8 H 8 V 4 C 8,3.8984381 7.9804687,3.8007812 7.9492188,3.7070312 7.9218748,3.6093753 7.8750002,3.5195309 7.8164062,3.4375 7.7968753,3.410156 7.7773442,3.382812 7.7539062,3.359375 7.6914063,3.2851561 7.6132807,3.2187504 7.5273438,3.1640625 7.4999998,3.1484385 7.4726562,3.1328115 7.4414062,3.1171875 7.4101563,3.1015615 7.3828122,3.089844 7.3476562,3.078125 7.3164063,3.066406 7.2851562,3.054688 7.2539062,3.046875 7.2226563,3.039062 7.1875,3.0312495 7.15625,3.0234375 7.0898441,3.0156245 7.0234382,3.011719 6.9570312,3.015625 Z M 6,9.5410156 V 12.382812 L 3.4492188,11.105469 c -0.4648436,-0.234375 -1.0312506,-0.07422 -1.3007813,0.367187 -0.2734377,0.441406 -0.1640623,1.019533 0.2539063,1.328125 l 3.9765624,2.980469 0.019531,0.01953 c 0.011718,0.0078 0.019531,0.01172 0.03125,0.01953 0.015624,0.01172 0.031251,0.01953 0.046875,0.03125 0.011719,0.0078 0.023437,0.01172 0.035156,0.01953 0.015625,0.0078 0.03125,0.01563 0.042969,0.02344 0.019531,0.0078 0.039063,0.01563 0.054687,0.02344 0.015625,0.0078 0.027343,0.01172 0.039063,0.01563 0.019531,0.0078 0.042968,0.01563 0.0625,0.02344 0.00781,0.0039 0.019531,0.0039 0.03125,0.0078 0.015624,0.0039 0.03125,0.0078 0.050781,0.01172 0.015625,0.0039 0.035157,0.0078 0.054687,0.01172 0.011719,0 0.019532,0.0039 0.027344,0.0039 0.027344,0.0039 0.054688,0.0039 0.082031,0.0078 H 7 12 c 0,0 0.169153,0.0058 0.412109,-0.04492 z" />
      <path
         id="path2"
         fill-opacity="0.34902"
         d="M 7,0 C 4.8007832,0 3,1.8007832 3,4 3,4.057957 3.00334,4.114529 3.00586,4.171875 L 5,6.1660156 V 4 C 5,2.9101571 5.9101571,2 7,2 8.0898429,2 9,2.9101571 9,4 v 3 c 0.082031,0 0.1640616,0.00781 0.2421875,0.03125 l 0.2539063,0.0625 C 10.406249,6.3593757 11,5.2499987 11,4 11,1.8007832 9.1953098,0 7,0 Z" />
   </g>
   <path
      d="M 1.1887636,0 0,1.1887636 15.663707,16.85247 16.85247,15.663707 Z m 0,0"
      id="path2-7"
   />
</svg>