<?xml version="1.0" encoding="UTF-8" standalone="no"?>
<svg
   height="16px"
   viewBox="0 0 16 16"
   width="16px"
   version="1.1"
   id="svg173"
   xmlns="http://www.w3.org/2000/svg"
   xmlns:svg="http://www.w3.org/2000/svg">
  <defs
     id="defs177" />
  <filter
     id="a"
     height="1"
     width="1"
     x="0"
     y="0">
    <feColorMatrix
       in="SourceGraphic"
       type="matrix"
       values="0 0 0 0 1 0 0 0 0 1 0 0 0 0 1 0 0 0 1 0"
       id="feColorMatrix2" />
  </filter>
  <mask
     id="b">
    <g
       filter="url(#a)"
       id="g7">
      <path
         d="m 0 0 h 16 v 16 h -16 z"
         fill-opacity="0.3"
         id="path5" />
    </g>
  </mask>
  <clipPath
     id="c">
    <path
       d="m 0 0 h 1024 v 800 h -1024 z"
       id="path10" />
  </clipPath>
  <mask
     id="d">
    <g
       filter="url(#a)"
       id="g15">
      <path
         d="m 0 0 h 16 v 16 h -16 z"
         fill-opacity="0.05"
         id="path13" />
    </g>
  </mask>
  <clipPath
     id="e">
    <path
       d="m 0 0 h 1024 v 800 h -1024 z"
       id="path18" />
  </clipPath>
  <mask
     id="f">
    <g
       filter="url(#a)"
       id="g23">
      <path
         d="m 0 0 h 16 v 16 h -16 z"
         fill-opacity="0.05"
         id="path21" />
    </g>
  </mask>
  <clipPath
     id="g">
    <path
       d="m 0 0 h 1024 v 800 h -1024 z"
       id="path26" />
  </clipPath>
  <mask
     id="h">
    <g
       filter="url(#a)"
       id="g31">
      <path
         d="m 0 0 h 16 v 16 h -16 z"
         fill-opacity="0.05"
         id="path29" />
    </g>
  </mask>
  <clipPath
     id="i">
    <path
       d="m 0 0 h 1024 v 800 h -1024 z"
       id="path34" />
  </clipPath>
  <mask
     id="j">
    <g
       filter="url(#a)"
       id="g39">
      <path
         d="m 0 0 h 16 v 16 h -16 z"
         fill-opacity="0.05"
         id="path37" />
    </g>
  </mask>
  <clipPath
     id="k">
    <path
       d="m 0 0 h 1024 v 800 h -1024 z"
       id="path42" />
  </clipPath>
  <mask
     id="l">
    <g
       filter="url(#a)"
       id="g47">
      <path
         d="m 0 0 h 16 v 16 h -16 z"
         fill-opacity="0.05"
         id="path45" />
    </g>
  </mask>
  <clipPath
     id="m">
    <path
       d="m 0 0 h 1024 v 800 h -1024 z"
       id="path50" />
  </clipPath>
  <mask
     id="n">
    <g
       filter="url(#a)"
       id="g55">
      <path
         d="m 0 0 h 16 v 16 h -16 z"
         fill-opacity="0.05"
         id="path53" />
    </g>
  </mask>
  <clipPath
     id="o">
    <path
       d="m 0 0 h 1024 v 800 h -1024 z"
       id="path58" />
  </clipPath>
  <mask
     id="p">
    <g
       filter="url(#a)"
       id="g63">
      <path
         d="m 0 0 h 16 v 16 h -16 z"
         fill-opacity="0.3"
         id="path61" />
    </g>
  </mask>
  <clipPath
     id="q">
    <path
       d="m 0 0 h 1024 v 800 h -1024 z"
       id="path66" />
  </clipPath>
  <mask
     id="r">
    <g
       filter="url(#a)"
       id="g71">
      <path
         d="m 0 0 h 16 v 16 h -16 z"
         fill-opacity="0.5"
         id="path69" />
    </g>
  </mask>
  <clipPath
     id="s">
    <path
       d="m 0 0 h 1024 v 800 h -1024 z"
       id="path74" />
  </clipPath>
  <mask
     id="t">
    <g
       filter="url(#a)"
       id="g79">
      <path
         d="m 0 0 h 16 v 16 h -16 z"
         fill-opacity="0.4"
         id="path77" />
    </g>
  </mask>
  <clipPath
     id="u">
    <path
       d="m 0 0 h 1024 v 800 h -1024 z"
       id="path82" />
  </clipPath>
  <mask
     id="v">
    <g
       filter="url(#a)"
       id="g87">
      <path
         d="m 0 0 h 16 v 16 h -16 z"
         fill-opacity="0.4"
         id="path85" />
    </g>
  </mask>
  <clipPath
     id="w">
    <path
       d="m 0 0 h 1024 v 800 h -1024 z"
       id="path90" />
  </clipPath>
  <mask
     id="x">
    <g
       filter="url(#a)"
       id="g95">
      <path
         d="m 0 0 h 16 v 16 h -16 z"
         fill-opacity="0.5"
         id="path93" />
    </g>
  </mask>
  <clipPath
     id="y">
    <path
       d="m 0 0 h 1024 v 800 h -1024 z"
       id="path98" />
  </clipPath>
  <mask
     id="z">
    <g
       filter="url(#a)"
       id="g103">
      <path
         d="m 0 0 h 16 v 16 h -16 z"
         fill-opacity="0.5"
         id="path101" />
    </g>
  </mask>
  <clipPath
     id="A">
    <path
       d="m 0 0 h 1024 v 800 h -1024 z"
       id="path106" />
  </clipPath>
  <g
     clip-path="url(#c)"
     mask="url(#b)"
     transform="matrix(1 0 0 1 -76 -700)"
     id="g111">
    <path
       d="m 562.460938 212.058594 h 10.449218 c -1.183594 0.492187 -1.296875 2.460937 0 3 h -10.449218 z m 0 0"
       fill="#2e3436"
       id="path109" />
  </g>
  <g
     clip-path="url(#e)"
     mask="url(#d)"
     transform="matrix(1 0 0 1 -76 -700)"
     id="g115">
    <path
       d="m 16 632 h 1 v 1 h -1 z m 0 0"
       fill="#2e3436"
       fill-rule="evenodd"
       id="path113" />
  </g>
  <g
     clip-path="url(#g)"
     mask="url(#f)"
     transform="matrix(1 0 0 1 -76 -700)"
     id="g119">
    <path
       d="m 17 631 h 1 v 1 h -1 z m 0 0"
       fill="#2e3436"
       fill-rule="evenodd"
       id="path117" />
  </g>
  <g
     clip-path="url(#i)"
     mask="url(#h)"
     transform="matrix(1 0 0 1 -76 -700)"
     id="g123">
    <path
       d="m 18 634 h 1 v 1 h -1 z m 0 0"
       fill="#2e3436"
       fill-rule="evenodd"
       id="path121" />
  </g>
  <g
     clip-path="url(#k)"
     mask="url(#j)"
     transform="matrix(1 0 0 1 -76 -700)"
     id="g127">
    <path
       d="m 16 634 h 1 v 1 h -1 z m 0 0"
       fill="#2e3436"
       fill-rule="evenodd"
       id="path125" />
  </g>
  <g
     clip-path="url(#m)"
     mask="url(#l)"
     transform="matrix(1 0 0 1 -76 -700)"
     id="g131">
    <path
       d="m 17 635 h 1 v 1 h -1 z m 0 0"
       fill="#2e3436"
       fill-rule="evenodd"
       id="path129" />
  </g>
  <g
     clip-path="url(#o)"
     mask="url(#n)"
     transform="matrix(1 0 0 1 -76 -700)"
     id="g135">
    <path
       d="m 19 635 h 1 v 1 h -1 z m 0 0"
       fill="#2e3436"
       fill-rule="evenodd"
       id="path133" />
  </g>
  <g
     clip-path="url(#q)"
     mask="url(#p)"
     transform="matrix(1 0 0 1 -76 -700)"
     id="g139">
    <path
       d="m 136 660 v 7 h 7 v -7 z m 0 0"
       fill="#2e3436"
       id="path137" />
  </g>
  <g
     clip-path="url(#s)"
     mask="url(#r)"
     transform="matrix(1 0 0 1 -76 -700)"
     id="g143">
    <path
       d="m 199 642 h 3 v 12 h -3 z m 0 0"
       fill="#2e3436"
       id="path141" />
  </g>
  <g
     clip-path="url(#u)"
     mask="url(#t)"
     transform="matrix(1 0 0 1 -76 -700)"
     id="g159">
    <path
       d="m 209.5 144.160156 c 0.277344 0 0.5 0.222656 0.5 0.5 v 1 c 0 0.277344 -0.222656 0.5 -0.5 0.5 s -0.5 -0.222656 -0.5 -0.5 v -1 c 0 -0.277344 0.222656 -0.5 0.5 -0.5 z m 0 0"
       fill="#2e3436"
       id="path157" />
  </g>
  <g
     clip-path="url(#w)"
     mask="url(#v)"
     transform="matrix(1 0 0 1 -76 -700)"
     id="g163">
    <path
       d="m 206.5 144.160156 c 0.277344 0 0.5 0.222656 0.5 0.5 v 1 c 0 0.277344 -0.222656 0.5 -0.5 0.5 s -0.5 -0.222656 -0.5 -0.5 v -1 c 0 -0.277344 0.222656 -0.5 0.5 -0.5 z m 0 0"
       fill="#2e3436"
       id="path161" />
  </g>
  <g
     clip-path="url(#y)"
     mask="url(#x)"
     transform="matrix(1 0 0 1 -76 -700)"
     id="g167">
    <path
       d="m 229.5 143.160156 c -0.546875 0 -1 0.457032 -1 1 c 0 0.546875 0.453125 1 1 1 s 1 -0.453125 1 -1 c 0 -0.542968 -0.453125 -1 -1 -1 z m 0 0"
       fill="#2e3436"
       id="path165" />
  </g>
  <g
     clip-path="url(#A)"
     mask="url(#z)"
     transform="matrix(1 0 0 1 -76 -700)"
     id="g171">
    <path
       d="m 226.453125 143.160156 c -0.519531 0 -0.953125 0.433594 -0.953125 0.953125 v 0.09375 c 0 0.519531 0.433594 0.953125 0.953125 0.953125 h 0.09375 c 0.519531 0 0.953125 -0.433594 0.953125 -0.953125 v -0.09375 c 0 -0.519531 -0.433594 -0.953125 -0.953125 -0.953125 z m 0 0"
       fill="#2e3436"
       id="path169" />
  </g>
  <g
     id="g6159">
    <path
       d="m 14.338971,1.4853358 -0.0079,-0.036595 a 0.2872585,0.23604095 89.999997 0 0 0.08165,0.5658586 v 0 l -0.0028,-0.037695 a 0.24955974,0.2050638 89.999997 0 0 -0.0709,-0.491596 v 0 m -0.161316,0.4093219 -0.02462,0.023036 a 0.32495443,0.26701578 89.999997 0 0 0.439711,-0.3688158 v 0 l -0.02642,0.019761 a 0.28725548,0.23603846 89.999997 0 0 -0.38867,0.3260187 v 0 m 0.111908,-0.4701004 -0.01455,-0.033842 a 0.36264902,0.29798951 89.999997 0 0 0.186033,0.6890577 v 0 l -0.005,-0.03765 A 0.32496368,0.26702338 89.999997 0 0 14.289372,1.4246521 v 0 m 0.06266,-0.051557 -0.02081,-0.036403 a 0.40034269,0.32896248 89.999997 0 0 0.03535,0.7995248 v 0 l 0.01768,-0.038964 a 0.36264909,0.29798956 89.999997 0 0 -0.032,-0.7242519 v 0 m -0.0019,-0.036917 -0.04258,-0.037919 a 0.43803841,0.35993714 89.999997 0 0 -0.0029,0.8760683 v 0 l 0.04286,-0.037488 a 0.40034269,0.32896248 89.999997 0 0 0.0027,-0.8006643 v 0"
       fill="rgb(000,000,000,1.000)"
       stroke="none"
       id="path6122"
       style="fill:#2e3436;fill-opacity:1;stroke-width:0.323986" />
    <path
       d="m 14.317096,1.2983518 -0.07035,-0.060583 a 0.49600852,0.40757131 89.999997 0 0 -0.02446,0.9915702 v 0 l 0.07317,-0.055322 a 0.43803841,0.35993714 89.999997 0 0 0.02164,-0.8756647 v 0 m -0.06683,-0.060415 -0.09301,-0.06238 a 0.55396155,0.45519144 89.999997 0 0 -0.03519,1.1070873 v 0 l 0.09668,-0.053438 a 0.49599996,0.40756427 89.999997 0 0 0.03152,-0.9912533 v 0 m -0.09391,-0.06243 -0.107843,-0.062804 a 0.61192311,0.50281858 89.999997 0 0 -0.03685,1.2230149 v 0 l 0.111321,-0.053121 a 0.55396155,0.45519144 89.999997 0 0 0.03335,-1.1071626 v 0 M 14.04392,1.1124645 13.929195,1.0506162 a 0.66988714,0.55044776 89.999997 0 0 -0.03042,1.3392627 v 0 l 0.117357,-0.054042 a 0.61192311,0.50281858 89.999997 0 0 0.02779,-1.2233723 v 0 M 13.919945,1.05038 13.806218,0.99093135 a 0.72784622,0.59807286 89.999997 0 0 -0.01291,1.45560295 v 0 l 0.114736,-0.056366 a 0.66989358,0.55045305 89.999997 0 0 0.01193,-1.3397085 v 0"
       fill="rgb(000,000,000,1.000)"
       stroke="none"
       id="path6119"
       style="fill:#2e3436;fill-opacity:1;stroke-width:0.323986" />
    <path
       d="m 13.8094,0.99105004 -0.107571,-0.0496319 a 0.77535277,0.6371091 89.999997 0 0 -0.0205,1.55050476 v 0 L 13.79017,2.4465249 A 0.72784622,0.59807286 89.999997 0 0 13.8094,0.99103359 v 0 m -0.09994,-0.0494133 -0.106643,-0.0511209 a 0.82282723,0.67611897 89.999997 0 0 -0.03789,1.64497651 v 0 l 0.108807,-0.043798 a 0.77534009,0.63709868 89.999997 0 0 0.03572,-1.55007063 v 0 M 13.587342,0.89015747 13.47406,0.84194127 a 0.87032642,0.71514916 89.999997 0 0 -0.0074,1.74062953 v 0 l 0.113734,-0.046793 a 0.82282774,0.67611938 89.999997 0 0 0.0069,-1.64563392 v 0 m -0.148688,-0.0473442 -0.127314,-0.0406839 a 0.91782168,0.75417612 89.999997 0 0 0.06683,1.83384052 v 0 l 0.123889,-0.054244 a 0.87031777,0.71514205 89.999997 0 0 -0.06341,-1.73891208 v 0 m -0.174311,-0.0363484 -0.148196,-0.028423 a 0.96530018,0.79318931 89.999997 0 0 0.16919,1.91958898 v 0 l 0.139814,-0.066152 A 0.91780828,0.75416511 89.999997 0 0 13.264285,0.80631901 v 0"
       fill="rgb(000,000,000,1.000)"
       stroke="none"
       id="path6116"
       style="fill:#2e3436;fill-opacity:1;stroke-width:0.323986" />
    <path
       d="m 13.070027,0.78577003 -0.174958,-0.006186 A 1.0064849,0.82703087 89.999997 0 0 13.16767,2.7650264 v 0 l 0.163785,-0.075078 A 0.96529882,0.79318819 89.999997 0 0 13.070022,0.78575349 v 0 m -0.203184,1.8524e-4 -0.197308,0.006713 A 1.047671,0.86087357 89.999997 0 0 13.012026,2.846102 v 0 L 13.195871,2.758678 A 1.0064849,0.82703087 89.999997 0 0 12.866842,0.78594866 v 0 m -0.212232,0.0105534 -0.208614,0.0140462 a 1.0888571,0.89471627 89.999997 0 0 0.386972,2.12617364 v 0 L 13.027,2.8424101 A 1.0476712,0.86087376 89.999997 0 0 12.65466,0.7966509 v 0 m -0.21428,0.0155975 -0.209056,0.0158458 a 1.130045,0.92856048 89.999997 0 0 0.413379,2.2033883 v 0 l 0.193966,-0.096209 A 1.0888571,0.89471627 89.999997 0 0 12.440363,0.81219874 v 0 m -0.205893,0.0149658 -0.198728,0.0121158 a 1.1712368,0.96240791 89.999997 0 0 0.421833,2.28552816 v 0 L 12.64153,3.0324257 A 1.130049,0.92856378 89.999997 0 0 12.234508,0.82727699 v 0"
       fill="rgb(000,000,000,1.000)"
       stroke="none"
       id="path6113"
       style="fill:#2e3436;fill-opacity:1;stroke-width:0.323986" />
    <path
       d="m 12.040889,0.83778714 -0.183093,0.0280371 a 1.1914819,0.97904333 89.999997 0 0 0.418559,2.32788486 v 0 l 0.175979,-0.067596 A 1.1712292,0.96240165 89.999997 0 0 12.040892,0.83779706 v 0 m -0.184894,0.0285323 -0.178276,0.0271677 a 1.2117172,0.99567076 89.999997 0 0 0.429356,2.36641254 v 0 l 0.171076,-0.066699 A 1.1914732,0.97903622 89.999997 0 0 11.855998,0.86632936 v 0 m -0.18261,0.028341 -0.175907,0.0275132 a 1.2319615,1.0123055 89.999997 0 0 0.445343,2.40357614 v 0 l 0.168593,-0.067007 A 1.2117192,0.99567242 89.999997 0 0 11.673388,0.8946704 v 0 M 11.49066,0.9240745 11.314646,0.9531584 a 1.2522052,1.0289398 89.999997 0 0 0.466584,2.439189 v 0 L 11.94965,3.323882 A 1.2319723,1.0123144 89.999997 0 0 11.490664,0.92408777 v 0 m -0.185124,0.031717 -0.17848,0.0318455 a 1.2724493,1.0455744 89.999997 0 0 0.492633,2.47324893 v 0 L 11.79032,3.389751 A 1.252214,1.028947 89.999997 0 0 11.30554,0.95580481 v 0"
       fill="rgb(000,000,000,1.000)"
       stroke="none"
       id="path6110"
       style="fill:#2e3436;fill-opacity:1;stroke-width:0.323986" />
    <path
       d="m 11.11892,0.99005507 -0.175453,0.0395287 a 1.2860834,1.0567776 89.999997 0 0 0.514356,2.4948195 v 0 l 0.170018,-0.065979 A 1.2724493,1.0455744 89.999997 0 0 11.11892,0.99005507 v 0 m -0.182469,0.0416903 -0.172097,0.039978 a 1.2997245,1.0679865 89.999997 0 0 0.533942,2.5169218 v 0 L 11.46481,3.5222486 A 1.2860854,1.0567792 89.999997 0 0 10.936451,1.0317454 v 0 m -0.180232,0.042585 -0.175029,0.042677 a 1.3133537,1.0791856 89.999997 0 0 0.55591,2.5380884 v 0 l 0.169272,-0.069044 A 1.2997176,1.0679808 89.999997 0 0 10.756219,1.0743302 v 0 m -0.183311,0.045412 -0.184247,0.047538 a 1.32699,1.0903907 89.999997 0 0 0.57846,2.558911 v 0 L 11.14541,3.6523477 A 1.3133518,1.0791841 89.999997 0 0 10.572908,1.1197421 v 0 m -0.191942,0.050134 -0.199619,0.054576 a 1.3406214,1.1015916 89.999997 0 0 0.599932,2.5799232 v 0 l 0.193526,-0.080813 A 1.3269888,1.0903896 89.999997 0 0 10.380966,1.1698766 v 0"
       fill="rgb(000,000,000,1.000)"
       stroke="none"
       id="path6107"
       style="fill:#2e3436;fill-opacity:1;stroke-width:0.323986" />
    <path
       d="m 10.174872,1.2267116 -0.2286072,0.066039 a 1.3545815,1.1130626 89.999997 0 0 0.6192382,2.6022339 v 0 l 0.222221,-0.092864 A 1.3406205,1.1015908 89.999997 0 0 10.174869,1.2267017 v 0 M 9.9411032,1.2945757 9.6878081,1.3709007 A 1.3685447,1.1245362 89.999997 0 0 10.323807,3.996273 v 0 L 10.570661,3.8931491 A 1.3545815,1.1130626 89.999997 0 0 9.9411076,1.2945886 v 0 M 9.6826382,1.3727956 9.4248101,1.4523436 A 1.3825075,1.1360094 89.999997 0 0 10.077718,4.10073 v 0 L 10.328931,3.9944314 A 1.3685428,1.1245347 89.999997 0 0 9.6826382,1.3727954 v 0 M 9.4183138,1.454729 9.1762431,1.5304615 a 1.3964681,1.147481 89.999997 0 0 0.6727013,2.6702576 v 0 L 10.084242,4.0983307 A 1.3825175,1.1360177 89.999997 0 0 9.4183138,1.454729 v 0 M 9.1661087,1.534296 8.9600611,1.599102 a 1.410427,1.158951 89.999997 0 0 0.6999111,2.689177 v 0 L 9.8590787,4.1968848 A 1.39647,1.1474825 89.999997 0 0 9.1661132,1.5343091 v 0"
       fill="rgb(000,000,000,1.000)"
       stroke="none"
       id="path6104"
       style="fill:#2e3436;fill-opacity:1;stroke-width:0.323986" />
    <path
       d="M 8.9451549,1.6049764 8.7929437,1.6550204 A 1.4212471,1.1678419 89.999997 0 0 9.5282371,4.352976 v 0 L 9.6748384,4.2822847 A 1.410427,1.158951 89.999997 0 0 8.9451215,1.6048772 v 0 m -0.1741414,0.059189 -0.112723,0.037059 a 1.4320734,1.1767379 89.999997 0 0 0.7850708,2.7000944 v 0 L 9.55011,4.3437551 A 1.4212471,1.1678419 89.999997 0 0 8.7709835,1.6640758 v 0 m -0.1395594,0.049072 -0.098867,0.034291 A 1.442894,1.1856292 89.999997 0 0 9.377603,4.4437599 v 0 L 9.470164,4.3892069 A 1.4320672,1.1767328 89.999997 0 0 8.6314241,1.7131482 v 0 m -0.1136172,0.041289 -0.1105765,0.041745 a 1.4537112,1.1945177 89.999997 0 0 0.8810968,2.7024646 v 0 L 9.3923375,4.4368082 A 1.4428896,1.1856256 89.999997 0 0 8.5177037,1.7545081 v 0 M 8.4090954,1.795311 8.2613242,1.8546904 A 1.4645273,1.2034053 89.999997 0 0 9.1450293,4.579162 v 0 L 9.2862726,4.4997084 A 1.4537142,1.1945202 89.999997 0 0 8.4091065,1.7953441 v 0"
       fill="rgb(000,000,000,1.000)"
       stroke="none"
       id="path6101"
       style="fill:#2e3436;fill-opacity:1;stroke-width:0.323986" />
    <path
       d="m 8.2686777,1.8512678 -0.189919,0.062566 a 1.4896594,1.2240565 89.999997 0 0 0.8842496,2.7781843 v 0 L 9.1379955,4.5825915 A 1.4645273,1.2034053 89.999997 0 0 8.2686821,1.851281 v 0 M 8.0790078,1.913726 7.8682805,1.986037 a 1.5147941,1.2447097 89.999997 0 0 0.8986912,2.8252852 v 0 L 8.9627942,4.6921366 A 1.4896581,1.2240553 89.999997 0 0 8.0790111,1.9137354 v 0 M 7.8609005,1.9895689 7.630303,2.0732816 a 1.5399188,1.2653547 89.999997 0 0 0.9286082,2.864996 v 0 L 8.7743705,4.8078457 A 1.514789,1.2447055 89.999997 0 0 7.8609094,1.9895954 v 0 M 7.616976,2.0797949 7.367467,2.1764398 a 1.5650507,1.2860057 89.999997 0 0 0.9708315,2.8985549 v 0 L 8.5722504,4.9318006 A 1.5399194,1.2653552 89.999997 0 0 7.6170609,2.0797642 v 0 M 7.3494124,2.1855971 7.0819844,2.296804 a 1.5901798,1.3066543 89.999997 0 0 1.0233153,2.9263901 v 0 L 8.3565456,5.0657493 A 1.5650492,1.2860045 89.999997 0 0 7.349418,2.1856137 v 0"
       fill="rgb(000,000,000,1.000)"
       stroke="none"
       id="path6098"
       style="fill:#2e3436;fill-opacity:1;stroke-width:0.323986" />
    <path
       d="M 7.0766104,2.2995073 6.7691585,2.3941713 A 1.6512857,1.3568651 89.999997 0 0 7.8427702,5.427297 v 0 L 8.1105139,5.2203927 A 1.5901851,1.3066586 89.999997 0 0 7.0766104,2.2995073 v 0 m -0.308127,0.095016 -0.3364963,0.1101133 a 1.7123878,1.4070729 89.999997 0 0 1.1147505,3.1446189 v 0 L 7.8434148,5.4269493 A 1.6512826,1.3568626 89.999997 0 0 6.7684834,2.3945233 v 0 M 6.4171889,2.5125314 6.0671664,2.6352662 A 1.7734884,1.4572794 89.999997 0 0 7.252403,5.8756973 v 0 L 7.5615585,5.6413339 A 1.7123861,1.4070715 89.999997 0 0 6.4171889,2.5125314 v 0 M 6.0373237,2.6519276 5.6893083,2.7844064 a 1.8345929,1.507489 89.999997 0 0 1.2877986,3.3176355 v 0 L 7.2822524,5.8590557 A 1.7734909,1.4572814 89.999997 0 0 6.0373237,2.6519276 v 0 M 5.639991,2.8141183 5.3092931,2.9537444 a 1.8956941,1.5576961 89.999997 0 0 1.4326821,3.3666889 v 0 L 7.0264558,6.0723298 A 1.8345913,1.5074878 89.999997 0 0 5.6399944,2.8141282 v 0"
       fill="rgb(000,000,000,1.000)"
       stroke="none"
       id="path6095"
       style="fill:#2e3436;fill-opacity:1;stroke-width:0.323986" />
    <path
       d="M 5.2565253,2.9885768 4.9330928,3.13254 a 1.9648263,1.6145021 89.999997 0 0 1.5943173,3.4172436 v 0 L 6.7947375,6.2855843 A 1.8956998,1.5577007 89.999997 0 0 5.2565198,2.9885603 v 0 M 4.8942947,3.1602225 4.5709807,3.3173726 a 2.0339636,1.6713124 89.999997 0 0 1.7307818,3.4801402 v 0 L 6.5661854,6.5219388 A 1.9648371,1.614511 89.999997 0 0 4.8942413,3.1600637 v 0 M 4.5273129,3.3506738 4.2143324,3.5151514 a 2.1030891,1.728113 89.999997 0 0 1.8798857,3.5295711 v 0 L 6.3453942,6.7641987 A 2.0339555,1.6713058 89.999997 0 0 4.5273073,3.3506573 v 0 M 4.1609957,3.5589561 3.8681646,3.7247529 a 2.1722328,1.7849285 89.999997 0 0 2.0518678,3.5551234 v 0 L 6.147522,7.0009147 A 2.1030862,1.7281106 89.999997 0 0 4.1609924,3.5589462 v 0 M 3.7977272,3.7881959 3.5347983,3.9496824 a 2.2413501,1.8417224 89.999997 0 0 2.2625571,3.5373404 v 0 L 5.9905025,7.2164363 A 2.1722168,1.7849154 89.999997 0 0 3.7977328,3.7882124 v 0"
       fill="rgb(000,000,000,1.000)"
       stroke="none"
       id="path6092"
       style="fill:#2e3436;fill-opacity:1;stroke-width:0.323986" />
    <path
       d="m 3.4409183,4.0451399 -0.229223,0.1649019 a 2.3038247,1.8930579 89.999997 0 0 2.5187778,3.4400834 v 0 l 0.160914,-0.258203 A 2.2413474,1.8417202 89.999997 0 0 3.4409183,4.0451399 v 0 M 3.1144385,4.3232963 2.9086999,4.4909421 a 2.3663096,1.9444019 89.999997 0 0 2.7868897,3.3007117 v 0 L 5.8276972,7.5368677 A 2.3038247,1.8930579 89.999997 0 0 3.1144385,4.3232963 v 0 M 2.8149878,4.6169091 2.6317156,4.7847433 a 2.4287851,1.9957381 89.999997 0 0 3.0529276,3.1292195 v 0 L 5.7893605,7.6656729 A 2.36631,1.9444022 89.999997 0 0 2.8149878,4.6169091 v 0 M 2.5421442,4.9241571 2.3802882,5.0895284 A 2.4912563,2.0470709 89.999997 0 0 5.695433,8.0132439 v 0 L 5.7741874,7.7745625 A 2.4287888,1.9957412 89.999997 0 0 2.5421442,4.9241571 v 0 M 2.2953576,5.2439706 2.1537834,5.4043544 a 2.5537361,2.0984106 89.999997 0 0 3.5724269,2.6804138 v 0 l 0.054181,-0.22598 A 2.4912563,2.0470709 89.999997 0 0 2.2953576,5.2439706 v 0"
       fill="rgb(000,000,000,1.000)"
       stroke="none"
       id="path6089"
       style="fill:#2e3436;fill-opacity:1;stroke-width:0.323986" />
    <path
       d="M 2.0282207,5.6917224 1.9200099,5.8531819 a 2.6071643,2.1423127 89.999997 0 0 3.903547,2.1497414 v 0 L 5.8517742,7.7974036 A 2.5537356,2.0984102 89.999997 0 0 2.0282207,5.6917224 v 0 m -0.2289909,0.576391 -0.080255,0.1622124 a 2.6605948,2.1862167 89.999997 0 0 4.2300403,1.3469198 v 0 l -0.0047,-0.1892402 a 2.60716,2.1423092 89.999997 0 0 -4.14508,-1.319892 v 0 M 1.6661083,6.7602478 1.6044671,6.9225165 A 2.7140058,2.2301046 89.999997 0 0 6.027323,7.6233982 v 0 L 6.0018867,7.4473401 A 2.6605818,2.186206 89.999997 0 0 1.6661083,6.7602478 v 0 M 1.59098,7.0880414 1.5379718,7.2482391 a 2.7674299,2.2740033 89.999997 0 0 4.5374276,0.3770522 v 0 L 6.0406936,7.4579043 A 2.7140058,2.2301046 89.999997 0 0 1.5908713,7.0880956 v 0 m -0.050261,0.1163692 -0.054798,0.1551574 a 2.820854,2.317902 89.999997 0 0 4.6194311,0.4737091 v 0 L 6.0725762,7.6691769 A 2.7674409,2.2740123 89.999997 0 0 1.5406103,7.2044648 v 0"
       fill="rgb(000,000,000,1.000)"
       stroke="none"
       id="path6086"
       style="fill:#2e3436;fill-opacity:1;stroke-width:0.323986" />
    <path
       d="M 1.5005073,7.2017482 1.4551921,7.3426406 A 2.8557598,2.3465842 89.999997 0 0 6.102199,8.1417435 v 0 L 6.0907587,7.9910771 A 2.8208804,2.3179237 89.999997 0 0 1.5005073,7.2017482 v 0 m -0.0441,0.1307291 -0.04401,0.1260889 a 2.8906628,2.3752641 89.999997 0 0 4.7013822,0.8294486 v 0 L 6.1010162,8.1519098 A 2.8557575,2.3465823 89.999997 0 0 1.4564076,7.3324773 v 0 m -0.061567,0.3187692 -0.036884,0.1283133 a 2.9255658,2.403944 89.999997 0 0 4.7936809,0.4494774 v 0 L 6.1314182,8.0952939 A 2.8906681,2.3752684 89.999997 0 0 1.3949225,7.6512059 v 0 M 1.3530767,8.1276203 1.3294698,8.2745624 A 2.9604678,2.432623 89.999997 0 0 6.1903737,8.024883 v 0 L 6.156573,7.8809497 A 2.9255644,2.4039428 89.999997 0 0 1.352968,8.1276745 v 0 m 0.00871,0.5187238 -0.00389,0.1803695 a 2.9953712,2.4613032 89.999997 0 0 4.85284,-1.0049451 v 0 L 6.1580252,7.6531148 A 2.9604678,2.432623 89.999997 0 0 1.3617367,8.6463712 v 0"
       fill="rgb(000,000,000,1.000)"
       stroke="none"
       id="path6083"
       style="fill:#2e3436;fill-opacity:1;stroke-width:0.323986" />
    <path
       d="m 1.3736647,8.9291923 0.00335,0.2116205 a 3.0341435,2.4931625 89.999997 0 0 4.8835828,-1.225509 v 0 L 6.1948328,7.7193576 A 2.9953712,2.4613032 89.999997 0 0 1.3736647,8.9291923 v 0 M 1.3846,9.1841468 1.3941791,9.4159109 A 3.0729005,2.5250092 89.999997 0 0 6.3247173,8.0870401 v 0 L 6.2524864,7.872227 A 3.0341367,2.4931569 89.999997 0 0 1.3841379,9.1843769 v 0 m 0.059049,0.4612721 0.030126,0.2538936 A 3.1116654,2.5568624 89.999997 0 0 6.3658303,8.0890799 v 0 L 6.27472,7.8577562 A 3.0729005,2.5250092 89.999997 0 0 1.4431324,9.6456761 v 0 m 0.1356929,0.6007839 0.065207,0.276971 a 3.1504298,2.5887152 89.999997 0 0 4.739732,-2.5355018 v 0 L 6.2602247,7.7421701 A 3.1116702,2.5568664 89.999997 0 0 1.5787981,10.246473 v 0 m 0.2329061,0.66529 0.114867,0.300089 A 3.1891947,2.6205684 89.999997 0 0 6.3851396,7.8589557 v 0 L 6.2160221,7.5996711 A 3.1504298,2.5887152 89.999997 0 0 1.8116499,10.91179 v 0"
       fill="rgb(000,000,000,1.000)"
       stroke="none"
       id="path6080"
       style="fill:#2e3436;fill-opacity:1;stroke-width:0.323986" />
    <path
       d="m 2.0941495,11.502797 0.2155837,0.301215 A 3.1685796,2.6036289 89.999997 0 0 6.407674,7.8940749 v 0 L 6.2187956,7.5674342 A 3.1891958,2.6205693 89.999997 0 0 2.0941495,11.502797 v 0 m 0.3142864,0.445459 0.2659499,0.334832 A 3.1479648,2.5866897 89.999997 0 0 6.5495207,8.1119873 v 0 L 6.3089441,7.7498446 A 3.1685796,2.6036289 89.999997 0 0 2.4084359,11.948256 v 0 m 0.3439685,0.437475 0.2975103,0.344795 A 3.12735,2.5697505 89.999997 0 0 6.7447006,8.3828152 v 0 L 6.4715565,8.009318 a 3.1479785,2.586701 89.999997 0 0 -3.7191521,4.376413 v 0 m 0.3727528,0.43569 0.3102044,0.331021 A 3.1067459,2.55282 89.999997 0 0 6.9563292,8.6528275 v 0 L 6.6694581,8.2919205 A 3.1273585,2.5697575 89.999997 0 0 3.1251572,12.821421 v 0 m 0.3983281,0.428515 0.3038838,0.293349 A 3.0861266,2.5358771 89.999997 0 0 7.1498114,8.8798199 v 0 L 6.8681401,8.5553274 A 3.1067462,2.5528202 89.999997 0 0 3.5234853,13.249936 v 0"
       fill="rgb(000,000,000,1.000)"
       stroke="none"
       id="path6077"
       style="fill:#2e3436;fill-opacity:1;stroke-width:0.323986" />
    <path
       d="M 3.9773903,13.689815 4.305326,13.933804 A 3.0442361,2.5014556 89.999997 0 0 7.2866546,9.0445371 v 0 L 6.9997902,8.7332894 A 3.0861205,2.535872 89.999997 0 0 3.9773903,13.689815 v 0 m 0.4644226,0.358951 0.3532394,0.226947 A 3.0023521,2.4670394 89.999997 0 0 7.4661146,9.2269964 v 0 L 7.1501678,8.9295753 A 3.0442539,2.5014702 89.999997 0 0 4.4418129,14.048766 v 0 m 0.4339405,0.28755 0.3487968,0.202127 A 2.9604763,2.4326299 89.999997 0 0 7.6992517,9.440651 v 0 L 7.385479,9.1663993 A 3.0023654,2.4670504 89.999997 0 0 4.8757534,14.336316 v 0 m 0.3846508,0.227408 0.314431,0.169192 A 2.9185838,2.3982068 89.999997 0 0 7.9438241,9.6574543 v 0 L 7.6634089,9.4154034 A 2.9604678,2.432623 89.999997 0 0 5.2604042,14.563724 v 0 m 0.2958967,0.156255 0.2502842,0.128189 A 2.8766995,2.3637904 89.999997 0 0 8.1781115,9.8710382 v 0 L 7.9623584,9.6703908 A 2.9185838,2.3982068 89.999997 0 0 5.5563009,14.719979 v 0"
       fill="rgb(000,000,000,1.000)"
       stroke="none"
       id="path6074"
       style="fill:#2e3436;fill-opacity:1;stroke-width:0.323986" />
  </g>
</svg>
