<?xml version="1.0" encoding="UTF-8"?>
<svg height="16px" viewBox="0 0 16 16" width="16px" xmlns="http://www.w3.org/2000/svg"><path d="M2 6.486v4.5h.75v-.006c.2.003.39-.075.531-.213l1.5-1.5a.75.75 0 0 0 0-1.06l-1.5-1.5a.744.744 0 0 0-.531-.215v-.006zm12 0v4.5h-.75v-.006a.744.744 0 0 1-.531-.213l-1.5-1.5a.75.75 0 0 1 0-1.06l1.5-1.5a.759.759 0 0 1 .531-.218v-.003zM7.25 4.995v1.5h1.438c-.04 0 .065.12.065.061v.693H8c-1.286 0-2.274.846-2.29 1.863-.01.51.228 1.023.645 1.368.418.345.986.525 1.645.525h2.253V6.556a1.53 1.53 0 0 0-1.565-1.56zM8 8.75h.753v.753H8c-.39 0-.594-.102-.69-.182-.095-.08-.1-.129-.1-.181.003-.11.064-.39.79-.39Zm0 0" fill="#2e3436"/></svg>
