<?xml version="1.0" encoding="UTF-8" standalone="no"?>
<svg
   height="16px"
   viewBox="0 0 16 16"
   width="16px"
   version="1.1"
   id="svg1"
   xmlns="http://www.w3.org/2000/svg"
   xmlns:svg="http://www.w3.org/2000/svg">
  <defs
     id="defs1" />
  <path
     d="M 7.9999997,0 C 3.5937499,0 0,3.5937499 0,7.9999997 0,12.40625 3.5937499,16 7.9999997,16 12.40625,16 16,12.40625 16,7.9999997 16,3.5937499 12.40625,0 7.9999997,0 Z m 0,1.9999999 c 3.3124983,0 5.9999993,2.6874999 5.9999993,5.9999998 0,3.3124983 -2.687501,5.9999993 -5.9999993,5.9999993 -3.3124999,0 -5.9999998,-2.687501 -5.9999998,-5.9999993 0,-3.3124999 2.6874999,-5.9999998 5.9999998,-5.9999998 z m 0,2.9999998 c -1.6562501,0 -3,1.3437499 -3,3 0,1.6562499 1.3437499,2.9999993 3,2.9999993 1.6562499,0 2.9999993,-1.3437494 2.9999993,-2.9999993 0,-1.6562501 -1.3437494,-3 -2.9999993,-3 z m 0,1.0000002 c 1.1054692,0 2.0000001,0.8945309 2.0000001,1.9999998 0,1.1054692 -0.8945309,2.0000001 -2.0000001,2.0000001 -1.1054689,0 -1.9999998,-0.8945309 -1.9999998,-2.0000001 0,-1.1054689 0.8945309,-1.9999998 1.9999998,-1.9999998 z m 0,0.9999997 c -0.550781,0 -1.0000001,0.4492191 -1.0000001,1.0000001 0,0.5507812 0.4492191,1 1.0000001,1 0.5507812,0 1,-0.4492188 1,-1 0,-0.550781 -0.4492188,-1.0000001 -1,-1.0000001 z m 0,0"
     fill="#222222"
     id="path1"
     style="stroke-width:0.999999" />
</svg>
