<?xml version="1.0" encoding="UTF-8" standalone="no"?>
<svg
   height="16px"
   viewBox="0 0 16 16"
   width="16px"
   version="1.1"
   id="svg173"
   xmlns="http://www.w3.org/2000/svg"
   xmlns:svg="http://www.w3.org/2000/svg">
  <defs
     id="defs177" />
  <filter
     id="a"
     height="1"
     width="1"
     x="0"
     y="0">
    <feColorMatrix
       in="SourceGraphic"
       type="matrix"
       values="0 0 0 0 1 0 0 0 0 1 0 0 0 0 1 0 0 0 1 0"
       id="feColorMatrix2" />
  </filter>
  <mask
     id="b">
    <g
       filter="url(#a)"
       id="g7">
      <path
         d="m 0 0 h 16 v 16 h -16 z"
         fill-opacity="0.3"
         id="path5" />
    </g>
  </mask>
  <clipPath
     id="c">
    <path
       d="m 0 0 h 1024 v 800 h -1024 z"
       id="path10" />
  </clipPath>
  <mask
     id="d">
    <g
       filter="url(#a)"
       id="g15">
      <path
         d="m 0 0 h 16 v 16 h -16 z"
         fill-opacity="0.05"
         id="path13" />
    </g>
  </mask>
  <clipPath
     id="e">
    <path
       d="m 0 0 h 1024 v 800 h -1024 z"
       id="path18" />
  </clipPath>
  <mask
     id="f">
    <g
       filter="url(#a)"
       id="g23">
      <path
         d="m 0 0 h 16 v 16 h -16 z"
         fill-opacity="0.05"
         id="path21" />
    </g>
  </mask>
  <clipPath
     id="g">
    <path
       d="m 0 0 h 1024 v 800 h -1024 z"
       id="path26" />
  </clipPath>
  <mask
     id="h">
    <g
       filter="url(#a)"
       id="g31">
      <path
         d="m 0 0 h 16 v 16 h -16 z"
         fill-opacity="0.05"
         id="path29" />
    </g>
  </mask>
  <clipPath
     id="i">
    <path
       d="m 0 0 h 1024 v 800 h -1024 z"
       id="path34" />
  </clipPath>
  <mask
     id="j">
    <g
       filter="url(#a)"
       id="g39">
      <path
         d="m 0 0 h 16 v 16 h -16 z"
         fill-opacity="0.05"
         id="path37" />
    </g>
  </mask>
  <clipPath
     id="k">
    <path
       d="m 0 0 h 1024 v 800 h -1024 z"
       id="path42" />
  </clipPath>
  <mask
     id="l">
    <g
       filter="url(#a)"
       id="g47">
      <path
         d="m 0 0 h 16 v 16 h -16 z"
         fill-opacity="0.05"
         id="path45" />
    </g>
  </mask>
  <clipPath
     id="m">
    <path
       d="m 0 0 h 1024 v 800 h -1024 z"
       id="path50" />
  </clipPath>
  <mask
     id="n">
    <g
       filter="url(#a)"
       id="g55">
      <path
         d="m 0 0 h 16 v 16 h -16 z"
         fill-opacity="0.05"
         id="path53" />
    </g>
  </mask>
  <clipPath
     id="o">
    <path
       d="m 0 0 h 1024 v 800 h -1024 z"
       id="path58" />
  </clipPath>
  <mask
     id="p">
    <g
       filter="url(#a)"
       id="g63">
      <path
         d="m 0 0 h 16 v 16 h -16 z"
         fill-opacity="0.3"
         id="path61" />
    </g>
  </mask>
  <clipPath
     id="q">
    <path
       d="m 0 0 h 1024 v 800 h -1024 z"
       id="path66" />
  </clipPath>
  <mask
     id="r">
    <g
       filter="url(#a)"
       id="g71">
      <path
         d="m 0 0 h 16 v 16 h -16 z"
         fill-opacity="0.5"
         id="path69" />
    </g>
  </mask>
  <clipPath
     id="s">
    <path
       d="m 0 0 h 1024 v 800 h -1024 z"
       id="path74" />
  </clipPath>
  <mask
     id="t">
    <g
       filter="url(#a)"
       id="g79">
      <path
         d="m 0 0 h 16 v 16 h -16 z"
         fill-opacity="0.4"
         id="path77" />
    </g>
  </mask>
  <clipPath
     id="u">
    <path
       d="m 0 0 h 1024 v 800 h -1024 z"
       id="path82" />
  </clipPath>
  <mask
     id="v">
    <g
       filter="url(#a)"
       id="g87">
      <path
         d="m 0 0 h 16 v 16 h -16 z"
         fill-opacity="0.4"
         id="path85" />
    </g>
  </mask>
  <clipPath
     id="w">
    <path
       d="m 0 0 h 1024 v 800 h -1024 z"
       id="path90" />
  </clipPath>
  <mask
     id="x">
    <g
       filter="url(#a)"
       id="g95">
      <path
         d="m 0 0 h 16 v 16 h -16 z"
         fill-opacity="0.5"
         id="path93" />
    </g>
  </mask>
  <clipPath
     id="y">
    <path
       d="m 0 0 h 1024 v 800 h -1024 z"
       id="path98" />
  </clipPath>
  <mask
     id="z">
    <g
       filter="url(#a)"
       id="g103">
      <path
         d="m 0 0 h 16 v 16 h -16 z"
         fill-opacity="0.5"
         id="path101" />
    </g>
  </mask>
  <clipPath
     id="A">
    <path
       d="m 0 0 h 1024 v 800 h -1024 z"
       id="path106" />
  </clipPath>
  <g
     clip-path="url(#c)"
     mask="url(#b)"
     transform="matrix(1 0 0 1 -76 -700)"
     id="g111">
    <path
       d="m 562.460938 212.058594 h 10.449218 c -1.183594 0.492187 -1.296875 2.460937 0 3 h -10.449218 z m 0 0"
       fill="#2e3436"
       id="path109" />
  </g>
  <g
     clip-path="url(#e)"
     mask="url(#d)"
     transform="matrix(1 0 0 1 -76 -700)"
     id="g115">
    <path
       d="m 16 632 h 1 v 1 h -1 z m 0 0"
       fill="#2e3436"
       fill-rule="evenodd"
       id="path113" />
  </g>
  <g
     clip-path="url(#g)"
     mask="url(#f)"
     transform="matrix(1 0 0 1 -76 -700)"
     id="g119">
    <path
       d="m 17 631 h 1 v 1 h -1 z m 0 0"
       fill="#2e3436"
       fill-rule="evenodd"
       id="path117" />
  </g>
  <g
     clip-path="url(#i)"
     mask="url(#h)"
     transform="matrix(1 0 0 1 -76 -700)"
     id="g123">
    <path
       d="m 18 634 h 1 v 1 h -1 z m 0 0"
       fill="#2e3436"
       fill-rule="evenodd"
       id="path121" />
  </g>
  <g
     clip-path="url(#k)"
     mask="url(#j)"
     transform="matrix(1 0 0 1 -76 -700)"
     id="g127">
    <path
       d="m 16 634 h 1 v 1 h -1 z m 0 0"
       fill="#2e3436"
       fill-rule="evenodd"
       id="path125" />
  </g>
  <g
     clip-path="url(#m)"
     mask="url(#l)"
     transform="matrix(1 0 0 1 -76 -700)"
     id="g131">
    <path
       d="m 17 635 h 1 v 1 h -1 z m 0 0"
       fill="#2e3436"
       fill-rule="evenodd"
       id="path129" />
  </g>
  <g
     clip-path="url(#o)"
     mask="url(#n)"
     transform="matrix(1 0 0 1 -76 -700)"
     id="g135">
    <path
       d="m 19 635 h 1 v 1 h -1 z m 0 0"
       fill="#2e3436"
       fill-rule="evenodd"
       id="path133" />
  </g>
  <g
     clip-path="url(#q)"
     mask="url(#p)"
     transform="matrix(1 0 0 1 -76 -700)"
     id="g139">
    <path
       d="m 136 660 v 7 h 7 v -7 z m 0 0"
       fill="#2e3436"
       id="path137" />
  </g>
  <g
     clip-path="url(#s)"
     mask="url(#r)"
     transform="matrix(1 0 0 1 -76 -700)"
     id="g143">
    <path
       d="m 199 642 h 3 v 12 h -3 z m 0 0"
       fill="#2e3436"
       id="path141" />
  </g>
  <g
     clip-path="url(#u)"
     mask="url(#t)"
     transform="matrix(1 0 0 1 -76 -700)"
     id="g159">
    <path
       d="m 209.5 144.160156 c 0.277344 0 0.5 0.222656 0.5 0.5 v 1 c 0 0.277344 -0.222656 0.5 -0.5 0.5 s -0.5 -0.222656 -0.5 -0.5 v -1 c 0 -0.277344 0.222656 -0.5 0.5 -0.5 z m 0 0"
       fill="#2e3436"
       id="path157" />
  </g>
  <g
     clip-path="url(#w)"
     mask="url(#v)"
     transform="matrix(1 0 0 1 -76 -700)"
     id="g163">
    <path
       d="m 206.5 144.160156 c 0.277344 0 0.5 0.222656 0.5 0.5 v 1 c 0 0.277344 -0.222656 0.5 -0.5 0.5 s -0.5 -0.222656 -0.5 -0.5 v -1 c 0 -0.277344 0.222656 -0.5 0.5 -0.5 z m 0 0"
       fill="#2e3436"
       id="path161" />
  </g>
  <g
     clip-path="url(#y)"
     mask="url(#x)"
     transform="matrix(1 0 0 1 -76 -700)"
     id="g167">
    <path
       d="m 229.5 143.160156 c -0.546875 0 -1 0.457032 -1 1 c 0 0.546875 0.453125 1 1 1 s 1 -0.453125 1 -1 c 0 -0.542968 -0.453125 -1 -1 -1 z m 0 0"
       fill="#2e3436"
       id="path165" />
  </g>
  <g
     clip-path="url(#A)"
     mask="url(#z)"
     transform="matrix(1 0 0 1 -76 -700)"
     id="g171">
    <path
       d="m 226.453125 143.160156 c -0.519531 0 -0.953125 0.433594 -0.953125 0.953125 v 0.09375 c 0 0.519531 0.433594 0.953125 0.953125 0.953125 h 0.09375 c 0.519531 0 0.953125 -0.433594 0.953125 -0.953125 v -0.09375 c 0 -0.519531 -0.433594 -0.953125 -0.953125 -0.953125 z m 0 0"
       fill="#2e3436"
       id="path169" />
  </g>
  <g
     id="g8039"
     transform="matrix(-0.16576007,0.41998763,-0.41998763,-0.16576007,6.8456626,-1.5735451)">
    <g
       id="g4007"
       style="stroke:#2e3436;stroke-width:1.2"
       transform="translate(-552.8477,-1054.296)">
      <path
         style="color:#000000;fill:#2e3436;stroke:none;-inkscape-stroke:none"
         d="m 574.54102,1030.6445 -0.46094,0.2188 -3.9043,1.8555 -3.13867,4.7382 -0.0644,3.7715 3.60351,2.3692 4.76367,1.625 2.96875,-2.8301 1.90821,-5.6914 -3.62696,-3.084 z m -0.40821,1.5215 1.5586,2.2617 3.1289,2.6621 -1.55469,4.6407 -2.22851,2.1211 -3.92969,-1.3399 -2.92187,-1.9238 0.0449,-2.7617 2.76172,-4.166 z"
         id="path4003" />
      <path
         style="color:#000000;fill:#2e3436;stroke:none;-inkscape-stroke:none"
         d="m 574.55664,1030.6738 -0.0547,0.01 c -0.57033,0.087 -1.24713,0.3597 -2.00195,0.7227 -0.44846,0.2156 -0.88856,0.4997 -1.33789,0.7636 -0.33492,-0.1821 -0.67872,-0.3565 -0.96484,-0.4844 -0.16309,-0.073 -0.30967,-0.1332 -0.4336,-0.1796 -0.12392,-0.047 -0.14624,-0.087 -0.39258,-0.1016 l -0.0703,1.1973 c -0.17569,-0.01 -0.0466,0 0.043,0.029 0.0896,0.033 0.21704,0.085 0.36328,0.1504 0.0941,0.042 0.21582,0.1109 0.32227,0.1621 -0.49069,0.4884 -0.9303,1.1167 -1.33985,1.7597 -0.0368,0.015 -0.0792,0.026 -0.11523,0.041 -0.44402,0.1821 -0.83157,0.348 -1.14258,0.6797 l -0.0449,0.051 -0.0352,0.057 c -0.21887,0.3739 -0.24361,0.8039 -0.17578,1.1699 0.0217,0.1169 0.082,0.2155 0.11719,0.3261 -0.0478,0.084 -0.13022,0.2335 -0.17383,0.3067 l -0.0254,0.043 -0.0176,0.047 c -0.55586,1.4279 -0.50692,2.8045 -0.0332,3.752 l 0.01,0.02 0.01,0.018 c 0.36324,0.6132 0.97258,1.0609 1.625,1.4551 0.24867,0.1502 0.4824,0.2315 0.73633,0.3593 0.22733,0.7357 0.4296,1.4908 0.80469,1.9551 h 0.004 0.004 c 1.02159,1.2165 2.74747,1.6148 4.00781,0.9258 0.66269,-0.2343 1.35345,-0.6797 1.99414,-1.2461 0.0111,-0.01 0.0163,-0.023 0.0273,-0.033 0.88579,-0.4743 1.64175,-1.217 2.08204,-2.3594 l -0.0391,0.08 c 0.35508,-0.6265 0.91429,-1.5623 1.33399,-2.5586 0.4157,-0.9868 0.73101,-2.0458 0.45117,-3.0429 -0.20222,-0.9329 -0.96004,-1.4744 -1.66797,-1.9063 -0.42156,-0.2572 -0.72902,-0.4932 -1.0918,-0.7324 -0.009,-0.011 -0.0101,-0.03 -0.0195,-0.041 -0.20514,-0.2531 -0.50065,-0.3118 -0.74804,-0.4864 -0.0975,-0.1076 -0.1051,-0.1322 -0.10743,-0.1894 -0.003,-0.064 0.0431,-0.235 0.0273,-0.5332 -0.007,-0.1315 -0.14226,-0.2886 -0.20117,-0.4395 l 0.12109,0.01 c 0.0266,-0.333 -0.0403,-0.7516 -0.33594,-1.1211 -0.29563,-0.3695 -0.81275,-0.6201 -1.45898,-0.6406 z m -0.34375,1.3711 c 0.45649,0.2665 0.81151,0.5069 0.93945,0.6446 0.0644,0.069 0.0409,0.072 0.0586,0.1035 -0.60178,-0.1797 -1.20566,-0.2948 -1.65235,-0.4082 l -0.0391,-0.01 h -0.0391 c -0.26309,-0.031 -0.61529,0.099 -0.7832,0.3086 -0.14014,0.1747 -0.16208,0.3282 -0.1875,0.4726 -0.0637,-0.073 -0.11777,-0.1656 -0.18946,-0.2285 -0.008,-0.01 -0.021,-0.012 -0.0293,-0.02 0.25043,-0.136 0.48553,-0.2992 0.72851,-0.416 0.50213,-0.2415 0.84934,-0.3384 1.19336,-0.4434 z m -3.07812,1.5196 c 0.0797,0.053 0.1706,0.1075 0.23242,0.1543 -0.0481,0.024 -0.0705,0.041 -0.12891,0.066 -0.118,0.052 -0.31202,0.1127 -0.46094,0.1679 0.0691,-0.074 0.12758,-0.232 0.19532,-0.2949 0.0496,-0.033 0.11106,-0.061 0.16211,-0.094 z m 2.50781,0.084 c 0.75524,0.181 1.45872,0.4272 2.05469,0.7696 0.005,0.01 0.003,0.011 0.008,0.016 v 0 h 0.002 c 0.21799,0.2289 0.48046,0.3269 0.73047,0.502 0.79672,1.0212 1.29904,3.0393 1.36523,4.2305 l 0.002,0.031 0.004,0.031 c 0.10501,0.6524 0.0283,1.0667 -0.14843,1.4804 -0.17672,0.4138 -0.48348,0.8332 -0.85743,1.3633 l -0.0312,0.043 -0.0215,0.047 c -0.22784,0.4844 -0.7342,1.1013 -1.30664,1.6074 -0.007,0.01 -0.0128,0.01 -0.0195,0.012 -0.11311,0.036 -0.20019,0.143 -0.32031,0.1602 l -0.0547,0.01 -0.0508,0.016 c -0.16717,0.056 -0.88413,-0.053 -1.64844,-0.373 -0.76431,-0.3197 -1.59111,-0.766 -2.25,-1.0801 l -0.0176,-0.01 -0.0195,-0.01 c -0.2137,-0.085 -0.46895,-0.2338 -0.71094,-0.3457 -0.014,-0.046 -0.0254,-0.055 -0.0391,-0.1015 -0.2882,-0.9897 -0.55213,-2.0566 -0.79688,-2.8242 -2.1e-4,-10e-4 -0.002,0 -0.002,0 -0.18373,-0.779 -0.60581,-1.4476 -0.88086,-2.0098 0.30809,-0.5408 0.67501,-0.9923 1.04688,-1.5918 0.23484,-0.083 0.44728,-0.1654 0.69336,-0.248 0.47688,-0.1601 0.9489,-0.3169 1.3457,-0.4902 0.0843,-0.037 0.15251,-0.084 0.23047,-0.1231 0.20855,0.098 0.45195,0.3382 0.67773,0.3438 0.27003,0.01 0.58955,-0.1414 0.74805,-0.3457 0.1585,-0.2044 0.19783,-0.4007 0.22461,-0.5684 0.0378,-0.2367 0.0368,-0.3877 0.043,-0.543 z m -0.93164,0.4278 -0.10742,0.1797 c 0.0229,-0.026 0.0195,-0.07 0.0391,-0.1016 0.019,-0.036 0.0523,-0.036 0.0684,-0.078 z m 5.86718,2.582 c 0.0857,0.1177 0.32839,0.2347 0.35352,0.3574 l 0.004,0.025 0.008,0.024 c 0.0542,0.185 -0.12249,0.5687 -0.15039,0.8378 -0.0669,-0.4202 -0.0884,-0.7996 -0.21485,-1.2441 z m -10.55664,2.1191 c 0.11025,0.2389 0.27583,0.5168 0.32422,0.7227 l 0.006,0.023 0.008,0.024 c 0.13266,0.4116 0.31223,1.0856 0.47657,1.6894 -0.27647,-0.2185 -0.61792,-0.4486 -0.72461,-0.623 -0.18255,-0.379 -0.20662,-1.0719 -0.0898,-1.836 z m 10.97266,0.2637 0.006,0.061 c -7.1e-4,-0.013 -0.007,-0.032 -0.008,-0.045 -9.7e-4,-0.01 0.003,-0.01 0.002,-0.016 z m -8.00195,4.752 c 0.56497,0.2813 1.20043,0.6179 1.89453,0.9082 0.18028,0.075 0.35657,0.12 0.53515,0.1875 -0.65343,0.1976 -1.67773,0.024 -2.26171,-0.668 -0.0353,-0.044 -0.11938,-0.3323 -0.16797,-0.4277 z m 4.38672,1.3125 -0.10547,0.025 c 0.0179,0 0.029,-0.021 0.0469,-0.024 0.0195,-0.01 0.0391,0 0.0586,0 z"
         id="path4005" />
    </g>
    <g
       id="g4013"
       style="stroke:#2e3436;stroke-width:1.2"
       transform="translate(-552.8477,-1054.296)">
      <path
         style="color:#000000;fill:#2e3436;stroke:none;-inkscape-stroke:none"
         d="m 562.00195,1037.5137 v 0.5996 11.3691 h 12.82813 v -11.9687 z m 1.19922,1.2011 h 10.42969 v 9.5684 h -10.42969 z"
         id="path4009" />
      <path
         style="color:#000000;fill:#2e3436;stroke:none;-inkscape-stroke:none"
         d="m 562.02734,1036.623 -0.10937,1.1954 c 0.22428,0.02 0.41939,0.06 0.64258,0.084 l 0.006,0.2676 -0.15235,-0.01 c -0.0162,0.3097 -0.004,0.2836 -0.0195,0.5762 l -0.83398,0.041 c 0.22597,4.5881 0.50258,6.2717 0.51562,9.5117 0.0128,0.248 -0.0591,0.8446 -0.0371,1.086 l 0.24805,-0.024 0.67773,0.014 0.0117,0.2246 c 0.2486,-0.014 0.4132,-0.01 0.65235,-0.019 l 0.084,0.5351 c 2.42529,-0.3835 4.26276,-0.6247 5.77148,-0.7109 0.35584,-0.01 0.77891,-0.028 1.14063,-0.035 1.16566,0.034 1.94504,0.2327 2.24414,0.6055 l 0.87305,-0.6992 c 0.27439,-0.01 0.48102,-0.013 0.76758,-0.024 v -0.027 l 0.61132,-0.045 c -0.35281,-4.7669 -0.54707,-7.6303 0.0254,-10.461 0.0504,-0.079 0.067,-0.223 0.12305,-0.291 l -0.92578,-0.7636 c -0.18501,0.2243 -0.23248,0.5504 -0.36523,0.8125 h -0.008 c -0.001,0.01 -5.6e-4,0.015 -0.002,0.022 -0.54102,1.0808 -0.78792,2.3792 -0.81836,3.8965 -0.0353,1.7584 0.0963,3.7428 0.125,5.6953 -0.93798,0.027 -1.84521,0.065 -2.69922,0.082 -0.18437,0 -0.31892,-0.047 -0.51367,-0.041 -0.15965,0 -0.45087,0.067 -0.61914,0.076 -1.92206,0.039 -3.85321,0.066 -6.16406,0.1855 -1.3e-4,-0.056 -0.009,-0.1066 -0.01,-0.1621 -0.1084,-2.1268 0.0563,-4.5438 0.33203,-9.7246 0.75613,-0.022 1.99223,-0.052 2.89258,-0.084 2.82559,0.4035 5.46581,0.7334 7.38672,0.2481 l -0.11719,-0.4629 c 0.11294,0 0.16762,-0.01 0.28125,-0.01 l -0.0195,-1.1993 c -2.94428,0.047 -4.96574,0.1317 -7.25586,0.2129 -1.53482,-0.2045 -3.06415,-0.4261 -4.74219,-0.5801 z"
         id="path4011" />
    </g>
    <g
       id="g4017"
       style="stroke:#2e3436;stroke-width:1.2"
       transform="translate(-552.8477,-1054.296)">
      <path
         style="color:#000000;fill:#2e3436;stroke:none;-inkscape-stroke:none"
         d="m 576.94141,1039.6953 c -0.31206,0.9957 -0.69791,1.8414 -1.15235,2.6504 -2.81119,3.1254 -5.73932,6.4404 -7.97656,8.8555 l 0.21484,0.1992 c -0.0484,0.053 -0.0644,0.068 -0.11328,0.1211 l 0.88477,0.8086 c 2.57486,-2.8155 4.51594,-4.7202 6.01562,-6.5098 0.77178,-0.921 1.41803,-1.8238 1.96875,-2.7871 0.48682,-0.5409 0.90665,-1.0109 1.38672,-1.5391 l -0.50976,-0.4628 c 0.13146,-0.3362 0.31191,-0.6133 0.42578,-0.9766 z"
         id="path4015" />
    </g>
    <g
       id="g4021"
       style="stroke:#2e3436;stroke-width:1.2"
       transform="translate(-552.8477,-1054.296)">
      <path
         style="color:#000000;fill:#2e3436;stroke:none;-inkscape-stroke:none"
         d="m 577.96875,1040.0645 -1.03125,0.6113 c 0.1328,0.2247 0.1823,0.4567 0.30273,0.6836 l -0.16796,0.062 c 0.96758,2.596 2.548,6.4981 4.37695,10.7734 l 1.10351,-0.4726 c -0.12384,-0.2895 -0.17348,-0.4428 -0.29492,-0.7286 0.0185,0.019 0.0263,0.043 0.0449,0.062 l 0.86133,-0.8359 c -2.4948,-2.5728 -2.93505,-6.3315 -5.19531,-10.1562 z"
         id="path4019" />
    </g>
    <g
       id="g4025"
       style="stroke:#2e3436;stroke-width:1.2"
       transform="translate(-552.8477,-1054.296)">
      <path
         style="color:#000000;fill:#2e3436;stroke:none;-inkscape-stroke:none"
         d="m 573.2207,1050.8691 c -0.90465,-0.045 -1.81203,-0.025 -2.77734,0.1368 l 0.0742,0.4414 c -0.37567,0.01 -0.82786,0.066 -1.18946,0.061 l -0.0195,1.2012 c 2.5055,0.037 5.26305,-0.1873 8.10938,-0.3086 0.82166,0.054 1.71749,0.052 2.69726,0.018 0.87878,0.017 1.71451,-0.085 2.61133,0.016 l 0.0254,-0.2227 c 0.14698,-0.021 0.24974,-0.01 0.40039,-0.031 l -0.18554,-1.1856 c -1.07971,0.169 -1.96181,0.1919 -2.85547,0.2247 -0.93369,-0.019 -1.86649,-0.059 -2.76367,-0.022 -0.44765,-0.032 -0.94592,-0.038 -1.36524,-0.08 -0.955,-0.095 -1.85707,-0.2034 -2.76172,-0.2481 z"
         id="path4023" />
    </g>
  </g>
</svg>
