<?xml version="1.0" encoding="UTF-8" standalone="no"?>
<svg
   height="16px"
   viewBox="0 0 16 16"
   width="16px"
   version="1.1"
   id="svg2"
   xmlns="http://www.w3.org/2000/svg"
   xmlns:svg="http://www.w3.org/2000/svg">
  <defs
     id="defs2" />
  <path
     id="rect2"
     d="M 1,1 H 15 V 15 H 1 Z"
     fill-opacity="0.35" />
  <path
     d="M 0,0 V 3 H 3 V 0 Z M 4,0 V 2 H 7 V 0 Z m 4,0 v 2 h 4 V 0 Z m 5,0 v 3 h 3 V 0 Z M 0,4 V 8 H 2 V 4 Z m 14,0 v 3 h 2 V 4 Z m 0,4 v 4 h 2 V 8 Z M 0,9 v 3 H 2 V 9 Z m 0,4 v 3 h 3 v -3 z m 13,0 v 3 h 3 v -3 z m -9,1 v 2 h 4 v -2 z m 5,0 v 2 h 3 v -2 z m 0,0"
     id="path1"
     style="fill:#202020;fill-opacity:1" />
</svg>
