<?xml version="1.0" encoding="UTF-8"?>
<svg xmlns="http://www.w3.org/2000/svg" height="16px" viewBox="0 0 16 16" width="16px"><path d="m 3.015625 2.996094 c -1.644531 0 -3 1.355468 -3 3 h 2 c 0 -0.570313 0.429687 -1 1 -1 z m 0 0"/><path d="m 5.015625 -0.00390625 v 2.00000025 h 8 c 0.574219 0 1 0.429687 1 1 v 8 h 2 v -8 c 0 -1.644532 -1.351563 -3.00000025 -3 -3.00000025 z m 0 0"/><path d="m 3.019531 1.996094 c 0 -1.101563 0.894531 -1.996094 1.996094 -1.996094 v 1.996094 z m 0 0"/><path d="m 16.015625 10.996094 c 0 1.101562 -0.894531 1.996094 -1.996094 1.996094 v -1.996094 z m 0 0"/><path d="m 4.015625 2.996094 h 2 v 2 h -2 z m 0 0"/><path d="m 7.015625 2.996094 h 2 v 2 h -2 z m 0 0"/><path d="m 4.015625 13.996094 h 2 v 2 h -2 z m 0 0"/><path d="m 7.015625 13.996094 h 2 v 2 h -2 z m 0 0"/><path d="m 0.015625 6.996094 h 2 v 2 h -2 z m 0 0"/><path d="m 0.015625 9.996094 h 2 v 2 h -2 z m 0 0"/><path d="m 11.015625 6.996094 h 2 v 2 h -2 z m 0 0"/><path d="m 11.015625 9.996094 h 2 v 2 h -2 z m 0 0"/><path d="m 10.015625 2.996094 c 1.648437 0 3 1.355468 3 3 h -2 c 0 -0.570313 -0.425781 -1 -1 -1 z m 0 0"/><path d="m 3.015625 15.996094 c -1.644531 0 -3 -1.355469 -3 -3 h 2 c 0 0.570312 0.429687 1 1 1 z m 0 0"/><path d="m 10.015625 15.996094 c 1.648437 0 3 -1.355469 3 -3 h -2 c 0 0.570312 -0.425781 1 -1 1 z m 0 0"/></svg>
