<?xml version="1.0" encoding="UTF-8" standalone="no"?>
<svg
   height="16px"
   viewBox="0 0 16 16"
   width="16px"
   version="1.1"
   id="svg163"
   xmlns="http://www.w3.org/2000/svg"
   xmlns:svg="http://www.w3.org/2000/svg">
  <defs
     id="defs167" />
  <filter
     id="a"
     height="1"
     width="1"
     x="0"
     y="0">
    <feColorMatrix
       in="SourceGraphic"
       type="matrix"
       values="0 0 0 0 1 0 0 0 0 1 0 0 0 0 1 0 0 0 1 0"
       id="feColorMatrix2" />
  </filter>
  <mask
     id="b">
    <g
       filter="url(#a)"
       id="g7">
      <path
         d="m 0 0 h 16 v 16 h -16 z"
         fill-opacity="0.3"
         id="path5" />
    </g>
  </mask>
  <clipPath
     id="c">
    <path
       d="m 0 0 h 1024 v 800 h -1024 z"
       id="path10" />
  </clipPath>
  <mask
     id="d">
    <g
       filter="url(#a)"
       id="g15">
      <path
         d="m 0 0 h 16 v 16 h -16 z"
         fill-opacity="0.05"
         id="path13" />
    </g>
  </mask>
  <clipPath
     id="e">
    <path
       d="m 0 0 h 1024 v 800 h -1024 z"
       id="path18" />
  </clipPath>
  <mask
     id="f">
    <g
       filter="url(#a)"
       id="g23">
      <path
         d="m 0 0 h 16 v 16 h -16 z"
         fill-opacity="0.05"
         id="path21" />
    </g>
  </mask>
  <clipPath
     id="g">
    <path
       d="m 0 0 h 1024 v 800 h -1024 z"
       id="path26" />
  </clipPath>
  <mask
     id="h">
    <g
       filter="url(#a)"
       id="g31">
      <path
         d="m 0 0 h 16 v 16 h -16 z"
         fill-opacity="0.05"
         id="path29" />
    </g>
  </mask>
  <clipPath
     id="i">
    <path
       d="m 0 0 h 1024 v 800 h -1024 z"
       id="path34" />
  </clipPath>
  <mask
     id="j">
    <g
       filter="url(#a)"
       id="g39">
      <path
         d="m 0 0 h 16 v 16 h -16 z"
         fill-opacity="0.05"
         id="path37" />
    </g>
  </mask>
  <clipPath
     id="k">
    <path
       d="m 0 0 h 1024 v 800 h -1024 z"
       id="path42" />
  </clipPath>
  <mask
     id="l">
    <g
       filter="url(#a)"
       id="g47">
      <path
         d="m 0 0 h 16 v 16 h -16 z"
         fill-opacity="0.05"
         id="path45" />
    </g>
  </mask>
  <clipPath
     id="m">
    <path
       d="m 0 0 h 1024 v 800 h -1024 z"
       id="path50" />
  </clipPath>
  <mask
     id="n">
    <g
       filter="url(#a)"
       id="g55">
      <path
         d="m 0 0 h 16 v 16 h -16 z"
         fill-opacity="0.05"
         id="path53" />
    </g>
  </mask>
  <clipPath
     id="o">
    <path
       d="m 0 0 h 1024 v 800 h -1024 z"
       id="path58" />
  </clipPath>
  <mask
     id="p">
    <g
       filter="url(#a)"
       id="g63">
      <path
         d="m 0 0 h 16 v 16 h -16 z"
         fill-opacity="0.3"
         id="path61" />
    </g>
  </mask>
  <clipPath
     id="q">
    <path
       d="m 0 0 h 1024 v 800 h -1024 z"
       id="path66" />
  </clipPath>
  <mask
     id="r">
    <g
       filter="url(#a)"
       id="g71">
      <path
         d="m 0 0 h 16 v 16 h -16 z"
         fill-opacity="0.5"
         id="path69" />
    </g>
  </mask>
  <clipPath
     id="s">
    <path
       d="m 0 0 h 1024 v 800 h -1024 z"
       id="path74" />
  </clipPath>
  <mask
     id="t">
    <g
       filter="url(#a)"
       id="g79">
      <path
         d="m 0 0 h 16 v 16 h -16 z"
         fill-opacity="0.4"
         id="path77" />
    </g>
  </mask>
  <clipPath
     id="u">
    <path
       d="m 0 0 h 1024 v 800 h -1024 z"
       id="path82" />
  </clipPath>
  <mask
     id="v">
    <g
       filter="url(#a)"
       id="g87">
      <path
         d="m 0 0 h 16 v 16 h -16 z"
         fill-opacity="0.4"
         id="path85" />
    </g>
  </mask>
  <clipPath
     id="w">
    <path
       d="m 0 0 h 1024 v 800 h -1024 z"
       id="path90" />
  </clipPath>
  <mask
     id="x">
    <g
       filter="url(#a)"
       id="g95">
      <path
         d="m 0 0 h 16 v 16 h -16 z"
         fill-opacity="0.5"
         id="path93" />
    </g>
  </mask>
  <clipPath
     id="y">
    <path
       d="m 0 0 h 1024 v 800 h -1024 z"
       id="path98" />
  </clipPath>
  <mask
     id="z">
    <g
       filter="url(#a)"
       id="g103">
      <path
         d="m 0 0 h 16 v 16 h -16 z"
         fill-opacity="0.5"
         id="path101" />
    </g>
  </mask>
  <clipPath
     id="A">
    <path
       d="m 0 0 h 1024 v 800 h -1024 z"
       id="path106" />
  </clipPath>
  <g
     clip-path="url(#c)"
     mask="url(#b)"
     transform="matrix(1 0 0 1 -560 -500)"
     id="g113">
    <path
       d="m 562.460938 212.058594 h 10.449218 c -1.183594 0.492187 -1.296875 2.460937 0 3 h -10.449218 z m 0 0"
       fill="#2e3436"
       id="path111" />
  </g>
  <g
     clip-path="url(#e)"
     mask="url(#d)"
     transform="matrix(1 0 0 1 -560 -500)"
     id="g117">
    <path
       d="m 16 632 h 1 v 1 h -1 z m 0 0"
       fill="#2e3436"
       fill-rule="evenodd"
       id="path115" />
  </g>
  <g
     clip-path="url(#g)"
     mask="url(#f)"
     transform="matrix(1 0 0 1 -560 -500)"
     id="g121">
    <path
       d="m 17 631 h 1 v 1 h -1 z m 0 0"
       fill="#2e3436"
       fill-rule="evenodd"
       id="path119" />
  </g>
  <g
     clip-path="url(#i)"
     mask="url(#h)"
     transform="matrix(1 0 0 1 -560 -500)"
     id="g125">
    <path
       d="m 18 634 h 1 v 1 h -1 z m 0 0"
       fill="#2e3436"
       fill-rule="evenodd"
       id="path123" />
  </g>
  <g
     clip-path="url(#k)"
     mask="url(#j)"
     transform="matrix(1 0 0 1 -560 -500)"
     id="g129">
    <path
       d="m 16 634 h 1 v 1 h -1 z m 0 0"
       fill="#2e3436"
       fill-rule="evenodd"
       id="path127" />
  </g>
  <g
     clip-path="url(#m)"
     mask="url(#l)"
     transform="matrix(1 0 0 1 -560 -500)"
     id="g133">
    <path
       d="m 17 635 h 1 v 1 h -1 z m 0 0"
       fill="#2e3436"
       fill-rule="evenodd"
       id="path131" />
  </g>
  <g
     clip-path="url(#o)"
     mask="url(#n)"
     transform="matrix(1 0 0 1 -560 -500)"
     id="g137">
    <path
       d="m 19 635 h 1 v 1 h -1 z m 0 0"
       fill="#2e3436"
       fill-rule="evenodd"
       id="path135" />
  </g>
  <g
     clip-path="url(#q)"
     mask="url(#p)"
     transform="matrix(1 0 0 1 -560 -500)"
     id="g141">
    <path
       d="m 136 660 v 7 h 7 v -7 z m 0 0"
       fill="#2e3436"
       id="path139" />
  </g>
  <g
     clip-path="url(#s)"
     mask="url(#r)"
     transform="matrix(1 0 0 1 -560 -500)"
     id="g145">
    <path
       d="m 199 642 h 3 v 12 h -3 z m 0 0"
       fill="#2e3436"
       id="path143" />
  </g>
  <g
     clip-path="url(#u)"
     mask="url(#t)"
     transform="matrix(1 0 0 1 -560 -500)"
     id="g149">
    <path
       d="m 209.5 144.160156 c 0.277344 0 0.5 0.222656 0.5 0.5 v 1 c 0 0.277344 -0.222656 0.5 -0.5 0.5 s -0.5 -0.222656 -0.5 -0.5 v -1 c 0 -0.277344 0.222656 -0.5 0.5 -0.5 z m 0 0"
       fill="#2e3436"
       id="path147" />
  </g>
  <g
     clip-path="url(#w)"
     mask="url(#v)"
     transform="matrix(1 0 0 1 -560 -500)"
     id="g153">
    <path
       d="m 206.5 144.160156 c 0.277344 0 0.5 0.222656 0.5 0.5 v 1 c 0 0.277344 -0.222656 0.5 -0.5 0.5 s -0.5 -0.222656 -0.5 -0.5 v -1 c 0 -0.277344 0.222656 -0.5 0.5 -0.5 z m 0 0"
       fill="#2e3436"
       id="path151" />
  </g>
  <g
     clip-path="url(#y)"
     mask="url(#x)"
     transform="matrix(1 0 0 1 -560 -500)"
     id="g157">
    <path
       d="m 229.5 143.160156 c -0.546875 0 -1 0.457032 -1 1 c 0 0.546875 0.453125 1 1 1 s 1 -0.453125 1 -1 c 0 -0.542968 -0.453125 -1 -1 -1 z m 0 0"
       fill="#2e3436"
       id="path155" />
  </g>
  <g
     clip-path="url(#A)"
     mask="url(#z)"
     transform="matrix(1 0 0 1 -560 -500)"
     id="g161">
    <path
       d="m 226.453125 143.160156 c -0.519531 0 -0.953125 0.433594 -0.953125 0.953125 v 0.09375 c 0 0.519531 0.433594 0.953125 0.953125 0.953125 h 0.09375 c 0.519531 0 0.953125 -0.433594 0.953125 -0.953125 v -0.09375 c 0 -0.519531 -0.433594 -0.953125 -0.953125 -0.953125 z m 0 0"
       fill="#2e3436"
       id="path159" />
  </g>
  <g
     id="g5089"
     transform="matrix(0.6387232,0.34411408,-0.34411408,0.6387232,6.5828543,-0.34014695)">
    <path
       style="color:#000000;fill:#2e3436;stroke-dasharray:6, 1;-inkscape-stroke:none"
       d="m 5.6582031,1.5839844 -0.1269531,0.00195 -0.125,0.00781 -0.125,0.011719 -0.1230469,0.013672 -0.039063,0.00586 0.1484375,0.9902344 0.023437,-0.00391 0.09375,-0.011719 0.09375,-0.00781 0.095703,-0.00586 0.09375,-0.00195 h 0.09375 l 0.095703,0.00391 0.09375,0.00586 0.09375,0.00977 0.09375,0.011719 0.09375,0.015625 0.091797,0.019531 0.091797,0.021484 0.091797,0.023437 0.089844,0.027344 0.087891,0.03125 0.087891,0.033203 0.085937,0.037109 0.083984,0.039063 0.082031,0.041016 0.082031,0.044922 0.078125,0.046875 0.078125,0.050781 0.074219,0.052734 0.072266,0.056641 0.072266,0.058594 0.068359,0.060547 0.066406,0.064453 0.064453,0.064453 0.060547,0.068359 0.058594,0.070312 0.056641,0.072266 0.052734,0.074219 0.048828,0.076172 0.046875,0.078125 0.042969,0.080078 0.039063,0.080078 0.037109,0.082031 0.027344,0.068359 0.023437,0.066406 0.046875,0.1484375 0.041016,0.1523438 0.037109,0.1601562 0.035156,0.1660156 0.033203,0.1738282 0.070312,0.3554687 0.042969,0.1875 0.046875,0.1914063 0.03125,0.1035156 0.9589857,-0.28516 L 9.4941406,5.4921875 9.4550781,5.3339844 9.4199219,5.1738281 9.3515625,4.828125 9.3164063,4.6503906 9.2773438,4.4667969 9.234375,4.2792969 9.1835938,4.0878906 9.1230469,3.8984375 9.0859375,3.7988281 9.046875,3.6992188 8.9941406,3.5800781 8.9375,3.4628906 8.875,3.3476563 8.8066406,3.2363281 8.7363281,3.1269531 8.6601563,3.0214844 8.5820313,2.9179688 8.5,2.8183594 8.4121094,2.7226563 8.3222656,2.6289063 8.2285156,2.5410156 8.1328125,2.4550781 8.0332031,2.3730469 7.9296875,2.2929688 7.8242187,2.21875 7.7167969,2.1484375 7.6054687,2.0820313 7.4941406,2.0195313 7.3789062,1.9628906 7.2636719,1.9082031 7.1445312,1.859375 7.0253906,1.8144531 6.90625,1.7714844 6.7832031,1.734375 6.6621094,1.7011719 l -0.125,-0.027344 -0.1230469,-0.025391 -0.125,-0.021484 -0.1269531,-0.017578 -0.125,-0.011719 -0.1269532,-0.00977 -0.1269531,-0.00391 z M 4.0390625,1.9277344 3.96875,1.9570312 3.8574219,2.0078125 3.7460938,2.0625 3.6367188,2.117187 3.5273438,2.177734 3.421875,2.238281 3.3164063,2.302734 3.2128906,2.36914 3.1113281,2.439452 3.0117191,2.511718 2.9140631,2.583984 2.8164071,2.660156 2.7226571,2.740234 2.6308601,2.820312 2.5390631,2.902343 2.4511721,2.986327 2.3652351,3.074218 2.2792981,3.162109 2.1933611,3.257812 2.1074241,3.355468 2.0253931,3.455077 1.9453125,3.5566406 1.8671875,3.6601563 1.7910156,3.765625 1.71875,3.8730469 1.6484375,3.9804688 1.5800781,4.0917969 1.515625,4.203125 1.453125,4.3144531 1.3925781,4.4296875 1.3339844,4.5449219 1.2792969,4.6621094 1.2265625,4.78125 1.1777344,4.9003906 1.1308594,5.0195312 1.0859375,5.140625 l -0.041016,0.1230469 -0.039063,0.1230468 -0.0351563,0.125 -0.0332031,0.125 -0.0292969,0.125 L 0.88085938,5.8886719 0.85742188,6.015625 0.8359375,6.1425781 0.81640625,6.2714844 0.80273438,6.4003906 0.7890625,6.5292969 0.78125,6.6582031 0.775391,6.7890625 0.771485,6.9199219 l 0.001953,0.1289062 0.003906,0.1308594 0.001953,0.044922 0.9980468,-0.052734 -0.00195,-0.033203 -0.00195,-0.1054688 -0.00195,-0.1054687 0.00391,-0.1054688 0.00391,-0.1054687 0.00781,-0.1054688 0.00977,-0.1054687 0.011719,-0.1054688 0.015625,-0.1054687 0.017578,-0.1035157 0.019531,-0.1054687 0.021484,-0.1035156 0.025391,-0.1035157 0.027344,-0.1015625 0.029297,-0.1015625 0.03125,-0.1015625 0.033203,-0.1015625 0.037109,-0.099609 0.039063,-0.099609 0.041016,-0.097656 0.042969,-0.097656 0.044922,-0.097656 0.046875,-0.095703 0.050781,-0.09375 0.050781,-0.091797 0.054687,-0.091797 0.056641,-0.091797 0.056641,-0.089844 0.060547,-0.087891 0.0625,-0.085937 0.0625,-0.083984 0.066406,-0.083984 0.068359,-0.082031 0.068359,-0.080078 0.072266,-0.078125 0.068359,-0.070312 0.070312,-0.070312 0.070312,-0.068359 0.074219,-0.068359 0.074219,-0.064453 0.078125,-0.064453 0.078125,-0.060547 0.078125,-0.060547 0.080078,-0.056641 0.082031,-0.056641 0.083984,-0.052734 0.083984,-0.052734 0.085937,-0.048828 0.085937,-0.046875 0.087891,-0.044922 0.087891,-0.042969 0.087891,-0.041016 0.058594,-0.023437 z m 5.8261719,4.34375 -0.7519531,0.6601562 0.046875,0.052734 0.078125,0.080078 0.080078,0.076172 0.083984,0.072266 0.083984,0.066406 0.085937,0.0625 0.089844,0.058594 0.087891,0.056641 0.091797,0.050781 0.09375,0.050781 0.1796867,0.087891 0.183594,0.078125 0.183594,0.068359 0.179687,0.0625 0.175782,0.054687 0.341797,0.1035157 0.166015,0.048828 0.158203,0.050781 0.154297,0.052734 0.150391,0.058594 0.0918,0.037109 0.09375,0.042969 0.0918,0.042969 0.08984,0.046875 0.08984,0.048828 0.08789,0.052734 0.08594,0.054687 0.08594,0.054687 0.08398,0.058594 0.08203,0.0625 0.08008,0.0625 0.08008,0.064453 0.07617,0.068359 0.07617,0.068359 0.07422,0.072266 0.07227,0.072266 0.07031,0.074219 0.06836,0.076172 0.06641,0.080078 0.0625,0.080078 0.0625,0.080078 0.06055,0.083984 0.05664,0.083984 0.05664,0.085937 0.05273,0.087891 0.05078,0.087891 0.04883,0.089844 0.03516,0.07422 0.894531,-0.4492176 -0.04297,-0.085937 -0.06055,-0.113281 L 14.568359,9.359375 14.501953,9.25 14.431641,9.140625 14.359375,9.0351563 14.285156,8.9316406 14.207031,8.828125 14.126951,8.728516 14.042971,8.63086 13.958981,8.535157 13.871091,8.441407 13.781251,8.34961 13.687501,8.261719 13.593751,8.173828 13.496091,8.089844 13.396481,8.007813 13.296871,7.929688 13.193355,7.853516 13.087887,7.779297 12.980465,7.708985 12.87109,7.640626 12.759762,7.576173 12.64648,7.513673 12.533199,7.453126 12.416012,7.398439 12.298824,7.343752 12.17773,7.294924 11.998043,7.226565 11.818355,7.164065 11.642574,7.107424 11.468746,7.056643 11.132809,6.9550805 l -0.158204,-0.050781 -0.154296,-0.052734 -0.148438,-0.054687 -0.142578,-0.060547 -0.140625,-0.068359 -0.0625,-0.033203 -0.0625,-0.037109 -0.06055,-0.037109 -0.05664,-0.039063 -0.05664,-0.039063 -0.05274,-0.042969 L 9.98827,6.3964875 9.941395,6.3535185 9.896473,6.3066435 Z m -7.953125,1.7929687 -0.97070315,0.2421875 0.007813,0.025391 0.0332031,0.125 0.0371093,0.125 0.041016,0.1230468 0.042969,0.1210938 0.044922,0.1210937 0.048828,0.1210938 0.050781,0.1191406 0.054687,0.1171875 0.056641,0.1171875 0.058594,0.1152344 0.0625,0.1132812 0.066406,0.1113282 0.066406,0.1113281 0.070312,0.109375 0.074219,0.1074218 0.074219,0.105469 0.078125,0.103515 0.082031,0.101563 0.083984,0.09961 0.085937,0.09766 0.087891,0.09766 0.1660156,0.169921 0.1582032,0.158204 0.068359,0.07422 0.064453,0.07227 0.056641,0.07031 0.050781,0.06836 0.042969,0.06836 0.037109,0.07031 0.013672,0.02734 0.011719,0.03125 0.011719,0.03125 0.00781,0.0293 0.00781,0.0293 0.00391,0.02734 0.00391,0.02734 0.00195,0.02539 v 0.02539 l -0.00195,0.02344 -0.00391,0.02149 -0.00391,0.02148 -0.00391,0.01172 -0.00391,0.0098 -0.017578,0.03906 -0.019531,0.03516 -0.025391,0.03711 -0.03125,0.03711 -0.037109,0.03906 -0.041016,0.03906 -0.046875,0.03711 -0.052734,0.03711 -0.056641,0.03711 -0.0625,0.03906 -0.064453,0.03711 -0.1503906,0.08008 -0.1582031,0.08594 -0.1230469,0.06836 -0.1191407,0.07031 0.5058594,0.863281 0.109375,-0.06445 0.1074219,-0.06055 0.1523438,-0.08203 0.1621093,-0.08789 0.087891,-0.05078 0.087891,-0.05274 0.089844,-0.06055 0.091797,-0.06445 0.089844,-0.07422 0.089844,-0.08203 0.085937,-0.08789 0.082031,-0.09961 0.074219,-0.107422 0.066406,-0.117187 0.054687,-0.121094 0.025391,-0.07422 0.019531,-0.07031 0.019531,-0.08984 0.013672,-0.0918 0.00781,-0.0918 v -0.08984 l -0.00586,-0.08789 -0.00977,-0.08594 -0.015625,-0.08399 -0.019531,-0.08398 -0.023437,-0.08008 -0.027344,-0.07617 -0.029297,-0.07422 -0.035156,-0.07617 -0.070293,-0.1309 L 3.640625,10.744141 3.5566406,10.628906 3.46875,10.523438 3.3828125,10.423828 3.2949219,10.330078 3.1289063,10.164063 2.9746094,10.005859 2.9042969,9.9296875 2.8339844,9.8496094 2.7675781,9.7695313 2.7011719,9.6875 2.6386719,9.6015625 2.5761719,9.5175781 2.5175781,9.4296875 2.4609375,9.3398438 2.4042969,9.25 2.3515625,9.1582031 2.3007813,9.0664063 2.2519531,8.9726563 2.2050781,8.8769531 2.1621094,8.7792969 2.1191406,8.6835938 2.0800781,8.5839844 2.0429688,8.484375 2.0078125,8.3847656 1.9746094,8.2832031 1.9453125,8.1816406 1.9160156,8.0800781 Z M 15.109375,10.726563 14.132813,10.943359 14.146484,11 l 0.01953,0.101563 0.01563,0.09961 0.01563,0.101562 0.01172,0.101563 0.0078,0.101562 0.0059,0.103516 0.0039,0.101563 0.002,0.103515 -0.002,0.101563 -0.0059,0.103515 -0.0059,0.101563 -0.0098,0.101562 -0.01172,0.103516 -0.01563,0.101562 -0.01758,0.09961 -0.01953,0.101562 -0.02344,0.09961 -0.02539,0.09961 -0.02734,0.09766 -0.03125,0.09766 -0.0332,0.0957 -0.03516,0.0957 -0.03711,0.0957 -0.04101,0.09375 -0.04297,0.0918 -0.04492,0.08984 -0.05078,0.0957 0.880859,0.472656 0.05859,-0.107422 0.05664,-0.115234 0.05469,-0.117188 0.05078,-0.11914 0.04883,-0.119141 0.04492,-0.121094 0.04102,-0.121094 0.03906,-0.123046 0.03516,-0.123047 0.03125,-0.125 0.02734,-0.125 0.02539,-0.126953 0.02344,-0.126954 0.01758,-0.126953 0.01563,-0.126953 0.01172,-0.126953 0.0098,-0.128906 0.0039,-0.126953 0.0039,-0.128907 -0.002,-0.128906 -0.0039,-0.128906 -0.0078,-0.126953 -0.01172,-0.128906 -0.01367,-0.126954 -0.01758,-0.126953 -0.02148,-0.126953 -0.02539,-0.126953 z"
       id="path952" />
    <path
       style="color:#000000;fill:#2e3436;stroke-dasharray:1, 1;-inkscape-stroke:none"
       d="m 2.2285156,12.439453 -0.082031,0.998047 0.9960937,0.08008 0.082031,-0.996094 z m 1.9921875,0.164063 -0.082031,0.996093 0.9980468,0.08203 0.080078,-0.998047 z m 1.9941406,0.162109 -0.082031,0.996094 0.9960937,0.08203 0.082031,-0.996094 z m 1.9921876,0.162109 -0.080078,0.998047 0.9960938,0.08008 0.082031,-0.996093 z m 1.9941407,0.164063 -0.08203,0.996094 0.998047,0.08203 0.08008,-0.998047 z m 1.994141,0.162109 -0.08203,0.996094 0.996094,0.08203 0.08203,-0.996093 z m 1.992187,0.16211 -0.08008,0.998047 0.04102,0.002 0.08008,-0.996094 z"
       id="path2822" />
  </g>
</svg>
