<?xml version="1.0" encoding="UTF-8" standalone="no"?>
<!-- Created with Inkscape (http://www.inkscape.org/) -->

<svg
   width="16"
   height="16"
   viewBox="0 0 4.2333333 4.2333333"
   version="1.1"
   id="svg5"
   xml:space="preserve"
   xmlns="http://www.w3.org/2000/svg"
   xmlns:svg="http://www.w3.org/2000/svg"><defs
     id="defs2" /><g
     id="g144"
     transform="matrix(0.16221324,0,0,0.16221324,0.81654665,0.81781393)"
     style="fill:#242424;fill-opacity:1;stroke-width:1.63109"><path
       d="M 6.507812,1 C 3.480469,1 1,3.472656 1,6.5 1,9.527344 3.480469,12 6.507812,12 9.535156,12 12.011719,9.527344 12.011719,6.5 12.011719,3.472656 9.535156,1 6.507812,1 Z m 0,2 c 1.945313,0 3.503907,1.554688 3.503907,3.5 0,1.945312 -1.558594,3.5 -3.503907,3.5 C 4.558594,10 3.003906,8.445312 3.003906,6.5 3.003906,4.554688 4.558594,3 6.507812,3 Z m 0,0"
       id="path132"
       style="fill:#242424;fill-opacity:1;stroke-width:1.63109" /><path
       d="m 10,8.988281 c -0.40625,0.00391 -0.773438,0.25 -0.925781,0.625 -0.152344,0.378907 -0.0625,0.808594 0.230469,1.09375 l 4.003906,4 c 0.25,0.261719 0.625,0.367188 0.972656,0.273438 0.351562,-0.08984 0.625,-0.363281 0.714844,-0.714844 0.09375,-0.347656 -0.01172,-0.722656 -0.273438,-0.972656 l -4.003906,-4 C 10.53125,9.097656 10.269531,8.988281 10,8.988281 Z m 0,0"
       id="path134"
       style="fill:#242424;fill-opacity:1;stroke-width:1.63109" /></g></svg>
