<?xml version="1.0" encoding="UTF-8"?>
<svg xmlns="http://www.w3.org/2000/svg" height="16px" viewBox="0 0 16 16" width="16px"><path d="m 7 0 c -3.851562 0 -7 3.148438 -7 7 s 3.148438 7 7 7 c 1.574219 0 3.03125 -0.527344 4.203125 -1.414062 c 0.03125 0.039062 0.066406 0.074218 0.101563 0.109374 l 3 3 c 0.957031 0.9375 2.363281 -0.5 1.40625 -1.4375 l -3 -3 c -0.03125 -0.03125 -0.0625 -0.058593 -0.097657 -0.085937 c 0.871094 -1.167969 1.386719 -2.609375 1.386719 -4.171875 c 0 -3.851562 -3.148438 -7 -7 -7 z m 0 2 c 2.761719 0 5 2.238281 5 5 s -2.238281 5 -5 5 s -5 -2.238281 -5 -5 s 2.238281 -5 5 -5 z m -0.015625 2.011719 c -0.550781 0 -1 0.449219 -1 1 v 0.988281 h -0.984375 c -0.554688 0 -1 0.445312 -1 1 s 0.445312 1 1 1 h 0.984375 v 0.988281 c 0 0.550781 0.449219 1 1 1 c 0.554687 0 1 -0.449219 1 -1 v -0.988281 h 0.984375 c 0.554688 0 1 -0.445312 1 -1 s -0.445312 -1 -1 -1 h -0.984375 v -0.988281 c 0 -0.550781 -0.445313 -1 -1 -1 z m 0 0" fill="#222222"/></svg>
