<?xml version="1.0" encoding="UTF-8" standalone="no"?>
<svg
   height="16px"
   viewBox="0 0 16 16"
   width="16px"
   version="1.1"
   id="svg1"
   xml:space="preserve"
   xmlns="http://www.w3.org/2000/svg"
   xmlns:svg="http://www.w3.org/2000/svg"><defs
     id="defs1" /><path
     id="path1"
     style="fill:#222222;fill-rule:evenodd;stroke-width:0.573977"
     d="M 0 0 L 0 3 L 3 3 L 3 0 L 0 0 z M 6 0 L 6 3 L 9 3 L 9 0 L 6 0 z M 12 0 L 12 3 L 15 3 L 15 0 L 12 0 z M 6.2773438 4.0292969 C 6.1330089 4.0292969 5.9890579 4.0818327 5.8769531 4.1894531 L 4.1542969 5.8671875 C 4.0421923 5.9770501 3.9846639 6.1235064 3.9824219 6.2714844 C 3.9801819 6.4172212 4.0327159 6.5633874 4.1425781 6.6777344 C 4.3645458 6.904186 4.7286265 6.9091781 4.9550781 6.6894531 L 5.703125 5.9609375 L 5.703125 8.5742188 C 5.703125 8.8903542 5.9612083 9.1464844 6.2773438 9.1464844 C 6.5934793 9.1464844 6.8515625 8.8903542 6.8515625 8.5742188 L 6.8515625 5.9609375 L 7.5976562 6.6875 C 7.8263502 6.9094671 8.1904305 6.9041903 8.4101562 6.6777344 C 8.6321233 6.4490447 8.6271316 6.0869132 8.3984375 5.8671875 L 6.6777344 4.1894531 C 6.5667508 4.0818324 6.4216788 4.0292969 6.2773438 4.0292969 z M 9.7207031 6.8515625 C 9.4045672 6.8515625 9.1484375 7.1096458 9.1484375 7.4257812 L 9.1484375 10.037109 L 8.3984375 9.3105469 C 8.1719859 9.0885802 7.8098583 9.0938604 7.5878906 9.3203125 C 7.4780281 9.4346595 7.4235393 9.5827796 7.4257812 9.7285156 L 7.4257812 9.7304688 C 7.4280212 9.8762055 7.4855522 10.020707 7.5976562 10.132812 L 9.3203125 11.808594 C 9.5445221 12.023835 9.8991273 12.023835 10.121094 11.808594 L 11.841797 10.132812 C 12.070492 9.910845 12.075483 9.5490065 11.853516 9.3203125 C 11.633792 9.0938603 11.271663 9.0886152 11.042969 9.3105469 L 10.294922 10.037109 L 10.294922 7.4257812 C 10.294922 7.1096458 10.036838 6.8515625 9.7207031 6.8515625 z M 0 14 L 0 16 L 16 16 L 16 14 L 0 14 z " /></svg>
