<?xml version="1.0" encoding="UTF-8" standalone="no"?>
<svg
   height="16px"
   viewBox="0 0 16 16"
   width="16px"
   version="1.1"
   id="svg2"
   xml:space="preserve"
   xmlns="http://www.w3.org/2000/svg"
   xmlns:svg="http://www.w3.org/2000/svg"><defs
     id="defs2" /><path
     style="fill:#2e3436"
     d="M -3,4"
     id="path8" /><path
     style="fill:#2e3436"
     d="M -10,-0.5"
     id="path5" /><path
     id="path1"
     d="M 3 4 C 1.335936 4 0 5.335936 0 7 L 0 13 C 0 14.664064 1.335936 16 3 16 L 9 16 C 10.664064 16 12 14.664064 12 13 L 12 9.4648438 A 4 4 0 0 1 10 10 A 4 4 0 0 1 6 6 A 4 4 0 0 1 6.5351562 4 L 3 4 z "
     fill-opacity="0.35" /><path
     id="path2"
     style="fill:#232323;stroke-width:3;stroke-dasharray:3, 3"
     d="m 10,2 a 4,4 0 0 0 -4,4 4,4 0 0 0 4,4 4,4 0 0 0 4,-4 4,4 0 0 0 -4,-4 z m 0.0059,2 A 1.9938145,2 0 0 1 12,6 1.9938145,2 0 0 1 10.005859,8 1.9938145,2 0 0 1 8.011719,6 1.9938145,2 0 0 1 10.005859,4 Z" /></svg>
