<?xml version="1.0" encoding="UTF-8" standalone="no"?>
<svg
   height="16px"
   viewBox="0 0 16 16"
   width="16px"
   version="1.1"
   id="svg1"
   xmlns="http://www.w3.org/2000/svg"
   xmlns:svg="http://www.w3.org/2000/svg">
  <defs
     id="defs1" />
  <path
     d="m 7.9999999,1.5995243 c -3.5252619,0 -6.4004756,2.8752137 -6.4004756,6.4004756 0,3.5252621 2.8752137,6.4004761 6.4004756,6.4004761 3.5252621,0 6.4004761,-2.875214 6.4004761,-6.4004761 0,-3.5252619 -2.875214,-6.4004756 -6.4004761,-6.4004756 z m 0,1.6001189 c 2.6501961,0 4.8003571,2.1501598 4.8003571,4.8003567 0,2.6501961 -2.150161,4.8003571 -4.8003571,4.8003571 -2.6501969,0 -4.8003567,-2.150161 -4.8003567,-4.8003571 0,-2.6501969 2.1501598,-4.8003567 4.8003567,-4.8003567 z m 0,2.4001783 c -1.3250986,0 -2.4001784,1.0750798 -2.4001784,2.4001784 0,1.3250984 1.0750798,2.4001781 2.4001784,2.4001781 1.3250984,0 2.4001781,-1.0750797 2.4001781,-2.4001781 0,-1.3250986 -1.0750797,-2.4001784 -2.4001781,-2.4001784 z m 0,0.8000596 c 0.8844411,0 1.600119,0.7156779 1.600119,1.6001188 0,0.8844411 -0.7156779,1.600119 -1.600119,1.600119 -0.8844409,0 -1.6001188,-0.7156779 -1.6001188,-1.600119 0,-0.8844409 0.7156779,-1.6001188 1.6001188,-1.6001188 z m 0,0.8000593 c -0.4406576,0 -0.8000595,0.3594019 -0.8000595,0.8000595 0,0.4406577 0.3594019,0.8000595 0.8000595,0.8000595 0.4406577,0 0.8000595,-0.3594018 0.8000595,-0.8000595 0,-0.4406576 -0.3594018,-0.8000595 -0.8000595,-0.8000595 z m 0,0"
     fill="#222222"
     id="path1"
     style="stroke-width:0.800059" />
</svg>
