<?xml version="1.0" encoding="UTF-8" standalone="no"?>
<svg
   height="16px"
   viewBox="0 0 16 16"
   width="16px"
   version="1.1"
   id="svg163"
   xml:space="preserve"
   xmlns="http://www.w3.org/2000/svg"
   xmlns:svg="http://www.w3.org/2000/svg"><defs
     id="defs167"><filter
       id="mask-powermask-path-effect1726_inverse"
       style="color-interpolation-filters:sRGB"
       height="100"
       width="100"
       x="-50"
       y="-50"><feColorMatrix
         id="mask-powermask-path-effect1726_primitive1"
         values="1"
         type="saturate"
         result="fbSourceGraphic" /><feColorMatrix
         id="mask-powermask-path-effect1726_primitive2"
         values="-1 0 0 0 1 0 -1 0 0 1 0 0 -1 0 1 0 0 0 1 0 "
         in="fbSourceGraphic" /></filter></defs><filter
     id="a"
     height="1"
     width="1"
     x="0"
     y="0"><feColorMatrix
       in="SourceGraphic"
       type="matrix"
       values="0 0 0 0 1 0 0 0 0 1 0 0 0 0 1 0 0 0 1 0"
       id="feColorMatrix2" /></filter><mask
     id="b"><g
       filter="url(#a)"
       id="g7"><path
         d="m 0 0 h 16 v 16 h -16 z"
         fill-opacity="0.3"
         id="path5" /></g></mask><clipPath
     id="c"><path
       d="m 0 0 h 1024 v 800 h -1024 z"
       id="path10" /></clipPath><mask
     id="d"><g
       filter="url(#a)"
       id="g15"><path
         d="m 0 0 h 16 v 16 h -16 z"
         fill-opacity="0.05"
         id="path13" /></g></mask><clipPath
     id="e"><path
       d="m 0 0 h 1024 v 800 h -1024 z"
       id="path18" /></clipPath><mask
     id="f"><g
       filter="url(#a)"
       id="g23"><path
         d="m 0 0 h 16 v 16 h -16 z"
         fill-opacity="0.05"
         id="path21" /></g></mask><clipPath
     id="g"><path
       d="m 0 0 h 1024 v 800 h -1024 z"
       id="path26" /></clipPath><mask
     id="h"><g
       filter="url(#a)"
       id="g31"><path
         d="m 0 0 h 16 v 16 h -16 z"
         fill-opacity="0.05"
         id="path29" /></g></mask><clipPath
     id="i"><path
       d="m 0 0 h 1024 v 800 h -1024 z"
       id="path34" /></clipPath><mask
     id="j"><g
       filter="url(#a)"
       id="g39"><path
         d="m 0 0 h 16 v 16 h -16 z"
         fill-opacity="0.05"
         id="path37" /></g></mask><clipPath
     id="k"><path
       d="m 0 0 h 1024 v 800 h -1024 z"
       id="path42" /></clipPath><mask
     id="l"><g
       filter="url(#a)"
       id="g47"><path
         d="m 0 0 h 16 v 16 h -16 z"
         fill-opacity="0.05"
         id="path45" /></g></mask><clipPath
     id="m"><path
       d="m 0 0 h 1024 v 800 h -1024 z"
       id="path50" /></clipPath><mask
     id="n"><g
       filter="url(#a)"
       id="g55"><path
         d="m 0 0 h 16 v 16 h -16 z"
         fill-opacity="0.05"
         id="path53" /></g></mask><clipPath
     id="o"><path
       d="m 0 0 h 1024 v 800 h -1024 z"
       id="path58" /></clipPath><mask
     id="p"><g
       filter="url(#a)"
       id="g63"><path
         d="m 0 0 h 16 v 16 h -16 z"
         fill-opacity="0.3"
         id="path61" /></g></mask><clipPath
     id="q"><path
       d="m 0 0 h 1024 v 800 h -1024 z"
       id="path66" /></clipPath><mask
     id="r"><g
       filter="url(#a)"
       id="g71"><path
         d="m 0 0 h 16 v 16 h -16 z"
         fill-opacity="0.5"
         id="path69" /></g></mask><clipPath
     id="s"><path
       d="m 0 0 h 1024 v 800 h -1024 z"
       id="path74" /></clipPath><mask
     id="t"><g
       filter="url(#a)"
       id="g79"><path
         d="m 0 0 h 16 v 16 h -16 z"
         fill-opacity="0.4"
         id="path77" /></g></mask><clipPath
     id="u"><path
       d="m 0 0 h 1024 v 800 h -1024 z"
       id="path82" /></clipPath><mask
     id="v"><g
       filter="url(#a)"
       id="g87"><path
         d="m 0 0 h 16 v 16 h -16 z"
         fill-opacity="0.4"
         id="path85" /></g></mask><clipPath
     id="w"><path
       d="m 0 0 h 1024 v 800 h -1024 z"
       id="path90" /></clipPath><mask
     id="x"><g
       filter="url(#a)"
       id="g95"><path
         d="m 0 0 h 16 v 16 h -16 z"
         fill-opacity="0.5"
         id="path93" /></g></mask><clipPath
     id="y"><path
       d="m 0 0 h 1024 v 800 h -1024 z"
       id="path98" /></clipPath><mask
     id="z"><g
       filter="url(#a)"
       id="g103"><path
         d="m 0 0 h 16 v 16 h -16 z"
         fill-opacity="0.5"
         id="path101" /></g></mask><clipPath
     id="A"><path
       d="m 0 0 h 1024 v 800 h -1024 z"
       id="path106" /></clipPath><g
     clip-path="url(#c)"
     mask="url(#b)"
     transform="matrix(1 0 0 1 -560 -500)"
     id="g113"><path
       d="m 562.460938 212.058594 h 10.449218 c -1.183594 0.492187 -1.296875 2.460937 0 3 h -10.449218 z m 0 0"
       fill="#2e3436"
       id="path111" /></g><g
     clip-path="url(#e)"
     mask="url(#d)"
     transform="matrix(1 0 0 1 -560 -500)"
     id="g117"><path
       d="m 16 632 h 1 v 1 h -1 z m 0 0"
       fill="#2e3436"
       fill-rule="evenodd"
       id="path115" /></g><g
     clip-path="url(#g)"
     mask="url(#f)"
     transform="matrix(1 0 0 1 -560 -500)"
     id="g121"><path
       d="m 17 631 h 1 v 1 h -1 z m 0 0"
       fill="#2e3436"
       fill-rule="evenodd"
       id="path119" /></g><g
     clip-path="url(#i)"
     mask="url(#h)"
     transform="matrix(1 0 0 1 -560 -500)"
     id="g125"><path
       d="m 18 634 h 1 v 1 h -1 z m 0 0"
       fill="#2e3436"
       fill-rule="evenodd"
       id="path123" /></g><g
     clip-path="url(#k)"
     mask="url(#j)"
     transform="matrix(1 0 0 1 -560 -500)"
     id="g129"><path
       d="m 16 634 h 1 v 1 h -1 z m 0 0"
       fill="#2e3436"
       fill-rule="evenodd"
       id="path127" /></g><g
     clip-path="url(#m)"
     mask="url(#l)"
     transform="matrix(1 0 0 1 -560 -500)"
     id="g133"><path
       d="m 17 635 h 1 v 1 h -1 z m 0 0"
       fill="#2e3436"
       fill-rule="evenodd"
       id="path131" /></g><g
     clip-path="url(#o)"
     mask="url(#n)"
     transform="matrix(1 0 0 1 -560 -500)"
     id="g137"><path
       d="m 19 635 h 1 v 1 h -1 z m 0 0"
       fill="#2e3436"
       fill-rule="evenodd"
       id="path135" /></g><g
     clip-path="url(#q)"
     mask="url(#p)"
     transform="matrix(1 0 0 1 -560 -500)"
     id="g141"><path
       d="m 136 660 v 7 h 7 v -7 z m 0 0"
       fill="#2e3436"
       id="path139" /></g><g
     clip-path="url(#s)"
     mask="url(#r)"
     transform="matrix(1 0 0 1 -560 -500)"
     id="g145"><path
       d="m 199 642 h 3 v 12 h -3 z m 0 0"
       fill="#2e3436"
       id="path143" /></g><g
     clip-path="url(#u)"
     mask="url(#t)"
     transform="matrix(1 0 0 1 -560 -500)"
     id="g149"><path
       d="m 209.5 144.160156 c 0.277344 0 0.5 0.222656 0.5 0.5 v 1 c 0 0.277344 -0.222656 0.5 -0.5 0.5 s -0.5 -0.222656 -0.5 -0.5 v -1 c 0 -0.277344 0.222656 -0.5 0.5 -0.5 z m 0 0"
       fill="#2e3436"
       id="path147" /></g><g
     clip-path="url(#w)"
     mask="url(#v)"
     transform="matrix(1 0 0 1 -560 -500)"
     id="g153"><path
       d="m 206.5 144.160156 c 0.277344 0 0.5 0.222656 0.5 0.5 v 1 c 0 0.277344 -0.222656 0.5 -0.5 0.5 s -0.5 -0.222656 -0.5 -0.5 v -1 c 0 -0.277344 0.222656 -0.5 0.5 -0.5 z m 0 0"
       fill="#2e3436"
       id="path151" /></g><g
     clip-path="url(#y)"
     mask="url(#x)"
     transform="matrix(1 0 0 1 -560 -500)"
     id="g157"><path
       d="m 229.5 143.160156 c -0.546875 0 -1 0.457032 -1 1 c 0 0.546875 0.453125 1 1 1 s 1 -0.453125 1 -1 c 0 -0.542968 -0.453125 -1 -1 -1 z m 0 0"
       fill="#2e3436"
       id="path155" /></g><g
     clip-path="url(#A)"
     mask="url(#z)"
     transform="matrix(1 0 0 1 -560 -500)"
     id="g161"><path
       d="m 226.453125 143.160156 c -0.519531 0 -0.953125 0.433594 -0.953125 0.953125 v 0.09375 c 0 0.519531 0.433594 0.953125 0.953125 0.953125 h 0.09375 c 0.519531 0 0.953125 -0.433594 0.953125 -0.953125 v -0.09375 c 0 -0.519531 -0.433594 -0.953125 -0.953125 -0.953125 z m 0 0"
       fill="#2e3436"
       id="path159" /></g><path
     d="m 4.4272529,4.0633451 h 0.8513025 c 0.4688813,0 0.8513025,0.3824212 0.8513025,0.8513025 V 5.76595 c 0,0.4688813 -0.3824212,0.8513025 -0.8513025,0.8513025 H 4.4272529 c -0.4688813,0 -0.8513025,-0.3824212 -0.8513025,-0.8513025 V 4.9146476 c 0,-0.4688813 0.3824212,-0.8513025 0.8513025,-0.8513025 z m 0,0"
     id="path20"
     style="fill:#2e3436;fill-opacity:0.327168;stroke-width:0.851303" /><path
     d="m 10.913214,2.1486977 h 1.702604 c 0.468882,0 0.851303,0.3824212 0.851303,0.8513024 v 1.702605 c 0,0.4688812 -0.382421,0.8513024 -0.851303,0.8513024 h -1.702604 c -0.468882,0 -0.851303,-0.3824212 -0.851303,-0.8513024 v -1.702605 c 0,-0.4688812 0.382421,-0.8513024 0.851303,-0.8513024 z m 0,0"
     id="path22"
     style="fill:#2e3436;fill-opacity:0.327168;stroke-width:0.851303" /><path
     d="m 11.764515,11.513025 h 0.851303 c 0.468882,0 0.851303,0.382422 0.851303,0.851301 v 0.851303 c 0,0.468882 -0.382421,0.851303 -0.851303,0.851303 h -0.851303 c -0.468879,0 -0.851301,-0.382421 -0.851301,-0.851303 v -0.851303 c 0,-0.468879 0.382422,-0.851301 0.851301,-0.851301 z m 0,0"
     fill-opacity="0.327168"
     id="path34-3"
     style="fill:#2e3436;stroke-width:0.851303" /><path
     style="color:#000000;fill:#2e3436;stroke-dasharray:1.4, 0.7;-inkscape-stroke:none"
     d="m 5.9863281,8.2988281 -0.087891,0.00195 -0.035156,0.00195 0.052734,0.6992187 L 5.9335937,9 5.9863281,8.9980469 6.0390625,9 l 0.050781,0.00391 0.050781,0.00586 0.048828,0.00977 0.048828,0.011719 0.048828,0.013672 0.046875,0.015625 0.044922,0.017578 0.044922,0.019531 0.042969,0.023437 0.041016,0.023437 0.041016,0.025391 0.041016,0.029297 0.037109,0.029297 0.037109,0.03125 0.035156,0.033203 0.033203,0.035156 0.03125,0.037109 0.03125,0.039063 L 6.8125,9.4296875 7.3828125,9.0253906 7.3554687,8.984375 7.3046875,8.9199219 7.25,8.8574219 7.1933594,8.7988281 7.1347656,8.7421875 7.0722656,8.6894531 7.0078125,8.6386719 6.9414062,8.5898438 6.8730469,8.546875 6.8007812,8.5058594 6.7265625,8.4667969 6.6523437,8.4335938 6.5742187,8.4023438 6.4941406,8.375 6.4140625,8.3515625 6.3300781,8.3339844 6.2460937,8.3183594 6.1601562,8.3066406 6.0742187,8.3007813 Z m -0.9394531,0.2832032 -0.015625,0.00781 -0.066406,0.048828 -0.064453,0.050781 -0.0625,0.052734 -0.058594,0.056641 -0.056641,0.058594 -0.052734,0.0625 -0.050781,0.064453 -0.048828,0.066406 -0.042969,0.070312 -0.041016,0.070312 -0.039063,0.074219 -0.033203,0.076172 -0.03125,0.078125 -0.027344,0.078125 -0.023437,0.082031 -0.017578,0.082031 -0.015625,0.083984 -0.011719,0.085937 -0.00586,0.085937 -0.00195,0.08789 0.00195,0.07422 0.6992187,-0.01758 -0.00195,-0.05664 0.00195,-0.052734 0.00391,-0.050781 0.00586,-0.050781 L 5,9.8027344 l 0.011719,-0.048828 0.013672,-0.046875 0.015625,-0.046875 0.017578,-0.046875 0.019531,-0.042969 0.023437,-0.044922 0.023437,-0.041016 0.025391,-0.041016 0.029297,-0.039063 0.029297,-0.039063 0.03125,-0.037109 0.035156,-0.035156 0.033203,-0.033203 0.037109,-0.03125 0.039063,-0.029297 0.039063,-0.029297 z m 2.640625,1.2695312 -0.6992188,0.052734 0.00391,0.048828 0.00195,0.044922 v 0.017578 l -0.00195,0.04297 -0.00391,0.05078 -0.00586,0.05078 -0.00977,0.04883 -0.00977,0.04883 -0.013672,0.04883 -0.015625,0.04687 -0.019531,0.04492 -0.019531,0.04492 -0.021484,0.04297 -0.025391,0.04102 -0.025391,0.04101 -0.027344,0.04102 -0.03125,0.03711 -0.03125,0.03711 -0.033203,0.03516 -0.035156,0.0332 -0.037109,0.03125 -0.037109,0.03125 -0.041016,0.02734 -0.039063,0.02539 0.3496094,0.607421 0.013672,-0.0078 0.068359,-0.04492 0.066406,-0.04687 0.064453,-0.05078 0.0625,-0.05469 0.058594,-0.05664 0.056641,-0.05859 0.054687,-0.0625 0.050781,-0.06445 0.046875,-0.06641 0.044922,-0.06836 0.041016,-0.07226 0.037109,-0.07422 0.035156,-0.07422 0.029297,-0.07813 0.027344,-0.08008 0.023437,-0.08008 0.019531,-0.08399 0.013672,-0.08398 0.011719,-0.08594 0.00586,-0.08594 0.00195,-0.07813 -0.3496094,-0.0078 0.3496094,-0.00977 -0.00195,-0.080078 z m -2.5546875,0.6894535 -0.5878906,0.378906 0.025391,0.04102 0.048828,0.06641 0.050781,0.06445 0.052734,0.0625 0.056641,0.05859 0.058594,0.05664 0.0625,0.05469 0.064453,0.05078 0.066406,0.04687 0.070312,0.04492 0.070312,0.04102 0.074219,0.03711 0.076172,0.03516 0.078125,0.0293 0.078125,0.02734 0.082031,0.02344 0.082031,0.01953 0.083984,0.01367 0.085937,0.01172 0.085937,0.0059 0.087891,0.002 h 0.041016 l -0.017578,-0.699219 h -0.023437 l -0.052734,-0.002 -0.050781,-0.0039 -0.050781,-0.0059 -0.048828,-0.0098 -0.048828,-0.0098 -0.046875,-0.01367 -0.046875,-0.01563 -0.046875,-0.01953 -0.042969,-0.01953 -0.044922,-0.02149 -0.041016,-0.02539 -0.041016,-0.02539 -0.039063,-0.02734 -0.039063,-0.03125 -0.037109,-0.03125 -0.033203,-0.0332 -0.035156,-0.03516 -0.03125,-0.03711 -0.029297,-0.03711 -0.029297,-0.04102 z"
     id="path1330" /><path
     id="path1599"
     style="fill:#2e3436;fill-opacity:1;stroke-width:1.267;stroke-dasharray:none"
     d="M 3.1992188 9 C 2.5015066 9 1.9335938 9.5698658 1.9335938 10.267578 L 1.9335938 12.800781 C 1.9335938 13.498494 2.5015066 14.066406 3.1992188 14.066406 L 5.7324219 14.066406 C 6.4301341 14.066406 6.9999999 13.498494 7 12.800781 L 7 11.730469 C 6.7047599 11.900807 6.3636737 12 6 12 C 4.8921761 12 3.9863279 11.094151 3.9863281 9.9863281 C 3.9863281 9.6281699 4.0824697 9.2921509 4.2480469 9 L 3.1992188 9 z " /></svg>
