<?xml version="1.0" encoding="UTF-8" standalone="no"?>
<svg
   height="16px"
   viewBox="0 0 16 16"
   width="16px"
   version="1.1"
   id="svg2"
   xml:space="preserve"
   xmlns="http://www.w3.org/2000/svg"
   xmlns:svg="http://www.w3.org/2000/svg"><defs
     id="defs2" /><path
     d="M 1.5,6 C 0.667968,6 0,6.667968 0,7.5 v 3 C 0,11.332032 0.667968,12 1.5,12 h 3 C 5.332032,12 6,11.332032 6,10.5 v -3 C 6,6.667968 5.332032,6 4.5,6 Z"
     id="path7"
     fill-opacity="0.35" /><path
     d="M 11.5,4 C 10.667968,4 10,4.667968 10,5.5 v 3 c 0,0.8320319 0.667968,1.5 1.5,1.5 h 3 C 15.332032,10 16,9.3320319 16,8.5 v -3 C 16,4.667968 15.332032,4 14.5,4 Z"
     id="path1"
     fill-opacity="0.35" /><path
     style="baseline-shift:baseline;display:inline;overflow:visible;vector-effect:none;fill:#222222;stroke-dasharray:4, 2;stroke-dashoffset:4.2;enable-background:accumulate;stop-color:#000000;stop-opacity:1;opacity:1"
     d="M 6.8007812,0 V 2 H 10.800781 V 0 Z m 6.2597658,0.171875 -0.548828,1.921875 0.01563,0.00391 0.0918,0.03125 0.0918,0.035156 0.0957,0.039063 0.09375,0.046875 0.0957,0.050781 0.09766,0.0625 0.04102,0.027344 0.04492,0.033203 0.04492,0.033203 0.04297,0.037109 0.04297,0.037109 0.04297,0.041016 0.04101,0.041016 0.04102,0.044922 0.04102,0.044922 0.03906,0.048828 0.03711,0.050781 0.03906,0.054687 0.03516,0.056641 0.03516,0.058594 0.03516,0.0625 0.0332,0.066406 0.03125,0.070312 0.03125,0.074219 0.0293,0.076172 0.02734,0.082031 0.02539,0.087891 0.02539,0.089844 0.02148,0.095703 0.01953,0.1015625 0.01758,0.1074219 0.01367,0.1113281 0.01172,0.1171875 0.0059,0.095703 1.996094,-0.1386719 -0.0098,-0.125 -0.01758,-0.1777343 -0.02148,-0.171875 -0.02734,-0.1679688 -0.03125,-0.1640625 -0.03711,-0.1582031 -0.04102,-0.15625 -0.04492,-0.1523438 -0.04883,-0.1464843 -0.05469,-0.1425782 -0.05664,-0.1386718 -0.0625,-0.1347657 -0.06445,-0.1308593 -0.06836,-0.1250001 -0.07227,-0.1210937 -0.07617,-0.1171875 -0.07813,-0.1113281 -0.08008,-0.1074219 -0.08398,-0.1035156 -0.08594,-0.099609 -0.08594,-0.09375 -0.08984,-0.089844 -0.08984,-0.083984 -0.0918,-0.0820313 -0.09375,-0.0761719 -0.0918,-0.0722656 -0.09375,-0.0683594 L 14.185547,0.6875 14.003906,0.57421875 13.818359,0.47070313 13.634766,0.3828125 13.455078,0.30664063 13.279297,0.24023438 13.113281,0.18554687 Z m 0.732422,5.5820312 -0.03125,0.074219 -0.03125,0.070312 -0.0332,0.066406 -0.03516,0.0625 -0.03516,0.058594 -0.03516,0.056641 -0.03906,0.054687 -0.03711,0.050781 -0.03906,0.048828 -0.04102,0.044922 -0.04102,0.044922 -0.04101,0.041016 -0.04297,0.041016 -0.04297,0.037109 -0.04297,0.037109 -0.04492,0.033203 -0.04492,0.033203 -0.04102,0.027344 -0.09766,0.0625 -0.0957,0.050781 -0.09375,0.046875 -0.0957,0.039063 -0.0918,0.035156 -0.0918,0.03125 -0.08789,0.023437 -0.08398,0.021484 -0.07813,0.015625 -0.07227,0.013672 -0.05664,0.00781 -0.105469,0.011719 L 11.990234,7 h -0.002 -0.470703 v 2 h 0.494141 l 0.06641,-0.00195 0.136719,-0.00781 0.189453,-0.021484 0.125,-0.017578 0.130859,-0.023437 0.140625,-0.03125 0.152344,-0.037109 0.160156,-0.044922 0.166016,-0.054687 0.175781,-0.066406 0.179688,-0.076172 0.183593,-0.087891 0.185547,-0.1035156 0.181641,-0.1132813 0.101562,-0.066406 0.09375,-0.068359 0.0918,-0.072266 0.09375,-0.076172 0.0918,-0.082031 0.08984,-0.083984 0.08984,-0.089844 0.08594,-0.09375 0.08594,-0.099609 0.08398,-0.1035156 0.08008,-0.1074219 0.07813,-0.1113281 0.07617,-0.1171875 0.07227,-0.1210938 0.06836,-0.125 0.06445,-0.1308593 0.0625,-0.1347657 0.05664,-0.1386718 0.01172,-0.029297 -1.871094,-0.703125 z M 5.5175781,7 v 2 h 4 V 7 Z M 3.3144531,7.078125 3.1992188,7.1035156 3.046875,7.140625 2.8867188,7.1855469 2.7207031,7.2402344 2.5449219,7.3066406 2.3652344,7.3828125 2.1816406,7.4707031 1.9960937,7.5742187 1.8144531,7.6875 l -0.1015625,0.066406 -0.09375,0.068359 -0.091797,0.072266 -0.09375,0.076172 -0.091797,0.082031 -0.089844,0.083984 -0.089844,0.089844 -0.085937,0.09375 -0.0859375,0.099609 L 0.90625,8.5234375 0.82617188,8.6308594 0.74804687,8.7421875 0.671875,8.859375 l -0.0722656,0.1210938 -0.0683594,0.125 -0.0644531,0.1308593 -0.0625,0.1347657 -0.0566406,0.1386718 -0.0546875,0.1425782 -0.0488281,0.1464843 -0.0449219,0.1523438 -0.0410156,0.1562501 -0.0371094,0.158203 -0.03125,0.164063 -0.02734375,0.167968 -0.01367188,0.09766 1.98437498,0.257812 0.00781,-0.06641 0.017578,-0.107422 0.019531,-0.101563 0.021484,-0.0957 0.025391,-0.08984 0.025391,-0.08789 0.027344,-0.08203 0.029297,-0.07617 0.03125,-0.07422 0.03125,-0.07031 0.033203,-0.06641 0.035156,-0.0625 0.035156,-0.058594 0.035156,-0.056641 0.039063,-0.054687 0.037109,-0.050781 0.039063,-0.048828 0.041016,-0.044922 0.041016,-0.044922 0.041016,-0.041016 0.042969,-0.041016 0.042969,-0.037109 0.042969,-0.037109 0.044922,-0.033203 0.044922,-0.033203 0.041016,-0.027344 0.097656,-0.0625 0.095703,-0.050781 0.09375,-0.046875 0.095703,-0.039063 0.091797,-0.035156 0.091797,-0.03125 0.087891,-0.023437 0.083984,-0.021484 0.083984,-0.017578 z m -1.1855468,5.443359 -1.9179688,0.572266 0.0332031,0.107422 0.0488281,0.146484 0.0546875,0.142578 0.0566406,0.138672 0.0625,0.134766 0.0644531,0.130859 0.0683594,0.125 0.0722656,0.121094 0.0761719,0.117188 0.078125,0.111328 0.0800781,0.107422 0.0839844,0.103515 0.0859375,0.09961 0.085937,0.09375 0.089844,0.08984 0.089844,0.08399 0.091797,0.08203 0.09375,0.07617 0.091797,0.07226 0.09375,0.06836 0.1015625,0.06641 0.1816406,0.113281 0.1855469,0.103516 0.1835938,0.08789 0.1796875,0.07617 0.1757812,0.06641 0.1660157,0.05469 0.1601562,0.04492 0.1523438,0.03711 0.140625,0.03125 0.1308593,0.02344 0.125,0.01758 0.1894532,0.02148 0.1367187,0.0078 0.066406,0.002 h 0.1757812 v -2 h -0.1523438 -0.00195 l -0.052734,-0.0039 -0.1054688,-0.01172 -0.056641,-0.0078 -0.072266,-0.01367 -0.078125,-0.01563 -0.083984,-0.02149 -0.087891,-0.02344 -0.091797,-0.03125 -0.091797,-0.03516 -0.095703,-0.03906 -0.09375,-0.04687 -0.095703,-0.05078 -0.097656,-0.0625 -0.041016,-0.02734 -0.044922,-0.0332 -0.044922,-0.0332 -0.042969,-0.03711 -0.042969,-0.03711 -0.042969,-0.04102 -0.041016,-0.04101 -0.041016,-0.04492 -0.041016,-0.04492 -0.039063,-0.04883 -0.037109,-0.05078 -0.039063,-0.05469 -0.035156,-0.05664 -0.035156,-0.05859 -0.035156,-0.0625 -0.033203,-0.06641 -0.03125,-0.07031 -0.03125,-0.07422 -0.029297,-0.07617 -0.027344,-0.08203 z M 6.1640625,14 v 2 h 4.0000005 v -2 z"
     id="path5" /><path
     style="fill:#2e3436;fill-opacity:0.34999999"
     d="M 54.475862,11.951724"
     id="path6" /><path
     style="fill:#2e3436;fill-opacity:0.34999999"
     d="m 54.475862,11.951724 c -0.554688,0 -1,0.445312 -1,1 v 1 c 0,0.554688 0.445312,1 1,1 h 1 c 0.554688,0 1,-0.445312 1,-1 v -1 c 0,-0.554688 -0.445312,-1 -1,-1 z"
     id="path4" /><path
     style="fill:#2e3436;fill-opacity:0.34999999"
     d="m 49.475862,10.951724 c -0.554688,0 -1,0.445312 -1,1 v 2 c 0,0.554688 0.445312,1 1,1 h 2 c 0.554688,0 1,-0.445312 1,-1 v -2 c 0,-0.554688 -0.445312,-1 -1,-1 z"
     id="path3" /><path
     style="fill:#2e3436;fill-opacity:0.34999999"
     d="m 49.475862,6.9517241 c -0.554688,0 -1,0.445312 -1,1 v 1 c 0,0.554688 0.445312,1 1,1 h 1 c 0.554688,0 1,-0.445312 1,-1 v -1 c 0,-0.554688 -0.445312,-1 -1,-1 z"
     id="path2" /></svg>
