<?xml version="1.0" encoding="UTF-8" standalone="no"?>
<svg
   height="16px"
   viewBox="0 0 16 16"
   width="16px"
   version="1.1"
   id="svg2"
   xml:space="preserve"
   xmlns="http://www.w3.org/2000/svg"
   xmlns:svg="http://www.w3.org/2000/svg"><defs
     id="defs2" /><path
     d="m 1,1 h 9 c 0,0 5,0 5,5 0,5 -14,9 -14,9"
     id="path10-9"
     fill-opacity="0.35" /><path
     style="baseline-shift:baseline;display:inline;overflow:visible;vector-effect:none;fill:#222222;stroke-dasharray:4, 2;stroke-dashoffset:1;enable-background:accumulate;stop-color:#000000;stop-opacity:1;opacity:1"
     d="M 1,0 V 2 H 4 V 0 Z m 5,0 v 2 h 4 V 0 Z m 6.306641,0.453125 -0.705078,1.8710938 0.07031,0.027344 0.09375,0.037109 0.0957,0.041016 0.0957,0.042969 0.0957,0.046875 0.09375,0.048828 0.09375,0.050781 0.09375,0.054687 0.0918,0.056641 0.08984,0.060547 0.08984,0.0625 0.08594,0.066406 0.08594,0.068359 0.08398,0.072266 0.08203,0.076172 0.08008,0.078125 0.07617,0.082031 0.07617,0.085937 0.07227,0.089844 0.07031,0.09375 0.06836,0.097656 0.06445,0.1015625 0.0625,0.1074219 0.06055,0.1113281 0.05664,0.1171875 0.05274,0.1210937 0.05078,0.1289063 0.02734,0.078125 1.888672,-0.6582031 -0.04102,-0.1152344 -0.07813,-0.1992187 -0.08398,-0.1933594 -0.0918,-0.1875 -0.0957,-0.1796875 L 15.158203,2.7226563 15.050781,2.5546875 14.939453,2.3945313 14.824219,2.2402344 14.703125,2.09375 14.580078,1.9511719 14.453125,1.8183594 14.324219,1.6894531 14.193359,1.5683594 14.058594,1.453125 13.921875,1.34375 13.785156,1.2382812 13.646484,1.140625 13.507813,1.0488281 13.367188,0.9609375 13.226563,0.87890625 13.087891,0.80273438 12.947266,0.73046875 12.808594,0.6640625 12.669922,0.59960937 12.533203,0.54101562 12.396484,0.48632813 Z m 1.691406,5.59375 v 0.027344 l -0.0039,0.072266 -0.0098,0.074219 -0.0098,0.076172 -0.01563,0.076172 -0.01758,0.076172 -0.02148,0.078125 -0.02539,0.078125 -0.02734,0.080078 -0.0332,0.082031 -0.03516,0.082031 -0.04101,0.082031 -0.04297,0.085937 -0.04687,0.085937 -0.05274,0.085937 -0.05469,0.087891 -0.05859,0.087891 -0.06445,0.089844 -0.06641,0.089844 -0.07031,0.089844 -0.07422,0.089844 -0.07813,0.091797 -0.08203,0.091797 L 12.980469,8 l -0.08789,0.09375 -0.08984,0.089844 -0.197265,0.1875 -0.208985,0.1855468 -0.07226,0.0625 1.291015,1.5273434 0.09375,-0.08008 0.253907,-0.2265622 0.238281,-0.2265625 0.119141,-0.1210938 0.115234,-0.1191406 0.111328,-0.1191406 0.107422,-0.1230469 0.105469,-0.1230469 0.103515,-0.125 0.09766,-0.125 0.0957,-0.1289062 0.0918,-0.1289063 0.08789,-0.1328125 0.08399,-0.1328125 0.08008,-0.1347656 0.07813,-0.1386719 0.07031,-0.1386719 0.06836,-0.140625 0.0625,-0.1445312 0.05859,-0.1445313 0.05274,-0.1484375 0.04687,-0.1484375 0.04101,-0.1523437 0.03711,-0.1523438 0.0293,-0.15625 0.02344,-0.15625 0.01758,-0.1582031 0.0098,-0.1601563 0.002,-0.070312 z M 10.820313,9.7207031 10.642578,9.8320313 10.357422,10.007813 10.066406,10.181641 9.7695313,10.351563 9.4667969,10.519531 9.1582031,10.685547 8.8476563,10.847656 8.5332031,11.007813 8.2167969,11.164063 7.8984375,11.318359 7.578125,11.46875 7.4179687,11.541016 8.2519531,13.359375 8.421875,13.28125 8.7578125,13.123047 9.09375,12.960938 9.4296875,12.794922 9.7636719,12.625 l 0.3320311,-0.171875 0.330078,-0.177734 0.326172,-0.181641 0.322266,-0.185547 0.318359,-0.1875 0.3125,-0.193359 0.191406,-0.121094 z m -5.1933599,2.5937499 -0.5625,0.22461 -0.59375,0.230468 -0.5683593,0.210938 -0.5390625,0.195312 -0.5019532,0.175782 -0.4628906,0.158203 -0.4179688,0.136718 -0.044922,0.01563 0.6132812,1.904297 0.054687,-0.01758 0.4316407,-0.144531 0.4785156,-0.162109 0.5214843,-0.181641 0.5566407,-0.201172 0.5878906,-0.220703 0.6152344,-0.236328 0.5761718,-0.230469 z"
     id="path10" /></svg>
