<?xml version="1.0" encoding="UTF-8" standalone="no"?>
<svg
   height="16px"
   viewBox="0 0 16 16"
   width="16px"
   version="1.1"
   id="svg1"
   xmlns="http://www.w3.org/2000/svg"
   xmlns:svg="http://www.w3.org/2000/svg">
  <defs
     id="defs1" />
  <path
     d="m 15.499099,8.5937503 c -0.0078,0.613281 -0.08984,1.2343747 -0.253906,1.8476557 C 14.366287,13.714844 11.389724,16 7.9990982,16 4.6084732,16 1.6319102,13.714844 0.75691014,10.441406 -0.12199586,7.1679693 1.3155042,3.6992193 4.2490982,2.0039063 c 0.480469,-0.277344 1.089844,-0.109375 1.367188,0.367188 0.273437,0.476562 0.109374,1.089844 -0.367188,1.367187 -2.160156,1.246094 -3.207031,3.777344 -2.5625,6.1874997 C 3.3311292,12.332031 5.5069102,14 7.9990982,14 10.495193,14 12.667068,12.332031 13.311599,9.925781 13.95613,7.5156253 12.909255,4.9843753 10.749099,3.7382813 c -0.08594,-0.058593 -0.164062,-0.125 -0.226562,-0.203125 l -0.01563,0.019532 -0.0078,0.00781 v 1.437502 c 0,0.550781 -0.449219,1 -1.0000008,1 0,0 -1,0 -1,-1 V 2.4966191e-7 h 5.0000008 c 0,0 1,-0.003905999662 1,1.00000005033809 0,0.550781 -0.449219,1 -1,1 h -1.6875 l -0.01172,0.015625 -0.01172,0.011719 c 2.179688,1.277344 3.519532,3.53125 3.691407,5.953125 0.01563,0.203125 0.01953,0.40625 0.01953,0.613281 z"
     fill="#222222"
     id="path1" />
</svg>
