<?xml version="1.0" encoding="UTF-8" standalone="no"?>
<svg
   width="16"
   height="16"
   version="1.1"
   id="svg4"
   xml:space="preserve"
   xmlns="http://www.w3.org/2000/svg"
   xmlns:svg="http://www.w3.org/2000/svg"><defs
     id="defs8" /><g
     id="g2859"
     transform="translate(16.436534,-1.0238249)" /><path
     id="path7393-9-9"
     d="m 6.2861843,6.2037248 4.8640387,0.041229 c 0.257637,-0.00508 0.476598,-0.1056304 0.680128,-0.3091691 L 12.48988,5.2762525 11.830351,4.6167218 C 11.660302,4.4466728 11.397523,4.3539524 11.150193,4.3488031 l -1.6900472,-1.8e-6 2.4899852,-2.4899862 -1.319058,-1.3190595 -2.4899852,2.4899878 -2e-6,-1.6900516 C 8.1384588,1.0949256 8.0431968,0.8295728 7.8731668,0.6595378 L 7.2136378,0 6.5541058,0.6595307 C 6.3505733,0.8630642 6.2501053,1.0820402 6.2449403,1.3396568 Z"
     style="fill:#2e3436;fill-opacity:1;stroke:none;stroke-width:0.93272" /><path
     id="path7393-9-8"
     d="m 6.2036963,6.2861838 -4.864039,-0.04123 c -0.257637,0.0051 -0.47659901,0.105631 -0.68012901,0.309169 L -1.95e-7,7.2136558 0.65952829,7.8731858 c 0.170049,0.170049 0.43282901,0.26277 0.68015901,0.267919 l 1.690048,2e-6 -2.48998701,2.4899872 1.31905901,1.31906 2.489986,-2.4899892 2e-6,1.6900522 c 0.0026,0.244767 0.09789,0.51012 0.267919,0.680155 l 0.659529,0.659536 0.659532,-0.659529 c 0.203532,-0.203534 0.304,-0.422511 0.309165,-0.680128 z"
     style="fill:#2e3436;fill-opacity:1;stroke:none;stroke-width:0.93272" /><g
     id="g7580"
     transform="matrix(0.84781761,0,0,0.84781761,4.8106378,4.5460613)"><path
       style="fill:#2e3436;fill-opacity:1;stroke:none;stroke-width:0.64826;stroke-opacity:1"
       d="M 3.1049125,2.9068681 4.0216893,3.8236454 3.1049118,4.7404232 4.0171056,5.6526165 4.9338831,4.7358388 5.8460764,5.6480322 6.7628535,4.731255 5.8506601,3.8190617 6.7674374,2.9022844 5.855244,1.990091 4.9384669,2.9068683 4.0216893,1.990091 Z"
       id="path7387" /><path
       style="fill:#2e3436;fill-opacity:1;stroke:none;stroke-width:0.743214;stroke-opacity:1"
       d="m 11.651874,2.361698 c 0.410456,0.00286 0.743214,0.3327483 0.743214,0.7432141 v 9.6617829 c 0,0.410466 -0.332748,0.743214 -0.743214,0.743214 H 4.2197329 c -0.410466,0 -0.743214,-0.332748 -0.743214,-0.743214 V 6.8984164 c 0,-0.9909517 1.4864281,-0.9909517 1.4864281,0 V 12.023481 H 10.90866 V 3.8481262 L 7.8039881,3.8213538 c -0.9909149,-0.00854 -0.9909276,-1.4933227 0,-1.4864282 z"
       id="path7384" /></g></svg>
