<?xml version="1.0" encoding="UTF-8" standalone="no"?>
<svg
   height="16px"
   viewBox="0 0 16 16"
   width="16px"
   version="1.1"
   id="svg2"
   xml:space="preserve"
   xmlns="http://www.w3.org/2000/svg"
   xmlns:svg="http://www.w3.org/2000/svg"><defs
     id="defs2" /><path
     id="rect1"
     style="baseline-shift:baseline;display:inline;overflow:visible;vector-effect:none;fill:#222222;stroke-dasharray:6, 2;stroke-dashoffset:2;enable-background:accumulate;stop-color:#000000;stop-opacity:1;opacity:1"
     d="M 5 0 L 5 1 L 4 1 L 4 3 L 6 3 L 6 2 L 9 2 L 9 0 L 5 0 z M 11 0 L 11 2 L 14 2 L 14 3 L 16 3 L 16 0 L 11 0 z M 0 4 L 0 16 L 4 16 L 9 16 L 11 16 L 16 16 L 16 13 L 16 11 L 16 5 L 16 4 L 0 4 z M 2 6 L 4 6 L 4 11 L 6 11 L 6 6 L 14 6 L 14 11 L 14 13 L 14 14 L 11 14 L 9 14 L 6 14 L 6 13 L 4 13 L 4 14 L 2 14 L 2 6 z M 10.285156 8 C 9.6568082 8 9.1425781 8.5142296 9.1425781 9.1425781 L 9.1425781 9.7148438 C 8.8256138 9.7148438 8.5722656 9.9681927 8.5722656 10.285156 L 8.5722656 11.714844 C 8.5722656 11.873327 8.6989396 12 8.8574219 12 L 11.714844 12 C 11.873327 12 12 11.873333 12 11.714844 L 12 10.285156 C 12 9.9681927 11.744699 9.7148437 11.427734 9.7148438 L 11.427734 9.1425781 C 11.427734 8.5142296 10.913505 8 10.285156 8 z M 10.285156 8.5722656 C 10.606585 8.5722656 10.857422 8.8211496 10.857422 9.1425781 L 10.857422 9.7148438 L 9.7148438 9.7148438 L 9.7148438 9.1425781 C 9.7148438 8.8211496 9.9637276 8.5722656 10.285156 8.5722656 z " /></svg>
