<?xml version="1.0" encoding="UTF-8" standalone="no"?>
<svg
   height="16px"
   viewBox="0 0 16 16"
   width="16px"
   version="1.1"
   id="svg4"
   xmlns="http://www.w3.org/2000/svg"
   xmlns:svg="http://www.w3.org/2000/svg">
  <defs
     id="defs8" />
  <path
     d="M 4,5.5 C 4,4.6777345 4.6777345,4 5.5,4 H 8 C 8.8222655,4 9.5,4.6777345 9.5,5.5 9.5,5.7753905 9.2753905,6 9,6 8.7246095,6 8.5,5.7753905 8.5,5.5 8.5,5.214844 8.285156,5 8,5 H 5.5 C 5.214844,5 5,5.214844 5,5.5 V 8 C 5,8.285156 5.214844,8.5 5.5,8.5 5.7753905,8.5 6,8.72461 6,9 6,9.275391 5.7753905,9.5 5.5,9.5 4.6777345,9.5 4,8.822266 4,8 Z M 6.5,8 C 6.5,7.177735 7.1777345,6.5 8,6.5 h 2.5 C 11.322266,6.5 12,7.177735 12,8 v 2.5 C 12,11.322266 11.322266,12 10.5,12 H 8 C 7.1777345,12 6.5,11.322266 6.5,10.5 Z m 1,0 v 2.5 C 7.5,10.785156 7.714844,11 8,11 h 2.5 C 10.785156,11 11,10.785156 11,10.5 V 8 C 11,7.714844 10.785156,7.5 10.5,7.5 H 8 C 7.714844,7.5 7.5,7.714844 7.5,8 Z m 0,0"
     fill="#2e3436"
     id="path2"
     style="stroke-width:0.999997" />
</svg>
