<?xml version="1.0" encoding="UTF-8"?>
<svg height="16px" viewBox="0 0 16 16" width="16px" xmlns="http://www.w3.org/2000/svg">
    <path d="m 0 3 c 0 -1.644531 1.355469 -3 3 -3 h 5 c 1.644531 0 3 1.355469 3 3 c 0 0.550781 -0.449219 1 -1 1 s -1 -0.449219 -1 -1 c 0 -0.570312 -0.429688 -1 -1 -1 h -5 c -0.570312 0 -1 0.429688 -1 1 v 5 c 0 0.570312 0.429688 1 1 1 c 0.550781 0 1 0.449219 1 1 s -0.449219 1 -1 1 c -1.644531 0 -3 -1.355469 -3 -3 z m 5 5 c 0 -1.644531 1.355469 -3 3 -3 h 5 c 1.644531 0 3 1.355469 3 3 v 5 c 0 1.644531 -1.355469 3 -3 3 h -5 c -1.644531 0 -3 -1.355469 -3 -3 z m 2 0 v 5 c 0 0.570312 0.429688 1 1 1 h 5 c 0.570312 0 1 -0.429688 1 -1 v -5 c 0 -0.570312 -0.429688 -1 -1 -1 h -5 c -0.570312 0 -1 0.429688 -1 1 z m 0 0" fill="#2e3436"/>
</svg>
