<?xml version="1.0" encoding="UTF-8" standalone="no"?>
<svg
   height="16px"
   viewBox="0 0 16 16"
   width="16px"
   version="1.1"
   id="svg8"
   sodipodi:docname="selection-mirror-vertical-symbolic.svg"
   inkscape:version="1.2.2 (b0a8486541, 2022-12-01)"
   xml:space="preserve"
   xmlns:inkscape="http://www.inkscape.org/namespaces/inkscape"
   xmlns:sodipodi="http://sodipodi.sourceforge.net/DTD/sodipodi-0.dtd"
   xmlns="http://www.w3.org/2000/svg"
   xmlns:svg="http://www.w3.org/2000/svg"><sodipodi:namedview
     id="namedview7"
     pagecolor="#ffffff"
     bordercolor="#000000"
     borderopacity="0.25"
     inkscape:showpageshadow="2"
     inkscape:pageopacity="0.0"
     inkscape:pagecheckerboard="0"
     inkscape:deskcolor="#d1d1d1"
     showgrid="false"
     inkscape:zoom="29.5"
     inkscape:cx="4.3898305"
     inkscape:cy="8"
     inkscape:window-width="1440"
     inkscape:window-height="842"
     inkscape:window-x="0"
     inkscape:window-y="0"
     inkscape:window-maximized="1"
     inkscape:current-layer="svg8" /><defs
     id="defs12" /><g
     id="g2992"
     transform="matrix(0,0.88247713,-0.91975941,0,15.204765,0.94007931)"><g
       id="Body"
       transform="matrix(0.06171212,0,0,-0.06171212,6.6782349,12.344427)"
       style="stroke-width:0;stroke-dasharray:none"><path
         id="Body_f0000"
         d="m 0,136.7889 v 0 V 4 4 Z"
         stroke="#191919"
         stroke-width="0.7 px"
         style="fill:#000000;fill-opacity:1;fill-rule:evenodd;stroke-width:0;stroke-linecap:square;stroke-miterlimit:4;stroke-dasharray:none" /><path
         id="Body_f0001"
         d="M 0,4 A 4,4 0 0 0 -4,0 v 0 a 4,4 0 0 1 4,4 z"
         stroke="#191919"
         stroke-width="0.7 px"
         style="fill:#000000;fill-opacity:1;fill-rule:evenodd;stroke-width:0;stroke-linecap:square;stroke-miterlimit:4;stroke-dasharray:none" /><path
         id="Body_f0002"
         d="M -4,0 H -92.525932 V 0 Z"
         stroke="#191919"
         stroke-width="0.7 px"
         style="fill:#000000;fill-opacity:1;fill-rule:evenodd;stroke-width:0;stroke-linecap:square;stroke-miterlimit:4;stroke-dasharray:none" /><path
         id="Body_f0003"
         d="M -92.525932,0 A 4,4 0 0 0 -95.8541,6.2188 l -3.3e-5,8e-7 A 4,4 0 0 1 -92.5259,0 Z"
         stroke="#191919"
         stroke-width="0.7 px"
         style="fill:#000000;fill-opacity:1;fill-rule:evenodd;stroke-width:0;stroke-linecap:square;stroke-miterlimit:4;stroke-dasharray:none" /><path
         id="Body_f0004"
         d="m -95.854133,6.2188008 v 0 L -7.3282012,139.0077 v 0 z"
         stroke="#191919"
         stroke-width="0.7 px"
         style="fill:#000000;fill-opacity:1;fill-rule:evenodd;stroke-width:0;stroke-linecap:square;stroke-miterlimit:4;stroke-dasharray:none" /><path
         id="Body_f0005"
         d="M -7.3282012,139.0077 A 4,4 0 0 0 0,136.789 v -10e-5 a 4,4 0 0 1 -7.3282,2.2191 z"
         stroke="#191919"
         stroke-width="0.7 px"
         style="fill:#000000;fill-opacity:1;fill-rule:evenodd;stroke-width:0;stroke-linecap:square;stroke-miterlimit:4;stroke-dasharray:none" /><path
         id="Body_f0006"
         d="M 0,136.7889 V 4 A 4,4 0 0 0 -4,0 H -92.525932 A 4,4 0 0 0 -95.8541,6.2188 L -7.3282012,139.0077 A 4,4 0 0 0 0,136.789 Z"
         stroke="#191919"
         stroke-width="0.7 px"
         style="fill:#000000;fill-opacity:1;fill-rule:evenodd;stroke-width:0;stroke-linecap:square;stroke-miterlimit:4;stroke-dasharray:none" /><path
         id="Body_f0007"
         d="m 0,136.7889 a 4,4 0 0 1 -7.3282,2.2191 L -95.854133,6.2188008 A 4,4 0 0 1 -92.5259,0 H -4 a 4,4 0 0 1 4,4 z"
         stroke="#191919"
         stroke-width="0.7 px"
         style="fill:#000000;fill-opacity:1;fill-rule:evenodd;stroke-width:0;stroke-linecap:square;stroke-miterlimit:4;stroke-dasharray:none" /><title
         id="title600">b'Body'</title></g><g
       id="Body-1"
       transform="matrix(0.06171212,0,0,-0.06171212,9.322,12.344427)"
       style="opacity:0.384681;stroke-width:0;stroke-dasharray:none"><path
         id="Body_f0000-2"
         d="m 0,4 v 0 132.7889 0 z"
         stroke="#191919"
         stroke-width="0.7 px"
         style="fill:#adb5bd;fill-opacity:1;fill-rule:evenodd;stroke-width:0;stroke-linecap:square;stroke-miterlimit:4;stroke-dasharray:none" /><path
         id="Body_f0001-7"
         d="m 0,136.7889 a 4,4 0 0 0 7.3282,2.2191 l 1.2e-6,-3e-4 A 4,4 0 0 1 0,136.789 Z"
         stroke="#191919"
         stroke-width="0.7 px"
         style="fill:#adb5bd;fill-opacity:1;fill-rule:evenodd;stroke-width:0;stroke-linecap:square;stroke-miterlimit:4;stroke-dasharray:none" /><path
         id="Body_f0002-0"
         d="M 7.3282012,139.0077 95.854133,6.2188008 v 0 z"
         stroke="#191919"
         stroke-width="0.7 px"
         style="fill:#adb5bd;fill-opacity:1;fill-rule:evenodd;stroke-width:0;stroke-linecap:square;stroke-miterlimit:4;stroke-dasharray:none" /><path
         id="Body_f0003-9"
         d="M 95.854133,6.2188008 A 4,4 0 0 0 92.5259,0 h 3.2e-5 A 4,4 0 0 1 95.8541,6.2188 Z"
         stroke="#191919"
         stroke-width="0.7 px"
         style="fill:#adb5bd;fill-opacity:1;fill-rule:evenodd;stroke-width:0;stroke-linecap:square;stroke-miterlimit:4;stroke-dasharray:none" /><path
         id="Body_f0004-3"
         d="M 92.525932,0 H 4 v 0 z"
         stroke="#191919"
         stroke-width="0.7 px"
         style="fill:#adb5bd;fill-opacity:1;fill-rule:evenodd;stroke-width:0;stroke-linecap:square;stroke-miterlimit:4;stroke-dasharray:none" /><path
         id="Body_f0005-6"
         d="M 4,0 A 4,4 0 0 0 0,4 V 4 A 4,4 0 0 1 4,0 Z"
         stroke="#191919"
         stroke-width="0.7 px"
         style="fill:#adb5bd;fill-opacity:1;fill-rule:evenodd;stroke-width:0;stroke-linecap:square;stroke-miterlimit:4;stroke-dasharray:none" /><path
         id="Body_f0006-0"
         d="m 0,4 v 132.7889 a 4,4 0 0 0 7.3282,2.2191 L 95.854133,6.2188008 A 4,4 0 0 0 92.5259,0 H 4 A 4,4 0 0 0 0,4 Z"
         stroke="#191919"
         stroke-width="0.7 px"
         style="fill:#adb5bd;fill-opacity:1;fill-rule:evenodd;stroke-width:0;stroke-linecap:square;stroke-miterlimit:4;stroke-dasharray:none" /><path
         id="Body_f0007-6"
         d="M 0,4 A 4,4 0 0 1 4,0 H 92.525932 A 4,4 0 0 1 95.8541,6.2188 L 7.3282012,139.0077 A 4,4 0 0 1 0,136.789 Z"
         stroke="#191919"
         stroke-width="0.7 px"
         style="fill:#adb5bd;fill-opacity:1;fill-rule:evenodd;stroke-width:0;stroke-linecap:square;stroke-miterlimit:4;stroke-dasharray:none" /><title
         id="title627">b'Body'</title></g><rect
       style="fill:#292929;fill-opacity:1;stroke:#000000;stroke-width:0;stroke-linejoin:round;stroke-miterlimit:2;stroke-dasharray:none;stroke-opacity:1"
       id="rect2002-6"
       width="1.0729578"
       height="1.9999989"
       x="7.463521"
       y="11.33333" /><rect
       style="fill:#292929;fill-opacity:1;stroke:#000000;stroke-width:0;stroke-linejoin:round;stroke-miterlimit:2;stroke-dasharray:none;stroke-opacity:1"
       id="rect2002-6-1"
       width="1.0729578"
       height="1.9999989"
       x="7.463521"
       y="8.3333302" /><rect
       style="fill:#292929;fill-opacity:1;stroke:#000000;stroke-width:0;stroke-linejoin:round;stroke-miterlimit:2;stroke-dasharray:none;stroke-opacity:1"
       id="rect2002-6-8"
       width="1.0729578"
       height="1.9999989"
       x="7.463521"
       y="5.3333006" /><rect
       style="fill:#292929;fill-opacity:1;stroke:#000000;stroke-width:0;stroke-linejoin:round;stroke-miterlimit:2;stroke-dasharray:none;stroke-opacity:1"
       id="rect2002-6-7"
       width="1.0729578"
       height="1.9999989"
       x="7.463521"
       y="2.3333006" /></g></svg>
