<?xml version="1.0" standalone="no"?>
<svg height="105.999" preserveAspectRatio="none" viewBox="0.000 0.000 108.937 105.999" width="108.937" x="0.000" xmlns="http://www.w3.org/2000/svg" xmlns:svg="http://www.w3.org/2000/svg" xmlns:xlink="http://www.w3.org/1999/xlink" y="0.000">
<svg width="108.937" height="105.999" xmlns="http://www.w3.org/2000/svg"><defs><clipPath id="K93o0IQVclipPath1"><path fill="#000000" stroke="none" d="M 0 0 L 108.937 0 L 108.937 105.999 L 0 105.999 Z"/></clipPath></defs><g transform="matrix(1 0 0 1 -585.8339 -198.151)"><g transform="matrix(1 0 0 1 585.8344 198.1507)"><g clip-path="url(#K93o0IQVclipPath1)"><path fill="#000000" stroke="none" d="M 64.688 15.75 C 66.355 15.75 66.355 13.25 64.688 13.25 L 64.672 13.25 C 63.004 13.25 63.004 15.75 64.672 15.75 Z M 64.688 15.75"/><path fill="#000000" stroke="none" d="M 64.672 15.75 C 66.34 15.75 66.34 13.25 64.672 13.25 L 64.633 13.25 C 62.965 13.25 62.965 15.75 64.633 15.75 Z M 64.672 15.75"/><path fill="#000000" stroke="none" d="M 64.633 15.75 C 66.301 15.75 66.301 13.25 64.633 13.25 L 64.574 13.25 C 62.906 13.25 62.906 15.75 64.574 15.75 Z M 64.633 15.75"/><path fill="#000000" stroke="none" d="M 64.574 15.75 C 66.242 15.75 66.242 13.25 64.574 13.25 L 64.5 13.25 C 62.832 13.25 62.832 15.75 64.5 15.75 Z M 64.574 15.75"/><path fill="#000000" stroke="none" d="M 64.5 15.75 C 66.164 15.75 66.164 13.25 64.5 13.25 L 64.414 13.25 C 62.746 13.25 62.746 15.75 64.414 15.75 Z M 64.5 15.75"/><path fill="#000000" stroke="none" d="M 64.414 15.75 C 66.082 15.75 66.082 13.25 64.414 13.25 L 64.32 13.25 C 62.656 13.25 62.656 15.75 64.32 15.75 Z M 64.414 15.75"/><path fill="#000000" stroke="none" d="M 64.32 15.75 C 65.988 15.75 65.988 13.25 64.32 13.25 L 64.238 13.25 C 62.574 13.25 62.574 15.75 64.238 15.75 Z M 64.32 15.75"/><path fill="#000000" stroke="none" d="M 64.238 15.75 C 65.906 15.75 65.906 13.25 64.238 13.25 L 64.141 13.25 C 62.473 13.25 62.473 15.75 64.141 15.75 Z M 64.238 15.75"/><path fill="#000000" stroke="none" d="M 64.141 15.75 C 65.809 15.75 65.809 13.25 64.141 13.25 L 64.02 13.25 C 62.355 13.25 62.355 15.75 64.02 15.75 Z M 64.141 15.75"/><path fill="#000000" stroke="none" d="M 64.02 15.75 C 65.688 15.75 65.688 13.25 64.02 13.25 L 63.68 13.25 C 62.016 13.25 62.016 15.75 63.68 15.75 Z M 64.02 15.75"/><path fill="#000000" stroke="none" d="M 63.68 15.75 C 65.348 15.75 65.348 13.25 63.68 13.25 L 62.953 13.25 C 61.285 13.25 61.285 15.75 62.953 15.75 Z M 63.68 15.75"/><path fill="#000000" stroke="none" d="M 62.953 15.75 C 64.621 15.75 64.621 13.25 62.953 13.25 L 61.977 13.25 C 60.313 13.25 60.313 15.75 61.977 15.75 Z M 62.953 15.75"/><path fill="#000000" stroke="none" d="M 62.199 15.73 C 63.84 15.434 63.395 12.973 61.758 13.27 L 60.711 13.457 C 59.074 13.754 59.516 16.215 61.156 15.918 Z M 62.199 15.73"/><path fill="#000000" stroke="none" d="M 61.293 15.887 C 62.891 15.41 62.176 13.016 60.578 13.492 L 59.996 13.664 C 58.398 14.141 59.113 16.535 60.711 16.059 Z M 61.293 15.887"/><path fill="#000000" stroke="none" d="M 60.855 16.008 C 62.383 15.336 61.379 13.047 59.852 13.719 L 59.238 13.984 C 57.715 14.656 58.719 16.945 60.242 16.273 Z M 60.855 16.008"/><path fill="#000000" stroke="none" d="M 60.438 16.168 C 61.824 15.242 60.43 13.164 59.047 14.094 L 57.789 14.934 C 56.406 15.863 57.797 17.938 59.18 17.012 Z M 60.438 16.168"/><path fill="#000000" stroke="none" d="M 59.219 16.984 C 60.566 16.008 59.102 13.984 57.754 14.961 L 56.867 15.602 C 55.516 16.578 56.98 18.602 58.332 17.625 Z M 59.219 16.984"/><path fill="#000000" stroke="none" d="M 58.34 17.621 C 59.68 16.629 58.195 14.617 56.855 15.609 L 56.008 16.234 C 54.664 17.227 56.152 19.234 57.492 18.246 Z M 58.34 17.621"/><path fill="#000000" stroke="none" d="M 57.484 18.25 C 58.832 17.27 57.359 15.25 56.012 16.23 L 55.203 16.82 C 53.855 17.801 55.328 19.82 56.676 18.84 Z M 57.484 18.25"/><path fill="#000000" stroke="none" d="M 56.699 18.824 C 58.023 17.809 56.504 15.824 55.18 16.836 L 54.102 17.664 C 52.777 18.676 54.297 20.66 55.621 19.648 Z M 56.699 18.824"/><path fill="#000000" stroke="none" d="M 55.469 19.75 C 56.926 18.941 55.715 16.754 54.254 17.563 L 52.98 18.27 C 51.523 19.078 52.734 21.266 54.191 20.457 Z M 55.469 19.75"/><path fill="#000000" stroke="none" d="M 54.172 20.469 C 55.645 19.688 54.477 17.48 53 18.258 L 52.324 18.613 C 50.852 19.395 52.02 21.605 53.496 20.824 Z M 54.172 20.469"/><path fill="#000000" stroke="none" d="M 53.496 20.824 C 54.969 20.043 53.797 17.836 52.324 18.617 L 51.672 18.961 C 50.199 19.742 51.371 21.949 52.844 21.168 Z M 53.496 20.824"/><path fill="#000000" stroke="none" d="M 52.906 21.133 C 54.332 20.27 53.035 18.133 51.609 18.996 L 50.414 19.723 C 48.988 20.586 50.285 22.723 51.711 21.859 Z M 52.906 21.133"/><path fill="#000000" stroke="none" d="M 51.738 21.844 C 53.141 20.941 51.789 18.84 50.387 19.738 L 49.773 20.133 C 48.371 21.035 49.723 23.137 51.125 22.238 Z M 51.738 21.844"/><path fill="#000000" stroke="none" d="M 51.156 22.215 C 52.531 21.27 51.113 19.211 49.742 20.156 L 49.16 20.555 C 47.785 21.5 49.203 23.559 50.578 22.613 Z M 51.156 22.215"/><path fill="#000000" stroke="none" d="M 50.652 22.559 C 51.949 21.516 50.387 19.566 49.086 20.609 L 48.012 21.473 C 46.715 22.516 48.277 24.465 49.578 23.422 Z M 50.652 22.559"/><path fill="#000000" stroke="none" d="M 49.602 23.402 C 50.875 22.332 49.266 20.418 47.992 21.488 L 47.441 21.953 C 46.164 23.027 47.773 24.938 49.051 23.867 Z M 49.602 23.402"/><path fill="#000000" stroke="none" d="M 49.07 23.848 C 50.32 22.75 48.672 20.871 47.422 21.969 L 46.895 22.434 C 45.641 23.531 47.289 25.41 48.543 24.313 Z M 49.07 23.848"/><path fill="#000000" stroke="none" d="M 48.656 24.199 C 49.758 22.945 47.879 21.297 46.781 22.547 L 45.777 23.684 C 44.676 24.938 46.555 26.59 47.652 25.336 Z M 48.656 24.199"/><path fill="#000000" stroke="none" d="M 47.672 25.316 C 48.746 24.039 46.832 22.43 45.758 23.707 L 45.234 24.328 C 44.164 25.605 46.078 27.215 47.148 25.938 Z M 47.672 25.316"/><path fill="#000000" stroke="none" d="M 47.16 25.926 C 48.215 24.641 46.281 23.055 45.227 24.34 L 44.719 24.957 C 43.664 26.246 45.594 27.832 46.652 26.543 Z M 47.16 25.926"/><path fill="#000000" stroke="none" d="M 46.727 26.445 C 47.652 25.055 45.57 23.672 44.645 25.059 L 43.855 26.242 C 42.934 27.629 45.016 29.016 45.938 27.629 Z M 46.727 26.445"/><path fill="#000000" stroke="none" d="M 45.961 27.594 C 46.836 26.176 44.711 24.859 43.832 26.277 L 43.441 26.914 C 42.566 28.332 44.691 29.645 45.57 28.227 Z M 45.961 27.594"/><path fill="#000000" stroke="none" d="M 45.59 28.191 C 46.422 26.75 44.254 25.5 43.422 26.945 L 43.047 27.598 C 42.215 29.043 44.383 30.289 45.215 28.844 Z M 45.59 28.191"/><path fill="#000000" stroke="none" d="M 45.273 28.73 C 45.949 27.207 43.664 26.191 42.988 27.715 L 42.402 29.035 C 41.723 30.555 44.008 31.574 44.684 30.051 Z M 45.273 28.73"/><path fill="#000000" stroke="none" d="M 44.711 29.992 C 45.309 28.434 42.973 27.539 42.375 29.094 L 41.965 30.16 C 41.367 31.715 43.703 32.613 44.301 31.055 Z M 44.711 29.992"/><path fill="#000000" stroke="none" d="M 44.32 31.004 C 44.848 29.426 42.477 28.629 41.949 30.211 L 41.668 31.047 C 41.137 32.625 43.508 33.422 44.039 31.84 Z M 44.32 31.004"/><path fill="#000000" stroke="none" d="M 44.055 31.789 C 44.512 30.184 42.109 29.496 41.652 31.102 L 41.477 31.711 C 41.02 33.313 43.422 34 43.879 32.398 Z M 44.055 31.789"/><path fill="#000000" stroke="none" d="M 43.898 32.332 C 44.27 30.711 41.832 30.148 41.461 31.773 L 41.363 32.199 C 40.992 33.82 43.426 34.379 43.801 32.758 Z M 43.898 32.332"/><path fill="#000000" stroke="none" d="M 43.816 32.672 C 44.078 31.027 41.609 30.633 41.348 32.281 L 41.301 32.563 C 41.039 34.211 43.508 34.602 43.77 32.957 Z M 43.816 32.672"/><path fill="#000000" stroke="none" d="M 43.781 32.852 C 43.902 31.188 41.41 31.008 41.289 32.672 L 41.277 32.859 C 41.156 34.52 43.648 34.703 43.77 33.039 Z M 43.781 32.852"/><path fill="#000000" stroke="none" d="M 43.773 32.918 C 43.73 31.254 41.23 31.313 41.273 32.98 L 41.277 33.109 C 41.316 34.777 43.816 34.715 43.777 33.051 Z M 43.773 32.918"/><path fill="#000000" stroke="none" d="M 43.77 32.949 C 43.594 31.289 41.105 31.555 41.281 33.211 L 41.293 33.313 C 41.469 34.969 43.957 34.703 43.781 33.047 Z M 43.77 32.949"/><path fill="#000000" stroke="none" d="M 43.773 33 C 43.535 31.352 41.059 31.711 41.301 33.359 L 41.313 33.445 C 41.551 35.094 44.023 34.734 43.785 33.086 Z M 43.773 33"/><path fill="#000000" stroke="none" d="M 43.719 32.82 C 43.125 31.262 40.789 32.148 41.379 33.707 L 41.406 33.777 C 41.996 35.336 44.336 34.449 43.746 32.891 Z M 43.719 32.82"/><path fill="#000000" stroke="none" d="M 43.641 32.68 C 42.77 31.262 40.637 32.57 41.512 33.988 L 41.563 34.078 C 42.438 35.496 44.566 34.188 43.695 32.77 Z M 43.641 32.68"/><path fill="#000000" stroke="none" d="M 43.617 32.656 C 42.598 31.34 40.621 32.871 41.641 34.188 L 41.723 34.293 C 42.742 35.609 44.719 34.078 43.699 32.762 Z M 43.617 32.656"/><path fill="#000000" stroke="none" d="M 43.531 32.586 C 42.273 31.492 40.633 33.379 41.891 34.473 L 41.984 34.551 C 43.242 35.645 44.883 33.758 43.625 32.664 Z M 43.531 32.586"/><path fill="#000000" stroke="none" d="M 43.426 32.523 C 41.977 31.699 40.738 33.867 42.184 34.695 L 42.32 34.773 C 43.766 35.598 45.008 33.426 43.559 32.602 Z M 43.426 32.523"/><path fill="#000000" stroke="none" d="M 43.582 32.613 C 42.152 31.758 40.867 33.902 42.297 34.758 L 42.813 35.066 C 44.242 35.922 45.527 33.777 44.098 32.922 Z M 43.582 32.613"/><path fill="#000000" stroke="none" d="M 44.07 32.906 C 42.617 32.086 41.387 34.262 42.84 35.082 L 43.285 35.336 C 44.738 36.156 45.969 33.98 44.516 33.16 Z M 44.07 32.906"/><path fill="#000000" stroke="none" d="M 44.473 33.133 C 42.988 32.375 41.848 34.602 43.332 35.359 L 43.773 35.586 C 45.258 36.348 46.398 34.121 44.914 33.359 Z M 44.473 33.133"/><path fill="#000000" stroke="none" d="M 44.852 33.332 C 43.332 32.652 42.313 34.938 43.836 35.617 L 44.25 35.801 C 45.773 36.48 46.789 34.195 45.27 33.516 Z M 44.852 33.332"/><path fill="#000000" stroke="none" d="M 45.195 33.488 C 43.633 32.906 42.762 35.25 44.324 35.832 L 44.703 35.973 C 46.266 36.551 47.137 34.207 45.574 33.629 Z M 45.195 33.488"/><path fill="#000000" stroke="none" d="M 45.328 33.563 C 43.68 33.313 43.301 35.781 44.949 36.035 L 45.684 36.148 C 47.332 36.402 47.711 33.93 46.063 33.676 Z M 45.328 33.563"/><path fill="#000000" stroke="none" d="M 46.012 33.672 C 44.352 33.488 44.082 35.973 45.738 36.156 L 46.191 36.203 C 47.848 36.387 48.117 33.898 46.461 33.719 Z M 46.012 33.672"/><path fill="#000000" stroke="none" d="M 46.418 33.715 C 44.758 33.59 44.57 36.086 46.234 36.207 L 46.703 36.242 C 48.363 36.367 48.551 33.875 46.887 33.75 Z M 46.418 33.715"/><path fill="#000000" stroke="none" d="M 46.828 33.746 C 45.164 33.703 45.094 36.199 46.762 36.246 L 47.699 36.273 C 49.363 36.316 49.434 33.82 47.766 33.773 Z M 46.828 33.746"/><path fill="#000000" stroke="none" d="M 47.742 33.773 C 46.074 33.762 46.059 36.262 47.727 36.273 L 48.73 36.277 C 50.398 36.289 50.414 33.789 48.746 33.781 Z M 47.742 33.773"/><path fill="#000000" stroke="none" d="M 48.738 33.781 C 47.07 33.785 47.074 36.285 48.742 36.277 L 49.965 36.277 C 51.633 36.273 51.625 33.773 49.961 33.777 Z M 48.738 33.781"/><path fill="#000000" stroke="none" d="M 49.922 33.777 C 48.258 33.828 48.336 36.328 50.004 36.277 L 50.977 36.246 C 52.645 36.191 52.563 33.691 50.898 33.746 Z M 49.922 33.777"/><path fill="#000000" stroke="none" d="M 50.84 33.75 C 49.18 33.879 49.375 36.371 51.035 36.242 L 51.914 36.172 C 53.574 36.043 53.379 33.551 51.719 33.68 Z M 50.84 33.75"/><path fill="#000000" stroke="none" d="M 51.645 33.688 C 49.996 33.914 50.336 36.391 51.984 36.164 L 52.75 36.063 C 54.402 35.836 54.063 33.359 52.41 33.586 Z M 51.645 33.688"/><path fill="#000000" stroke="none" d="M 52.324 33.598 C 50.695 33.938 51.203 36.383 52.832 36.047 L 53.488 35.91 C 55.121 35.57 54.613 33.125 52.984 33.461 Z M 52.324 33.598"/><path fill="#000000" stroke="none" d="M 52.895 33.484 C 51.293 33.938 51.973 36.344 53.578 35.891 L 54.145 35.727 C 55.75 35.273 55.066 32.867 53.465 33.324 Z M 52.895 33.484"/><path fill="#000000" stroke="none" d="M 53.418 33.336 C 51.832 33.852 52.605 36.23 54.191 35.715 L 54.66 35.563 C 56.246 35.043 55.473 32.668 53.887 33.184 Z M 53.418 33.336"/><path fill="#000000" stroke="none" d="M 53.871 33.188 C 52.293 33.727 53.098 36.094 54.676 35.555 L 55.055 35.426 C 56.633 34.891 55.828 32.523 54.25 33.059 Z M 53.871 33.188"/><path fill="#000000" stroke="none" d="M 54.266 33.055 C 52.68 33.574 53.457 35.949 55.039 35.434 L 55.344 35.332 C 56.926 34.816 56.152 32.438 54.566 32.957 Z M 54.266 33.055"/><path fill="#000000" stroke="none" d="M 54.609 32.945 C 53.008 33.402 53.699 35.805 55.301 35.348 L 55.547 35.277 C 57.148 34.816 56.457 32.414 54.855 32.871 Z M 54.609 32.945"/><path fill="#000000" stroke="none" d="M 54.926 32.855 C 53.301 33.223 53.852 35.66 55.477 35.293 L 55.684 35.246 C 57.309 34.879 56.758 32.441 55.133 32.809 Z M 54.926 32.855"/><path fill="#000000" stroke="none" d="M 55.012 32.84 C 53.43 33.367 54.219 35.738 55.801 35.215 L 56.027 35.137 C 57.609 34.613 56.824 32.242 55.242 32.766 Z M 55.012 32.84"/><path fill="#000000" stroke="none" d="M 55.055 32.844 C 53.578 33.621 54.742 35.832 56.215 35.059 L 56.434 34.945 C 57.91 34.168 56.746 31.957 55.273 32.73 Z M 55.055 32.844"/><path fill="#000000" stroke="none" d="M 55.129 32.82 C 53.77 33.785 55.219 35.82 56.578 34.855 L 56.793 34.703 C 58.152 33.738 56.703 31.699 55.344 32.664 Z M 55.129 32.82"/><path fill="#000000" stroke="none" d="M 55.262 32.73 C 53.988 33.809 55.605 35.715 56.875 34.637 L 57.094 34.453 C 58.367 33.375 56.75 31.469 55.48 32.547 Z M 55.262 32.73"/><path fill="#000000" stroke="none" d="M 55.34 32.688 C 54.254 33.949 56.152 35.578 57.234 34.313 L 57.348 34.184 C 58.43 32.918 56.535 31.293 55.449 32.559 Z M 55.34 32.688"/><path fill="#000000" stroke="none" d="M 55.309 32.758 C 54.492 34.211 56.672 35.438 57.488 33.984 L 57.582 33.816 C 58.398 32.363 56.219 31.137 55.402 32.59 Z M 55.309 32.758"/><path fill="#000000" stroke="none" d="M 55.27 32.938 C 54.914 34.563 57.355 35.098 57.711 33.473 L 57.82 32.977 C 58.18 31.348 55.734 30.813 55.379 32.441 Z M 55.27 32.938"/><path fill="#000000" stroke="none" d="M 55.488 32.141 C 54.727 33.625 56.953 34.762 57.715 33.277 L 58.156 32.41 C 58.914 30.926 56.691 29.785 55.93 31.27 Z M 55.488 32.141"/><path fill="#000000" stroke="none" d="M 55.918 31.301 C 55.199 32.805 57.453 33.883 58.172 32.379 L 58.676 31.324 C 59.395 29.82 57.137 28.746 56.418 30.25 Z M 55.918 31.301"/><path fill="#000000" stroke="none" d="M 56.406 30.277 C 55.727 31.797 58.008 32.82 58.688 31.297 L 58.938 30.742 C 59.617 29.223 57.336 28.199 56.656 29.723 Z M 56.406 30.277"/><path fill="#000000" stroke="none" d="M 56.637 29.762 C 56.012 31.309 58.328 32.246 58.953 30.703 L 59.176 30.156 C 59.801 28.609 57.484 27.672 56.859 29.215 Z M 56.637 29.762"/><path fill="#000000" stroke="none" d="M 56.813 29.348 C 56.363 30.949 58.77 31.629 59.219 30.023 L 59.527 28.938 C 59.98 27.332 57.574 26.652 57.121 28.258 Z M 56.813 29.348"/><path fill="#000000" stroke="none" d="M 57.109 28.309 C 56.723 29.93 59.156 30.508 59.539 28.883 L 59.684 28.273 C 60.07 26.652 57.637 26.078 57.254 27.699 Z M 57.109 28.309"/><path fill="#000000" stroke="none" d="M 57.242 27.75 C 56.93 29.391 59.383 29.855 59.695 28.219 L 59.809 27.637 C 60.121 26 57.664 25.531 57.352 27.168 Z M 57.242 27.75"/><path fill="#000000" stroke="none" d="M 57.336 27.293 C 57.191 28.953 59.68 29.172 59.824 27.512 L 59.93 26.297 C 60.074 24.637 57.586 24.422 57.441 26.082 Z M 57.336 27.293"/><path fill="#000000" stroke="none" d="M 57.445 26.035 C 57.242 27.691 59.723 27.996 59.926 26.344 L 60.07 25.168 C 60.277 23.512 57.793 23.207 57.59 24.859 Z M 57.445 26.035"/><path fill="#000000" stroke="none" d="M 57.609 24.742 C 57.25 26.367 59.688 26.91 60.051 25.285 L 60.281 24.254 C 60.645 22.629 58.203 22.086 57.84 23.711 Z M 57.609 24.742"/><path fill="#000000" stroke="none" d="M 57.844 23.691 C 57.457 25.313 59.891 25.895 60.277 24.273 L 60.398 23.77 C 60.785 22.148 58.352 21.566 57.965 23.188 Z M 57.844 23.691"/><path fill="#000000" stroke="none" d="M 57.965 23.188 C 57.578 24.809 60.012 25.391 60.398 23.77 L 60.508 23.297 C 60.895 21.676 58.465 21.094 58.078 22.715 Z M 57.965 23.188"/><path fill="#000000" stroke="none" d="M 58.066 22.777 C 57.758 24.414 60.215 24.875 60.523 23.234 L 60.691 22.344 C 60.996 20.703 58.539 20.246 58.23 21.883 Z M 58.066 22.777"/><path fill="#000000" stroke="none" d="M 58.227 21.922 C 57.969 23.566 60.441 23.953 60.695 22.305 L 60.773 21.816 C 61.027 20.168 58.559 19.785 58.301 21.43 Z M 58.227 21.922"/><path fill="#000000" stroke="none" d="M 58.297 21.477 C 58.098 23.129 60.582 23.426 60.777 21.77 L 60.84 21.246 C 61.035 19.59 58.555 19.297 58.359 20.953 Z M 58.297 21.477"/><path fill="#000000" stroke="none" d="M 58.371 20.859 C 58.055 22.496 60.508 22.973 60.824 21.34 L 61.086 20.012 C 61.402 18.375 58.949 17.895 58.633 19.531 Z M 58.371 20.859"/><path fill="#000000" stroke="none" d="M 58.637 19.512 C 58.289 21.141 60.73 21.66 61.082 20.031 L 61.363 18.711 C 61.711 17.078 59.266 16.559 58.918 18.188 Z M 58.637 19.512"/><path fill="#000000" stroke="none" d="M 58.918 18.188 C 58.57 19.816 61.016 20.34 61.363 18.711 L 61.594 17.633 C 61.941 16.004 59.496 15.48 59.148 17.109 Z M 58.918 18.188"/><path fill="#000000" stroke="none" d="M 59.145 17.125 C 58.816 18.758 61.266 19.254 61.598 17.621 L 61.758 16.816 C 62.086 15.18 59.637 14.688 59.309 16.32 Z M 59.145 17.125"/><path fill="#000000" stroke="none" d="M 59.301 16.352 C 59.012 17.992 61.477 18.426 61.762 16.785 L 61.867 16.207 C 62.152 14.563 59.691 14.129 59.402 15.773 Z M 59.301 16.352"/><path fill="#000000" stroke="none" d="M 59.402 15.781 C 59.125 17.426 61.59 17.84 61.867 16.195 L 61.926 15.84 C 62.203 14.195 59.738 13.781 59.461 15.426 Z M 59.402 15.781"/><path fill="#000000" stroke="none" d="M 59.465 15.406 C 59.164 17.047 61.621 17.496 61.922 15.859 L 61.961 15.66 C 62.262 14.02 59.801 13.57 59.5 15.207 Z M 59.465 15.406"/><path fill="#000000" stroke="none" d="M 59.523 15.109 C 59.09 16.719 61.504 17.371 61.938 15.762 L 61.961 15.676 C 62.395 14.066 59.98 13.414 59.547 15.023 Z M 59.523 15.109"/><path fill="#000000" stroke="none" d="M 59.941 14.398 C 58.676 15.48 60.297 17.383 61.566 16.301 L 61.582 16.285 C 62.848 15.203 61.227 13.301 59.957 14.387 Z M 59.941 14.398"/><path fill="#000000" stroke="none" d="M 61.859 14.723 C 61.043 13.27 58.863 14.496 59.68 15.949 L 59.695 15.973 C 60.512 17.426 62.691 16.199 61.875 14.75 Z M 61.859 14.723"/><path fill="#000000" stroke="none" d="M 61.977 14.98 C 61.465 13.391 59.086 14.156 59.594 15.742 L 59.609 15.789 C 60.117 17.375 62.5 16.609 61.988 15.023 Z M 61.977 14.98"/><path fill="#000000" stroke="none" d="M 61.996 15.051 C 61.523 13.453 59.129 14.16 59.602 15.762 L 59.617 15.813 C 60.09 17.41 62.484 16.703 62.012 15.102 Z M 61.996 15.051"/><path fill="#000000" stroke="none" d="M 62.008 15.082 C 61.508 13.492 59.121 14.242 59.621 15.832 L 59.637 15.887 C 60.141 17.477 62.523 16.723 62.023 15.133 Z M 62.008 15.082"/><path fill="#000000" stroke="none" d="M 62.012 15.098 C 61.461 13.523 59.102 14.352 59.652 15.922 L 59.668 15.973 C 60.219 17.547 62.578 16.719 62.027 15.148 Z M 62.012 15.098"/><path fill="#000000" stroke="none" d="M 62.012 15.105 C 61.406 13.551 59.078 14.461 59.684 16.016 L 59.703 16.063 C 60.309 17.613 62.637 16.703 62.031 15.152 Z M 62.012 15.105"/><path fill="#000000" stroke="none" d="M 62.016 15.113 C 61.359 13.582 59.063 14.566 59.719 16.098 L 59.734 16.141 C 60.391 17.676 62.691 16.691 62.035 15.156 Z M 62.016 15.113"/><path fill="#000000" stroke="none" d="M 62.02 15.129 C 61.328 13.613 59.055 14.656 59.75 16.172 L 59.77 16.215 C 60.465 17.727 62.734 16.688 62.039 15.172 Z M 62.02 15.129"/><path fill="#000000" stroke="none" d="M 62.031 15.152 C 61.309 13.648 59.055 14.73 59.777 16.234 L 59.797 16.273 C 60.52 17.773 62.773 16.691 62.051 15.191 Z M 62.031 15.152"/><path fill="#000000" stroke="none" d="M 62.043 15.18 C 61.305 13.684 59.066 14.789 59.801 16.285 L 59.82 16.324 C 60.559 17.82 62.801 16.711 62.063 15.219 Z M 62.043 15.18"/><path fill="#000000" stroke="none" d="M 62.059 15.211 C 61.313 13.723 59.078 14.84 59.824 16.332 L 59.844 16.371 C 60.59 17.859 62.824 16.738 62.078 15.25 Z M 62.059 15.211"/><path fill="#000000" stroke="none" d="M 62.078 15.246 C 61.328 13.758 59.098 14.883 59.844 16.371 L 59.863 16.41 C 60.613 17.898 62.848 16.773 62.098 15.285 Z M 62.078 15.246"/><path fill="#000000" stroke="none" d="M 62.098 15.285 C 61.348 13.797 59.113 14.922 59.867 16.41 L 59.883 16.449 C 60.637 17.938 62.867 16.813 62.117 15.324 Z M 62.098 15.285"/><path fill="#000000" stroke="none" d="M 62.117 15.324 C 61.367 13.836 59.133 14.961 59.883 16.449 L 59.902 16.488 C 60.652 17.977 62.887 16.852 62.137 15.363 Z M 62.117 15.324"/><path fill="#000000" stroke="none" d="M 62.137 15.363 C 61.387 13.875 59.156 14.996 59.902 16.484 L 59.922 16.523 C 60.672 18.012 62.906 16.891 62.156 15.402 Z M 62.137 15.363"/><path fill="#000000" stroke="none" d="M 62.156 15.402 C 61.41 13.914 59.176 15.035 59.922 16.523 L 59.941 16.563 C 60.688 18.051 62.922 16.93 62.176 15.441 Z M 62.156 15.402"/><path fill="#000000" stroke="none" d="M 62.176 15.441 C 61.43 13.949 59.195 15.07 59.941 16.563 L 59.961 16.598 C 60.707 18.09 62.941 16.969 62.195 15.48 Z M 62.176 15.441"/><path fill="#000000" stroke="none" d="M 62.195 15.48 C 61.449 13.988 59.215 15.109 59.961 16.598 L 59.98 16.637 C 60.727 18.129 62.961 17.008 62.215 15.52 Z M 62.195 15.48"/><path fill="#000000" stroke="none" d="M 62.215 15.52 C 61.469 14.027 59.234 15.148 59.98 16.637 L 60 16.676 C 60.742 18.168 62.98 17.047 62.234 15.559 Z M 62.215 15.52"/><path fill="#000000" stroke="none" d="M 62.234 15.559 C 61.488 14.066 59.254 15.184 60 16.676 L 60.016 16.715 C 60.762 18.203 63 17.086 62.254 15.594 Z M 62.234 15.559"/><path fill="#000000" stroke="none" d="M 62.254 15.598 C 61.508 14.105 59.273 15.223 60.016 16.715 L 60.035 16.754 C 60.781 18.242 63.02 17.125 62.273 15.633 Z M 62.254 15.598"/><path fill="#000000" stroke="none" d="M 62.379 15.934 C 62.027 14.301 59.582 14.824 59.934 16.453 L 59.941 16.5 C 60.289 18.129 62.734 17.605 62.387 15.977 Z M 62.379 15.934"/><path fill="#000000" stroke="none" d="M 62.406 16.113 C 62.246 14.457 59.758 14.703 59.922 16.359 L 59.93 16.441 C 60.094 18.102 62.578 17.855 62.418 16.199 Z M 62.406 16.113"/><path fill="#000000" stroke="none" d="M 62.332 15.855 C 61.715 14.309 59.395 15.234 60.012 16.785 L 60.41 17.781 C 61.027 19.328 63.348 18.402 62.73 16.855 Z M 62.332 15.855"/><path fill="#000000" stroke="none" d="M 62.723 16.836 C 62.082 15.301 59.777 16.262 60.418 17.801 L 60.688 18.449 C 61.328 19.988 63.637 19.027 62.996 17.488 Z M 62.723 16.836"/><path fill="#000000" stroke="none" d="M 62.988 17.473 C 62.328 15.941 60.031 16.934 60.695 18.465 L 61.016 19.211 C 61.676 20.742 63.973 19.75 63.313 18.219 Z M 62.988 17.473"/><path fill="#000000" stroke="none" d="M 63.316 18.234 C 62.68 16.695 60.371 17.656 61.012 19.195 L 61.852 21.219 C 62.492 22.758 64.801 21.801 64.16 20.262 Z M 63.316 18.234"/><path fill="#000000" stroke="none" d="M 64.156 20.25 C 63.5 18.715 61.203 19.699 61.855 21.234 L 62.324 22.324 C 62.98 23.855 65.277 22.871 64.621 21.34 Z M 64.156 20.25"/><path fill="#000000" stroke="none" d="M 64.613 21.316 C 63.926 19.797 61.648 20.828 62.336 22.348 L 62.813 23.402 C 63.5 24.922 65.777 23.895 65.09 22.375 Z M 64.613 21.316"/><path fill="#000000" stroke="none" d="M 65.105 22.41 C 64.469 20.871 62.16 21.824 62.797 23.367 L 63.805 25.809 C 64.441 27.348 66.75 26.395 66.117 24.855 Z M 65.105 22.41"/><path fill="#000000" stroke="none" d="M 66.113 24.848 C 65.469 23.313 63.164 24.277 63.809 25.813 L 64.344 27.098 C 64.988 28.633 67.293 27.668 66.648 26.129 Z M 66.113 24.848"/><path fill="#000000" stroke="none" d="M 66.641 26.113 C 65.977 24.586 63.684 25.586 64.352 27.113 L 64.879 28.32 C 65.547 29.848 67.836 28.848 67.168 27.32 Z M 66.641 26.113"/><path fill="#000000" stroke="none" d="M 67.133 27.246 C 66.371 25.766 64.148 26.914 64.914 28.395 L 65.949 30.398 C 66.715 31.883 68.934 30.734 68.172 29.254 Z M 67.133 27.246"/><path fill="#000000" stroke="none" d="M 68.152 29.219 C 67.34 27.762 65.156 28.98 65.969 30.438 L 66.637 31.637 C 67.449 33.09 69.633 31.871 68.82 30.418 Z M 68.152 29.219"/><path fill="#000000" stroke="none" d="M 68.797 30.375 C 67.934 28.953 65.797 30.25 66.66 31.676 L 67.27 32.676 C 68.137 34.102 70.273 32.805 69.406 31.379 Z M 68.797 30.375"/><path fill="#000000" stroke="none" d="M 69.379 31.336 C 68.457 29.949 66.375 31.332 67.297 32.719 L 67.844 33.543 C 68.766 34.934 70.848 33.547 69.926 32.16 Z M 69.379 31.336"/><path fill="#000000" stroke="none" d="M 69.914 32.141 C 68.961 30.77 66.91 32.195 67.859 33.566 L 68.422 34.375 C 69.371 35.746 71.426 34.32 70.477 32.949 Z M 69.914 32.141"/><path fill="#000000" stroke="none" d="M 70.492 32.973 C 69.57 31.582 67.488 32.965 68.406 34.355 L 68.813 34.969 C 69.734 36.359 71.82 34.977 70.898 33.59 Z M 70.492 32.973"/><path fill="#000000" stroke="none" d="M 70.945 33.664 C 70.121 32.211 67.949 33.445 68.77 34.895 L 69.039 35.371 C 69.859 36.82 72.035 35.59 71.215 34.141 Z M 70.945 33.664"/><path fill="#000000" stroke="none" d="M 71.207 34.129 C 70.375 32.688 68.211 33.938 69.043 35.379 L 69.305 35.832 C 70.137 37.273 72.301 36.023 71.469 34.582 Z M 71.207 34.129"/><path fill="#000000" stroke="none" d="M 71.422 34.504 C 70.488 33.125 68.418 34.527 69.352 35.906 L 69.637 36.332 C 70.574 37.711 72.645 36.313 71.711 34.93 Z M 71.422 34.504"/><path fill="#000000" stroke="none" d="M 71.652 34.855 C 70.621 33.547 68.66 35.102 69.695 36.406 L 70.031 36.836 C 71.066 38.141 73.027 36.59 71.992 35.285 Z M 71.652 34.855"/><path fill="#000000" stroke="none" d="M 71.949 35.23 C 70.848 33.984 68.973 35.637 70.074 36.887 L 70.469 37.332 C 71.57 38.578 73.445 36.926 72.344 35.676 Z M 71.949 35.23"/><path fill="#000000" stroke="none" d="M 72.32 35.652 C 71.188 34.43 69.355 36.133 70.488 37.355 L 70.836 37.727 C 71.969 38.945 73.801 37.246 72.668 36.023 Z M 72.32 35.652"/><path fill="#000000" stroke="none" d="M 72.652 36.008 C 71.496 34.809 69.695 36.539 70.848 37.742 L 71.105 38.008 C 72.262 39.211 74.063 37.477 72.906 36.273 Z M 72.652 36.008"/><path fill="#000000" stroke="none" d="M 72.895 36.262 C 71.723 35.078 69.945 36.836 71.117 38.02 L 71.285 38.191 C 72.461 39.375 74.234 37.613 73.063 36.43 Z M 72.895 36.262"/><path fill="#000000" stroke="none" d="M 73.047 36.418 C 71.855 35.254 70.109 37.039 71.301 38.207 L 71.402 38.301 C 72.594 39.465 74.34 37.68 73.148 36.512 Z M 73.047 36.418"/><path fill="#000000" stroke="none" d="M 73.125 36.492 C 71.906 35.355 70.203 37.188 71.422 38.32 L 71.473 38.371 C 72.691 39.508 74.395 37.68 73.176 36.543 Z M 73.125 36.492"/><path fill="#000000" stroke="none" d="M 73.133 36.504 C 71.863 35.426 70.246 37.332 71.516 38.41 L 71.539 38.426 C 72.809 39.504 74.426 37.598 73.156 36.52 Z M 73.133 36.504"/><path fill="#000000" stroke="none" d="M 72.895 36.352 C 71.398 35.621 70.301 37.867 71.797 38.598 L 71.801 38.598 C 73.301 39.332 74.398 37.086 72.898 36.352 Z M 72.895 36.352"/><path fill="#000000" stroke="none" d="M 71.289 38.133 C 72.168 39.551 74.293 38.234 73.414 36.816 L 73.41 36.813 C 72.535 35.398 70.41 36.715 71.285 38.129 Z M 71.289 38.133"/><path fill="#000000" stroke="none" d="M 71.391 38.273 C 72.461 39.551 74.375 37.949 73.309 36.668 L 73.301 36.664 C 72.23 35.387 70.316 36.988 71.383 38.266 Z M 71.391 38.273"/><path fill="#000000" stroke="none" d="M 71.414 38.305 C 72.535 39.539 74.387 37.863 73.27 36.625 L 73.266 36.621 C 72.148 35.383 70.293 37.063 71.41 38.297 Z M 71.414 38.305"/><path fill="#000000" stroke="none" d="M 71.43 38.316 C 72.57 39.531 74.391 37.813 73.246 36.602 L 73.242 36.598 C 72.098 35.383 70.281 37.102 71.422 38.313 Z M 71.43 38.316"/><path fill="#000000" stroke="none" d="M 71.438 38.328 C 72.602 39.52 74.391 37.777 73.23 36.582 L 73.227 36.578 C 72.063 35.387 70.273 37.129 71.434 38.324 Z M 71.438 38.328"/><path fill="#000000" stroke="none" d="M 71.449 38.336 C 72.629 39.512 74.395 37.742 73.211 36.566 L 73.211 36.563 C 72.031 35.387 70.266 37.16 71.445 38.336 Z M 71.449 38.336"/><path fill="#000000" stroke="none" d="M 71.461 38.352 C 72.664 39.504 74.395 37.703 73.195 36.547 L 73.191 36.547 C 71.992 35.391 70.258 37.195 71.461 38.352 Z M 71.461 38.352"/><path fill="#000000" stroke="none" d="M 71.488 38.375 C 72.723 39.492 74.402 37.641 73.168 36.523 L 73.164 36.523 C 71.93 35.402 70.254 37.254 71.488 38.375 Z M 71.488 38.375"/><path fill="#000000" stroke="none" d="M 71.559 38.434 C 72.875 39.457 74.41 37.484 73.094 36.461 C 71.777 35.438 70.242 37.414 71.559 38.434 Z M 71.559 38.434"/><path fill="#000000" stroke="none" d="M 73.313 38.215 C 74.336 36.895 72.359 35.363 71.34 36.684 C 70.316 38 72.293 39.531 73.313 38.215 Z M 73.313 38.215"/><path fill="#000000" stroke="none" d="M 73.324 36.695 C 72.324 35.363 70.324 36.867 71.328 38.199 C 72.328 39.531 74.328 38.031 73.324 36.695 Z M 73.324 36.695"/><path fill="#000000" stroke="none" d="M 73.031 69.934 C 73.848 71.117 75.621 69.887 74.801 68.707 L 74.793 68.695 C 73.973 67.512 72.203 68.742 73.023 69.922 Z M 73.031 69.934"/><path fill="#000000" stroke="none" d="M 73.023 69.922 C 73.84 71.105 75.613 69.875 74.793 68.695 L 74.773 68.668 C 73.957 67.484 72.184 68.715 73.004 69.895 Z M 73.023 69.922"/><path fill="#000000" stroke="none" d="M 73.004 69.895 C 73.824 71.078 75.594 69.848 74.773 68.668 L 74.746 68.625 C 73.926 67.445 72.156 68.676 72.977 69.855 Z M 73.004 69.895"/><path fill="#000000" stroke="none" d="M 72.977 69.855 C 73.793 71.035 75.566 69.809 74.746 68.625 L 74.711 68.574 C 73.891 67.395 72.121 68.625 72.938 69.805 Z M 72.977 69.855"/><path fill="#000000" stroke="none" d="M 72.938 69.805 C 73.758 70.984 75.531 69.758 74.711 68.574 L 74.672 68.516 C 73.852 67.336 72.078 68.566 72.898 69.746 Z M 72.938 69.805"/><path fill="#000000" stroke="none" d="M 72.898 69.746 C 73.719 70.926 75.488 69.699 74.672 68.516 L 74.629 68.453 C 73.809 67.273 72.035 68.5 72.855 69.684 Z M 72.898 69.746"/><path fill="#000000" stroke="none" d="M 72.855 69.684 C 73.676 70.863 75.445 69.637 74.629 68.453 L 74.582 68.387 C 73.762 67.207 71.988 68.438 72.809 69.617 Z M 72.855 69.684"/><path fill="#000000" stroke="none" d="M 72.809 69.617 C 73.629 70.797 75.402 69.57 74.582 68.387 L 74.535 68.32 C 73.715 67.141 71.945 68.371 72.762 69.551 Z M 72.809 69.617"/><path fill="#000000" stroke="none" d="M 72.762 69.551 C 73.582 70.73 75.355 69.504 74.535 68.32 L 74.488 68.254 C 73.668 67.074 71.898 68.301 72.715 69.484 Z M 72.762 69.551"/><path fill="#000000" stroke="none" d="M 72.715 69.484 C 73.535 70.664 75.309 69.438 74.488 68.254 L 74.441 68.188 C 73.621 67.004 71.852 68.234 72.672 69.418 Z M 72.715 69.484"/><path fill="#000000" stroke="none" d="M 73.266 69.84 C 74.652 70.227 75.23 68.148 73.848 67.762 L 73.797 67.75 C 72.414 67.363 71.832 69.441 73.219 69.828 Z M 73.266 69.84"/><path fill="#000000" stroke="none" d="M 73.992 69.754 C 75.277 69.109 74.313 67.18 73.023 67.824 L 72.953 67.859 C 71.668 68.504 72.633 70.434 73.918 69.789 Z M 73.992 69.754"/><path fill="#000000" stroke="none" d="M 74.16 69.621 C 75.223 68.652 73.773 67.059 72.711 68.027 L 72.609 68.117 C 71.547 69.086 72.996 70.68 74.063 69.711 Z M 74.16 69.621"/><path fill="#000000" stroke="none" d="M 74.293 69.406 C 74.949 68.129 73.031 67.145 72.375 68.422 L 72.078 69.008 C 71.422 70.285 73.34 71.27 73.996 69.992 Z M 74.293 69.406"/><path fill="#000000" stroke="none" d="M 73.992 69.996 C 74.656 68.719 72.738 67.727 72.078 69.004 L 71.641 69.852 C 70.98 71.125 72.895 72.117 73.555 70.84 Z M 73.992 69.996"/><path fill="#000000" stroke="none" d="M 73.551 70.848 C 74.223 69.578 72.316 68.57 71.645 69.84 L 71.395 70.316 C 70.723 71.586 72.629 72.594 73.301 71.324 Z M 73.551 70.848"/><path fill="#000000" stroke="none" d="M 73.293 71.336 C 73.984 70.074 72.09 69.043 71.402 70.305 L 71.133 70.789 C 70.445 72.055 72.34 73.086 73.027 71.824 Z M 73.293 71.336"/><path fill="#000000" stroke="none" d="M 73.004 71.867 C 73.75 70.641 71.906 69.52 71.16 70.746 L 70.414 71.977 C 69.668 73.203 71.508 74.324 72.258 73.094 Z M 73.004 71.867"/><path fill="#000000" stroke="none" d="M 72.25 73.105 C 73.012 71.887 71.184 70.746 70.422 71.965 L 69.977 72.672 C 69.215 73.891 71.043 75.035 71.805 73.816 Z M 72.25 73.105"/><path fill="#000000" stroke="none" d="M 71.801 73.824 C 72.574 72.617 70.762 71.449 69.984 72.66 L 69.504 73.41 C 68.727 74.621 70.543 75.785 71.32 74.574 Z M 71.801 73.824"/><path fill="#000000" stroke="none" d="M 71.348 74.531 C 72.063 73.285 70.195 72.207 69.477 73.453 L 68.613 74.957 C 67.895 76.203 69.766 77.277 70.48 76.031 Z M 71.348 74.531"/><path fill="#000000" stroke="none" d="M 70.484 76.023 C 71.195 74.773 69.316 73.711 68.609 74.965 L 68.164 75.746 C 67.457 76.996 69.336 78.059 70.043 76.809 Z M 70.484 76.023"/><path fill="#000000" stroke="none" d="M 70.043 76.805 C 70.75 75.551 68.871 74.496 68.164 75.746 L 67.746 76.492 C 67.043 77.742 68.922 78.801 69.625 77.547 Z M 70.043 76.805"/><path fill="#000000" stroke="none" d="M 69.66 77.484 C 70.277 76.184 68.332 75.258 67.715 76.555 L 67.082 77.879 C 66.465 79.176 68.414 80.105 69.031 78.805 Z M 69.66 77.484"/><path fill="#000000" stroke="none" d="M 69.051 78.762 C 69.609 77.438 67.625 76.598 67.066 77.922 L 66.738 78.691 C 66.176 80.016 68.164 80.855 68.723 79.535 Z M 69.051 78.762"/><path fill="#000000" stroke="none" d="M 68.742 79.484 C 69.238 78.137 67.215 77.391 66.719 78.738 L 66.414 79.566 C 65.918 80.914 67.941 81.66 68.438 80.313 Z M 68.742 79.484"/><path fill="#000000" stroke="none" d="M 68.441 80.301 C 68.922 78.945 66.891 78.223 66.41 79.578 L 65.848 81.164 C 65.367 82.52 67.398 83.238 67.879 81.883 Z M 68.441 80.301"/><path fill="#000000" stroke="none" d="M 67.883 81.879 C 68.355 80.523 66.32 79.809 65.848 81.168 L 65.422 82.379 C 64.949 83.738 66.984 84.449 67.457 83.09 Z M 67.883 81.879"/><path fill="#000000" stroke="none" d="M 67.457 83.09 C 67.93 81.73 65.891 81.023 65.422 82.383 L 65.059 83.434 C 64.586 84.793 66.625 85.496 67.094 84.141 Z M 67.457 83.09"/><path fill="#000000" stroke="none" d="M 67.098 84.137 C 67.563 82.777 65.523 82.078 65.055 83.438 L 64.754 84.32 C 64.285 85.68 66.324 86.379 66.793 85.02 Z M 67.098 84.137"/><path fill="#000000" stroke="none" d="M 66.793 85.02 C 67.258 83.66 65.219 82.961 64.754 84.32 L 64.5 85.055 C 64.035 86.418 66.074 87.113 66.539 85.754 Z M 66.793 85.02"/><path fill="#000000" stroke="none" d="M 66.543 85.754 C 67.004 84.395 64.965 83.695 64.5 85.059 L 64.289 85.672 C 63.824 87.035 65.867 87.73 66.332 86.371 Z M 66.543 85.754"/><path fill="#000000" stroke="none" d="M 66.332 86.371 C 66.793 85.008 64.754 84.313 64.289 85.676 L 64.105 86.215 C 63.641 87.578 65.684 88.273 66.145 86.91 Z M 66.332 86.371"/><path fill="#000000" stroke="none" d="M 66.148 86.91 C 66.609 85.551 64.566 84.855 64.105 86.219 L 63.988 86.563 C 63.523 87.926 65.566 88.617 66.027 87.258 Z M 66.148 86.91"/><path fill="#000000" stroke="none" d="M 66.027 87.258 C 66.492 85.895 64.449 85.203 63.988 86.563 L 63.918 86.762 C 63.457 88.125 65.5 88.816 65.961 87.453 Z M 66.027 87.258"/><path fill="#000000" stroke="none" d="M 65.961 87.453 C 66.422 86.09 64.379 85.402 63.918 86.762 L 63.887 86.859 C 63.426 88.223 65.469 88.91 65.93 87.551 Z M 65.961 87.453"/><path fill="#000000" stroke="none" d="M 65.93 87.547 C 66.387 86.184 64.344 85.5 63.887 86.863 L 63.875 86.898 C 63.418 88.262 65.461 88.949 65.918 87.586 Z M 65.93 87.547"/><path fill="#000000" stroke="none" d="M 65.926 87.566 C 66.355 86.191 64.297 85.547 63.867 86.918 L 63.867 86.926 C 63.434 88.297 65.492 88.941 65.922 87.57 Z M 65.926 87.566"/><path fill="#000000" stroke="none" d="M 63.875 86.891 C 63.402 88.25 65.438 88.961 65.914 87.602 L 65.914 87.594 C 66.391 86.238 64.355 85.523 63.879 86.883 Z M 63.875 86.891"/><path fill="#000000" stroke="none" d="M 63.879 86.887 C 63.41 88.246 65.449 88.949 65.918 87.59 L 65.922 87.574 C 66.391 86.215 64.348 85.516 63.883 86.875 Z M 63.879 86.887"/><path fill="#000000" stroke="none" d="M 63.883 86.875 C 63.418 88.238 65.457 88.934 65.922 87.574 L 65.926 87.563 C 66.391 86.203 64.352 85.504 63.887 86.863 Z M 63.883 86.875"/><path fill="#000000" stroke="none" d="M 63.887 86.863 C 63.422 88.227 65.461 88.922 65.926 87.563 L 65.93 87.551 C 66.395 86.191 64.352 85.496 63.887 86.855 Z M 63.887 86.863"/><path fill="#000000" stroke="none" d="M 63.887 86.855 C 63.426 88.219 65.469 88.91 65.93 87.551 L 65.934 87.543 C 66.395 86.184 64.352 85.488 63.891 86.852 Z M 63.887 86.855"/><path fill="#000000" stroke="none" d="M 63.891 86.852 C 63.43 88.211 65.469 88.906 65.934 87.543 L 65.934 87.539 C 66.395 86.18 64.355 85.484 63.891 86.848 Z M 63.891 86.852"/><path fill="#000000" stroke="none" d="M 63.891 86.848 C 63.43 88.211 65.473 88.902 65.934 87.539 C 66.395 86.176 64.352 85.484 63.891 86.848 Z M 63.891 86.848"/><path fill="#000000" stroke="none" d="M 63.891 86.848 C 63.434 88.211 65.477 88.898 65.934 87.535 C 66.395 86.172 64.352 85.484 63.891 86.848 Z M 63.891 86.848"/><path fill="#000000" stroke="none" d="M 63.891 86.852 C 63.438 88.215 65.484 88.895 65.938 87.531 C 66.391 86.164 64.344 85.484 63.891 86.852 Z M 63.891 86.852"/><path fill="#000000" stroke="none" d="M 65.922 87.57 C 66.43 86.227 64.414 85.465 63.906 86.809 C 63.398 88.156 65.414 88.918 65.922 87.57 Z M 65.922 87.57"/><path fill="#000000" stroke="none" d="M 65.934 87.543 C 66.402 86.184 64.363 85.48 63.895 86.84 C 63.426 88.195 65.465 88.902 65.934 87.543 Z M 65.934 87.543"/><path fill="#000000" stroke="none" d="M 65.934 87.539 C 66.398 86.18 64.359 85.48 63.895 86.84 C 63.426 88.199 65.469 88.902 65.934 87.539 Z M 65.934 87.539"/><path fill="#000000" stroke="none" d="M 65.934 87.539 C 66.398 86.18 64.359 85.48 63.895 86.844 C 63.43 88.203 65.469 88.898 65.934 87.539 Z M 65.934 87.539"/><path fill="#000000" stroke="none" d="M 65.934 87.539 C 66.398 86.176 64.355 85.48 63.895 86.844 C 63.43 88.203 65.469 88.898 65.934 87.539 Z M 65.934 87.539"/><path fill="#000000" stroke="none" d="M 65.934 87.539 C 66.398 86.176 64.355 85.484 63.891 86.844 C 63.43 88.207 65.473 88.898 65.934 87.539 Z M 65.934 87.539"/><path fill="#000000" stroke="none" d="M 65.934 87.539 C 66.395 86.176 64.355 85.484 63.891 86.844 C 63.43 88.207 65.473 88.898 65.934 87.539 Z M 65.934 87.539"/><path fill="#000000" stroke="none" d="M 65.934 87.535 C 66.395 86.176 64.352 85.484 63.891 86.848 C 63.434 88.207 65.477 88.898 65.934 87.535 Z M 65.934 87.535"/><path fill="#000000" stroke="none" d="M 65.938 87.535 C 66.395 86.172 64.348 85.484 63.891 86.848 C 63.434 88.211 65.48 88.898 65.938 87.535 Z M 65.938 87.535"/><path fill="#000000" stroke="none" d="M 65.941 87.52 C 66.379 86.152 64.328 85.492 63.887 86.863 C 63.445 88.23 65.5 88.891 65.941 87.52 Z M 65.941 87.52"/><path fill="#000000" stroke="none" d="M 63.895 86.832 C 63.418 88.191 65.453 88.906 65.93 87.547 C 66.406 86.191 64.371 85.477 63.895 86.832 Z M 63.895 86.832"/><path fill="#000000" stroke="none" d="M 63.895 86.84 C 63.426 88.199 65.465 88.902 65.934 87.543 C 66.402 86.184 64.363 85.48 63.895 86.84 Z M 63.895 86.84"/><path fill="#000000" stroke="none" d="M 63.895 86.844 C 63.43 88.203 65.469 88.902 65.934 87.539 C 66.398 86.18 64.359 85.48 63.895 86.844 Z M 63.895 86.844"/><path fill="#000000" stroke="none" d="M 63.895 86.844 C 63.43 88.203 65.469 88.898 65.934 87.539 C 66.398 86.18 64.355 85.48 63.895 86.844 Z M 63.895 86.844"/><path fill="#000000" stroke="none" d="M 63.895 86.844 C 63.43 88.203 65.473 88.898 65.934 87.539 C 66.398 86.176 64.355 85.484 63.895 86.844 Z M 63.895 86.844"/><path fill="#000000" stroke="none" d="M 63.891 86.844 C 63.43 88.207 65.473 88.898 65.934 87.539 C 66.398 86.176 64.355 85.484 63.891 86.844 Z M 63.891 86.844"/><path fill="#000000" stroke="none" d="M 63.891 86.844 C 63.43 88.207 65.473 88.898 65.934 87.535 C 66.395 86.176 64.352 85.484 63.891 86.844 Z M 63.891 86.844"/><path fill="#000000" stroke="none" d="M 63.891 86.848 C 63.434 88.211 65.477 88.898 65.934 87.535 C 66.395 86.172 64.352 85.484 63.891 86.848 Z M 63.891 86.848"/><path fill="#000000" stroke="none" d="M 63.891 86.852 C 63.438 88.215 65.484 88.895 65.938 87.531 C 66.391 86.168 64.344 85.488 63.891 86.852 Z M 63.891 86.852"/><path fill="#000000" stroke="none" d="M 65.906 87.613 C 66.469 86.289 64.484 85.445 63.922 86.77 C 63.359 88.09 65.344 88.938 65.906 87.613 Z M 65.906 87.613"/><path fill="#000000" stroke="none" d="M 65.934 87.543 C 66.402 86.184 64.363 85.48 63.895 86.84 C 63.426 88.195 65.461 88.902 65.934 87.543 Z M 65.934 87.543"/><path fill="#000000" stroke="none" d="M 65.934 87.539 C 66.398 86.18 64.359 85.48 63.895 86.84 C 63.426 88.203 65.469 88.902 65.934 87.539 Z M 65.934 87.539"/><path fill="#000000" stroke="none" d="M 65.934 87.539 C 66.398 86.18 64.359 85.48 63.895 86.844 C 63.43 88.203 65.469 88.898 65.934 87.539 Z M 65.934 87.539"/><path fill="#000000" stroke="none" d="M 65.934 87.539 C 66.398 86.18 64.355 85.484 63.895 86.844 C 63.43 88.203 65.469 88.898 65.934 87.539 Z M 65.934 87.539"/><path fill="#000000" stroke="none" d="M 65.934 87.539 C 66.398 86.176 64.355 85.484 63.891 86.844 C 63.43 88.207 65.473 88.898 65.934 87.539 Z M 65.934 87.539"/><path fill="#000000" stroke="none" d="M 65.934 87.539 C 66.395 86.176 64.355 85.484 63.891 86.844 C 63.43 88.207 65.473 88.898 65.934 87.539 Z M 65.934 87.539"/><path fill="#000000" stroke="none" d="M 65.934 87.535 C 66.395 86.176 64.352 85.484 63.891 86.848 C 63.43 88.207 65.477 88.898 65.934 87.535 Z M 65.934 87.535"/><path fill="#000000" stroke="none" d="M 65.938 87.535 C 66.395 86.172 64.348 85.484 63.891 86.848 C 63.434 88.211 65.477 88.898 65.938 87.535 Z M 65.938 87.535"/><path fill="#000000" stroke="none" d="M 65.938 87.523 C 66.383 86.156 64.332 85.488 63.887 86.855 C 63.441 88.223 65.492 88.891 65.938 87.523 Z M 65.938 87.523"/><path fill="#000000" stroke="none" d="M 63.898 86.832 C 63.418 88.188 65.449 88.906 65.93 87.551 C 66.41 86.195 64.375 85.477 63.898 86.832 Z M 63.898 86.832"/><path fill="#000000" stroke="none" d="M 63.895 86.84 C 63.426 88.199 65.465 88.902 65.934 87.543 C 66.402 86.184 64.363 85.48 63.895 86.84 Z M 63.895 86.84"/><path fill="#000000" stroke="none" d="M 63.895 86.844 C 63.43 88.203 65.469 88.898 65.934 87.539 C 66.398 86.18 64.359 85.48 63.895 86.844 Z M 63.895 86.844"/><path fill="#000000" stroke="none" d="M 63.895 86.844 C 63.43 88.203 65.469 88.898 65.934 87.539 C 66.398 86.18 64.359 85.48 63.895 86.844 Z M 63.895 86.844"/><path fill="#000000" stroke="none" d="M 63.895 86.844 C 63.43 88.203 65.469 88.898 65.934 87.539 C 66.398 86.18 64.355 85.484 63.895 86.844 Z M 63.895 86.844"/><path fill="#000000" stroke="none" d="M 63.891 86.844 C 63.43 88.207 65.473 88.898 65.934 87.539 C 66.395 86.176 64.355 85.484 63.891 86.844 Z M 63.891 86.844"/><path fill="#000000" stroke="none" d="M 63.891 86.844 C 63.43 88.207 65.473 88.898 65.934 87.535 C 66.395 86.176 64.352 85.484 63.891 86.844 Z M 63.891 86.844"/><path fill="#000000" stroke="none" d="M 63.891 86.848 C 63.434 88.211 65.48 88.898 65.938 87.535 C 66.391 86.172 64.348 85.484 63.891 86.848 Z M 63.891 86.848"/><path fill="#000000" stroke="none" d="M 63.895 86.836 C 63.422 88.195 65.461 88.902 65.934 87.547 C 66.402 86.188 64.367 85.48 63.895 86.836 Z M 63.895 86.836"/><path fill="#000000" stroke="none" d="M 63.836 87.191 C 63.836 88.629 65.992 88.629 65.992 87.191 C 65.992 85.754 63.836 85.754 63.836 87.191 Z M 63.836 87.191"/><path fill="#000000" stroke="none" d="M 65.93 87.555 C 66.414 86.203 64.387 85.473 63.898 86.824 C 63.41 88.18 65.441 88.91 65.93 87.555 Z M 65.93 87.555"/><path fill="#000000" stroke="none" d="M 62.746 87.613 C 61.926 88.793 63.699 90.023 64.516 88.84 L 64.52 88.84 C 65.34 87.656 63.566 86.426 62.746 87.609 Z M 62.746 87.613"/><path fill="#000000" stroke="none" d="M 62.746 87.609 C 61.93 88.789 63.699 90.02 64.52 88.84 L 64.523 88.832 C 65.344 87.648 63.574 86.418 62.754 87.602 Z M 62.746 87.609"/><path fill="#000000" stroke="none" d="M 62.754 87.602 C 61.934 88.781 63.707 90.012 64.523 88.832 L 64.531 88.82 C 65.352 87.637 63.582 86.41 62.762 87.59 Z M 62.754 87.602"/><path fill="#000000" stroke="none" d="M 62.762 87.59 C 61.941 88.77 63.715 90 64.531 88.82 L 64.543 88.805 C 65.363 87.621 63.59 86.395 62.77 87.574 Z M 62.762 87.59"/><path fill="#000000" stroke="none" d="M 62.77 87.574 C 61.953 88.758 63.723 89.984 64.543 88.805 L 64.555 88.789 C 65.375 87.605 63.602 86.379 62.781 87.559 Z M 62.77 87.574"/><path fill="#000000" stroke="none" d="M 62.781 87.559 C 61.961 88.738 63.734 89.969 64.555 88.789 L 64.566 88.77 C 65.387 87.59 63.613 86.359 62.793 87.543 Z M 62.781 87.559"/><path fill="#000000" stroke="none" d="M 62.793 87.543 C 61.977 88.723 63.746 89.953 64.566 88.77 L 64.578 88.754 C 65.398 87.57 63.625 86.34 62.809 87.523 Z M 62.793 87.543"/><path fill="#000000" stroke="none" d="M 62.809 87.523 C 61.988 88.703 63.758 89.934 64.578 88.754 L 64.594 88.734 C 65.41 87.551 63.641 86.324 62.82 87.504 Z M 62.809 87.523"/><path fill="#000000" stroke="none" d="M 62.82 87.504 C 62 88.688 63.773 89.914 64.594 88.734 L 64.605 88.715 C 65.426 87.535 63.652 86.305 62.832 87.484 Z M 62.82 87.504"/><path fill="#000000" stroke="none" d="M 62.832 87.484 C 62.012 88.668 63.785 89.895 64.605 88.715 L 64.617 88.695 C 65.438 87.516 63.664 86.285 62.848 87.469 Z M 62.832 87.484"/><path fill="#000000" stroke="none" d="M 62.848 87.469 C 62.027 88.648 63.797 89.879 64.617 88.695 L 64.629 88.68 C 65.449 87.496 63.68 86.266 62.859 87.449 Z M 62.848 87.469"/><path fill="#000000" stroke="none" d="M 62.859 87.449 C 62.039 88.629 63.813 89.859 64.629 88.68 L 64.645 88.66 C 65.461 87.477 63.691 86.25 62.871 87.43 Z M 62.859 87.449"/><path fill="#000000" stroke="none" d="M 62.871 87.43 C 62.051 88.613 63.824 89.84 64.645 88.66 L 64.656 88.641 C 65.477 87.461 63.703 86.23 62.883 87.41 Z M 62.871 87.43"/><path fill="#000000" stroke="none" d="M 62.883 87.41 C 62.066 88.594 63.836 89.824 64.656 88.641 L 64.668 88.621 C 65.488 87.441 63.715 86.211 62.898 87.395 Z M 62.883 87.41"/><path fill="#000000" stroke="none" d="M 62.898 87.395 C 62.078 88.574 63.848 89.805 64.668 88.621 L 64.68 88.605 C 65.5 87.422 63.73 86.195 62.91 87.375 Z M 62.898 87.395"/><path fill="#000000" stroke="none" d="M 62.91 87.375 C 62.09 88.559 63.863 89.785 64.68 88.605 L 64.695 88.586 C 65.516 87.406 63.742 86.176 62.922 87.355 Z M 62.91 87.375"/><path fill="#000000" stroke="none" d="M 62.922 87.355 C 62.102 88.539 63.875 89.766 64.695 88.586 L 64.707 88.566 C 65.527 87.387 63.754 86.156 62.934 87.34 Z M 62.922 87.355"/><path fill="#000000" stroke="none" d="M 62.934 87.34 C 62.117 88.52 63.887 89.75 64.707 88.566 L 64.719 88.551 C 65.539 87.367 63.766 86.141 62.949 87.32 Z M 62.934 87.34"/><path fill="#000000" stroke="none" d="M 62.949 87.32 C 62.129 88.5 63.898 89.73 64.719 88.551 L 64.73 88.531 C 65.551 87.352 63.781 86.121 62.961 87.301 Z M 62.949 87.32"/><path fill="#000000" stroke="none" d="M 62.961 87.301 C 62.141 88.484 63.914 89.711 64.73 88.531 L 64.746 88.512 C 65.566 87.332 63.793 86.102 62.973 87.285 Z M 62.961 87.301"/><path fill="#000000" stroke="none" d="M 62.813 87.641 C 62.469 89.035 64.563 89.555 64.906 88.156 L 64.914 88.125 C 65.258 86.73 63.164 86.211 62.82 87.609 Z M 62.813 87.641"/><path fill="#000000" stroke="none" d="M 62.793 87.754 C 62.645 89.184 64.789 89.41 64.938 87.98 L 64.945 87.922 C 65.098 86.492 62.953 86.266 62.801 87.695 Z M 62.793 87.754"/><path fill="#000000" stroke="none" d="M 62.797 87.75 C 62.719 89.188 64.871 89.301 64.949 87.867 L 64.953 87.773 C 65.031 86.34 62.879 86.223 62.801 87.66 Z M 62.797 87.75"/><path fill="#000000" stroke="none" d="M 62.801 87.688 C 62.762 89.125 64.918 89.184 64.957 87.746 L 64.961 87.602 C 65 86.164 62.844 86.105 62.805 87.543 Z M 62.801 87.688"/><path fill="#000000" stroke="none" d="M 62.805 87.555 C 62.781 88.992 64.938 89.023 64.961 87.586 L 64.961 87.422 C 64.984 85.98 62.828 85.949 62.805 87.387 Z M 62.805 87.555"/><path fill="#000000" stroke="none" d="M 62.805 87.395 C 62.797 88.832 64.953 88.852 64.961 87.414 L 64.965 87.234 C 64.977 85.793 62.82 85.777 62.809 87.215 Z M 62.805 87.395"/><path fill="#000000" stroke="none" d="M 62.809 87.219 C 62.801 88.66 64.961 88.664 64.965 87.227 L 64.965 87.043 C 64.969 85.605 62.813 85.598 62.809 87.035 Z M 62.809 87.219"/><path fill="#000000" stroke="none" d="M 62.809 87.039 C 62.809 88.477 64.965 88.477 64.965 87.039 L 64.965 86.855 C 64.965 85.418 62.809 85.414 62.809 86.852 Z M 62.809 87.039"/><path fill="#000000" stroke="none" d="M 62.809 86.855 C 62.809 88.293 64.965 88.293 64.965 86.855 L 64.965 86.676 C 64.965 85.238 62.809 85.242 62.809 86.68 Z M 62.809 86.855"/><path fill="#000000" stroke="none" d="M 62.809 86.68 C 62.809 88.117 64.965 88.113 64.965 86.676 L 64.965 86.5 C 64.965 85.063 62.805 85.063 62.809 86.504 Z M 62.809 86.68"/><path fill="#000000" stroke="none" d="M 62.809 86.504 C 62.809 87.941 64.965 87.938 64.965 86.5 L 64.965 86.32 C 64.961 84.883 62.805 84.887 62.809 86.324 Z M 62.809 86.504"/><path fill="#000000" stroke="none" d="M 62.809 86.324 C 62.809 87.762 64.965 87.758 64.965 86.32 L 64.965 86.141 C 64.961 84.703 62.805 84.703 62.809 86.141 Z M 62.809 86.324"/><path fill="#000000" stroke="none" d="M 62.863 86.488 C 63.324 87.848 65.367 87.156 64.906 85.793 L 64.777 85.414 C 64.316 84.051 62.273 84.742 62.734 86.105 Z M 62.863 86.488"/><path fill="#000000" stroke="none" d="M 62.766 86.188 C 63.34 87.508 65.316 86.648 64.746 85.332 L 64.613 85.023 C 64.039 83.703 62.063 84.563 62.633 85.883 Z M 62.766 86.188"/><path fill="#000000" stroke="none" d="M 62.66 85.941 C 63.313 87.223 65.234 86.246 64.586 84.965 L 64.418 84.637 C 63.77 83.355 61.848 84.332 62.496 85.613 Z M 62.66 85.941"/><path fill="#000000" stroke="none" d="M 62.52 85.656 C 63.223 86.906 65.102 85.848 64.398 84.598 L 64.203 84.254 C 63.5 83.004 61.621 84.063 62.328 85.316 Z M 62.52 85.656"/><path fill="#000000" stroke="none" d="M 62.305 85.273 C 62.953 86.555 64.879 85.582 64.227 84.297 L 63.969 83.789 C 63.32 82.508 61.398 83.48 62.047 84.762 Z M 62.305 85.273"/><path fill="#000000" stroke="none" d="M 62.008 84.676 C 62.539 86.012 64.543 85.215 64.012 83.879 L 63.805 83.359 C 63.273 82.023 61.27 82.82 61.801 84.156 Z M 62.008 84.676"/><path fill="#000000" stroke="none" d="M 61.793 84.137 C 62.301 85.484 64.316 84.723 63.813 83.379 L 63.664 82.984 C 63.156 81.641 61.141 82.398 61.645 83.746 Z M 61.793 84.137"/><path fill="#000000" stroke="none" d="M 61.648 83.754 C 62.168 85.094 64.18 84.316 63.66 82.977 L 63.523 82.625 C 63.008 81.285 60.996 82.063 61.512 83.406 Z M 61.648 83.754"/><path fill="#000000" stroke="none" d="M 61.523 83.434 C 62.082 84.758 64.07 83.922 63.512 82.598 L 63.383 82.289 C 62.824 80.965 60.84 81.801 61.395 83.129 Z M 61.523 83.434"/><path fill="#000000" stroke="none" d="M 61.414 83.168 C 62.027 84.469 63.977 83.551 63.367 82.25 L 63.238 81.977 C 62.625 80.676 60.676 81.598 61.285 82.898 Z M 61.414 83.168"/><path fill="#000000" stroke="none" d="M 61.309 82.941 C 61.98 84.211 63.887 83.207 63.215 81.934 L 63.086 81.691 C 62.414 80.418 60.508 81.426 61.18 82.695 Z M 61.309 82.941"/><path fill="#000000" stroke="none" d="M 61.199 82.734 C 61.922 83.977 63.785 82.898 63.066 81.652 L 62.961 81.473 C 62.242 80.23 60.375 81.309 61.098 82.555 Z M 61.199 82.734"/><path fill="#000000" stroke="none" d="M 61.113 82.586 C 61.875 83.805 63.707 82.66 62.945 81.441 L 62.816 81.234 C 62.055 80.016 60.223 81.16 60.984 82.379 Z M 61.113 82.586"/><path fill="#000000" stroke="none" d="M 61.145 82.578 C 62.172 83.582 63.684 82.043 62.656 81.035 L 62.285 80.676 C 61.258 79.668 59.75 81.207 60.777 82.215 Z M 61.145 82.578"/><path fill="#000000" stroke="none" d="M 60.914 82.332 C 62.098 83.148 63.328 81.379 62.145 80.559 L 61.715 80.262 C 60.531 79.441 59.305 81.211 60.484 82.031 Z M 60.914 82.332"/><path fill="#000000" stroke="none" d="M 60.629 82.113 C 61.922 82.746 62.863 80.805 61.57 80.176 L 61.129 79.961 C 59.836 79.332 58.895 81.27 60.184 81.898 Z M 60.629 82.113"/><path fill="#000000" stroke="none" d="M 60.18 81.898 C 61.469 82.535 62.426 80.602 61.137 79.965 L 60.832 79.813 C 59.543 79.176 58.586 81.105 59.875 81.746 Z M 60.18 81.898"/><path fill="#000000" stroke="none" d="M 59.813 81.711 C 61.059 82.434 62.137 80.566 60.895 79.848 L 60.605 79.68 C 59.363 78.961 58.281 80.828 59.527 81.547 Z M 59.813 81.711"/><path fill="#000000" stroke="none" d="M 59.445 81.492 C 60.617 82.324 61.863 80.566 60.691 79.734 L 60.418 79.543 C 59.246 78.711 58 80.469 59.172 81.301 Z M 59.445 81.492"/><path fill="#000000" stroke="none" d="M 59.184 81.309 C 60.367 82.125 61.59 80.352 60.406 79.535 L 60.035 79.277 C 58.852 78.461 57.625 80.234 58.809 81.051 Z M 59.184 81.309"/><path fill="#000000" stroke="none" d="M 58.898 81.105 C 60.152 81.805 61.203 79.922 59.949 79.223 L 59.578 79.016 C 58.324 78.316 57.273 80.199 58.527 80.902 Z M 58.898 81.105"/><path fill="#000000" stroke="none" d="M 58.574 80.926 C 59.859 81.563 60.82 79.633 59.535 78.992 L 59.219 78.836 C 57.934 78.195 56.973 80.129 58.258 80.77 Z M 58.574 80.926"/><path fill="#000000" stroke="none" d="M 58.285 80.781 C 59.59 81.387 60.496 79.43 59.195 78.824 L 58.863 78.672 C 57.559 78.063 56.648 80.02 57.953 80.625 Z M 58.285 80.781"/><path fill="#000000" stroke="none" d="M 57.961 80.629 C 59.273 81.223 60.16 79.258 58.852 78.664 L 58.5 78.504 C 57.188 77.914 56.301 79.875 57.609 80.469 Z M 57.961 80.629"/><path fill="#000000" stroke="none" d="M 57.609 80.469 C 58.922 81.063 59.809 79.098 58.496 78.504 L 58.125 78.336 C 56.813 77.746 55.926 79.711 57.234 80.301 Z M 57.609 80.469"/><path fill="#000000" stroke="none" d="M 57.234 80.301 C 58.543 80.895 59.434 78.934 58.125 78.336 L 57.734 78.16 C 56.426 77.563 55.531 79.527 56.84 80.121 Z M 57.234 80.301"/><path fill="#000000" stroke="none" d="M 56.871 80.133 C 58.195 80.691 59.031 78.703 57.707 78.145 L 57.43 78.031 C 56.105 77.473 55.27 79.461 56.594 80.02 Z M 56.871 80.133"/><path fill="#000000" stroke="none" d="M 56.641 80.039 C 57.992 80.531 58.734 78.504 57.383 78.012 L 57.102 77.91 C 55.754 77.418 55.012 79.441 56.363 79.934 Z M 56.641 80.039"/><path fill="#000000" stroke="none" d="M 56.34 79.926 C 57.676 80.453 58.465 78.445 57.129 77.918 L 56.566 77.699 C 55.227 77.172 54.438 79.18 55.777 79.707 Z M 56.34 79.926"/><path fill="#000000" stroke="none" d="M 55.715 79.68 C 57.016 80.289 57.93 78.336 56.629 77.727 L 56.012 77.438 C 54.711 76.824 53.793 78.777 55.098 79.387 Z M 55.715 79.68"/><path fill="#000000" stroke="none" d="M 54.938 79.297 C 56.117 80.117 57.352 78.348 56.172 77.527 L 55.512 77.066 C 54.332 76.246 53.098 78.016 54.277 78.836 Z M 54.938 79.297"/><path fill="#000000" stroke="none" d="M 54.25 78.816 C 55.402 79.676 56.691 77.945 55.539 77.086 L 55.059 76.73 C 53.906 75.871 52.617 77.602 53.773 78.461 Z M 54.25 78.816"/><path fill="#000000" stroke="none" d="M 53.773 78.465 C 54.93 79.316 56.215 77.582 55.059 76.73 L 54.641 76.422 C 53.484 75.566 52.203 77.301 53.359 78.156 Z M 53.773 78.465"/><path fill="#000000" stroke="none" d="M 53.387 78.176 C 54.566 78.992 55.793 77.219 54.613 76.402 L 54.254 76.156 C 53.074 75.336 51.848 77.109 53.027 77.93 Z M 53.387 78.176"/><path fill="#000000" stroke="none" d="M 53.082 77.965 C 54.313 78.711 55.43 76.867 54.203 76.121 L 53.902 75.938 C 52.672 75.191 51.551 77.035 52.781 77.781 Z M 53.082 77.965"/><path fill="#000000" stroke="none" d="M 52.988 77.879 C 54.348 78.348 55.051 76.309 53.695 75.84 L 53.285 75.699 C 51.926 75.227 51.219 77.266 52.578 77.734 Z M 52.988 77.879"/><path fill="#000000" stroke="none" d="M 52.609 77.746 C 53.98 78.176 54.625 76.117 53.254 75.688 L 53.184 75.668 C 51.813 75.238 51.168 77.297 52.543 77.723 Z M 52.609 77.746"/><path fill="#000000" stroke="none" d="M 52.73 77.766 C 54.16 77.941 54.422 75.801 52.996 75.625 L 52.434 75.555 C 51.008 75.379 50.746 77.52 52.172 77.695 Z M 52.73 77.766"/><path fill="#000000" stroke="none" d="M 52.25 77.703 C 53.688 77.773 53.793 75.621 52.355 75.551 L 51.754 75.52 C 50.316 75.449 50.211 77.602 51.648 77.672 Z M 52.25 77.703"/><path fill="#000000" stroke="none" d="M 51.688 77.676 C 53.125 77.691 53.152 75.535 51.715 75.52 L 51.117 75.512 C 49.68 75.492 49.652 77.648 51.09 77.668 Z M 51.688 77.676"/><path fill="#000000" stroke="none" d="M 51.109 77.668 C 52.547 77.66 52.535 75.504 51.098 75.512 L 50.48 75.516 C 49.043 75.523 49.055 77.68 50.492 77.672 Z M 51.109 77.668"/><path fill="#000000" stroke="none" d="M 50.5 77.672 C 51.938 77.652 51.91 75.496 50.473 75.516 L 50.016 75.52 C 48.578 75.539 48.602 77.695 50.043 77.676 Z M 50.5 77.672"/><path fill="#000000" stroke="none" d="M 50.047 77.676 C 51.484 77.652 51.449 75.496 50.008 75.52 L 49.621 75.527 C 48.184 75.551 48.219 77.707 49.656 77.684 Z M 50.047 77.676"/><path fill="#000000" stroke="none" d="M 49.66 77.684 C 51.098 77.656 51.055 75.5 49.617 75.527 L 49.301 75.531 C 47.863 75.559 47.902 77.715 49.34 77.688 Z M 49.66 77.684"/><path fill="#000000" stroke="none" d="M 49.34 77.688 C 50.777 77.664 50.738 75.508 49.301 75.531 L 49.039 75.539 C 47.602 75.566 47.645 77.723 49.082 77.695 Z M 49.34 77.688"/><path fill="#000000" stroke="none" d="M 49.078 77.695 C 50.516 77.668 50.48 75.512 49.043 75.539 L 48.828 75.543 C 47.391 75.566 47.43 77.723 48.867 77.699 Z M 49.078 77.695"/><path fill="#000000" stroke="none" d="M 48.863 77.699 C 50.301 77.676 50.27 75.52 48.832 75.543 L 48.66 75.543 C 47.223 75.566 47.254 77.723 48.691 77.699 Z M 48.863 77.699"/><path fill="#000000" stroke="none" d="M 48.688 77.699 C 50.125 77.684 50.102 75.527 48.664 75.543 L 48.512 75.547 C 47.074 75.563 47.098 77.719 48.535 77.703 Z M 48.688 77.699"/><path fill="#000000" stroke="none" d="M 48.531 77.703 C 49.969 77.691 49.953 75.535 48.516 75.547 L 48.371 75.547 C 46.934 75.559 46.949 77.715 48.387 77.703 Z M 48.531 77.703"/><path fill="#000000" stroke="none" d="M 48.383 77.703 C 49.82 77.699 49.813 75.539 48.375 75.547 L 48.238 75.547 C 46.801 75.555 46.809 77.711 48.246 77.703 Z M 48.383 77.703"/><path fill="#000000" stroke="none" d="M 48.242 77.703 C 49.68 77.703 49.68 75.547 48.242 75.547 L 47.84 75.547 C 46.402 75.547 46.406 77.703 47.844 77.703 Z M 48.242 77.703"/><path fill="#000000" stroke="none" d="M 47.84 77.703 C 49.281 77.703 49.277 75.547 47.84 75.547 L 47.578 75.547 C 46.141 75.547 46.141 77.703 47.578 77.703 Z M 47.84 77.703"/><path fill="#000000" stroke="none" d="M 47.578 77.703 C 49.016 77.703 49.02 75.547 47.582 75.547 L 47.293 75.547 C 45.855 75.547 45.855 77.703 47.293 77.703 Z M 47.578 77.703"/><path fill="#000000" stroke="none" d="M 47.406 77.699 C 48.836 77.547 48.609 75.402 47.18 75.555 L 46.609 75.613 C 45.18 75.766 45.406 77.91 46.836 77.758 Z M 47.406 77.699"/><path fill="#000000" stroke="none" d="M 46.969 77.734 C 48.367 77.41 47.879 75.309 46.477 75.637 L 45.898 75.773 C 44.496 76.102 44.988 78.199 46.387 77.871 Z M 46.969 77.734"/><path fill="#000000" stroke="none" d="M 46.512 77.836 C 47.863 77.348 47.125 75.32 45.773 75.809 L 45.215 76.012 C 43.863 76.5 44.598 78.527 45.949 78.039 Z M 46.512 77.836"/><path fill="#000000" stroke="none" d="M 46.039 78.004 C 47.34 77.395 46.43 75.441 45.125 76.047 L 44.719 76.238 C 43.414 76.844 44.328 78.801 45.629 78.191 Z M 46.039 78.004"/><path fill="#000000" stroke="none" d="M 45.727 78.141 C 46.961 77.41 45.859 75.555 44.625 76.289 L 44.285 76.488 C 43.047 77.223 44.148 79.078 45.387 78.344 Z M 45.727 78.141"/><path fill="#000000" stroke="none" d="M 45.48 78.281 C 46.633 77.422 45.34 75.691 44.188 76.555 L 43.91 76.762 C 42.758 77.621 44.047 79.352 45.199 78.488 Z M 45.48 78.281"/><path fill="#000000" stroke="none" d="M 45.285 78.418 C 46.344 77.445 44.883 75.859 43.824 76.832 L 43.594 77.043 C 42.539 78.016 44 79.605 45.055 78.629 Z M 45.285 78.418"/><path fill="#000000" stroke="none" d="M 45.125 78.563 C 46.09 77.496 44.492 76.047 43.527 77.113 L 43.336 77.324 C 42.367 78.391 43.965 79.836 44.934 78.773 Z M 45.125 78.563"/><path fill="#000000" stroke="none" d="M 44.98 78.715 C 45.871 77.586 44.176 76.25 43.285 77.383 L 43.121 77.59 C 42.234 78.719 43.926 80.055 44.816 78.926 Z M 44.98 78.715"/><path fill="#000000" stroke="none" d="M 44.848 78.883 C 45.684 77.711 43.926 76.461 43.09 77.629 L 42.945 77.832 C 42.113 79.004 43.867 80.258 44.703 79.086 Z M 44.848 78.883"/><path fill="#000000" stroke="none" d="M 44.723 79.059 C 45.52 77.863 43.73 76.664 42.93 77.859 L 42.797 78.059 C 41.996 79.254 43.789 80.453 44.59 79.258 Z M 44.723 79.059"/><path fill="#000000" stroke="none" d="M 44.598 79.246 C 45.379 78.039 43.57 76.863 42.789 78.07 L 42.664 78.266 C 41.879 79.469 43.688 80.645 44.473 79.438 Z M 44.598 79.246"/><path fill="#000000" stroke="none" d="M 44.473 79.434 C 45.25 78.227 43.438 77.059 42.66 78.27 L 42.539 78.457 C 41.758 79.668 43.574 80.836 44.352 79.625 Z M 44.473 79.434"/><path fill="#000000" stroke="none" d="M 44.352 79.629 C 45.129 78.422 43.32 77.25 42.539 78.457 L 42.422 78.637 C 41.641 79.844 43.453 81.012 44.234 79.805 Z M 44.352 79.629"/><path fill="#000000" stroke="none" d="M 44.23 79.813 C 45.02 78.609 43.215 77.426 42.426 78.629 L 42.309 78.809 C 41.52 80.012 43.324 81.195 44.113 79.992 Z M 44.23 79.813"/><path fill="#000000" stroke="none" d="M 44.109 79.996 C 44.906 78.801 43.109 77.605 42.313 78.805 L 42.191 78.984 C 41.395 80.184 43.191 81.375 43.988 80.18 Z M 44.109 79.996"/><path fill="#000000" stroke="none" d="M 43.984 80.184 C 44.785 78.992 42.996 77.789 42.195 78.98 L 42.07 79.164 C 41.27 80.359 43.059 81.563 43.859 80.367 Z M 43.984 80.184"/><path fill="#000000" stroke="none" d="M 43.855 80.375 C 44.668 79.191 42.891 77.973 42.078 79.156 L 41.816 79.535 C 41.004 80.723 42.781 81.941 43.594 80.758 Z M 43.855 80.375"/><path fill="#000000" stroke="none" d="M 43.605 80.742 C 44.398 79.543 42.602 78.352 41.805 79.551 L 41.563 79.918 C 40.77 81.117 42.566 82.309 43.359 81.109 Z M 43.605 80.742"/><path fill="#000000" stroke="none" d="M 43.379 81.082 C 44.137 79.863 42.305 78.723 41.547 79.945 L 41.344 80.27 C 40.586 81.488 42.418 82.629 43.176 81.406 Z M 43.379 81.082"/><path fill="#000000" stroke="none" d="M 43.203 81.363 C 43.906 80.109 42.023 79.055 41.32 80.309 L 41.172 80.574 C 40.469 81.828 42.352 82.883 43.055 81.625 Z M 43.203 81.363"/><path fill="#000000" stroke="none" d="M 43.086 81.566 C 43.707 80.266 41.762 79.336 41.141 80.637 L 41.043 80.84 C 40.422 82.137 42.371 83.066 42.988 81.77 Z M 43.086 81.566"/><path fill="#000000" stroke="none" d="M 43.027 81.68 C 43.527 80.332 41.508 79.582 41.004 80.93 L 40.945 81.086 C 40.445 82.434 42.465 83.188 42.969 81.84 Z M 43.027 81.68"/><path fill="#000000" stroke="none" d="M 43.004 81.727 C 43.352 80.332 41.262 79.805 40.91 81.199 L 40.879 81.324 C 40.531 82.719 42.621 83.246 42.973 81.852 Z M 43.004 81.727"/><path fill="#000000" stroke="none" d="M 42.996 81.727 C 43.18 80.301 41.043 80.023 40.855 81.449 L 40.844 81.551 C 40.656 82.977 42.797 83.258 42.98 81.832 Z M 42.996 81.727"/><path fill="#000000" stroke="none" d="M 42.988 81.727 C 43.039 80.293 40.883 80.219 40.836 81.656 L 40.832 81.746 C 40.781 83.18 42.938 83.254 42.988 81.816 Z M 42.988 81.727"/><path fill="#000000" stroke="none" d="M 42.988 81.754 C 42.949 80.316 40.793 80.371 40.832 81.809 L 40.832 81.895 C 40.871 83.328 43.027 83.273 42.988 81.836 Z M 42.988 81.754"/><path fill="#000000" stroke="none" d="M 42.988 81.809 C 42.914 80.371 40.762 80.484 40.836 81.922 L 40.84 82 C 40.914 83.438 43.066 83.324 42.992 81.891 Z M 42.988 81.809"/><path fill="#000000" stroke="none" d="M 42.992 81.887 C 42.914 80.449 40.762 80.57 40.84 82.004 L 40.844 82.086 C 40.922 83.52 43.074 83.402 42.996 81.965 Z M 42.992 81.887"/><path fill="#000000" stroke="none" d="M 42.965 81.754 C 42.598 80.363 40.512 80.906 40.875 82.297 L 40.898 82.375 C 41.262 83.766 43.348 83.219 42.984 81.828 Z M 42.965 81.754"/><path fill="#000000" stroke="none" d="M 42.93 81.672 C 42.355 80.352 40.379 81.211 40.949 82.531 L 40.996 82.633 C 41.566 83.953 43.547 83.094 42.973 81.777 Z M 42.93 81.672"/><path fill="#000000" stroke="none" d="M 42.934 81.695 C 42.254 80.43 40.355 81.449 41.035 82.715 L 41.109 82.852 C 41.789 84.117 43.688 83.094 43.008 81.828 Z M 42.934 81.695"/><path fill="#000000" stroke="none" d="M 42.98 81.781 C 42.234 80.551 40.391 81.672 41.137 82.898 L 41.254 83.098 C 42 84.328 43.844 83.207 43.098 81.977 Z M 42.98 81.781"/><path fill="#000000" stroke="none" d="M 43.086 81.953 C 42.305 80.746 40.492 81.914 41.27 83.121 L 41.41 83.34 C 42.188 84.547 44.004 83.379 43.223 82.172 Z M 43.086 81.953"/><path fill="#000000" stroke="none" d="M 43.215 82.156 C 42.418 80.961 40.621 82.156 41.422 83.352 L 41.57 83.578 C 42.367 84.773 44.16 83.578 43.363 82.383 Z M 43.215 82.156"/><path fill="#000000" stroke="none" d="M 43.359 82.375 C 42.551 81.184 40.766 82.398 41.578 83.586 L 41.73 83.813 C 42.539 85.004 44.324 83.789 43.512 82.602 Z M 43.359 82.375"/><path fill="#000000" stroke="none" d="M 43.508 82.594 C 42.691 81.41 40.918 82.637 41.734 83.82 L 41.891 84.043 C 42.707 85.227 44.48 84.004 43.664 82.82 Z M 43.508 82.594"/><path fill="#000000" stroke="none" d="M 43.695 82.867 C 42.945 81.641 41.105 82.77 41.859 83.996 L 41.891 84.051 C 42.645 85.273 44.48 84.148 43.73 82.922 Z M 43.695 82.867"/><path fill="#000000" stroke="none" d="M 43.785 83.023 C 43.168 81.727 41.219 82.648 41.836 83.949 L 42.117 84.543 C 42.734 85.844 44.684 84.918 44.066 83.621 Z M 43.785 83.023"/><path fill="#000000" stroke="none" d="M 44.066 83.617 C 43.441 82.32 41.5 83.25 42.121 84.547 L 42.461 85.258 C 43.082 86.555 45.027 85.621 44.406 84.324 Z M 44.066 83.617"/><path fill="#000000" stroke="none" d="M 44.395 84.301 C 43.738 83.02 41.816 84 42.473 85.281 L 42.84 86 C 43.492 87.281 45.414 86.301 44.762 85.02 Z M 44.395 84.301"/><path fill="#000000" stroke="none" d="M 44.66 84.859 C 43.793 83.715 42.074 85.016 42.941 86.16 L 43.387 86.75 C 44.254 87.898 45.973 86.598 45.105 85.449 Z M 44.66 84.859"/><path fill="#000000" stroke="none" d="M 45.012 85.344 C 44 84.32 42.469 85.84 43.48 86.859 L 43.961 87.348 C 44.973 88.367 46.508 86.848 45.492 85.828 Z M 45.012 85.344"/><path fill="#000000" stroke="none" d="M 45.422 85.762 C 44.316 84.836 42.934 86.492 44.035 87.414 L 44.5 87.805 C 45.602 88.727 46.988 87.074 45.887 86.148 Z M 45.422 85.762"/><path fill="#000000" stroke="none" d="M 45.836 86.109 C 44.68 85.254 43.395 86.984 44.551 87.844 L 44.984 88.164 C 46.141 89.023 47.426 87.289 46.27 86.434 Z M 45.836 86.109"/><path fill="#000000" stroke="none" d="M 46.242 86.414 C 45.063 85.594 43.832 87.363 45.012 88.184 L 45.422 88.469 C 46.602 89.289 47.832 87.52 46.652 86.699 Z M 46.242 86.414"/><path fill="#000000" stroke="none" d="M 46.645 86.691 C 45.453 85.883 44.242 87.668 45.43 88.477 L 45.734 88.684 C 46.926 89.492 48.137 87.707 46.949 86.898 Z M 46.645 86.691"/><path fill="#000000" stroke="none" d="M 46.949 86.898 C 45.758 86.094 44.547 87.879 45.738 88.684 L 46.031 88.883 C 47.219 89.688 48.43 87.902 47.238 87.098 Z M 46.949 86.898"/><path fill="#000000" stroke="none" d="M 47.242 87.098 C 46.055 86.289 44.84 88.07 46.027 88.879 L 46.313 89.074 C 47.5 89.883 48.715 88.102 47.523 87.293 Z M 47.242 87.098"/><path fill="#000000" stroke="none" d="M 47.531 87.293 C 46.348 86.477 45.121 88.254 46.305 89.07 L 46.586 89.262 C 47.77 90.078 48.992 88.305 47.809 87.488 Z M 47.531 87.293"/><path fill="#000000" stroke="none" d="M 47.816 87.492 C 46.637 86.668 45.402 88.438 46.582 89.258 L 46.859 89.453 C 48.039 90.277 49.273 88.508 48.094 87.684 Z M 47.816 87.492"/><path fill="#000000" stroke="none" d="M 48.047 87.652 C 46.824 86.895 45.688 88.727 46.906 89.484 L 47.105 89.609 C 48.328 90.367 49.465 88.539 48.246 87.777 Z M 48.047 87.652"/><path fill="#000000" stroke="none" d="M 48.164 87.734 C 46.887 87.082 45.906 89 47.188 89.656 L 47.398 89.762 C 48.68 90.414 49.66 88.492 48.379 87.84 Z M 48.164 87.734"/><path fill="#000000" stroke="none" d="M 48.242 87.781 C 46.883 87.313 46.176 89.348 47.535 89.82 L 47.914 89.953 C 49.273 90.426 49.98 88.387 48.625 87.914 Z M 48.242 87.781"/><path fill="#000000" stroke="none" d="M 48.523 87.887 C 47.125 87.547 46.617 89.645 48.016 89.98 L 48.371 90.066 C 49.77 90.406 50.277 88.309 48.879 87.973 Z M 48.523 87.887"/><path fill="#000000" stroke="none" d="M 48.793 87.953 C 47.375 87.73 47.035 89.859 48.457 90.086 L 48.77 90.133 C 50.191 90.359 50.527 88.23 49.109 88.004 Z M 48.793 87.953"/><path fill="#000000" stroke="none" d="M 49.191 88.02 C 47.793 87.684 47.289 89.781 48.688 90.117 L 49 90.195 C 50.398 90.531 50.902 88.434 49.504 88.098 Z M 49.191 88.02"/><path fill="#000000" stroke="none" d="M 49.637 88.137 C 48.293 87.625 47.527 89.641 48.867 90.152 L 49.184 90.273 C 50.527 90.785 51.293 88.77 49.953 88.258 Z M 49.637 88.137"/><path fill="#000000" stroke="none" d="M 50.059 88.305 C 48.777 87.652 47.797 89.57 49.078 90.227 L 49.398 90.391 C 50.68 91.043 51.66 89.121 50.379 88.469 Z M 50.059 88.305"/><path fill="#000000" stroke="none" d="M 50.445 88.508 C 49.215 87.762 48.098 89.605 49.328 90.352 L 49.656 90.551 C 50.887 91.293 52.004 89.449 50.773 88.703 Z M 50.445 88.508"/><path fill="#000000" stroke="none" d="M 50.844 88.75 C 49.676 87.91 48.418 89.664 49.586 90.5 L 49.805 90.66 C 50.973 91.5 52.23 89.75 51.066 88.91 Z M 50.844 88.75"/><path fill="#000000" stroke="none" d="M 51.141 88.969 C 50.055 88.027 48.641 89.66 49.73 90.602 L 49.945 90.789 C 51.031 91.73 52.445 90.098 51.355 89.156 Z M 51.141 88.969"/><path fill="#000000" stroke="none" d="M 51.418 89.215 C 50.41 88.191 48.875 89.707 49.883 90.73 L 50.098 90.949 C 51.109 91.973 52.645 90.457 51.637 89.434 Z M 51.418 89.215"/><path fill="#000000" stroke="none" d="M 51.605 89.406 C 50.563 88.422 49.082 89.988 50.129 90.977 L 50.438 91.27 C 51.484 92.254 52.965 90.684 51.918 89.699 Z M 51.605 89.406"/><path fill="#000000" stroke="none" d="M 51.82 89.617 C 50.668 88.762 49.379 90.488 50.535 91.348 L 50.848 91.582 C 52 92.441 53.289 90.711 52.137 89.852 Z M 51.82 89.617"/><path fill="#000000" stroke="none" d="M 52.102 89.828 C 50.914 89.016 49.695 90.797 50.883 91.609 L 50.938 91.645 C 52.125 92.457 53.34 90.676 52.152 89.863 Z M 52.102 89.828"/><path fill="#000000" stroke="none" d="M 51.852 89.719 C 50.473 89.313 49.859 91.379 51.238 91.789 L 51.762 91.941 C 53.141 92.348 53.75 90.281 52.371 89.875 Z M 51.852 89.719"/><path fill="#000000" stroke="none" d="M 52.227 89.84 C 50.805 89.629 50.484 91.762 51.906 91.973 L 52.547 92.07 C 53.969 92.281 54.289 90.148 52.867 89.938 Z M 52.227 89.84"/><path fill="#000000" stroke="none" d="M 52.773 89.926 C 51.34 89.836 51.203 91.988 52.641 92.078 L 53.48 92.133 C 54.918 92.223 55.051 90.07 53.617 89.98 Z M 52.773 89.926"/><path fill="#000000" stroke="none" d="M 53.578 89.98 C 52.141 89.938 52.082 92.094 53.52 92.133 L 54.422 92.16 C 55.859 92.199 55.918 90.043 54.484 90.004 Z M 53.578 89.98"/><path fill="#000000" stroke="none" d="M 54.512 90.004 C 53.074 89.926 52.961 92.082 54.395 92.156 L 55.066 92.195 C 56.504 92.273 56.621 90.117 55.184 90.039 Z M 54.512 90.004"/><path fill="#000000" stroke="none" d="M 55.254 90.047 C 53.828 89.875 53.57 92.02 55 92.188 L 55.559 92.254 C 56.988 92.426 57.242 90.285 55.816 90.113 Z M 55.254 90.047"/><path fill="#000000" stroke="none" d="M 55.926 90.133 C 54.523 89.816 54.047 91.918 55.449 92.238 L 55.898 92.336 C 57.301 92.656 57.777 90.551 56.375 90.234 Z M 55.926 90.133"/><path fill="#000000" stroke="none" d="M 56.52 90.277 C 55.176 89.766 54.41 91.781 55.754 92.293 L 56.102 92.426 C 57.445 92.938 58.211 90.922 56.867 90.41 Z M 56.52 90.277"/><path fill="#000000" stroke="none" d="M 57.031 90.488 C 55.793 89.762 54.699 91.621 55.938 92.348 L 56.211 92.508 C 57.449 93.234 58.543 91.375 57.301 90.648 Z M 57.031 90.488"/><path fill="#000000" stroke="none" d="M 57.332 90.668 C 56.117 89.898 54.965 91.723 56.18 92.488 L 56.406 92.633 C 57.621 93.398 58.773 91.574 57.555 90.809 Z M 57.332 90.668"/><path fill="#000000" stroke="none" d="M 57.5 90.773 C 56.242 90.082 55.203 91.973 56.461 92.664 L 56.684 92.785 C 57.941 93.48 58.98 91.59 57.723 90.898 Z M 57.5 90.773"/><path fill="#000000" stroke="none" d="M 57.012 90.781 C 55.598 91.035 55.98 93.16 57.395 92.902 L 57.762 92.836 C 59.176 92.582 58.793 90.457 57.379 90.715 Z M 57.012 90.781"/><path fill="#000000" stroke="none" d="M 57.195 90.766 C 55.848 91.266 56.598 93.285 57.945 92.785 L 58.348 92.637 C 59.695 92.137 58.945 90.113 57.594 90.617 Z M 57.195 90.766"/><path fill="#000000" stroke="none" d="M 57.586 90.621 C 56.242 91.137 57.016 93.148 58.355 92.633 L 58.762 92.477 C 60.105 91.961 59.332 89.949 57.992 90.465 Z M 57.586 90.621"/><path fill="#000000" stroke="none" d="M 57.863 90.523 C 56.598 91.207 57.625 93.102 58.891 92.418 L 59.234 92.234 C 60.496 91.551 59.473 89.652 58.207 90.336 Z M 57.863 90.523"/><path fill="#000000" stroke="none" d="M 58.074 90.422 C 56.922 91.289 58.219 93.012 59.367 92.148 L 59.711 91.891 C 60.859 91.027 59.563 89.301 58.414 90.168 Z M 58.074 90.422"/><path fill="#000000" stroke="none" d="M 58.398 90.18 C 57.266 91.066 58.594 92.762 59.727 91.879 L 59.992 91.668 C 61.125 90.781 59.797 89.086 58.664 89.969 Z M 58.398 90.18"/><path fill="#000000" stroke="none" d="M 58.688 89.953 C 57.531 90.809 58.813 92.543 59.969 91.688 L 60.227 91.496 C 61.383 90.645 60.102 88.91 58.945 89.762 Z M 58.688 89.953"/><path fill="#000000" stroke="none" d="M 59 89.727 C 57.793 90.508 58.965 92.316 60.172 91.535 L 60.418 91.375 C 61.625 90.59 60.453 88.781 59.246 89.566 Z M 59 89.727"/><path fill="#000000" stroke="none" d="M 59.383 89.488 C 58.074 90.09 58.977 92.051 60.285 91.449 L 60.648 91.281 C 61.957 90.68 61.055 88.719 59.75 89.32 Z M 59.383 89.488"/><path fill="#000000" stroke="none" d="M 59.887 89.27 C 58.512 89.684 59.133 91.75 60.512 91.332 L 60.863 91.227 C 62.238 90.813 61.617 88.746 60.238 89.164 Z M 59.887 89.27"/><path fill="#000000" stroke="none" d="M 60.18 89.184 C 58.832 89.676 59.57 91.699 60.922 91.207 L 61.145 91.125 C 62.496 90.633 61.754 88.609 60.406 89.102 Z M 60.18 89.184"/><path fill="#000000" stroke="none" d="M 60.281 89.152 C 59.004 89.813 59.988 91.73 61.266 91.074 L 61.484 90.961 C 62.762 90.305 61.777 88.387 60.496 89.043 Z M 60.281 89.152"/><path fill="#000000" stroke="none" d="M 60.371 89.117 C 59.195 89.945 60.43 91.711 61.609 90.887 L 61.824 90.734 C 63 89.91 61.766 88.145 60.586 88.969 Z M 60.371 89.117"/><path fill="#000000" stroke="none" d="M 60.531 89.008 C 59.41 89.906 60.754 91.59 61.875 90.695 L 62.121 90.5 C 63.246 89.605 61.902 87.918 60.777 88.813 Z M 60.531 89.008"/><path fill="#000000" stroke="none" d="M 60.777 88.813 C 59.652 89.707 60.996 91.395 62.121 90.5 L 62.344 90.324 C 63.469 89.43 62.125 87.742 61 88.637 Z M 60.777 88.813"/><path fill="#000000" stroke="none" d="M 61.039 88.609 C 59.875 89.453 61.141 91.199 62.305 90.352 L 62.504 90.211 C 63.664 89.363 62.398 87.621 61.234 88.465 Z M 61.039 88.609"/><path fill="#000000" stroke="none" d="M 61.305 88.418 C 60.078 89.172 61.207 91.008 62.434 90.258 L 62.605 90.148 C 63.832 89.398 62.703 87.559 61.48 88.313 Z M 61.305 88.418"/><path fill="#000000" stroke="none" d="M 61.582 88.258 C 60.281 88.871 61.203 90.82 62.504 90.207 L 62.66 90.133 C 63.961 89.516 63.035 87.566 61.738 88.184 Z M 61.582 88.258"/><path fill="#000000" stroke="none" d="M 61.867 88.129 C 60.5 88.57 61.16 90.625 62.527 90.184 L 62.684 90.133 C 64.055 89.691 63.395 87.641 62.023 88.082 Z M 61.867 88.129"/><path fill="#000000" stroke="none" d="M 62.148 88.047 C 60.738 88.328 61.152 90.441 62.563 90.164 L 62.684 90.141 C 64.094 89.863 63.68 87.746 62.266 88.023 Z M 62.148 88.047"/><path fill="#000000" stroke="none" d="M 62.379 88.008 C 60.949 88.137 61.141 90.285 62.57 90.156 L 62.664 90.148 C 64.094 90.02 63.902 87.871 62.473 88 Z M 62.379 88.008"/><path fill="#000000" stroke="none" d="M 62.563 87.996 C 61.125 88 61.133 90.156 62.57 90.152 L 62.641 90.152 C 64.078 90.148 64.07 87.992 62.633 87.996 Z M 62.563 87.996"/><path fill="#000000" stroke="none" d="M 62.691 87.996 C 61.258 87.926 61.148 90.078 62.582 90.152 L 62.641 90.156 C 64.078 90.227 64.188 88.074 62.75 88 Z M 62.691 87.996"/><path fill="#000000" stroke="none" d="M 62.773 88 C 61.34 87.898 61.184 90.051 62.621 90.152 L 62.672 90.156 C 64.105 90.258 64.258 88.109 62.824 88.004 Z M 62.773 88"/><path fill="#000000" stroke="none" d="M 62.816 88.004 C 61.383 87.91 61.242 90.063 62.676 90.156 L 62.723 90.16 C 64.16 90.254 64.301 88.102 62.867 88.008 Z M 62.816 88.004"/><path fill="#000000" stroke="none" d="M 62.848 88.008 C 61.414 87.938 61.305 90.09 62.742 90.16 L 62.789 90.164 C 64.223 90.234 64.332 88.082 62.895 88.008 Z M 62.848 88.008"/><path fill="#000000" stroke="none" d="M 62.887 88.008 C 61.449 87.949 61.359 90.105 62.797 90.164 L 62.832 90.164 C 64.27 90.227 64.359 88.07 62.922 88.012 Z M 62.887 88.008"/><path fill="#000000" stroke="none" d="M 62.918 88.012 C 61.48 87.961 61.402 90.113 62.84 90.164 L 62.863 90.168 C 64.301 90.219 64.379 88.063 62.941 88.012 Z M 62.918 88.012"/><path fill="#000000" stroke="none" d="M 62.934 88.012 C 61.5 87.969 61.434 90.125 62.871 90.168 L 62.887 90.168 C 64.324 90.211 64.387 88.055 62.953 88.012 Z M 62.934 88.012"/><path fill="#000000" stroke="none" d="M 62.945 88.012 C 61.508 87.98 61.457 90.137 62.895 90.168 L 62.902 90.168 C 64.34 90.199 64.391 88.043 62.953 88.012 Z M 62.945 88.012"/><path fill="#000000" stroke="none" d="M 62.941 88.012 C 61.504 87.996 61.477 90.152 62.914 90.168 L 62.918 90.168 C 64.359 90.184 64.383 88.027 62.945 88.012 Z M 62.941 88.012"/><path fill="#000000" stroke="none" d="M 62.914 88.012 C 61.477 88.035 61.512 90.191 62.949 90.168 C 64.387 90.145 64.355 87.988 62.918 88.012 Z M 62.914 88.012"/><path fill="#000000" stroke="none" d="M 62.188 88.309 C 61.148 89.305 62.641 90.863 63.68 89.867 C 64.719 88.875 63.227 87.316 62.188 88.309 Z M 62.188 88.309"/><path fill="#000000" stroke="none" d="M 62.836 90.164 C 64.27 90.293 64.465 88.145 63.031 88.016 C 61.598 87.887 61.402 90.035 62.836 90.164 Z M 62.836 90.164"/><path fill="#000000" stroke="none" d="M 62.871 90.168 C 64.305 90.25 64.434 88.098 62.996 88.012 C 61.563 87.93 61.434 90.082 62.871 90.168 Z M 62.871 90.168"/><path fill="#000000" stroke="none" d="M 62.883 90.168 C 64.316 90.234 64.418 88.078 62.984 88.012 C 61.547 87.945 61.445 90.098 62.883 90.168 Z M 62.883 90.168"/><path fill="#000000" stroke="none" d="M 62.891 90.168 C 64.324 90.223 64.41 88.07 62.977 88.012 L 62.973 88.012 C 61.539 87.957 61.453 90.109 62.891 90.168 Z M 62.891 90.168"/><path fill="#000000" stroke="none" d="M 62.895 90.168 C 64.332 90.215 64.406 88.059 62.969 88.012 C 61.531 87.965 61.457 90.117 62.895 90.168 Z M 62.895 90.168"/><path fill="#000000" stroke="none" d="M 62.902 90.168 C 64.34 90.207 64.398 88.051 62.961 88.012 C 61.523 87.973 61.465 90.129 62.902 90.168 Z M 62.902 90.168"/><path fill="#000000" stroke="none" d="M 62.91 90.168 C 64.348 90.195 64.391 88.039 62.953 88.012 C 61.516 87.984 61.473 90.141 62.91 90.168 Z M 62.91 90.168"/><path fill="#000000" stroke="none" d="M 62.926 90.168 C 64.363 90.176 64.375 88.02 62.938 88.012 C 61.5 88.004 61.488 90.16 62.926 90.168 Z M 62.926 90.168"/><path fill="#000000" stroke="none" d="M 62.973 90.168 C 64.41 90.113 64.328 87.957 62.891 88.012 C 61.453 88.066 61.535 90.223 62.973 90.168 Z M 62.973 90.168"/><path fill="#000000" stroke="none" d="M 63.195 88.043 C 61.801 87.691 61.273 89.785 62.668 90.137 C 64.063 90.488 64.59 88.395 63.195 88.043 Z M 63.195 88.043"/><path fill="#000000" stroke="none" d="M 63.012 88.016 C 61.578 87.906 61.414 90.055 62.848 90.164 C 64.281 90.273 64.445 88.125 63.012 88.016 Z M 63.012 88.016"/><path fill="#000000" stroke="none" d="M 62.988 88.012 C 61.555 87.934 61.438 90.09 62.871 90.168 C 64.309 90.246 64.426 88.09 62.988 88.012 Z M 62.988 88.012"/><path fill="#000000" stroke="none" d="M 62.98 88.012 C 61.543 87.949 61.445 90.102 62.883 90.168 C 64.32 90.23 64.414 88.078 62.98 88.012 Z M 62.98 88.012"/><path fill="#000000" stroke="none" d="M 62.973 88.012 C 61.535 87.957 61.453 90.113 62.891 90.168 C 64.328 90.223 64.41 88.066 62.973 88.012 Z M 62.973 88.012"/><path fill="#000000" stroke="none" d="M 62.965 88.012 C 61.527 87.965 61.461 90.121 62.895 90.168 C 64.332 90.215 64.402 88.059 62.965 88.012 Z M 62.965 88.012"/><path fill="#000000" stroke="none" d="M 62.957 88.012 C 61.52 87.977 61.465 90.129 62.902 90.168 C 64.34 90.203 64.395 88.047 62.957 88.012 Z M 62.957 88.012"/><path fill="#000000" stroke="none" d="M 62.949 88.012 C 61.512 87.988 61.477 90.145 62.914 90.168 C 64.352 90.191 64.387 88.035 62.949 88.012 Z M 62.949 88.012"/><path fill="#000000" stroke="none" d="M 62.93 88.012 C 61.492 88.012 61.496 90.168 62.934 90.168 C 64.371 90.168 64.367 88.008 62.93 88.012 Z M 62.93 88.012"/><path fill="#000000" stroke="none" d="M 62.836 88.016 C 61.402 88.145 61.598 90.293 63.027 90.164 C 64.461 90.035 64.266 87.887 62.836 88.016 Z M 62.836 88.016"/><path fill="#000000" stroke="none" d="M 62.789 90.16 C 64.215 90.348 64.496 88.207 63.07 88.02 C 61.645 87.832 61.363 89.973 62.789 90.16 Z M 62.789 90.16"/><path fill="#000000" stroke="none" d="M 62.859 90.164 C 64.293 90.262 64.438 88.109 63.004 88.012 C 61.566 87.918 61.426 90.07 62.859 90.164 Z M 62.859 90.164"/><path fill="#000000" stroke="none" d="M 62.875 90.168 C 64.313 90.238 64.422 88.086 62.984 88.012 C 61.551 87.941 61.441 90.094 62.875 90.168 Z M 62.875 90.168"/><path fill="#000000" stroke="none" d="M 14.324 51.945 C 12.773 51.945 12.773 54.27 14.324 54.27 L 14.344 54.27 C 15.891 54.27 15.891 51.945 14.344 51.945 Z M 14.324 51.945"/><path fill="#000000" stroke="none" d="M 14.344 51.945 C 12.793 51.945 12.793 54.27 14.344 54.27 L 14.383 54.27 C 15.934 54.27 15.934 51.945 14.383 51.945 Z M 14.344 51.945"/><path fill="#000000" stroke="none" d="M 14.383 51.945 C 12.832 51.945 12.832 54.27 14.383 54.27 L 14.445 54.27 C 15.996 54.27 15.996 51.945 14.445 51.945 Z M 14.383 51.945"/><path fill="#000000" stroke="none" d="M 14.445 51.945 C 12.895 51.945 12.895 54.27 14.445 54.27 L 14.523 54.27 C 16.074 54.27 16.074 51.945 14.523 51.945 Z M 14.445 51.945"/><path fill="#000000" stroke="none" d="M 14.523 51.945 C 12.973 51.945 12.973 54.27 14.523 54.27 L 14.613 54.27 C 16.164 54.27 16.164 51.945 14.613 51.945 Z M 14.523 51.945"/><path fill="#000000" stroke="none" d="M 14.613 51.945 C 13.066 51.945 13.066 54.27 14.613 54.27 L 14.715 54.27 C 16.266 54.27 16.266 51.945 14.715 51.945 Z M 14.613 51.945"/><path fill="#000000" stroke="none" d="M 14.715 51.945 C 13.164 51.945 13.164 54.27 14.715 54.27 L 14.738 54.27 C 16.289 54.27 16.289 51.945 14.738 51.945 Z M 14.715 51.945"/><path fill="#000000" stroke="none" d="M 14.738 51.945 C 13.191 51.945 13.191 54.27 14.738 54.27 L 15.238 54.27 C 16.789 54.27 16.789 51.945 15.238 51.945 Z M 14.738 51.945"/><path fill="#000000" stroke="none" d="M 15.238 51.945 C 13.688 51.945 13.688 54.27 15.238 54.27 L 15.934 54.27 C 17.484 54.27 17.484 51.945 15.934 51.945 Z M 15.238 51.945"/><path fill="#000000" stroke="none" d="M 15.934 51.945 C 14.387 51.945 14.387 54.27 15.934 54.27 L 17.008 54.27 C 18.559 54.27 18.559 51.945 17.008 51.945 Z M 15.934 51.945"/><path fill="#000000" stroke="none" d="M 17.008 51.945 C 15.457 51.945 15.457 54.27 17.008 54.27 L 18.633 54.27 C 20.184 54.27 20.184 51.945 18.633 51.945 Z M 17.008 51.945"/><path fill="#000000" stroke="none" d="M 18.633 51.945 C 17.082 51.945 17.082 54.27 18.633 54.27 L 19.664 54.27 C 21.215 54.27 21.215 51.945 19.664 51.945 Z M 18.633 51.945"/><path fill="#000000" stroke="none" d="M 19.664 51.945 C 18.113 51.945 18.113 54.27 19.664 54.27 L 20.793 54.27 C 22.34 54.27 22.34 51.945 20.793 51.945 Z M 19.664 51.945"/><path fill="#000000" stroke="none" d="M 20.793 51.945 C 19.242 51.945 19.242 54.27 20.793 54.27 L 24 54.27 C 25.551 54.27 25.551 51.945 24 51.945 Z M 20.793 51.945"/><path fill="#000000" stroke="none" d="M 24 51.945 C 22.453 51.945 22.453 54.27 24 54.27 L 28.387 54.27 C 29.934 54.27 29.934 51.945 28.387 51.945 Z M 24 51.945"/><path fill="#000000" stroke="none" d="M 28.387 51.945 C 26.836 51.945 26.836 54.27 28.387 54.27 L 33.617 54.27 C 35.168 54.27 35.168 51.945 33.617 51.945 Z M 28.387 51.945"/><path fill="#000000" stroke="none" d="M 33.617 51.945 C 32.07 51.945 32.07 54.27 33.617 54.27 L 36.641 54.27 C 38.191 54.27 38.191 51.945 36.641 51.945 Z M 33.617 51.945"/><path fill="#000000" stroke="none" d="M 36.641 51.945 C 35.09 51.945 35.09 54.27 36.641 54.27 L 39.59 54.27 C 41.141 54.27 41.141 51.945 39.59 51.945 Z M 36.641 51.945"/><path fill="#000000" stroke="none" d="M 39.59 51.945 C 38.043 51.945 38.043 54.27 39.59 54.27 L 45.035 54.27 C 46.582 54.27 46.582 51.945 45.035 51.945 Z M 39.59 51.945"/><path fill="#000000" stroke="none" d="M 45.035 51.945 C 43.484 51.945 43.484 54.27 45.035 54.27 L 51.074 54.27 C 52.621 54.27 52.621 51.945 51.074 51.945 Z M 45.035 51.945"/><path fill="#000000" stroke="none" d="M 51.074 51.945 C 49.523 51.945 49.523 54.27 51.074 54.27 L 56.758 54.27 C 58.309 54.27 58.309 51.945 56.758 51.945 Z M 51.074 51.945"/><path fill="#000000" stroke="none" d="M 56.758 51.945 C 55.211 51.945 55.211 54.27 56.758 54.27 L 59.785 54.27 C 61.336 54.27 61.336 51.945 59.785 51.945 Z M 56.758 51.945"/><path fill="#000000" stroke="none" d="M 59.785 51.945 C 58.234 51.945 58.234 54.27 59.785 54.27 L 62.504 54.27 C 64.055 54.27 64.055 51.945 62.504 51.945 Z M 59.785 51.945"/><path fill="#000000" stroke="none" d="M 62.438 51.949 C 60.891 52.039 61.023 54.359 62.57 54.27 L 66.73 54.027 C 68.277 53.938 68.141 51.617 66.594 51.707 Z M 62.438 51.949"/><path fill="#000000" stroke="none" d="M 66.563 51.707 C 65.02 51.84 65.219 54.156 66.762 54.023 L 70.23 53.723 C 71.773 53.59 71.574 51.273 70.031 51.41 Z M 66.563 51.707"/><path fill="#000000" stroke="none" d="M 70.031 51.41 C 68.488 51.543 68.688 53.859 70.23 53.723 L 73.328 53.457 C 74.875 53.324 74.672 51.008 73.129 51.141 Z M 70.031 51.41"/><path fill="#000000" stroke="none" d="M 73.133 51.141 C 71.586 51.273 71.785 53.59 73.328 53.457 L 74.938 53.32 C 76.484 53.191 76.285 50.875 74.742 51.004 Z M 73.133 51.141"/><path fill="#000000" stroke="none" d="M 74.746 51.004 C 73.199 51.129 73.391 53.449 74.934 53.32 L 76.309 53.207 C 77.852 53.082 77.664 50.766 76.117 50.891 Z M 74.746 51.004"/><path fill="#000000" stroke="none" d="M 76.137 50.891 C 74.59 50.992 74.742 53.313 76.289 53.211 L 78.172 53.086 C 79.719 52.988 79.57 50.668 78.023 50.766 Z M 76.137 50.891"/><path fill="#000000" stroke="none" d="M 78.043 50.766 C 76.492 50.84 76.605 53.164 78.152 53.09 L 79.648 53.016 C 81.195 52.941 81.086 50.621 79.539 50.695 Z M 78.043 50.766"/><path fill="#000000" stroke="none" d="M 79.559 50.695 C 78.008 50.742 78.078 53.066 79.629 53.016 L 80.82 52.98 C 82.367 52.934 82.297 50.609 80.746 50.656 Z M 79.559 50.695"/><path fill="#000000" stroke="none" d="M 80.758 50.656 C 79.207 50.691 79.258 53.016 80.809 52.98 L 81.445 52.969 C 82.996 52.934 82.945 50.609 81.398 50.645 Z M 80.758 50.656"/><path fill="#000000" stroke="none" d="M 81.406 50.641 C 79.855 50.664 79.887 52.988 81.438 52.969 L 82.074 52.957 C 83.625 52.938 83.594 50.613 82.043 50.633 Z M 81.406 50.641"/><path fill="#000000" stroke="none" d="M 82.059 50.633 C 80.508 50.637 80.512 52.961 82.059 52.961 L 83.188 52.957 C 84.738 52.957 84.734 50.633 83.188 50.633 Z M 82.059 50.633"/><path fill="#000000" stroke="none" d="M 83.191 50.633 C 81.641 50.629 81.633 52.953 83.184 52.957 L 84.391 52.961 C 85.941 52.969 85.949 50.645 84.398 50.637 Z M 83.191 50.633"/><path fill="#000000" stroke="none" d="M 84.398 50.637 C 82.852 50.633 82.84 52.957 84.391 52.961 L 85.828 52.969 C 87.379 52.977 87.391 50.652 85.84 50.645 Z M 84.398 50.637"/><path fill="#000000" stroke="none" d="M 85.84 50.645 C 84.289 50.637 84.281 52.961 85.828 52.969 L 86.664 52.973 C 88.215 52.977 88.227 50.652 86.676 50.648 Z M 85.84 50.645"/><path fill="#000000" stroke="none" d="M 86.676 50.648 C 85.125 50.641 85.117 52.965 86.664 52.973 L 87.488 52.977 C 89.039 52.98 89.047 50.656 87.496 50.652 Z M 86.676 50.648"/><path fill="#000000" stroke="none" d="M 87.496 50.652 C 85.945 50.645 85.941 52.973 87.492 52.977 L 88.992 52.98 C 90.543 52.984 90.551 50.66 89 50.656 Z M 87.496 50.652"/><path fill="#000000" stroke="none" d="M 89 50.656 C 87.449 50.652 87.445 52.977 88.996 52.98 L 90.398 52.98 C 91.949 52.984 91.953 50.66 90.406 50.656 Z M 89 50.656"/><path fill="#000000" stroke="none" d="M 90.402 50.656 C 88.855 50.656 88.852 52.98 90.402 52.98 L 91.641 52.984 C 93.191 52.984 93.195 50.66 91.645 50.66 Z M 90.402 50.656"/><path fill="#000000" stroke="none" d="M 91.645 50.66 C 90.094 50.656 90.094 52.98 91.645 52.984 L 92.488 52.984 C 94.039 52.984 94.039 50.66 92.488 50.66 Z M 91.645 50.66"/><path fill="#000000" stroke="none" d="M 92.488 50.66 C 90.941 50.66 90.938 52.984 92.488 52.984 L 93.141 52.984 C 94.691 52.984 94.691 50.66 93.145 50.66 Z M 92.488 50.66"/><path fill="#000000" stroke="none" d="M 93.141 50.66 C 91.594 50.66 91.59 52.984 93.141 52.984 L 93.629 52.984 C 95.18 52.984 95.18 50.66 93.629 50.66 Z M 93.141 50.66"/><path fill="#000000" stroke="none" d="M 93.629 50.66 C 92.078 50.66 92.078 52.984 93.629 52.984 L 93.984 52.984 C 95.535 52.984 95.535 50.66 93.988 50.66 Z M 93.629 50.66"/><path fill="#000000" stroke="none" d="M 93.984 50.66 C 92.438 50.66 92.438 52.984 93.988 52.984 L 94.25 52.984 C 95.797 52.984 95.797 50.66 94.246 50.66 Z M 93.984 50.66"/><path fill="#000000" stroke="none" d="M 94.246 50.66 C 92.699 50.66 92.699 52.984 94.25 52.984 L 94.441 52.984 C 95.992 52.984 95.988 50.66 94.441 50.66 Z M 94.246 50.66"/><path fill="#000000" stroke="none" d="M 94.441 50.66 C 92.891 50.664 92.891 52.988 94.441 52.984 L 94.547 52.984 C 96.098 52.984 96.094 50.66 94.547 50.66 Z M 94.441 50.66"/><path fill="#000000" stroke="none" d="M 94.543 50.66 C 92.996 50.664 93 52.988 94.551 52.984 L 94.598 52.984 C 96.148 52.98 96.145 50.656 94.594 50.66 Z M 94.543 50.66"/><path fill="#000000" stroke="none" d="M 94.59 50.66 C 93.039 50.668 93.051 52.992 94.602 52.984 L 94.617 52.984 C 96.168 52.977 96.156 50.652 94.605 50.66 Z M 94.59 50.66"/><path fill="#000000" stroke="none" d="M 94.574 52.984 C 96.125 53.035 96.199 50.711 94.648 50.66 C 93.098 50.609 93.023 52.934 94.574 52.984 Z M 94.574 52.984"/><path fill="#000000" stroke="none" d="M 94.605 52.984 C 96.156 52.988 96.164 50.664 94.613 50.66 L 94.605 50.66 C 93.055 50.656 93.047 52.98 94.598 52.984 Z M 94.605 52.984"/><path fill="#000000" stroke="none" d="M 94.602 52.984 C 96.148 52.988 96.152 50.664 94.605 50.66 L 94.594 50.66 C 93.043 50.656 93.039 52.984 94.59 52.984 Z M 94.602 52.984"/><path fill="#000000" stroke="none" d="M 94.59 52.984 C 96.141 52.984 96.145 50.66 94.594 50.66 L 94.586 50.66 C 93.035 50.66 93.031 52.984 94.582 52.984 Z M 94.59 52.984"/><path fill="#000000" stroke="none" d="M 94.582 52.984 C 96.133 52.984 96.133 50.66 94.582 50.66 L 94.578 50.66 C 93.027 50.66 93.027 52.984 94.578 52.984 Z M 94.582 52.984"/><path fill="#000000" stroke="none" d="M 94.578 52.984 C 96.129 52.984 96.125 50.66 94.578 50.66 L 94.57 50.66 C 93.023 50.66 93.023 52.984 94.574 52.984 Z M 94.578 52.984"/><path fill="#000000" stroke="none" d="M 94.574 52.984 C 96.125 52.984 96.121 50.66 94.57 50.66 C 93.02 50.66 93.02 52.984 94.57 52.984 Z M 94.574 52.984"/><path fill="#000000" stroke="none" d="M 94.57 52.984 C 96.121 52.984 96.117 50.656 94.566 50.66 C 93.016 50.66 93.02 52.988 94.57 52.984 Z M 94.57 52.984"/><path fill="#000000" stroke="none" d="M 94.57 52.984 C 96.121 52.98 96.117 50.656 94.566 50.66 C 93.016 50.664 93.02 52.988 94.57 52.984 Z M 94.57 52.984"/><path fill="#000000" stroke="none" d="M 94.574 52.984 C 96.125 52.977 96.109 50.652 94.563 50.66 C 93.012 50.668 93.023 52.992 94.574 52.984 Z M 94.574 52.984"/><path fill="#000000" stroke="none" d="M 94.582 50.66 C 93.031 50.641 93.004 52.965 94.555 52.984 C 96.102 53.004 96.133 50.68 94.582 50.66 Z M 94.582 50.66"/><path fill="#000000" stroke="none" d="M 94.57 50.66 C 93.02 50.656 93.016 52.98 94.566 52.984 C 96.113 52.988 96.121 50.664 94.57 50.66 Z M 94.57 50.66"/><path fill="#000000" stroke="none" d="M 94.57 50.66 C 93.02 50.656 93.016 52.984 94.566 52.984 C 96.117 52.988 96.121 50.66 94.57 50.66 Z M 94.57 50.66"/><path fill="#000000" stroke="none" d="M 94.57 50.66 C 93.02 50.66 93.016 52.984 94.566 52.984 C 96.117 52.984 96.117 50.66 94.57 50.66 Z M 94.57 50.66"/><path fill="#000000" stroke="none" d="M 94.566 50.66 C 93.02 50.66 93.02 52.984 94.566 52.984 C 96.117 52.984 96.117 50.66 94.566 50.66 Z M 94.566 50.66"/><path fill="#000000" stroke="none" d="M 94.566 50.66 C 93.02 50.66 93.02 52.984 94.57 52.984 C 96.117 52.984 96.117 50.66 94.566 50.66 Z M 94.566 50.66"/><path fill="#000000" stroke="none" d="M 94.566 50.66 C 93.016 50.66 93.02 52.984 94.57 52.984 C 96.117 52.984 96.117 50.66 94.566 50.66 Z M 94.566 50.66"/></g></g></g></svg>
</svg>