<?xml version="1.0" encoding="UTF-8" standalone="no"?>
<!-- Created with Inkscape (http://www.inkscape.org/) -->

<svg
   width="16"
   height="16"
   viewBox="0 0 4.2333333 4.2333333"
   version="1.1"
   id="svg5"
   sodipodi:docname="shapebuilder-quadbez-symbolic.svg"
   xml:space="preserve"
   inkscape:version="1.3.2 (091e20ef0f, 2023-11-25, custom)"
   xmlns:inkscape="http://www.inkscape.org/namespaces/inkscape"
   xmlns:sodipodi="http://sodipodi.sourceforge.net/DTD/sodipodi-0.dtd"
   xmlns="http://www.w3.org/2000/svg"
   xmlns:svg="http://www.w3.org/2000/svg"><sodipodi:namedview
     id="namedview1"
     pagecolor="#ffffff"
     bordercolor="#000000"
     borderopacity="0.25"
     inkscape:showpageshadow="2"
     inkscape:pageopacity="0.0"
     inkscape:pagecheckerboard="0"
     inkscape:deskcolor="#d1d1d1"
     inkscape:zoom="32"
     inkscape:cx="4.734375"
     inkscape:cy="8.90625"
     inkscape:window-width="1920"
     inkscape:window-height="1043"
     inkscape:window-x="0"
     inkscape:window-y="0"
     inkscape:window-maximized="1"
     inkscape:current-layer="svg5" /><defs
     id="defs2"><clipPath
       clipPathUnits="userSpaceOnUse"
       id="clipPath2873"><circle
         style="display:none;fill:none;stroke:#444444;stroke-width:0.0430271;stroke-dasharray:none;stroke-opacity:1"
         id="circle2875"
         cx="0.52916664"
         cy="3.4395833"
         r="0.11384288"
         d="M 0.64300952,3.4395833 A 0.11384288,0.11384288 0 0 1 0.52916664,3.5534262 0.11384288,0.11384288 0 0 1 0.41532376,3.4395833 0.11384288,0.11384288 0 0 1 0.52916664,3.3257404 0.11384288,0.11384288 0 0 1 0.64300952,3.4395833 Z" /><path
         id="lpe_path-effect2877"
         style="fill:none;stroke:#444444;stroke-width:0.0430271;stroke-dasharray:none;stroke-opacity:1"
         class="powerclip"
         d="M -4.4708333,-3.9659488 H 6.7812597 V 8.4895833 H -4.4708333 Z M 1.4367595,1.0583333 A 0.11384288,0.11384288 0 0 0 1.3229166,0.9444904 0.11384288,0.11384288 0 0 0 1.2090737,1.0583333 0.11384288,0.11384288 0 0 0 1.3229166,1.1721762 0.11384288,0.11384288 0 0 0 1.4367595,1.0583333 Z" /></clipPath><clipPath
       clipPathUnits="userSpaceOnUse"
       id="clipPath2945" /><clipPath
       clipPathUnits="userSpaceOnUse"
       id="clipPath2989"><path
         id="lpe_path-effect2993"
         style="fill:none;stroke:#444444;stroke-width:0.0430271;stroke-dasharray:none;stroke-opacity:1"
         class="powerclip"
         d="M -4.4707031,-3.9667969 H 6.7813388 V 8.4902344 H -4.4707031 Z M 0.64300952,3.4395833 A 0.11384288,0.11384288 0 0 0 0.52916664,3.3257404 0.11384288,0.11384288 0 0 0 0.41532376,3.4395833 0.11384288,0.11384288 0 0 0 0.52916664,3.5534262 0.11384288,0.11384288 0 0 0 0.64300952,3.4395833 Z" /></clipPath><clipPath
       clipPathUnits="userSpaceOnUse"
       id="clipPath3029"><path
         id="lpe_path-effect3033"
         style="fill:none;stroke:#444444;stroke-width:0.0430271;stroke-dasharray:none;stroke-opacity:1"
         class="powerclip"
         d="M -4.4707031,-3.9667969 H 6.7813388 V 8.4902344 H -4.4707031 Z M 1.4367595,1.0583333 A 0.11384288,0.11384288 0 0 0 1.3229166,0.9444904 0.11384288,0.11384288 0 0 0 1.2090737,1.0583333 0.11384288,0.11384288 0 0 0 1.3229166,1.1721762 0.11384288,0.11384288 0 0 0 1.4367595,1.0583333 Z" /></clipPath><clipPath
       clipPathUnits="userSpaceOnUse"
       id="clipPath3176-6"><path
         id="lpe_path-effect3180-2"
         style="fill:none;stroke:#444444;stroke-width:0.0430271;stroke-dasharray:none;stroke-opacity:1"
         class="powerclip"
         d="M -4.4707031,-3.9667969 H 6.7813388 V 8.4902344 H -4.4707031 Z m 5.11384286,7.40625 A 0.11384288,0.11384288 0 0 0 0.52929687,3.3256102 0.11384288,0.11384288 0 0 0 0.41545399,3.4394531 0.11384288,0.11384288 0 0 0 0.52929687,3.553296 0.11384288,0.11384288 0 0 0 0.64313976,3.4394531 Z" /></clipPath></defs><g
     id="g3193"
     transform="translate(-0.37018645,0.2141543)"><path
       style="color:#000000;fill:#444444;stroke-width:1.00012;stroke-dasharray:none"
       d="m 0.86593386,0.19838152 c -0.14550766,0 -0.26367166,0.1181642 -0.26367176,0.2636717 0,0.1455078 0.1181641,0.26562519 0.26367176,0.26562519 0.14550754,0 0.26562494,-0.12011739 0.26562494,-0.26562519 0,-0.1455075 -0.1201174,-0.2636717 -0.26562494,-0.2636717 z m 0,0.1035156 c 0.089138,0 0.16015624,0.071019 0.16015624,0.1601561 0,0.089138 -0.071019,0.1601565 -0.16015624,0.1601565 -0.089138,0 -0.16015616,-0.071019 -0.16015616,-0.1601565 0,-0.089138 0.071019,-0.1601561 0.16015616,-0.1601561 z"
       id="path1138-6-3" /><path
       style="color:#000000;fill:#444444"
       d="m 4.0669294,3.3079635 c -0.1455076,0 -0.265625,0.1201174 -0.265625,0.2656249 0,0.1455077 0.1201174,0.2636719 0.265625,0.2636719 0.1455076,0 0.2636719,-0.1181642 0.2636719,-0.2636719 0,-0.1455075 -0.1181643,-0.2656249 -0.2636719,-0.2656249 z m 0,0.1054687 c 0.089138,0 0.1601563,0.071019 0.1601563,0.1601562 0,0.089138 -0.071019,0.1601563 -0.1601563,0.1601563 -0.089138,0 -0.1601562,-0.071019 -0.1601562,-0.1601563 0,-0.089138 0.071019,-0.1601562 0.1601562,-0.1601562 z"
       id="path1138-6-3-5" /></g><g
     stroke-linejoin="miter"
     stroke-dashoffset="0"
     stroke-dasharray="none"
     stroke-width="1"
     stroke-miterlimit="10"
     stroke-linecap="square"
     id="g4"
     transform="matrix(0.00500354,0,0,0.00326516,-0.97425415,1.7936826)"
     style="stroke:#444444;stroke-width:23.3072;stroke-dasharray:none;stroke-opacity:1"><g
       id="misc"
       style="stroke:#444444;stroke-width:23.3072;stroke-dasharray:none;stroke-opacity:1" /><!-- misc --><g
       id="layer0"
       style="stroke:#444444;stroke-width:23.3072;stroke-dasharray:none;stroke-opacity:1"><clipPath
         id="clip7a02b64a-1661-4111-a82c-d0e8ff7a044e"><path
           d="M 0,0 V 871 H 1299 V 0 Z"
           id="path1" /></clipPath><g
         clip-path="url(#clip1)"
         id="g3"
         style="stroke:#444444;stroke-width:23.3072;stroke-dasharray:none;stroke-opacity:1"><g
           stroke-linejoin="round"
           stroke-width="6.5"
           stroke-linecap="round"
           fill="none"
           stroke-opacity="0.69804"
           stroke="#444444"
           id="g2"
           style="stroke:#444444;stroke-width:23.3072;stroke-dasharray:none;stroke-opacity:1"><path
             d="m 294.1,-340 c 208.37,1250.24 416.75,1250.24 625.12,0"
             id="path2"
             style="stroke:#444444;stroke-width:23.3072;stroke-dasharray:none;stroke-opacity:1" /><title
             id="title2">Parabola f</title><desc
             id="desc2">f: y = 2x²</desc></g><!-- drawing style --></g><!-- clip1 --></g><!-- layer0 --></g></svg>
