<?xml version="1.0" encoding="UTF-8" standalone="no"?>
<svg
   height="16px"
   viewBox="0 0 16 16"
   width="16px"
   version="1.1"
   id="svg2"
   xmlns="http://www.w3.org/2000/svg"
   xmlns:svg="http://www.w3.org/2000/svg">
  <defs
     id="defs2" />
  <path
     id="path2"
     style="fill:#232323;stroke-width:1.3"
     d="M 1 1.5 A 1 1 0 0 0 0 2.5 A 1 1 0 0 0 1 3.5 A 1 1 0 0 0 2 2.5 A 1 1 0 0 0 1 1.5 z M 1 1.7890625 A 0.71034483 0.71034483 0 0 1 1.7109375 2.5 A 0.71034483 0.71034483 0 0 1 1 3.2109375 A 0.71034483 0.71034483 0 0 1 0.2890625 2.5 A 0.71034483 0.71034483 0 0 1 1 1.7890625 z M 8 2.5 C 5.8388588 2.5 3.8748215 3.078895 2.4199219 4.0488281 C 0.9650222 5.0187612 -2.9605947e-16 6.4166231 0 8 C 0 9.5833769 0.9650222 10.981239 2.4199219 11.951172 C 3.8748215 12.921105 5.8388588 13.5 8 13.5 C 10.161141 13.5 12.125178 12.921105 13.580078 11.951172 C 15.034978 10.981239 16 9.5833769 16 8 C 16 6.4166231 15.034978 5.0187612 13.580078 4.0488281 C 12.125178 3.078895 10.161141 2.5 8 2.5 z M 8 3.5 C 9.9809945 3.5 11.765824 4.0411484 13.025391 4.8808594 C 14.284957 5.7205703 15 6.8219532 15 8 C 15 9.1780468 14.284957 10.27943 13.025391 11.119141 C 11.765824 11.958852 9.9809945 12.5 8 12.5 C 6.0190055 12.5 4.2341758 11.958852 2.9746094 11.119141 C 1.7150429 10.27943 1 9.1780468 1 8 C 1 6.8219532 1.7150429 5.7205703 2.9746094 4.8808594 C 4.2341758 4.0411484 6.0190055 3.5 8 3.5 z M 8 7 A 1 1 0 0 0 7 8 A 1 1 0 0 0 8 9 A 1 1 0 0 0 9 8 A 1 1 0 0 0 8 7 z M 8 7.2890625 A 0.71034483 0.71034483 0 0 1 8.7109375 8 A 0.71034483 0.71034483 0 0 1 8 8.7109375 A 0.71034483 0.71034483 0 0 1 7.2890625 8 A 0.71034483 0.71034483 0 0 1 8 7.2890625 z " />
</svg>
