<?xml version="1.0" encoding="UTF-8" standalone="no"?>
<svg
   height="16px"
   viewBox="0 0 16 16"
   width="16px"
   version="1.1"
   id="svg2"
   xmlns="http://www.w3.org/2000/svg"
   xmlns:svg="http://www.w3.org/2000/svg">
  <defs
     id="defs2" />
  <path
     id="path2"
     style="fill:#232323;stroke-width:1.3"
     d="M 7.1914062 1.171875 A 1 1 0 0 0 6.1914062 2.171875 A 1 1 0 0 0 7.1914062 3.171875 A 1 1 0 0 0 7.4003906 3.1503906 L 12.792969 8.5390625 L 2 8.5390625 A 0.50005 0.50005 0 0 0 1.6464844 9.3925781 L 6.0253906 13.771484 A 1 1 0 0 0 6 14 A 1 1 0 0 0 7 15 A 1 1 0 0 0 8 14 A 1 1 0 0 0 7 13 A 1 1 0 0 0 6.7109375 13.042969 L 3.2070312 9.5390625 L 14 9.5390625 A 0.50005 0.50005 0 0 0 14.353516 8.6855469 L 8.1425781 2.4785156 A 1 1 0 0 0 8.1914062 2.171875 A 1 1 0 0 0 7.1914062 1.171875 z M 7.1914062 1.4609375 A 0.71034483 0.71034483 0 0 1 7.9023438 2.171875 A 0.71034483 0.71034483 0 0 1 7.7246094 2.6425781 A 0.71034483 0.71034483 0 0 1 7.6621094 2.7050781 A 0.71034483 0.71034483 0 0 1 7.1914062 2.8828125 A 0.71034483 0.71034483 0 0 1 6.4804688 2.171875 A 0.71034483 0.71034483 0 0 1 7.1914062 1.4609375 z M 7 13.289062 A 0.71034483 0.71034483 0 0 1 7.7109375 14 A 0.71034483 0.71034483 0 0 1 7 14.710938 A 0.71034483 0.71034483 0 0 1 6.2890625 14 A 0.71034483 0.71034483 0 0 1 7 13.289062 z " />
</svg>
