<?xml version="1.0" encoding="UTF-8" standalone="no"?>
<svg
   height="16px"
   viewBox="0 0 16 16"
   width="16px"
   version="1.1"
   id="svg2"
   xmlns="http://www.w3.org/2000/svg"
   xmlns:svg="http://www.w3.org/2000/svg">
  <defs
     id="defs2" />
  <path
     id="path2"
     style="fill:#232323;stroke-width:1.3"
     d="M 2 1 A 1 1 0 0 0 1 2 A 1 1 0 0 0 2 3 A 1 1 0 0 0 2.8652344 2.5 C 7.2840014 2.516869 9.4940842 3.2561862 10.238281 4.0664062 C 10.614703 4.4762233 10.696337 4.881169 10.591797 5.4199219 C 10.487257 5.9586747 10.149544 6.6091685 9.6425781 7.28125 C 8.6286466 8.6254129 6.9717659 10.048053 5.4902344 11.15625 C 4.7494686 11.710349 4.0518037 12.189384 3.5 12.546875 C 3.0660157 12.828036 2.7043494 13.041471 2.5175781 13.144531 A 1 1 0 0 0 2 13 A 1 1 0 0 0 1 14 A 1 1 0 0 0 2 15 A 1 1 0 0 0 3 14.023438 C 3.2419445 13.892233 3.5879483 13.679554 4.0429688 13.384766 C 4.6132023 13.015335 5.326867 12.526283 6.0878906 11.957031 C 7.6099378 10.818528 9.3191989 9.3705163 10.441406 7.8828125 C 11.00251 7.1389606 11.424161 6.3827097 11.574219 5.609375 C 11.724277 4.8360403 11.554803 4.0222914 10.974609 3.390625 C 9.8272799 2.1415076 7.3880602 1.5139592 2.8652344 1.5 A 1 1 0 0 0 2 1 z M 14 1 A 1 1 0 0 0 13 2 A 1 1 0 0 0 14 3 A 1 1 0 0 0 15 2 A 1 1 0 0 0 14 1 z M 2 1.2890625 A 0.71034483 0.71034483 0 0 1 2.7109375 1.9980469 A 0.71034483 0.71034483 0 0 1 2.7109375 2 A 0.71034483 0.71034483 0 0 1 2.7109375 2.0019531 A 0.71034483 0.71034483 0 0 1 2 2.7109375 A 0.71034483 0.71034483 0 0 1 1.2890625 2 A 0.71034483 0.71034483 0 0 1 2 1.2890625 z M 14 1.2890625 A 0.71034483 0.71034483 0 0 1 14.710938 2 A 0.71034483 0.71034483 0 0 1 14 2.7109375 A 0.71034483 0.71034483 0 0 1 13.289062 2 A 0.71034483 0.71034483 0 0 1 14 1.2890625 z M 2 13.289062 A 0.71034483 0.71034483 0 0 1 2.6132812 13.638672 L 2.6621094 13.742188 A 0.71034483 0.71034483 0 0 1 2.7109375 14 A 0.71034483 0.71034483 0 0 1 2 14.710938 A 0.71034483 0.71034483 0 0 1 1.2890625 14 A 0.71034483 0.71034483 0 0 1 2 13.289062 z " />
</svg>
