<?xml version="1.0" encoding="UTF-8" standalone="no"?>
<!-- Created with Inkscape (http://www.inkscape.org/) -->

<svg
   width="16"
   height="16"
   viewBox="0 0 4.2333333 4.2333333"
   version="1.1"
   id="svg5"
   xmlns="http://www.w3.org/2000/svg"
   xmlns:svg="http://www.w3.org/2000/svg">
  <defs
     id="defs2">
    <clipPath
       clipPathUnits="userSpaceOnUse"
       id="clipPath2873">
      <circle
         style="display:none;fill:none;stroke:#444444;stroke-width:0.0430271;stroke-dasharray:none;stroke-opacity:1"
         id="circle2875"
         cx="0.52916664"
         cy="3.4395833"
         r="0.11384288"
         d="M 0.64300952,3.4395833 A 0.11384288,0.11384288 0 0 1 0.52916664,3.5534262 0.11384288,0.11384288 0 0 1 0.41532376,3.4395833 0.11384288,0.11384288 0 0 1 0.52916664,3.3257404 0.11384288,0.11384288 0 0 1 0.64300952,3.4395833 Z" />
      <path
         id="lpe_path-effect2877"
         style="fill:none;stroke:#444444;stroke-width:0.0430271;stroke-dasharray:none;stroke-opacity:1"
         class="powerclip"
         d="M -4.4708333,-3.9659488 H 6.7812597 V 8.4895833 H -4.4708333 Z M 1.4367595,1.0583333 A 0.11384288,0.11384288 0 0 0 1.3229166,0.9444904 0.11384288,0.11384288 0 0 0 1.2090737,1.0583333 0.11384288,0.11384288 0 0 0 1.3229166,1.1721762 0.11384288,0.11384288 0 0 0 1.4367595,1.0583333 Z" />
    </clipPath>
    <clipPath
       clipPathUnits="userSpaceOnUse"
       id="clipPath2945" />
    <clipPath
       clipPathUnits="userSpaceOnUse"
       id="clipPath2989">
      <path
         id="lpe_path-effect2993"
         style="fill:none;stroke:#444444;stroke-width:0.0430271;stroke-dasharray:none;stroke-opacity:1"
         class="powerclip"
         d="M -4.4707031,-3.9667969 H 6.7813388 V 8.4902344 H -4.4707031 Z M 0.64300952,3.4395833 A 0.11384288,0.11384288 0 0 0 0.52916664,3.3257404 0.11384288,0.11384288 0 0 0 0.41532376,3.4395833 0.11384288,0.11384288 0 0 0 0.52916664,3.5534262 0.11384288,0.11384288 0 0 0 0.64300952,3.4395833 Z" />
    </clipPath>
    <clipPath
       clipPathUnits="userSpaceOnUse"
       id="clipPath3029">
      <path
         id="lpe_path-effect3033"
         style="fill:none;stroke:#444444;stroke-width:0.0430271;stroke-dasharray:none;stroke-opacity:1"
         class="powerclip"
         d="M -4.4707031,-3.9667969 H 6.7813388 V 8.4902344 H -4.4707031 Z M 1.4367595,1.0583333 A 0.11384288,0.11384288 0 0 0 1.3229166,0.9444904 0.11384288,0.11384288 0 0 0 1.2090737,1.0583333 0.11384288,0.11384288 0 0 0 1.3229166,1.1721762 0.11384288,0.11384288 0 0 0 1.4367595,1.0583333 Z" />
    </clipPath>
    <clipPath
       clipPathUnits="userSpaceOnUse"
       id="clipPath3176-6">
      <path
         id="lpe_path-effect3180-2"
         style="fill:none;stroke:#444444;stroke-width:0.0430271;stroke-dasharray:none;stroke-opacity:1"
         class="powerclip"
         d="M -4.4707031,-3.9667969 H 6.7813388 V 8.4902344 H -4.4707031 Z m 5.11384286,7.40625 A 0.11384288,0.11384288 0 0 0 0.52929687,3.3256102 0.11384288,0.11384288 0 0 0 0.41545399,3.4394531 0.11384288,0.11384288 0 0 0 0.52929687,3.553296 0.11384288,0.11384288 0 0 0 0.64313976,3.4394531 Z" />
    </clipPath>
  </defs>
  <g
     id="g3636"
     transform="translate(-0.0093099,0.16480214)">
    <path
       id="path3349"
       style="color:#000000;fill:#444444"
       d="M 3.5780761,1.0934733 C 3.5141698,1.4177294 3.4263757,1.6471945 3.3264119,1.8009237 3.2089284,1.9815954 3.0793492,2.0602691 2.933671,2.091862 2.6423147,2.1550476 2.252364,1.9919669 1.8712036,1.8262451 1.6806235,1.7433842 1.4927438,1.6625294 1.3125814,1.6190226 1.132419,1.575516 0.95001442,1.5688417 0.79478352,1.6582967 0.63955265,1.7477518 0.53333333,1.9219413 0.47438964,2.1874634 0.42294533,2.4192031 0.4048324,2.725851 0.42322998,3.1336588 A 0.21243156,0.21243156 0 0 1 0.53846842,3.0995524 0.21243156,0.21243156 0 0 1 0.63458658,3.12229 C 0.6168836,2.7267605 0.6345533,2.4371621 0.67954508,2.2344889 0.73118865,2.0018515 0.81152229,1.8907853 0.90020344,1.839681 0.98888458,1.7885766 1.1082721,1.7870699 1.2619385,1.824178 1.4156048,1.8612864 1.5951466,1.9370116 1.784904,2.019515 2.1644185,2.1845212 2.5837249,2.3847265 2.9786295,2.2990845 3.1760819,2.2562635 3.3601802,2.1344313 3.5021118,1.9161621 3.6235268,1.7294441 3.7189183,1.4743309 3.7863322,1.1296468 a 0.21243156,0.21243156 0 0 1 -0.072864,0.013436 0.21243156,0.21243156 0 0 1 -0.1353923,-0.049609 z" />
    <path
       style="color:#000000;fill:#444444"
       d="m 0.5390625,3.046875 c -0.14550762,0 -0.26562503,0.1201174 -0.265625,0.265625 4e-8,0.1455076 0.12011743,0.2636719 0.265625,0.2636719 0.14550757,0 0.26367183,-0.1181643 0.26367188,-0.2636719 2e-8,-0.1455076 -0.11816426,-0.265625 -0.26367188,-0.265625 z m 0,0.1054688 c 0.0891376,-1e-7 0.16015627,0.071019 0.16015625,0.1601562 -3e-8,0.089138 -0.0710187,0.1601563 -0.16015625,0.1601563 -0.0891376,0 -0.16015622,-0.071019 -0.16015625,-0.1601563 -2e-8,-0.089138 0.0710187,-0.1601563 0.16015625,-0.1601562 z"
       id="path1138-6-7" />
    <path
       style="color:#000000;fill:#444444"
       d="m 3.7128906,0.66601562 c -0.1455076,-2e-8 -0.2636719,0.11816426 -0.2636718,0.26367188 -1e-7,0.1455076 0.1181642,0.265625 0.2636718,0.265625 0.1455076,0 0.265625,-0.1201174 0.265625,-0.265625 0,-0.14550762 -0.1201174,-0.2636719 -0.265625,-0.26367188 z m 0,0.10351563 c 0.089138,-2e-8 0.1601563,0.0710186 0.1601563,0.16015625 0,0.0891376 -0.071019,0.1621094 -0.1601563,0.1621094 -0.089138,0 -0.1601562,-0.072972 -0.1601562,-0.1621094 0,-0.0891376 0.071019,-0.16015627 0.1601562,-0.16015625 z"
       id="path1138-6-7-0" />
    <path
       id="path1138-6-2-1"
       style="fill:#444444;stroke-width:0.104304"
       d="M 0.75077547,0.5399887 A 0.21243156,0.21243156 0 0 1 0.53834391,0.75242026 0.21243156,0.21243156 0 0 1 0.32591234,0.5399887 0.21243156,0.21243156 0 0 1 0.53834391,0.32755713 0.21243156,0.21243156 0 0 1 0.75077547,0.5399887 Z" />
    <path
       id="path1138-6-2-1-2"
       style="fill:#444444;stroke-width:0.104304"
       d="M 3.0050901,3.3188579 A 0.21243156,0.21243156 0 0 1 2.7926586,3.5312895 0.21243156,0.21243156 0 0 1 2.580227,3.3188579 0.21243156,0.21243156 0 0 1 2.7926586,3.1064263 0.21243156,0.21243156 0 0 1 3.0050901,3.3188579 Z" />
  </g>
</svg>
