<?xml version="1.0" encoding="UTF-8" standalone="no"?>
<!-- Created with Inkscape (http://www.inkscape.org/) -->

<svg
   width="16"
   height="16"
   viewBox="0 0 4.2333333 4.2333333"
   version="1.1"
   id="svg5"
   xmlns="http://www.w3.org/2000/svg"
   xmlns:svg="http://www.w3.org/2000/svg">
  <defs
     id="defs2">
    <clipPath
       clipPathUnits="userSpaceOnUse"
       id="clipPath2873">
      <circle
         style="display:none;fill:none;stroke:#444444;stroke-width:0.0430271;stroke-dasharray:none;stroke-opacity:1"
         id="circle2875"
         cx="0.52916664"
         cy="3.4395833"
         r="0.11384288"
         d="M 0.64300952,3.4395833 A 0.11384288,0.11384288 0 0 1 0.52916664,3.5534262 0.11384288,0.11384288 0 0 1 0.41532376,3.4395833 0.11384288,0.11384288 0 0 1 0.52916664,3.3257404 0.11384288,0.11384288 0 0 1 0.64300952,3.4395833 Z" />
      <path
         id="lpe_path-effect2877"
         style="fill:none;stroke:#444444;stroke-width:0.0430271;stroke-dasharray:none;stroke-opacity:1"
         class="powerclip"
         d="M -4.4708333,-3.9659488 H 6.7812597 V 8.4895833 H -4.4708333 Z M 1.4367595,1.0583333 A 0.11384288,0.11384288 0 0 0 1.3229166,0.9444904 0.11384288,0.11384288 0 0 0 1.2090737,1.0583333 0.11384288,0.11384288 0 0 0 1.3229166,1.1721762 0.11384288,0.11384288 0 0 0 1.4367595,1.0583333 Z" />
    </clipPath>
    <clipPath
       clipPathUnits="userSpaceOnUse"
       id="clipPath2945" />
    <clipPath
       clipPathUnits="userSpaceOnUse"
       id="clipPath2989">
      <path
         id="lpe_path-effect2993"
         style="fill:none;stroke:#444444;stroke-width:0.0430271;stroke-dasharray:none;stroke-opacity:1"
         class="powerclip"
         d="M -4.4707031,-3.9667969 H 6.7813388 V 8.4902344 H -4.4707031 Z M 0.64300952,3.4395833 A 0.11384288,0.11384288 0 0 0 0.52916664,3.3257404 0.11384288,0.11384288 0 0 0 0.41532376,3.4395833 0.11384288,0.11384288 0 0 0 0.52916664,3.5534262 0.11384288,0.11384288 0 0 0 0.64300952,3.4395833 Z" />
    </clipPath>
    <clipPath
       clipPathUnits="userSpaceOnUse"
       id="clipPath3029">
      <path
         id="lpe_path-effect3033"
         style="fill:none;stroke:#444444;stroke-width:0.0430271;stroke-dasharray:none;stroke-opacity:1"
         class="powerclip"
         d="M -4.4707031,-3.9667969 H 6.7813388 V 8.4902344 H -4.4707031 Z M 1.4367595,1.0583333 A 0.11384288,0.11384288 0 0 0 1.3229166,0.9444904 0.11384288,0.11384288 0 0 0 1.2090737,1.0583333 0.11384288,0.11384288 0 0 0 1.3229166,1.1721762 0.11384288,0.11384288 0 0 0 1.4367595,1.0583333 Z" />
    </clipPath>
    <clipPath
       clipPathUnits="userSpaceOnUse"
       id="clipPath3176-6">
      <path
         id="lpe_path-effect3180-2"
         style="fill:none;stroke:#444444;stroke-width:0.0430271;stroke-dasharray:none;stroke-opacity:1"
         class="powerclip"
         d="M -4.4707031,-3.9667969 H 6.7813388 V 8.4902344 H -4.4707031 Z m 5.11384286,7.40625 A 0.11384288,0.11384288 0 0 0 0.52929687,3.3256102 0.11384288,0.11384288 0 0 0 0.41545399,3.4394531 0.11384288,0.11384288 0 0 0 0.52929687,3.553296 0.11384288,0.11384288 0 0 0 0.64313976,3.4394531 Z" />
    </clipPath>
  </defs>
  <g
     id="g3193"
     transform="translate(-0.3709293,0.10592448)">
    <path
       id="path3043"
       style="color:#000000;fill:#444444"
       d="M 1.7864543,0.60358072 A 0.21243156,0.21243156 0 0 1 1.6221232,0.73845621 C 1.7876366,0.94955808 2.0916148,1.3739608 2.2479248,1.8205607 2.3586443,2.1369021 2.3933066,2.4546793 2.2732462,2.71663 2.1660386,2.9505374 1.9337335,3.15837 1.4753621,3.2912719 a 0.21243156,0.21243156 0 0 1 0.059945,0.1483114 0.21243156,0.21243156 0 0 1 -0.00879,0.056844 C 2.0303893,3.3505028 2.3278632,3.1056797 2.4649658,2.806547 2.6177557,2.473187 2.5681861,2.0948788 2.4473958,1.749764 2.2772721,1.263696 1.9596904,0.82231938 1.7864543,0.60358072 Z" />
    <path
       id="path1138-6-6"
       style="fill:#444444;stroke-width:0.104304"
       d="M 3.9165982,3.1228483 A 0.21243156,0.21243156 0 0 1 3.7041667,3.3352798 0.21243156,0.21243156 0 0 1 3.4917351,3.1228483 0.21243156,0.21243156 0 0 1 3.7041667,2.9104167 0.21243156,0.21243156 0 0 1 3.9165982,3.1228483 Z" />
    <path
       style="color:#000000;fill:#444444"
       d="m 1.3222656,3.1757813 c -0.1455076,0 -0.2636718,0.1181642 -0.2636719,0.2636718 0,0.1455076 0.1181643,0.265625 0.2636719,0.265625 0.1455076,0 0.265625,-0.1201174 0.265625,-0.265625 0,-0.1455076 -0.1201174,-0.2636718 -0.265625,-0.2636718 z m 0,0.1035156 c 0.089138,0 0.1601563,0.071019 0.1601563,0.1601562 0,0.089138 -0.071019,0.1601563 -0.1601563,0.1601563 -0.089138,0 -0.1601562,-0.071019 -0.1601562,-0.1601563 0,-0.089138 0.071019,-0.1601562 0.1601562,-0.1601562 z"
       id="path1138-6-3" />
    <path
       style="color:#000000;fill:#444444"
       d="m 1.5878906,0.31640625 c -0.1455076,0 -0.265625,0.1201174 -0.265625,0.265625 0,0.1455076 0.1201174,0.26367188 0.265625,0.26367188 0.1455076,0 0.2636719,-0.11816428 0.2636719,-0.26367188 0,-0.1455076 -0.1181643,-0.265625 -0.2636719,-0.265625 z m 0,0.10546875 c 0.089138,0 0.1601563,0.0710187 0.1601563,0.16015625 0,0.0891376 -0.071019,0.16015625 -0.1601563,0.16015625 -0.089138,0 -0.1601562,-0.0710187 -0.1601562,-0.16015625 0,-0.0891376 0.071019,-0.16015625 0.1601562,-0.16015625 z"
       id="path1138-6-3-5" />
  </g>
</svg>
