<?xml version="1.0" encoding="UTF-8" standalone="no"?>
<svg
   height="16px"
   viewBox="0 0 16 16"
   width="16px"
   version="1.1"
   id="svg2"
   xmlns="http://www.w3.org/2000/svg"
   xmlns:svg="http://www.w3.org/2000/svg">
  <defs
     id="defs2" />
  <path
     id="path2"
     style="fill:#232323;stroke-width:1.3"
     d="M 14 1 A 1 1 0 0 0 13 2 A 1 1 0 0 0 13.029297 2.2402344 L 2.2675781 13.035156 L 2.265625 13.035156 A 1 1 0 0 0 2 13 A 1 1 0 0 0 1 14 A 1 1 0 0 0 2 15 A 1 1 0 0 0 3 14 A 1 1 0 0 0 2.96875 13.748047 L 13.722656 2.9609375 A 1 1 0 0 0 14 3 A 1 1 0 0 0 15 2 A 1 1 0 0 0 14 1 z M 14 1.2890625 A 0.71034483 0.71034483 0 0 1 14.710938 2 A 0.71034483 0.71034483 0 0 1 14 2.7109375 A 0.71034483 0.71034483 0 0 1 13.289062 2 A 0.71034483 0.71034483 0 0 1 14 1.2890625 z M 2 13.289062 A 0.71034483 0.71034483 0 0 1 2.5019531 13.498047 A 0.71034483 0.71034483 0 0 1 2.7109375 14 A 0.71034483 0.71034483 0 0 1 2 14.710938 A 0.71034483 0.71034483 0 0 1 1.2890625 14 A 0.71034483 0.71034483 0 0 1 2 13.289062 z " />
</svg>
