<?xml version="1.0" encoding="UTF-8" standalone="no"?>
<svg
   height="16px"
   viewBox="0 0 16 16"
   width="16px"
   version="1.1"
   id="svg2"
   xmlns="http://www.w3.org/2000/svg"
   xmlns:svg="http://www.w3.org/2000/svg">
  <defs
     id="defs2" />
  <path
     id="path2"
     style="fill:#232323;stroke-width:1.3"
     d="m 1.4921875,1.5 a 1,1 0 0 0 -1,1 1,1 0 0 0 0.5,0.8652344 V 8 13 h 7 5.6347655 a 1,1 0 0 0 0.865234,0.5 1,1 0 0 0 1,-1 1,1 0 0 0 -0.5,-0.865234 V 8 2 H 7.9921875 2.3574219 A 1,1 0 0 0 1.4921875,1.5 Z m 0,0.2890625 A 0.71034483,0.71034483 0 0 1 2.203125,2.5 0.71034483,0.71034483 0 0 1 1.4921875,3.2109375 0.71034483,0.71034483 0 0 1 0.78125,2.5 0.71034483,0.71034483 0 0 1 1.4921875,1.7890625 Z M 2.3574219,3 H 7.6425781 V 3.9003906 H 8.3417969 V 3 h 5.6503911 v 5 3.634766 A 1,1 0 0 0 13.626954,12 H 8.3417969 V 10.900391 H 7.6425781 V 12 H 1.9921875 V 8 7.8496094 H 2.8925781 V 7.1503906 H 1.9921875 V 3.3652344 A 1,1 0 0 0 2.3574219,3 Z M 7.6425781,4.5996094 V 6 H 8.3417969 V 4.5996094 Z M 7.9921875,6.5 A 1,1 0 0 0 7.0390625,7.203125 1,1 0 0 1 7.0546875,7.150391 H 5.6914063 V 7.8496094 H 7.0546875 A 1,1 0 0 1 7.0390625,7.796875 1,1 0 0 0 7.9921875,8.5 1,1 0 0 0 8.9453125,7.796875 1,1 0 0 1 8.9296875,7.8496094 H 9.1914063 V 7.1503906 H 8.9296875 A 1,1 0 0 1 8.9453125,7.203125 1,1 0 0 0 7.9921875,6.5 Z m 0,0.2890625 A 0.71034483,0.71034483 0 0 1 8.703125,7.5 0.71034483,0.71034483 0 0 1 7.9921875,8.2109375 0.71034483,0.71034483 0 0 1 7.28125,7.5 0.71034483,0.71034483 0 0 1 7.9921875,6.7890625 Z M 3.5917969,7.1503906 V 7.8496094 H 4.9921875 V 7.1503906 Z m 6.300781,0 V 7.8496094 H 11.292969 V 7.1503906 Z m 2.0996101,0 v 0.6992188 h 1.40039 V 7.1503906 Z M 7.0234375,7.2519531 a 1,1 0 0 0 -0.011719,0.052734 1,1 0 0 1 0.011719,-0.052734 z m 1.9375,0 a 1,1 0 0 1 0.011719,0.052734 1,1 0 0 0 -0.011719,-0.052734 z M 7.0117187,7.6953125 a 1,1 0 0 0 0.011719,0.052734 1,1 0 0 1 -0.011719,-0.052734 z m 1.9609376,0 a 1,1 0 0 1 -0.011719,0.052734 1,1 0 0 0 0.011719,-0.052734 z M 7.6425781,8.8007812 V 10.199219 H 8.3417969 V 8.8007812 Z M 14.492188,11.789062 A 0.71034483,0.71034483 0 0 1 15.203126,12.5 0.71034483,0.71034483 0 0 1 14.492188,13.210938 0.71034483,0.71034483 0 0 1 13.78125,12.5 0.71034483,0.71034483 0 0 1 14.492188,11.789062 Z" />
</svg>
