<?xml version="1.0" encoding="UTF-8" standalone="no"?>
<svg
   height="16px"
   viewBox="0 0 16 16"
   width="16px"
   version="1.1"
   id="svg2"
   xmlns="http://www.w3.org/2000/svg"
   xmlns:svg="http://www.w3.org/2000/svg">
  <defs
     id="defs2" />
  <path
     id="path2"
     style="fill:#232323;stroke-width:1.3"
     d="M 8 1 A 1 1 0 0 0 7 2 A 1 1 0 0 0 7.5 2.8652344 L 7.5 7.5 L 2 7.5 L 2 8.5 L 7.5 8.5 L 7.5 14 L 8.5 14 L 8.5 8.5 L 13.134766 8.5 A 1 1 0 0 0 14 9 A 1 1 0 0 0 15 8 A 1 1 0 0 0 14 7 A 1 1 0 0 0 13.134766 7.5 L 8.5 7.5 L 8.5 2.8652344 A 1 1 0 0 0 9 2 A 1 1 0 0 0 8 1 z M 8 1.2890625 A 0.71034483 0.71034483 0 0 1 8.7109375 2 A 0.71034483 0.71034483 0 0 1 8.0019531 2.7109375 L 7.9980469 2.7109375 A 0.71034483 0.71034483 0 0 1 7.2890625 2 A 0.71034483 0.71034483 0 0 1 8 1.2890625 z M 14 7.2890625 A 0.71034483 0.71034483 0 0 1 14.710938 8 A 0.71034483 0.71034483 0 0 1 14 8.7109375 A 0.71034483 0.71034483 0 0 1 13.289062 8 L 13.289062 7.9980469 A 0.71034483 0.71034483 0 0 1 14 7.2890625 z " />
</svg>
