<?xml version="1.0" encoding="UTF-8" standalone="no"?>
<svg
   height="16px"
   viewBox="0 0 16 16"
   width="16px"
   version="1.1"
   id="svg2"
   xmlns="http://www.w3.org/2000/svg"
   xmlns:svg="http://www.w3.org/2000/svg">
  <defs
     id="defs2" />
  <path
     id="path2"
     style="fill:#232323;stroke-width:1.3"
     d="M 14 1 A 1 1 0 0 0 13 2 L 2 2 L 8 8 L 2 14 L 13 14 A 1 1 0 0 0 14 15 A 1 1 0 0 0 15 14 A 1 1 0 0 0 14 13 L 14 3 A 1 1 0 0 0 15 2 A 1 1 0 0 0 14 1 z M 14 1.2890625 A 0.71034483 0.71034483 0 0 1 14.710938 2 A 0.71034483 0.71034483 0 0 1 14 2.7109375 A 0.71034483 0.71034483 0 0 1 13.289062 2 A 0.71034483 0.71034483 0 0 1 14 1.2890625 z M 14 13.289062 A 0.71034483 0.71034483 0 0 1 14.710938 14 A 0.71034483 0.71034483 0 0 1 14 14.710938 A 0.71034483 0.71034483 0 0 1 13.289062 14 A 0.71034483 0.71034483 0 0 1 14 13.289062 z " />
</svg>
