<?xml version="1.0" encoding="UTF-8" standalone="no"?>
<svg
   height="16px"
   viewBox="0 0 16 16"
   width="16px"
   version="1.1"
   id="svg2"
   xmlns="http://www.w3.org/2000/svg"
   xmlns:svg="http://www.w3.org/2000/svg">
  <defs
     id="defs2" />
  <path
     id="path2"
     style="fill:#232323;stroke-width:1.3"
     d="M 2 1 A 1 1 0 0 0 1 2 A 1 1 0 0 0 1.5 2.8652344 L 1.5 14.5 L 13.134766 14.5 A 1 1 0 0 0 14 15 A 1 1 0 0 0 15 14 A 1 1 0 0 0 14.5 13.134766 L 14.5 1.5 L 2.8652344 1.5 A 1 1 0 0 0 2 1 z M 2 1.2890625 A 0.71034483 0.71034483 0 0 1 2.7109375 1.9980469 A 0.71034483 0.71034483 0 0 1 2.7109375 2 A 0.71034483 0.71034483 0 0 1 2.7109375 2.0019531 A 0.71034483 0.71034483 0 0 1 2.0019531 2.7109375 L 1.9980469 2.7109375 A 0.71034483 0.71034483 0 0 1 1.2890625 2 A 0.71034483 0.71034483 0 0 1 2 1.2890625 z M 2.8652344 2.5 L 13.5 2.5 L 13.5 13.134766 A 1 1 0 0 0 13.134766 13.5 L 2.5 13.5 L 2.5 2.8652344 A 1 1 0 0 0 2.8652344 2.5 z M 13.998047 13.289062 L 14 13.289062 L 14.001953 13.289062 A 0.71034483 0.71034483 0 0 1 14.710938 14 A 0.71034483 0.71034483 0 0 1 14 14.710938 A 0.71034483 0.71034483 0 0 1 13.289062 14 L 13.289062 13.998047 A 0.71034483 0.71034483 0 0 1 13.998047 13.289062 z " />
</svg>
