<?xml version="1.0" encoding="UTF-8" standalone="no"?>
<svg
   height="16px"
   viewBox="0 0 16 16"
   width="16px"
   version="1.1"
   id="svg2"
   xmlns="http://www.w3.org/2000/svg"
   xmlns:svg="http://www.w3.org/2000/svg">
  <defs
     id="defs2" />
  <path
     id="path2"
     style="fill:#232323;stroke-width:1.3"
     d="M 2 1 A 1 1 0 0 0 1 2 A 1 1 0 0 0 2 3 A 1 1 0 0 0 2.8652344 2.5039062 C 3.47446 2.519834 5.7702989 2.6180122 7.4355469 3.2207031 C 8.4033782 3.5709833 9.0706368 4.0642751 9.2207031 4.6542969 C 9.3707694 5.2443187 9.0910498 6.2019189 7.6464844 7.6464844 C 6.0910498 9.2019189 5.5314139 10.494319 5.8105469 11.591797 C 6.0896798 12.689275 7.120175 13.320983 8.2246094 13.720703 C 10.126852 14.409168 12.508184 14.488928 13.132812 14.498047 A 1 1 0 0 0 14 15 A 1 1 0 0 0 15 14 A 1 1 0 0 0 14 13 A 1 1 0 0 0 13.134766 13.496094 C 12.525539 13.480167 10.229701 13.38199 8.5644531 12.779297 C 7.5966217 12.429017 6.9293632 11.935725 6.7792969 11.345703 C 6.6292305 10.755681 6.9089502 9.7980811 8.3535156 8.3535156 C 9.9089502 6.7980811 10.468586 5.5056813 10.189453 4.4082031 C 9.9103203 3.3107249 8.8798249 2.6790167 7.7753906 2.2792969 C 5.8731482 1.5908321 3.4918149 1.5110723 2.8671875 1.5019531 A 1 1 0 0 0 2 1 z M 14 1 A 1 1 0 0 0 13 2 A 1 1 0 0 0 14 3 A 1 1 0 0 0 15 2 A 1 1 0 0 0 14 1 z M 2 1.2890625 A 0.71034483 0.71034483 0 0 1 2.7109375 1.9980469 A 0.71034483 0.71034483 0 0 1 2.7109375 2 A 0.71034483 0.71034483 0 0 1 2.7109375 2.0019531 A 0.71034483 0.71034483 0 0 1 2 2.7109375 A 0.71034483 0.71034483 0 0 1 1.2890625 2 A 0.71034483 0.71034483 0 0 1 2 1.2890625 z M 14 1.2890625 A 0.71034483 0.71034483 0 0 1 14.710938 2 A 0.71034483 0.71034483 0 0 1 14 2.7109375 A 0.71034483 0.71034483 0 0 1 13.289062 2 A 0.71034483 0.71034483 0 0 1 14 1.2890625 z M 1.8828125 13 A 1 1 0 0 0 0.8828125 14 A 1 1 0 0 0 1.8828125 15 A 1 1 0 0 0 2.8828125 14 A 1 1 0 0 0 1.8828125 13 z M 1.8828125 13.289062 A 0.71034483 0.71034483 0 0 1 2.59375 14 A 0.71034483 0.71034483 0 0 1 1.8828125 14.710938 A 0.71034483 0.71034483 0 0 1 1.171875 14 A 0.71034483 0.71034483 0 0 1 1.8828125 13.289062 z M 14 13.289062 A 0.71034483 0.71034483 0 0 1 14.710938 14 A 0.71034483 0.71034483 0 0 1 14 14.710938 A 0.71034483 0.71034483 0 0 1 13.289062 14 L 13.289062 13.998047 A 0.71034483 0.71034483 0 0 1 14 13.289062 z " />
</svg>
