<?xml version="1.0" encoding="UTF-8" standalone="no"?>
<!-- Created with Inkscape (http://www.inkscape.org/) -->

<svg
   width="16"
   height="16"
   viewBox="0 0 4.2333333 4.2333333"
   version="1.1"
   id="svg5"
   xmlns="http://www.w3.org/2000/svg"
   xmlns:svg="http://www.w3.org/2000/svg">
  <defs
     id="defs2" />
  <g
     id="layer1"
     style="fill:#333333;fill-opacity:1">
    <g
       id="g15240"
       transform="matrix(0.40916958,-0.32228467,0.32228467,0.40916958,-1.2624411,2.1969932)"
       style="fill:#333333;fill-opacity:1">
      <path
         style="color:#000000;fill:#333333;stroke-linecap:round;-inkscape-stroke:none;fill-opacity:1"
         d="m 4.65625,-0.09960937 c -0.1709336,0 -0.3105469,0.13961363 -0.3105469,0.31054687 V 6.8730469 H 6.2382812 V 0.2109375 c 10e-8,-0.17093342 -0.1415665,-0.31054687 -0.3125,-0.31054687 z m 0,0.19921874 h 1.2695312 c 0.063593,0 0.1132813,0.04773512 0.1132813,0.11132813 V 6.6738281 H 4.5449219 V 0.2109375 c 0,-0.0635931 0.047735,-0.11132812 0.1113281,-0.11132813 z"
         id="rect881" />
      <g
         id="rect4600-7"
         transform="scale(1,-1)"
         style="fill:#333333;fill-opacity:1">
        <path
           style="color:#000000;fill:#333333;stroke-width:0.20968;stroke-linecap:round;-inkscape-stroke:none;fill-opacity:1"
           d="m 5.0652294,-6.0057421 h 0.4528735 c 0.120431,0 0.2173844,0.098972 0.2173844,0.2219104 v 1.6643283 c 0,0.1229383 -0.096953,0.2219104 -0.2173844,0.2219104 H 5.0652294 c -0.1204309,0 -0.2173843,-0.098972 -0.2173843,-0.2219104 v -1.6643283 c 0,-0.1229383 0.096953,-0.2219104 0.2173843,-0.2219104 z"
           id="path15213" />
        <path
           style="color:#000000;fill:#333333;stroke-linecap:round;-inkscape-stroke:none;fill-opacity:1"
           d="m 5.0644531,-6.1113281 c -0.1778704,0 -0.3222656,0.1500668 -0.3222656,0.328125 v 1.6640625 c 0,0.1780585 0.1443955,0.3261718 0.3222656,0.3261718 h 0.453125 c 0.1778705,0 0.3222656,-0.1481136 0.3222656,-0.3261718 v -1.6640625 c 0,-0.1780585 -0.1443954,-0.328125 -0.3222656,-0.328125 z m 0,0.2109375 h 0.453125 c 0.062992,0 0.1132813,0.049369 0.1132813,0.1171875 v 1.6640625 c 0,0.067818 -0.050289,0.1171875 -0.1132813,0.1171875 h -0.453125 c -0.062991,0 -0.1113281,-0.04937 -0.1113281,-0.1171875 v -1.6640625 c 0,-0.067818 0.048336,-0.1171875 0.1113281,-0.1171875 z"
           id="path15215" />
      </g>
      <path
         style="color:#000000;fill:#333333;stroke-linecap:round;-inkscape-stroke:none;fill-opacity:1"
         d="m 5.1816406,-3.7070313 c -0.076917,0 -0.1386719,0.065579 -0.1386719,0.1425782 v 0.71875 c 10e-8,0.076999 0.061754,0.1425781 0.1386719,0.1425781 h 0.1972656 c 0.076918,0 0.1386719,-0.065579 0.1386719,-0.1425781 v -0.71875 c 0,-0.076999 -0.061754,-0.1425782 -0.1386719,-0.1425782 z m 0,0.091797 h 0.1972656 c 0.02724,0 0.048828,0.021454 0.048828,0.050781 v 0.71875 c 0,0.029327 -0.021588,0.050781 -0.048828,0.050781 H 5.1816406 c -0.02724,0 -0.046875,-0.021454 -0.046875,-0.050781 v -0.71875 c 0,-0.029327 0.019635,-0.050781 0.046875,-0.050781 z"
         id="rect4600-7-5"
         transform="scale(1,-1)" />
      <path
         style="color:#000000;fill:#333333;-inkscape-stroke:none;fill-opacity:1"
         d="m 4.3457031,6.7734375 c 0,0.2119311 2.071e-4,0.4498685 0.1503906,0.75 0.1501647,0.3000936 0.4348074,0.6533723 0.7167969,1.0058594 l 0.078125,0.097656 0.078125,-0.097656 C 5.6513368,8.1765515 5.9358713,7.8234211 6.0859375,7.5234375 6.2360153,7.2234306 6.2382812,6.9853686 6.2382812,6.7734375 H 6.0390625 c 0,0.2119311 0.00131,0.3959473 -0.1308594,0.6601562 C 5.7909009,7.6680818 5.5393366,7.9828486 5.2910156,8.2949219 5.0428728,7.9830699 4.79317,7.6681871 4.6757812,7.4335937 4.5435049,7.1692484 4.5449219,6.9853686 4.5449219,6.7734375 Z"
         id="path7194" />
      <path
         style="color:#000000;fill:#333333;stroke-linecap:round;-inkscape-stroke:none;fill-opacity:1"
         d="M 4.953125,7.6054687 A 0.075,0.075 0 0 0 4.939453,7.7089844 l 0.2929688,0.3808594 a 0.075,0.075 0 0 0 0.1054687,0.013672 0.075,0.075 0 0 0 0.013672,-0.1054687 L 5.0585937,7.6191406 A 0.075,0.075 0 0 0 4.953125,7.6054687 Z"
         id="path12826" />
    </g>
  </g>
</svg>
