<?xml version="1.0" encoding="UTF-8" standalone="no"?>
<!-- Created with Inkscape (http://www.inkscape.org/) -->

<svg
   width="16"
   height="16"
   viewBox="0 0 4.2333333 4.2333333"
   version="1.1"
   id="svg5"
   xmlns="http://www.w3.org/2000/svg"
   xmlns:svg="http://www.w3.org/2000/svg">
  <defs
     id="defs2" />
  <g
     id="layer1"
     style="fill:#333333;fill-opacity:1">
    <g
       id="g15240"
       transform="matrix(0.40916958,-0.32228467,0.32228467,0.40916958,-1.2624411,2.1969932)"
       style="fill:#333333;fill-opacity:1">
      <path
         style="color:#000000;fill:#333333;stroke-linecap:round;-inkscape-stroke:none;fill-opacity:1"
         d="m 4.65625,-0.09960937 c -0.1709336,0 -0.3105469,0.13961363 -0.3105469,0.31054687 V 6.8730469 H 6.2382812 V 0.2109375 c 10e-8,-0.17093342 -0.1415665,-0.31054687 -0.3125,-0.31054687 z m 0,0.19921874 h 1.2695312 c 0.063593,0 0.1132813,0.04773512 0.1132813,0.11132813 V 6.6738281 H 4.5449219 V 0.2109375 c 0,-0.0635931 0.047735,-0.11132812 0.1113281,-0.11132813 z"
         id="rect881" />
      <path
         style="color:#000000;fill:#333333;-inkscape-stroke:none;fill-opacity:1"
         d="m 4.3457031,6.7734375 c 0,0.2119311 2.071e-4,0.4498685 0.1503906,0.75 0.1501647,0.3000936 0.4348074,0.6533723 0.7167969,1.0058594 l 0.078125,0.097656 0.078125,-0.097656 C 5.6513368,8.1765515 5.9358713,7.8234211 6.0859375,7.5234375 6.2360153,7.2234306 6.2382812,6.9853686 6.2382812,6.7734375 H 6.0390625 c 0,0.2119311 0.00131,0.3959473 -0.1308594,0.6601562 C 5.7909009,7.6680818 5.5393366,7.9828486 5.2910156,8.2949219 5.0428728,7.9830699 4.79317,7.6681871 4.6757812,7.4335937 4.5435049,7.1692484 4.5449219,6.9853686 4.5449219,6.7734375 Z"
         id="path7194" />
      <path
         style="fill:#333333;fill-opacity:1;stroke-width:0.00635035"
         d="M 5.2749202,8.4137128 C 5.1957389,8.31556 4.9250711,7.9628853 4.8640114,7.8783104 4.5747459,7.4776391 4.4726134,7.2339203 4.4609457,6.9164759 c -0.00255,-0.069433 -0.00224,-0.07103 0.01403,-0.072514 0.018958,-0.00173 1.6441139,-0.00104 1.6572849,7.022e-4 0.00536,7.134e-4 0.00754,0.025297 0.0058,0.065724 C 6.128037,7.1426104 6.0707947,7.3383794 5.9510931,7.5497863 5.8645598,7.7026099 5.7915268,7.8058469 5.5408851,8.1296048 5.3082112,8.4301143 5.3005627,8.4394533 5.2919649,8.4317724 c -0.00488,-0.00436 -0.012528,-0.012502 -0.017057,-0.018045 z"
         id="path1" />
    </g>
  </g>
</svg>
