<?xml version="1.0" encoding="UTF-8" standalone="no"?>
<!-- Created with Inkscape (http://www.inkscape.org/) -->

<svg
   width="16"
   height="16"
   viewBox="0 0 4.2333333 4.2333333"
   version="1.1"
   id="svg5"
   xmlns="http://www.w3.org/2000/svg"
   xmlns:svg="http://www.w3.org/2000/svg">
  <defs
     id="defs2" />
  <g
     id="g245"
     transform="matrix(0.50638424,0,0,0.50638424,-0.01041935,-0.02702654)"
     style="fill:#333333;fill-opacity:1">
    <path
       style="color:#000000;fill:#333333;stroke-linecap:round;fill-opacity:1"
       d="M 1.3418908,1.428184 C 1.2076093,1.5339516 1.1843202,1.7300165 1.2900875,1.8642977 L 5.412361,7.0978972 6.8991267,5.926838 2.7768532,0.69323851 C 2.6710859,0.5589571 2.4734866,0.53687631 2.3392052,0.6426438 Z M 1.4651602,1.5846857 2.4624746,0.79914545 c 0.049957,-0.0393491 0.1185279,-0.0325948 0.157877,0.0173624 L 6.6193556,5.8936056 5.4455932,6.8181261 1.4465892,1.7410283 C 1.4072401,1.691071 1.4152029,1.6240348 1.4651602,1.5846857 Z"
       id="path4171" />
    <path
       style="color:#000000;fill:#333333;fill-opacity:1"
       d="m 5.3507263,7.0196463 c 0.1311353,0.1664882 0.2785251,0.3532782 0.5822163,0.4961264 0.3036531,0.1428301 0.745858,0.2442311 1.1854887,0.3466519 l 0.1217992,0.028375 9.472e-4,-0.1250572 c 0.00342,-0.4517212 0.00844,-0.905192 -0.05929,-1.2337078 C 7.1141514,6.2034934 6.9686273,6.0150753 6.837492,5.8485871 L 6.6809903,5.9718565 C 6.8121257,6.1383447 6.9270174,6.282093 6.9866711,6.5714311 7.039614,6.8282219 7.0367572,7.2311543 7.0347817,7.629964 6.6468837,7.5385221 6.2558848,7.4456646 6.0185089,7.3340094 5.7510283,7.2081936 5.6383633,7.0628651 5.5072279,6.8963769 Z"
       id="path4168" />
    <path
       style="color:#000000;fill:#333333;stroke-linecap:round;fill-opacity:1"
       d="m 6.3427338,7.29742 a 0.075,0.075 0 0 0 0.053311,0.089779 l 0.4658116,0.1179158 a 0.075,0.075 0 0 0 0.091314,-0.05452 0.075,0.075 0 0 0 -0.05452,-0.091314 L 6.4340473,7.2429001 a 0.075,0.075 0 0 0 -0.091313,0.05452 z"
       id="path4165" />
    <g
       fill="#2e3436"
       id="g1315"
       transform="matrix(0.26458333,0,0,0.26458333,0.89360234,2.6375144)"
       style="fill:#333333;fill-opacity:1">
      <path
         d="M 10.15625,1 C 9.964844,1.011719 9.777344,1.121094 9.589844,1.304688 L 1,9.738281 3.320312,12.015625 H 8.941406 L 14.757812,6.304688 C 15.085938,5.984375 15.0625,5.503906 14.765625,5.214844 L 10.769531,1.289062 C 10.550781,1.078125 10.351562,0.988281 10.15625,1 Z M 6.195312,6.628906 8.960938,9.199219 c 0.210937,0.125 0.199218,0.578125 0.035156,0.746093 L 8,11 H 3.75 L 2.472656,9.742188 5.539062,6.664062 c 0.1875,-0.1875 0.5,-0.191406 0.65625,-0.035156 z m 0,0"
         id="path4162"
         style="fill:#333333;fill-opacity:1" />
      <path
         d="m 4,13 h 11 v 1 H 4 Z m 0,0"
         id="path4159"
         style="fill:#333333;fill-opacity:1" />
    </g>
  </g>
</svg>
