<?xml version="1.0" encoding="UTF-8"?>
<svg xmlns="http://www.w3.org/2000/svg" height="16px" viewBox="0 0 16 16" width="16px"><path d="m 3 5 h 8 c 0.550781 0 1 -0.449219 1 -1 s -0.449219 -1 -1 -1 h -8 c -0.550781 0 -1 0.449219 -1 1 s 0.449219 1 1 1 z m 0 0"/><path d="m 3 9 h 10 c 0.550781 0 1 -0.449219 1 -1 s -0.449219 -1 -1 -1 h -10 c -0.550781 0 -1 0.449219 -1 1 s 0.449219 1 1 1 z m 0 0"/><path d="m 3 13 h 4 c 0.550781 0 1 -0.449219 1 -1 s -0.449219 -1 -1 -1 h -4 c -0.550781 0 -1 0.449219 -1 1 s 0.449219 1 1 1 z m 0 0"/></svg>
