<?xml version="1.0" encoding="UTF-8"?>
<svg xmlns="http://www.w3.org/2000/svg" height="16px" viewBox="0 0 16 16" width="16px"><path d="m 6 0 v 1 c 0 0.550781 0.449219 1 1 1 h 1 v -1 c 0 -0.550781 -0.449219 -1 -1 -1 z m 4 0 c -0.550781 0 -1 0.449219 -1 1 v 1 h 1 c 0.550781 0 1 -0.449219 1 -1 v -1 z m -1.5 2 c -0.277344 0 -0.5 0.222656 -0.5 0.5 v 13 c 0 0.277344 0.222656 0.5 0.5 0.5 s 0.5 -0.222656 0.5 -0.5 v -13 c 0 -0.277344 -0.222656 -0.5 -0.5 -0.5 z m -3.5 1 v 1 c 0 0.550781 0.449219 1 1 1 h 1 v -1 c 0 -0.550781 -0.449219 -1 -1 -1 z m 6 0 c -0.550781 0 -1 0.449219 -1 1 v 1 h 1 c 0.550781 0 1 -0.449219 1 -1 v -1 z m -7 3 v 1.5 c 0 0.828125 0.671875 1.5 1.5 1.5 h 1.5 v -1.5 c 0 -0.828125 -0.671875 -1.5 -1.5 -1.5 z m 7.5 0 c -0.828125 0 -1.5 0.671875 -1.5 1.5 v 1.5 h 1.5 c 0.828125 0 1.5 -0.671875 1.5 -1.5 v -1.5 z m -8.5 4 v 2 c 0 1.105469 0.894531 2 2 2 h 2 v -2 c 0 -1.105469 -0.894531 -2 -2 -2 z m 9 0 c -1.105469 0 -2 0.894531 -2 2 v 2 h 2 c 1.105469 0 2 -0.894531 2 -2 v -2 z m 0 0"/></svg>
