<?xml version="1.0" encoding="UTF-8"?>
<svg xmlns="http://www.w3.org/2000/svg" height="16px" viewBox="0 0 16 16" width="16px"><path d="m 8 1 c -0.21875 0 -0.441406 0.011719 -0.65625 0.03125 l -0.40625 2.09375 c -0.332031 0.070312 -0.65625 0.175781 -0.96875 0.3125 l -1.53125 -1.464844 c -0.386719 0.226563 -0.726562 0.511719 -1.0625 0.808594 l 0.90625 1.90625 c -0.222656 0.25 -0.421875 0.523438 -0.59375 0.8125 l -2.09375 -0.277344 c -0.175781 0.410156 -0.3125 0.839844 -0.40625 1.277344 l 1.84375 1 c -0.019531 0.167969 -0.027344 0.332031 -0.03125 0.5 c 0 0.171875 0.015625 0.332031 0.03125 0.5 l -1.84375 1 c 0.097656 0.445312 0.226562 0.871094 0.40625 1.28125 l 2.09375 -0.28125 c 0.171875 0.289062 0.371094 0.5625 0.59375 0.8125 l -0.90625 1.90625 c 0.335938 0.300781 0.675781 0.582031 1.0625 0.8125 l 1.53125 -1.46875 c 0.304688 0.136719 0.632812 0.238281 0.96875 0.3125 l 0.40625 2.09375 c 0.4375 0.042969 0.875 0.042969 1.3125 0 l 0.40625 -2.09375 c 0.335938 -0.074219 0.664062 -0.175781 0.96875 -0.3125 l 1.53125 1.46875 c 0.386719 -0.230469 0.726562 -0.511719 1.0625 -0.8125 l -0.90625 -1.90625 c 0.222656 -0.25 0.421875 -0.523438 0.59375 -0.8125 l 2.09375 0.28125 c 0.175781 -0.414062 0.3125 -0.839844 0.40625 -1.28125 l -1.84375 -1 c 0.015625 -0.167969 0.03125 -0.328125 0.03125 -0.5 s -0.015625 -0.332031 -0.03125 -0.5 l 1.84375 -1 c -0.09375 -0.4375 -0.230469 -0.867188 -0.40625 -1.28125 l -2.09375 0.28125 c -0.171875 -0.289062 -0.367188 -0.5625 -0.59375 -0.8125 l 0.90625 -1.90625 c -0.335938 -0.296875 -0.675781 -0.582031 -1.0625 -0.8125 l -1.53125 1.46875 c -0.3125 -0.136719 -0.636719 -0.242188 -0.96875 -0.3125 l -0.40625 -2.09375 c -0.21875 -0.019531 -0.4375 -0.03125 -0.65625 -0.03125 z m 0 4 c 1.65625 0 3 1.34375 3 3 s -1.34375 3 -3 3 s -3 -1.34375 -3 -3 s 1.34375 -3 3 -3 z m 0 0" fill="#222222"/></svg>
