<svg xmlns="http://www.w3.org/2000/svg" width="16" height="16.048">
    <g color="#000" font-weight="400" font-family="sans-serif" white-space="normal" fill="#2e3436">
        <path d="M10.94.048c-1.11 0-2 .914-2 2.017v4.776l-.854.853a.5.5 0 0 0-.016.691l.87.95V14c0 .657.234 1.21.623 1.562.388.353.897.499 1.39.485l-.027-1c-.28.008-.522-.073-.69-.225-.167-.152-.296-.386-.296-.822V9.14a.5.5 0 0 0-.131-.338l-.678-.74.662-.662a.5.5 0 0 0 .147-.353V2.065c0-.585.42-1.017 1-1.017zM5.94 5.048c-1.334 0-2.275.812-2.645 1.55a3.462 3.462 0 0 0-.36 1.448v.004l.024 4.988s-.016.292-.15.556c-.135.265-.203.454-.87.454h-1v2h1c1.334 0 2.276-.811 2.65-1.547.376-.736.37-1.444.37-1.444v-.007l-.023-5s.015-.291.146-.553c.132-.262.19-.45.858-.45h1v-2z" style="line-height:normal;font-variant-ligatures:normal;font-variant-position:normal;font-variant-caps:normal;font-variant-numeric:normal;font-variant-alternates:normal;font-feature-settings:normal;text-indent:0;text-align:start;text-decoration-line:none;text-decoration-style:solid;text-decoration-color:#000;text-transform:none;text-orientation:mixed;shape-padding:0;isolation:auto;mix-blend-mode:normal" overflow="visible"/>
        <path d="M1.94 9.048v2h5v-2h-4zM12.953.048v1c.58 0 1 .432 1 1.017v4.983a.5.5 0 0 0 .147.353l.662.662-.678.74a.5.5 0 0 0-.13.338v4.86c0 .436-.128.67-.296.822-.168.152-.41.233-.69.225l-.028 1c.493.014 1.001-.132 1.39-.485s.623-.905.623-1.562V9.335l.87-.95a.5.5 0 0 0-.016-.69l-.854-.854V2.065c0-1.103-.89-2.017-2-2.017z" style="line-height:normal;font-variant-ligatures:normal;font-variant-position:normal;font-variant-caps:normal;font-variant-numeric:normal;font-variant-alternates:normal;font-feature-settings:normal;text-indent:0;text-align:start;text-decoration-line:none;text-decoration-style:solid;text-decoration-color:#000;text-transform:none;text-orientation:mixed;shape-padding:0;isolation:auto;mix-blend-mode:normal" overflow="visible"/>
    </g>
</svg>
