<?xml version="1.0" encoding="UTF-8"?>
<svg width="16" height="16" fill="#bebebe" version="1.1" xmlns="http://www.w3.org/2000/svg"><path d="m4 1c-1.1 0-2 0.9-2 2v11c0 1.1 0.9 2 2 2h9c1.1 0 2-0.9 2-2v-11c0-1.1-0.9-2-2-2v1.5c0 1.5-1.5 2-2.5 1.12-0.54 0.49-1.5 0.38-2 0-0.5 0.38-1.5 0.38-2 0-1 0.88-2.5 0.38-2.5-1.12z"/><path d="m5.5 0.15a0.35 0.35 0 0 0-0.35 0.35v2a0.35 0.35 0 0 0 0.35 0.35 0.35 0.35 0 0 0 0.35-0.35v-2a0.35 0.35 0 0 0-0.35-0.35zm2 0a0.35 0.35 0 0 0-0.35 0.35v2a0.35 0.35 0 0 0 0.35 0.35 0.35 0.35 0 0 0 0.35-0.35v-2a0.35 0.35 0 0 0-0.35-0.35zm2 0a0.35 0.35 0 0 0-0.35 0.35v2a0.35 0.35 0 0 0 0.35 0.35 0.35 0.35 0 0 0 0.35-0.35v-2a0.35 0.35 0 0 0-0.35-0.35zm2 0a0.35 0.35 0 0 0-0.35 0.35v2a0.35 0.35 0 0 0 0.35 0.35 0.35 0.35 0 0 0 0.35-0.35v-2a0.35 0.35 0 0 0-0.35-0.35z"/></svg>
