<?xml version="1.0" encoding="UTF-8"?>
<svg xmlns="http://www.w3.org/2000/svg" height="16px" viewBox="0 0 16 16" width="16px"><path d="m 9 2 v 5 h 4 v -1 z m -2.5 2 c -0.824219 0 -1.5 0.675781 -1.5 1.5 s 0.675781 1.5 1.5 1.5 s 1.5 -0.675781 1.5 -1.5 s -0.675781 -1.5 -1.5 -1.5 z m 0 1 c 0.28125 0 0.5 0.21875 0.5 0.5 s -0.21875 0.5 -0.5 0.5 s -0.5 -0.21875 -0.5 -0.5 s 0.21875 -0.5 0.5 -0.5 z m -1.5 3 v 1 h 6 v -1 z m 0 2 v 1 h 6 v -1 z m 0 2 v 1 h 6 v -1 z m 0 0"/><path d="m 2 13 c 0 1.660156 1.339844 3 3 3 h 6 c 1.660156 0 3 -1.339844 3 -3 v -6 c 0 -0.90625 -0.359375 -1.773438 -1 -2.414062 l -2.585938 -2.585938 c -0.640624 -0.640625 -1.507812 -1 -2.414062 -1 h -3 c -1.660156 0 -3 1.339844 -3 3 z m 3 -10 h 3 c 0.375 0 0.734375 0.148438 1 0.414062 l 2.585938 2.585938 c 0.265624 0.265625 0.414062 0.625 0.414062 1 v 6 c 0 0.546875 -0.453125 1 -1 1 h -6 c -0.546875 0 -1 -0.453125 -1 -1 v -9 c 0 -0.546875 0.453125 -1 1 -1 z m 0 0"/></svg>
