<?xml version="1.0" encoding="UTF-8"?>
<svg xmlns="http://www.w3.org/2000/svg" height="16px" viewBox="0 0 16 16" width="16px"><path d="m 10.554688 8.09375 c -0.707032 0.625 -1.539063 0.90625 -2.554688 0.90625 s -1.851562 -0.289062 -2.558594 -0.914062 c -1.109375 0.363281 -2.4375 1.289062 -2.4375 2.902343 l -0.003906 3.011719 c 0 0.554688 0.445312 1 1 1 h 8 c 0.554688 0 1 -0.445312 1 -1 v -3 c 0 -1.386719 -1.101562 -2.554688 -2.445312 -2.90625 z m 0 0"/><path d="m 11 5 c 0 1.65625 -1.34375 3 -3 3 s -3 -1.34375 -3 -3 s 1.34375 -3 3 -3 s 3 1.34375 3 3 z m 0 0"/></svg>
