<?xml version="1.0" encoding="UTF-8"?>
<svg height="16px" viewBox="0 0 16 16" width="16px" xmlns="http://www.w3.org/2000/svg">
    <path d="m 4 1 c -1.660156 0 -3 1.339844 -3 3 v 8 c 0 1.660156 1.339844 3 3 3 h 8 c 1.660156 0 3 -1.339844 3 -3 v -8 c 0 -1.660156 -1.339844 -3 -3 -3 z m 0 2 h 3.011719 v 2 h -2 v 2 h -2 l -0.011719 -3 c 0 -0.128906 0.027344 -0.253906 0.074219 -0.375 c 0.003906 -0.003906 0.003906 -0.007812 0.007812 -0.011719 c 0.046875 -0.117187 0.117188 -0.21875 0.203125 -0.308593 c 0.007813 -0.007813 0.011719 -0.011719 0.019532 -0.019532 c 0.089843 -0.085937 0.191406 -0.15625 0.308593 -0.203125 c 0.003907 -0.003906 0.007813 -0.007812 0.015625 -0.007812 c 0.117188 -0.046875 0.242188 -0.074219 0.371094 -0.074219 z m 5 0 h 3.011719 c 0.125 0 0.253906 0.027344 0.371093 0.074219 c 0.003907 0.003906 0.011719 0.003906 0.015626 0.007812 c 0.113281 0.046875 0.21875 0.117188 0.304687 0.203125 c 0.007813 0.007813 0.015625 0.011719 0.019531 0.019532 c 0.089844 0.089843 0.160156 0.191406 0.207032 0.308593 c 0 0.003907 0.003906 0.007813 0.007812 0.015625 c 0.046875 0.117188 0.070312 0.242188 0.074219 0.371094 l -0.011719 3 h -2 v -2 h -2 z m -5.988281 6 h 2 v 2 h 2 v 2 h -3.011719 c -0.128906 0 -0.253906 -0.027344 -0.375 -0.074219 c -0.003906 -0.003906 -0.007812 -0.003906 -0.011719 -0.007812 c -0.117187 -0.046875 -0.21875 -0.117188 -0.308593 -0.203125 c -0.007813 -0.007813 -0.011719 -0.011719 -0.019532 -0.019532 c -0.085937 -0.089843 -0.15625 -0.191406 -0.203125 -0.308593 c -0.003906 -0.003907 -0.007812 -0.007813 -0.007812 -0.015625 c -0.046875 -0.117188 -0.074219 -0.242188 -0.074219 -0.371094 z m 7.988281 0 h 2 l 0.011719 3 c -0.003907 0.128906 -0.027344 0.253906 -0.074219 0.375 c -0.003906 0.003906 -0.003906 0.007812 -0.007812 0.011719 c -0.046876 0.117187 -0.117188 0.21875 -0.203126 0.308593 c -0.007812 0.007813 -0.015624 0.011719 -0.019531 0.019532 c -0.089843 0.085937 -0.195312 0.15625 -0.308593 0.203125 c -0.003907 0.003906 -0.011719 0.007812 -0.015626 0.007812 c -0.117187 0.046875 -0.246093 0.074219 -0.371093 0.074219 h -3.011719 v -2 h 2 z m 0 0" fill="#2e3436"/>
</svg>
