<?xml version="1.0" encoding="UTF-8" standalone="no"?>
<svg
   class="svg-icon"
   style="overflow:hidden;fill:currentColor"
   viewBox="0 0 24 24"
   version="1.1"
   id="svg4"
   width="24"
   height="24"
   xmlns="http://www.w3.org/2000/svg"
   xmlns:svg="http://www.w3.org/2000/svg">
  <defs
     id="defs8" />
  <path
     d="M 14.687304,23.368426 H 8.5448868 c -3.0712087,0 -5.5479899,-2.476781 -5.5479899,-5.448918 V 15.640869 L 0.81732973,13.461302 c -1.08978354,-1.089784 -1.08978354,-2.773995 0,-3.8637782 C 1.3126861,9.1021675 1.9071133,8.904025 2.5015409,8.8049538 1.6098997,7.7151699 1.708971,6.1300303 2.6996833,5.1393179 3.4922533,4.2476765 4.978322,4.1486052 5.9690344,4.7430328 c 0,-0.6934988 0.2972136,-1.287926 0.7925699,-1.7832823 0.9907124,-0.9907124 2.7739949,-0.9907124 3.8637787,0 0.09907,-0.5944276 0.396285,-1.0897836 0.891641,-1.58514 0.990712,-0.99071237 2.773994,-0.99071237 3.863778,0 l 6.241489,6.439631 C 23.108359,9.3003098 24,11.380806 24,13.560374 c 0,2.377709 -0.693498,4.359134 -2.080496,5.746132 l -2.179567,2.080495 c -1.58514,1.287926 -3.269351,1.981425 -5.052633,1.981425 z M 3.9876096,16.631582 v 1.287926 c 0,2.476781 2.080496,4.458206 4.5572772,4.458206 h 6.1424172 c 1.486068,0 2.972137,-0.594428 4.06192,-1.684212 l 2.179568,-2.080495 c 1.188855,-1.188855 1.783282,-2.972138 1.783282,-5.052633 0,-1.882354 -0.693498,-3.6656366 -2.080496,-5.0526341 L 18.848295,6.5263151 14.489161,2.0681093 c -0.594427,-0.6934988 -1.783282,-0.6934988 -2.377709,0 C 11.517024,2.6625369 11.21981,3.554178 11.913309,4.346748 l 0.396285,0.3962848 c 0.198142,0.1981424 0.198142,0.4953563 0,0.6934988 -0.198142,0.1981424 -0.495356,0.1981424 -0.693499,0 L 11.21981,5.0402464 11.120739,4.9411752 9.8328128,3.554178 c -0.5944272,-0.6934988 -1.7832825,-0.6934988 -2.37771,0 -0.6934985,0.6934985 -0.6934985,1.7832824 0,2.4767811 l 1.3869977,1.5851396 c 0.1981423,0.1981428 0.1981423,0.4953564 0,0.6934988 -0.1981425,0.1981424 -0.4953562,0.1981424 -0.693499,0 L 5.770892,5.8328164 c -0.5944276,-0.5944273 -1.7832824,-0.5944273 -2.3777099,0 -0.6934988,0.6934987 -0.6934988,1.7832823 0,2.4767811 L 5.770892,10.588236 c 0.1981424,0.198143 0.1981424,0.495356 0,0.693499 -0.1981427,0.198142 -0.4953564,0.198142 -0.6934988,0 L 3.9876096,10.291022 c -0.6934988,-0.6934982 -1.7832826,-0.6934982 -2.4767811,0 -0.69349877,0.693499 -0.69349877,1.783282 0,2.476782 l 4.7554195,4.85449 c 0.1981424,0.198143 0.1981424,0.495356 0,0.693499 -0.1981424,0.198143 -0.495356,0.198143 -0.6934987,0 z"
     fill=""
     id="path295"
     style="stroke-width:0.0290248" />
</svg>
