<?xml version="1.0" encoding="UTF-8" standalone="no"?>
<svg
   height="16px"
   viewBox="0 0 16 16"
   width="16px"
   version="1.1"
   id="svg4"
   xmlns="http://www.w3.org/2000/svg"
   xmlns:svg="http://www.w3.org/2000/svg">
  <defs
     id="defs8" />
  <g
     aria-label="P"
     id="text373"
     style="font-size:6.66667px;font-family:Cantarell;-inkscape-font-specification:'Cantarell, @wght=800';font-variation-settings:'wght' 800;fill:#222222;stroke-width:2">
    <path
       d="m 10.125539,13.80339 h 1.153334 v -3.613336 h 0.48 c 0.466667,0 0.780001,0.253334 0.780001,0.640001 0,0.373333 -0.260001,0.6 -0.673334,0.6 h -1.013334 v 1.013334 h 0.806667 c 1.253334,0 2.080001,-0.686667 2.080001,-1.726668 0,-0.9666667 -0.706667,-1.5400003 -1.886667,-1.5400003 h -1.726668 z"
       id="path979" />
  </g>
  <path
     id="path244-3"
     d="m 7.6796609,2.874576 c -0.177688,0 -0.320339,0.1426511 -0.320339,0.320339 v 0.320339 h -0.961017 c -0.177688,0 -0.320339,0.1426511 -0.320339,0.320339 v 1.922034 c 0,0.1776879 0.142651,0.3203388 0.320339,0.3203388 h 3.203389 c 0.177688,0 0.320339,-0.1426509 0.320339,-0.3203388 V 3.835593 c 0,-0.1776879 -0.142651,-0.320339 -0.320339,-0.320339 H 8.6406779 V 3.194915 c 0,-0.1776879 -0.142651,-0.320339 -0.320339,-0.320339 z m -2.242373,0.640678 c -1.053614,0 -1.922034,0.8684201 -1.922034,1.9220339 v 5.7661011 c 0,1.053614 0.86842,1.922035 1.922034,1.922035 h 3.672636 v -1.281356 h -3.672636 c -0.365386,0 -0.640678,-0.275292 -0.640678,-0.640679 V 5.4372879 c 0,-0.3653859 0.275292,-0.6406779 0.640678,-0.6406779 z m 5.1254231,0 V 4.79661 c 0.365387,0 0.640678,0.275292 0.640678,0.6406779 v 2.8692863 h 1.281357 V 5.4372879 c 0,-1.0536138 -0.868422,-1.9220339 -1.922035,-1.9220339 z"
     style="fill:#222222;fill-opacity:1;stroke-width:0.640678" />
</svg>
