<?xml version="1.0" encoding="UTF-8" standalone="no"?>
<svg
   height="32"
   viewBox="0 0 32 32"
   width="32"
   version="1.1"
   id="svg4"
   xmlns="http://www.w3.org/2000/svg"
   xmlns:svg="http://www.w3.org/2000/svg">
  <defs
     id="defs8" />
  <path
     id="rect4938"
     style="fill:#303030;fill-opacity:1;stroke:none;stroke-width:0.1;stroke-dashoffset:1.125"
     d="M 6 2 C 3.784013 2 2 3.7840132 2 6 L 2 8.5 L 1 8.5 C -0.10799778 8.5 -1 9.3920022 -1 10.5 L -1 15.5 C -1 16.607998 -0.10799778 17.5 1 17.5 L 2 17.5 L 2 26 C 2 28.215988 3.784013 30 6 30 L 26 30 C 28.215988 30 30 28.215988 30 26 L 30 6 C 30 3.7840132 28.215988 2 26 2 L 6 2 z M 10 4 L 26 4 C 27.107994 4 28 4.8920067 28 6 L 28 26 C 28 27.107993 27.107994 28 26 28 L 10 28 C 8.8920075 28 8 27.107993 8 26 L 8 17.5 L 9 17.5 C 10.107998 17.5 11 16.607998 11 15.5 L 11 10.5 C 11 9.3920022 10.107998 8.5 9 8.5 L 8 8.5 L 8 6 C 8 4.8920067 8.8920075 4 10 4 z M 4.5 5 L 5.5 5 C 6.053997 5 6.5 5.446003 6.5 6 L 6.5 7 C 6.5 7.553997 6.053997 8 5.5 8 L 4.5 8 C 3.946003 8 3.5 7.553997 3.5 7 L 3.5 6 C 3.5 5.446003 3.946003 5 4.5 5 z M 5.3261719 9.5566406 C 5.6372826 9.5566406 5.9242139 9.6019793 6.1855469 9.6953125 C 6.4282132 9.7824235 6.645002 9.9136686 6.8378906 10.087891 C 7.0183348 10.249668 7.1618005 10.452646 7.2675781 10.695312 C 7.3733558 10.937979 7.4257812 11.198516 7.4257812 11.478516 C 7.4257812 11.721182 7.3891197 11.952144 7.3144531 12.169922 C 7.2397866 12.381477 7.1436127 12.582502 7.0253906 12.775391 C 6.9009463 12.980724 6.7574807 13.167938 6.5957031 13.335938 L 6.0742188 13.886719 L 4.5527344 15.445312 C 4.6398454 15.420424 4.7849013 15.385352 4.9902344 15.341797 C 5.1769008 15.316908 5.3132796 15.304687 5.4003906 15.304688 L 6.8945312 15.304688 C 6.9131979 15.043355 6.9254184 14.903432 6.9316406 14.884766 C 6.9627517 14.772766 7.0344845 14.716797 7.1464844 14.716797 L 7.640625 14.716797 L 7.640625 16.378906 L 2.9101562 16.378906 L 2.9101562 15.996094 C 2.9101563 15.927649 2.9239671 15.847239 2.9550781 15.753906 C 2.9924114 15.666795 3.04679 15.587976 3.1152344 15.519531 L 5.1582031 13.466797 L 5.3261719 13.298828 C 5.5190605 13.087273 5.6187778 12.978878 5.625 12.972656 C 5.7556665 12.810879 5.8676043 12.651649 5.9609375 12.496094 C 6.0604929 12.328094 6.1322258 12.168864 6.1757812 12.019531 C 6.2193367 11.870198 6.2421875 11.702291 6.2421875 11.515625 C 6.2421875 11.341403 6.2193367 11.197937 6.1757812 11.085938 C 6.1322258 10.973938 6.0640363 10.87263 5.9707031 10.779297 C 5.8835921 10.692186 5.7803314 10.62913 5.6621094 10.591797 C 5.5189985 10.548241 5.386163 10.527344 5.2617188 10.527344 C 4.9879413 10.527344 4.7605223 10.599077 4.5800781 10.742188 C 4.4058561 10.879076 4.2816978 11.064337 4.2070312 11.300781 C 4.169698 11.419003 4.1172725 11.502957 4.0488281 11.552734 C 3.9803838 11.608734 3.892887 11.636719 3.7871094 11.636719 C 3.7622205 11.636719 3.7113853 11.631585 3.6367188 11.619141 L 3.03125 11.515625 C 3.0748055 11.19207 3.1638925 10.907092 3.3007812 10.658203 C 3.4314477 10.415537 3.5977642 10.212559 3.796875 10.050781 C 3.9835414 9.8890037 4.2125507 9.7648454 4.4863281 9.6777344 C 4.7352167 9.5968456 5.0150612 9.5566406 5.3261719 9.5566406 z M 4.5 18 L 5.5 18 C 6.0539976 18 6.5 18.446004 6.5 19 L 6.5 20 C 6.5 20.553996 6.0539976 21 5.5 21 L 4.5 21 C 3.9460024 21 3.5 20.553996 3.5 20 L 3.5 19 C 3.5 18.446004 3.9460024 18 4.5 18 z M 4.5 22 L 5.5 22 C 6.0539982 22 6.5 22.446003 6.5 23 L 6.5 24 C 6.5 24.553997 6.0539982 25 5.5 25 L 4.5 25 C 3.9460018 25 3.5 24.553997 3.5 24 L 3.5 23 C 3.5 22.446003 3.9460018 22 4.5 22 z " />
  <path
     id="path627"
     style="color:#000000;fill:#303030;fill-opacity:1;stroke-linecap:round;stroke-dashoffset:1.125;-inkscape-stroke:none"
     d="M 22.5,7 A 0.5,0.5 0 0 0 22,7.5 V 9 H 20.5 A 0.5,0.5 0 0 0 20,9.5 0.5,0.5 0 0 0 20.5,10 H 22 v 1.5 A 0.5,0.5 0 0 0 22.5,12 0.5,0.5 0 0 0 23,11.5 V 10 h 1.5 A 0.5,0.5 0 0 0 25,9.5 0.5,0.5 0 0 0 24.5,9 H 23 V 7.5 A 0.5,0.5 0 0 0 22.5,7 Z" />
  <path
     id="path627-9"
     style="color:#000000;fill:#303030;fill-opacity:1;stroke-linecap:round;stroke-dashoffset:1.125;-inkscape-stroke:none"
     d="M 13.5,20 A 0.5,0.5 0 0 0 13,20.5 V 22 H 11.5 A 0.5,0.5 0 0 0 11,22.5 0.5,0.5 0 0 0 11.5,23 H 13 v 1.5 A 0.5,0.5 0 0 0 13.5,25 0.5,0.5 0 0 0 14,24.5 V 23 h 1.5 A 0.5,0.5 0 0 0 16,22.5 0.5,0.5 0 0 0 15.5,22 H 14 V 20.5 A 0.5,0.5 0 0 0 13.5,20 Z" />
</svg>
