<?xml version="1.0" encoding="UTF-8" standalone="no"?>
<svg
   height="16px"
   viewBox="0 0 16 16"
   width="16px"
   version="1.1"
   id="svg4"
   xmlns="http://www.w3.org/2000/svg"
   xmlns:svg="http://www.w3.org/2000/svg">
  <defs
     id="defs8" />
  <path
     d="M 8.0000002,1 C 4.132812,1 1,4.132812 1,8.0000002 1,11.867188 4.132812,15 8.0000002,15 11.867189,15 15,11.867188 15,8.0000002 15,4.132812 11.867189,1 8.0000002,1 Z M 6.0039061,4.0078121 c 0.5507821,0 1.0000001,0.4492189 1.0000001,1 0,0.550781 -0.449218,1 -1.0000001,1 -0.550781,0 -1,-0.449219 -1,-1 0,-0.5507811 0.449219,-1 1,-1 z m 3.9999999,0 c 0.550783,0 1.000001,0.4492189 1.000001,1 0,0.550781 -0.449218,1 -1.000001,1 -0.5507811,0 -1.0000001,-0.449219 -1.0000001,-1 0,-0.5507811 0.449219,-1 1.0000001,-1 z M 3,8.0078122 h 10 c 0,1.7851557 -0.953125,3.4375008 -2.5,4.3320308 -1.5468748,0.890625 -3.4531249,0.890625 -4.9999999,0 C 3.9531251,11.445313 3,9.7929679 3,8.0078122 Z m 0,0"
     fill="#222222"
     id="path2"
     style="stroke-width:0.999997" />
</svg>
