<?xml version="1.0" encoding="UTF-8" standalone="no"?>
<!-- Created with Inkscape (http://www.inkscape.org/) -->

<svg
   width="32"
   height="32"
   viewBox="0 0 8.4666667 8.4666667"
   version="1.1"
   id="svg5"
   xmlns="http://www.w3.org/2000/svg"
   xmlns:svg="http://www.w3.org/2000/svg">
  <defs
     id="defs2" />
  <g
     id="layer1">
    <g
       id="g865">
      <path
         style="color:#000000;fill:#bebebe;stroke-linecap:round;-inkscape-stroke:none"
         d="m 1.9921875,4.3203125 v 1.3144531 c 1e-7,0.3869441 0.280587,0.9152642 0.6914063,1.3808594 C 3.094413,7.4812202 3.6449225,7.8769532 4.2324219,7.8769531 4.8199213,7.876953 5.3723839,7.4812201 5.7832031,7.015625 6.1940224,6.5500299 6.4746094,6.0217097 6.4746094,5.6347656 V 4.3203125 Z m 0.25,0.25 h 3.9824219 v 1.0644531 c 0,0.2480554 -0.2459764,0.7808566 -0.6289063,1.2148438 C 5.2127732,7.2835966 4.7032548,7.626953 4.2324219,7.6269531 3.761589,7.6269532 3.2540237,7.2835966 2.8710938,6.8496094 2.4881638,6.4156221 2.2421875,5.882821 2.2421875,5.6347656 Z"
         id="path2503" />
      <g
         id="path8864">
        <path
           style="color:#000000;fill:#bebebe;stroke-width:0.25;-inkscape-stroke:none"
           d="m 6.5077691,4.0216666 c 0,0 0,-0.6823306 0,-1.1372178 0,-0.9097741 -0.1405717,-1.548669 -0.6823307,-1.8195484 C 5.3705512,0.83745683 4.2333334,0.61001313 4.2333334,0.61001313 V 4.0216667 c 0.6065161,0 1.6679196,-1e-7 2.2744357,-1e-7 z"
           id="path834" />
        <path
           style="color:#000000;fill:#bebebe;-inkscape-stroke:none"
           d="M 4.1074219,0.45703125 V 4.1464844 h 2.5253906 v -0.125 -1.1367188 c 0,-0.4613246 -0.034358,-0.8603068 -0.1445313,-1.1894531 C 6.3781078,1.3661662 6.1830304,1.1042105 5.8808594,0.953125 5.6310554,0.82822301 5.2330073,0.71694326 4.8886719,0.63085937 4.5443365,0.54477549 4.2578125,0.48828125 4.2578125,0.48828125 Z m 0.25,0.30859375 c 0.092793,0.0193 0.2136816,0.0431665 0.4707031,0.10742188 0.3379946,0.0844987 0.7363235,0.20019302 0.9414062,0.30273432 0.2395874,0.1197937 0.38687,0.3141455 0.4824219,0.5996094 0.095552,0.2854639 0.1308594,0.6609265 0.1308594,1.109375 V 3.8964844 H 4.3574219 Z"
           id="path836" />
      </g>
      <path
         style="color:#000000;fill:#bebebe;-inkscape-stroke:none"
         d="M 3.9628906,1.2890625 3.8125,1.3183594 c 0,0 -0.2172968,0.04407 -0.4785156,0.109375 C 3.0727656,1.4930391 2.7705648,1.5766316 2.5761719,1.6738281 2.3399939,1.791917 2.186676,1.9976743 2.1015625,2.2519531 2.016449,2.506232 1.9921875,2.8116068 1.9921875,3.1621094 v 0.984375 h 0.125 1.8457031 z m -0.25,0.3085937 V 3.8964844 H 2.2421875 v -0.734375 c 0,-0.3376266 0.027164,-0.6194817 0.097656,-0.8300781 C 2.4103356,2.1214348 2.5158588,1.9832815 2.6894531,1.8964844 2.8391247,1.8216485 3.1396532,1.7336414 3.3945313,1.6699219 3.5683995,1.6264548 3.6324942,1.614618 3.7128906,1.5976562 Z"
         id="path8864-3" />
    </g>
  </g>
</svg>
