<?xml version="1.0" encoding="UTF-8" standalone="no"?>
<!-- Created with Inkscape (http://www.inkscape.org/) -->

<svg
   width="16"
   height="16"
   viewBox="0 0 4.2333333 4.2333333"
   version="1.1"
   id="svg5"
   xmlns="http://www.w3.org/2000/svg"
   xmlns:svg="http://www.w3.org/2000/svg">
  <defs
     id="defs2" />
  <g
     id="layer1"
     transform="matrix(-0.49875439,0,0,0.49875439,4.1886404,0.03836103)"
     style="fill:#333333;fill-opacity:1">
    <g
       id="g21360"
       style="fill:#333333;fill-opacity:1">
      <path
         style="color:#000000;fill:#333333;stroke-linecap:round;-inkscape-stroke:none;fill-opacity:1"
         d="m 1.9921875,4.3203125 v 1.3144531 c 1e-7,0.3869441 0.280587,0.9152642 0.6914063,1.3808594 C 3.094413,7.4812202 3.6449225,7.8769532 4.2324219,7.8769531 4.8199213,7.876953 5.3723839,7.4812201 5.7832031,7.015625 6.1940224,6.5500299 6.4746094,6.0217097 6.4746094,5.6347656 V 4.3203125 Z m 0.25,0.25 h 3.9824219 v 1.0644531 c 0,0.2480554 -0.2459764,0.7808566 -0.6289063,1.2148438 C 5.2127732,7.2835966 4.7032548,7.626953 4.2324219,7.6269531 3.761589,7.6269532 3.2540237,7.2835966 2.8710938,6.8496094 2.4881638,6.4156221 2.2421875,5.882821 2.2421875,5.6347656 Z"
         id="path2503" />
      <g
         id="path8864"
         style="fill:#333333;fill-opacity:1">
        <path
           style="color:#000000;fill:#333333;stroke-width:0.25;-inkscape-stroke:none;fill-opacity:1"
           d="m 1.9588977,4.0216666 c 0,0 0,-0.6823306 0,-1.1372178 0,-0.9097741 0.1405717,-1.548669 0.6823307,-1.8195484 0.4548872,-0.22744357 1.592105,-0.45488727 1.592105,-0.45488727 V 4.0216667 c -0.6065161,0 -1.6679196,-1e-7 -2.2744357,-1e-7 z"
           id="path21347" />
        <path
           style="color:#000000;fill:#333333;-inkscape-stroke:none;fill-opacity:1"
           d="m 4.3574219,0.45703125 -0.1484375,0.03125 c 0,0 -0.286524,0.0564942 -0.6308594,0.14257812 C 3.2337896,0.71694326 2.8357415,0.82822301 2.5859375,0.953125 2.2837664,1.1042105 2.0886891,1.3661662 1.9785156,1.6953125 1.8683421,2.0244588 1.8339844,2.423441 1.8339844,2.8847656 v 1.2617188 h 0.125 2.3984375 z m -0.25,0.30859375 V 3.8964844 H 2.0839844 V 2.8847656 c 0,-0.4484485 0.035307,-0.8239111 0.1308594,-1.109375 C 2.3103957,1.4899267 2.4576782,1.2955749 2.6972656,1.1757812 2.9023484,1.0732399 3.3006773,0.95754556 3.6386719,0.87304688 3.8946795,0.80904495 4.0139622,0.78507408 4.1074219,0.765625 Z"
           id="path21349" />
      </g>
      <path
         style="color:#000000;fill:#333333;-inkscape-stroke:none;fill-opacity:1"
         d="m 4.5039062,1.2890625 v 2.8574219 h 1.9707032 v -0.125 -0.859375 c 0,-0.3505026 -0.026215,-0.6558774 -0.1113282,-0.9101563 C 6.2781678,1.9976743 6.126803,1.791917 5.890625,1.6738281 5.6962321,1.5766316 5.3940313,1.4930391 5.1328125,1.4277344 4.8715937,1.3624297 4.6542969,1.3183594 4.6542969,1.3183594 Z m 0.25,0.3085937 c 0.080396,0.016962 0.1444912,0.028799 0.3183594,0.072266 0.254878,0.063719 0.5554065,0.1517266 0.7050781,0.2265625 0.1735944,0.086797 0.2791175,0.2249504 0.3496094,0.4355469 0.070492,0.2105964 0.097656,0.4924515 0.097656,0.8300781 v 0.734375 H 4.7539062 Z"
         id="path8864-3" />
    </g>
  </g>
</svg>
