<?xml version="1.0" encoding="UTF-8" standalone="no"?>
<!-- Created with Inkscape (http://www.inkscape.org/) -->

<svg
   width="32"
   height="32"
   viewBox="0 0 8.4666666 8.4666666"
   version="1.1"
   id="svg5"
   xmlns="http://www.w3.org/2000/svg"
   xmlns:svg="http://www.w3.org/2000/svg">
  <defs
     id="defs2" />
  <path
     style="color:#000000;fill:#333333;fill-opacity:1;stroke-width:0.498756;stroke-linecap:round;-inkscape-stroke:none"
     d="m 6.6145831,4.2333333 v 1.388532 C 6.614583,6.0306166 6.316464,6.5887112 5.8799751,7.0805464 5.4434866,7.5723813 4.8575416,7.9370059 4.2333331,7.9370058 3.6091246,7.9370056 3.0231798,7.5723812 2.5866912,7.0805464 2.1502024,6.5887115 1.8520833,6.0306166 1.8520833,5.6218653 V 4.2333333 Z M 6.3499999,4.4979166 H 2.1166666 v 1.124443 c 0,0.2620353 0.2623835,0.8243691 0.6692402,1.2828148 C 3.1927635,7.36362 3.7330809,7.6729165 4.2333332,7.6729166 4.7335854,7.6729167 5.2739028,7.36362 5.6807595,6.9051744 6.0876164,6.4467286 6.3499999,5.8843949 6.3499999,5.6223596 Z"
     id="path2503" />
  <path
     id="path411"
     style="color:#000000;fill:#333333;fill-opacity:1;stroke-width:0.124689;-inkscape-stroke:none"
     d="M 4.2333334,0.26458342 V 3.96875 H 1.5875001 V 2.7021607 c 0,-0.463164 0.035895,-0.8637837 0.1514119,-1.1942424 C 1.8544292,1.1774598 2.0592552,0.914432 2.3760824,0.7627442 2.6380025,0.63734423 3.0552924,0.52567683 3.416329,0.43924976 3.7773656,0.35282263 4.0777873,0.29610605 4.0777873,0.29610605 Z" />
  <path
     style="color:#000000;fill:#333333;fill-opacity:1;stroke-width:0.498756;-inkscape-stroke:none"
     d="m 4.4979168,0.9098853 -10e-8,3.0588647 H 6.6145833 V 2.9104167 c 0,-0.3752123 -0.028156,-0.6975538 -0.1195739,-0.9697588 C 6.4035919,1.6684529 6.2410161,1.4481901 5.9873451,1.3217762 5.7785543,1.2177275 5.4539705,1.1282419 5.173404,1.0583334 4.9500411,1.0006842 4.7241918,0.9542001 4.4979168,0.9098853 Z M 4.7625,1.2402343 c 0.086351,0.018158 0.1591267,0.030829 0.3458727,0.077361 0.2737559,0.068211 0.5965435,0.162423 0.7573008,0.2425348 0.1864519,0.092916 0.2997908,0.2408089 0.3755038,0.466252 C 6.3168903,2.2518252 6.35,2.5489884 6.35,2.9104171 v 0.79375 H 4.7625 Z"
     id="path8864-3" />
</svg>
