<?xml version="1.0" encoding="UTF-8" standalone="no"?>
<!-- Created with Inkscape (http://www.inkscape.org/) -->

<svg
   width="32"
   height="32"
   viewBox="0 0 8.4666666 8.4666666"
   version="1.1"
   id="svg5"
   xmlns="http://www.w3.org/2000/svg"
   xmlns:svg="http://www.w3.org/2000/svg">
  <defs
     id="defs2" />
  <path
     style="color:#000000;fill:#333333;fill-opacity:1;stroke-width:0.498756;stroke-linecap:round;-inkscape-stroke:none"
     d="m 6.6145831,4.2333333 v 1.388532 C 6.614583,6.0306166 6.316464,6.5887112 5.8799751,7.0805464 5.4434866,7.5723813 4.8575416,7.9370059 4.2333331,7.9370058 3.6091246,7.9370056 3.0231798,7.5723812 2.5866912,7.0805464 2.1502024,6.5887115 1.8520833,6.0306166 1.8520833,5.6218653 V 4.2333333 Z M 6.3499999,4.4979166 H 2.1166666 v 1.124443 c 0,0.2620353 0.2623835,0.8243691 0.6692402,1.2828148 C 3.1927635,7.36362 3.7330809,7.6729165 4.2333332,7.6729166 4.7335854,7.6729167 5.2739028,7.36362 5.6807595,6.9051744 6.0876164,6.4467286 6.3499999,5.8843949 6.3499999,5.6223596 Z"
     id="path2503" />
  <path
     id="path411"
     style="color:#000000;fill:#333333;fill-opacity:1;stroke-width:0.124689;-inkscape-stroke:none"
     d="M 4.2333332,0.26458335 V 3.9687499 H 6.8791665 V 2.7021606 c 0,-0.463164 -0.035895,-0.8637837 -0.1514119,-1.1942424 C 6.6122374,1.1774597 6.4074114,0.91443193 6.0905842,0.76274413 5.8286641,0.63734416 5.4113742,0.52567676 5.0503376,0.43924969 4.689301,0.35282256 4.3888793,0.29610598 4.3888793,0.29610598 Z" />
  <path
     style="color:#000000;fill:#333333;fill-opacity:1;stroke-width:0.498756;-inkscape-stroke:none"
     d="m 3.9687498,0.90988523 1e-7,3.05886467 H 1.8520833 V 2.9104166 c 0,-0.3752123 0.028156,-0.6975538 0.1195739,-0.9697588 C 2.0630747,1.6684528 2.2256505,1.44819 2.4793215,1.3217761 2.6881123,1.2177274 3.0126961,1.1282418 3.2932626,1.0583333 3.5166255,1.0006841 3.7424748,0.95420003 3.9687498,0.90988523 Z M 3.7041666,1.2402342 C 3.617816,1.258392 3.5450399,1.2710635 3.3582939,1.3175948 3.084538,1.3858059 2.7617504,1.4800178 2.6009931,1.5601296 2.4145412,1.6530455 2.3012023,1.8009385 2.2254893,2.0263816 2.1497762,2.2518247 2.1166666,2.5489879 2.1166666,2.9104166 v 0.79375 h 1.5875 z"
     id="path8864-3" />
</svg>
