<?xml version="1.0" encoding="UTF-8"?>
<svg xmlns="http://www.w3.org/2000/svg" xmlns:xlink="http://www.w3.org/1999/xlink" width="16px" height="16px" viewBox="0 0 16 16" version="1.1">
<g id="surface457576">
<path style="" d="M 3 3 C 1.355469 3 0 4.355469 0 6 L 2 6 C 2 5.429688 2.429688 5 3 5 Z M 3 3 "/>
<path style="" d="M 5 0 L 5 2 L 13 2 C 13.570312 2 14 2.429688 14 3 L 14 11 L 16 11 L 16 3 C 16 1.355469 14.644531 0 13 0 Z M 5 0 "/>
<path style="" d="M 3.003906 2 C 3.003906 0.898438 3.894531 0.00390625 4.996094 0.00390625 L 4.996094 2 Z M 3.003906 2 "/>
<path style="" d="M 15.996094 11 C 15.996094 12.101562 15.105469 12.996094 14.003906 12.996094 L 14.003906 11 Z M 15.996094 11 "/>
<path style="" d="M 4 3 L 6 3 L 6 5 L 4 5 Z M 4 3 "/>
<path style="" d="M 7 3 L 9 3 L 9 5 L 7 5 Z M 7 3 "/>
<path style="" d="M 4 14 L 6 14 L 6 16 L 4 16 Z M 4 14 "/>
<path style="" d="M 7 14 L 9 14 L 9 16 L 7 16 Z M 7 14 "/>
<path style="" d="M 0 7 L 2 7 L 2 9 L 0 9 Z M 0 7 "/>
<path style="" d="M 0 10 L 2 10 L 2 12 L 0 12 Z M 0 10 "/>
<path style="" d="M 11 7 L 13 7 L 13 9 L 11 9 Z M 11 7 "/>
<path style="" d="M 11 10 L 13 10 L 13 12 L 11 12 Z M 11 10 "/>
<path style="" d="M 10 3 C 11.644531 3 13 4.355469 13 6 L 11 6 C 11 5.429688 10.570312 5 10 5 Z M 10 3 "/>
<path style="" d="M 3 16 C 1.355469 16 0 14.644531 0 13 L 2 13 C 2 13.570312 2.429688 14 3 14 Z M 3 16 "/>
<path style="" d="M 10 16 C 11.644531 16 13 14.644531 13 13 L 11 13 C 11 13.570312 10.570312 14 10 14 Z M 10 16 "/>
</g>
</svg>