<?xml version="1.0" encoding="UTF-8" standalone="no"?>
<svg
   height="16px"
   viewBox="0 0 16 16"
   width="16px"
   version="1.1"
   id="svg10"
   xmlns="http://www.w3.org/2000/svg"
   xmlns:svg="http://www.w3.org/2000/svg">
  <defs
     id="defs14" />
  <g
     fill="#2e3436"
     id="g8"
     transform="matrix(0.69752251,0,0,0.69752251,2.4198199,3.105081)">
    <path
       d="m 0,5 v 6 h 1 v -0.0078 c 0.265625,0.0039 0.519531,-0.101563 0.707031,-0.285157 l 2,-2 c 0.390625,-0.390625 0.390625,-1.023437 0,-1.414062 l -2,-2 C 1.519531,5.109375 1.265625,5.003906 1,5.007812 V 5 Z m 0,0"
       id="path2" />
    <path
       d="m 16,5 v 6 h -1 v -0.0078 c -0.265625,0.0039 -0.519531,-0.101563 -0.707031,-0.285157 l -2,-2 c -0.390625,-0.390625 -0.390625,-1.023437 0,-1.414062 l 2,-2 C 14.480469,5.109375 14.734375,5.003906 15,5.003906 V 5 Z m 0,0"
       id="path4" />
    <path
       d="m 7,3.011719 v 2 h 1.917969 c -0.054688,0 0.085937,0.160156 0.085937,0.082031 V 6.015625 H 8 C 6.285156,6.015625 4.96875,7.144531 4.945312,8.5 4.933594,9.179688 5.25,9.863281 5.804688,10.324219 6.363281,10.785156 7.121094,11.023438 8,11.023438 h 3.003906 V 5.09375 c 0,-1.171875 -0.886718,-2.082031 -2.085937,-2.082031 z M 8,8.019531 H 9.003906 V 9.023438 H 8 C 7.480469,9.023438 7.207031,8.886719 7.078125,8.78125 6.953125,8.675781 6.945312,8.609375 6.945312,8.539062 6.949219,8.394531 7.03125,8.019531 8,8.019531 Z m 0,0"
       id="path6" />
  </g>
</svg>
