<?xml version="1.0" encoding="UTF-8" standalone="no"?>
<svg
   height="16px"
   viewBox="0 0 16 16"
   width="16px"
   version="1.1"
   id="svg163"
   xml:space="preserve"
   xmlns="http://www.w3.org/2000/svg"
   xmlns:svg="http://www.w3.org/2000/svg"><defs
     id="defs167"><linearGradient
       id="linearGradient4113"><stop
         style="stop-color:#2e3436;stop-opacity:1;"
         offset="0"
         id="stop4111" /></linearGradient></defs><filter
     id="a"
     height="1"
     width="1"
     x="0"
     y="0"><feColorMatrix
       in="SourceGraphic"
       type="matrix"
       values="0 0 0 0 1 0 0 0 0 1 0 0 0 0 1 0 0 0 1 0"
       id="feColorMatrix2" /></filter><mask
     id="b"><g
       filter="url(#a)"
       id="g7"><path
         d="m 0 0 h 16 v 16 h -16 z"
         fill-opacity="0.3"
         id="path5" /></g></mask><clipPath
     id="c"><path
       d="m 0 0 h 1024 v 800 h -1024 z"
       id="path10" /></clipPath><mask
     id="d"><g
       filter="url(#a)"
       id="g15"><path
         d="m 0 0 h 16 v 16 h -16 z"
         fill-opacity="0.05"
         id="path13" /></g></mask><clipPath
     id="e"><path
       d="m 0 0 h 1024 v 800 h -1024 z"
       id="path18" /></clipPath><mask
     id="f"><g
       filter="url(#a)"
       id="g23"><path
         d="m 0 0 h 16 v 16 h -16 z"
         fill-opacity="0.05"
         id="path21" /></g></mask><clipPath
     id="g"><path
       d="m 0 0 h 1024 v 800 h -1024 z"
       id="path26" /></clipPath><mask
     id="h"><g
       filter="url(#a)"
       id="g31"><path
         d="m 0 0 h 16 v 16 h -16 z"
         fill-opacity="0.05"
         id="path29" /></g></mask><clipPath
     id="i"><path
       d="m 0 0 h 1024 v 800 h -1024 z"
       id="path34" /></clipPath><mask
     id="j"><g
       filter="url(#a)"
       id="g39"><path
         d="m 0 0 h 16 v 16 h -16 z"
         fill-opacity="0.05"
         id="path37" /></g></mask><clipPath
     id="k"><path
       d="m 0 0 h 1024 v 800 h -1024 z"
       id="path42" /></clipPath><mask
     id="l"><g
       filter="url(#a)"
       id="g47"><path
         d="m 0 0 h 16 v 16 h -16 z"
         fill-opacity="0.05"
         id="path45" /></g></mask><clipPath
     id="m"><path
       d="m 0 0 h 1024 v 800 h -1024 z"
       id="path50" /></clipPath><mask
     id="n"><g
       filter="url(#a)"
       id="g55"><path
         d="m 0 0 h 16 v 16 h -16 z"
         fill-opacity="0.05"
         id="path53" /></g></mask><clipPath
     id="o"><path
       d="m 0 0 h 1024 v 800 h -1024 z"
       id="path58" /></clipPath><mask
     id="p"><g
       filter="url(#a)"
       id="g63"><path
         d="m 0 0 h 16 v 16 h -16 z"
         fill-opacity="0.3"
         id="path61" /></g></mask><clipPath
     id="q"><path
       d="m 0 0 h 1024 v 800 h -1024 z"
       id="path66" /></clipPath><mask
     id="r"><g
       filter="url(#a)"
       id="g71"><path
         d="m 0 0 h 16 v 16 h -16 z"
         fill-opacity="0.5"
         id="path69" /></g></mask><clipPath
     id="s"><path
       d="m 0 0 h 1024 v 800 h -1024 z"
       id="path74" /></clipPath><mask
     id="t"><g
       filter="url(#a)"
       id="g79"><path
         d="m 0 0 h 16 v 16 h -16 z"
         fill-opacity="0.4"
         id="path77" /></g></mask><clipPath
     id="u"><path
       d="m 0 0 h 1024 v 800 h -1024 z"
       id="path82" /></clipPath><mask
     id="v"><g
       filter="url(#a)"
       id="g87"><path
         d="m 0 0 h 16 v 16 h -16 z"
         fill-opacity="0.4"
         id="path85" /></g></mask><clipPath
     id="w"><path
       d="m 0 0 h 1024 v 800 h -1024 z"
       id="path90" /></clipPath><mask
     id="x"><g
       filter="url(#a)"
       id="g95"><path
         d="m 0 0 h 16 v 16 h -16 z"
         fill-opacity="0.5"
         id="path93" /></g></mask><clipPath
     id="y"><path
       d="m 0 0 h 1024 v 800 h -1024 z"
       id="path98" /></clipPath><mask
     id="z"><g
       filter="url(#a)"
       id="g103"><path
         d="m 0 0 h 16 v 16 h -16 z"
         fill-opacity="0.5"
         id="path101" /></g></mask><clipPath
     id="A"><path
       d="m 0 0 h 1024 v 800 h -1024 z"
       id="path106" /></clipPath><g
     clip-path="url(#c)"
     mask="url(#b)"
     transform="matrix(1 0 0 1 -560 -500)"
     id="g113"><path
       d="m 562.460938 212.058594 h 10.449218 c -1.183594 0.492187 -1.296875 2.460937 0 3 h -10.449218 z m 0 0"
       fill="#2e3436"
       id="path111" /></g><g
     clip-path="url(#e)"
     mask="url(#d)"
     transform="matrix(1 0 0 1 -560 -500)"
     id="g117"><path
       d="m 16 632 h 1 v 1 h -1 z m 0 0"
       fill="#2e3436"
       fill-rule="evenodd"
       id="path115" /></g><g
     clip-path="url(#g)"
     mask="url(#f)"
     transform="matrix(1 0 0 1 -560 -500)"
     id="g121"><path
       d="m 17 631 h 1 v 1 h -1 z m 0 0"
       fill="#2e3436"
       fill-rule="evenodd"
       id="path119" /></g><g
     clip-path="url(#i)"
     mask="url(#h)"
     transform="matrix(1 0 0 1 -560 -500)"
     id="g125"><path
       d="m 18 634 h 1 v 1 h -1 z m 0 0"
       fill="#2e3436"
       fill-rule="evenodd"
       id="path123" /></g><g
     clip-path="url(#k)"
     mask="url(#j)"
     transform="matrix(1 0 0 1 -560 -500)"
     id="g129"><path
       d="m 16 634 h 1 v 1 h -1 z m 0 0"
       fill="#2e3436"
       fill-rule="evenodd"
       id="path127" /></g><g
     clip-path="url(#m)"
     mask="url(#l)"
     transform="matrix(1 0 0 1 -560 -500)"
     id="g133"><path
       d="m 17 635 h 1 v 1 h -1 z m 0 0"
       fill="#2e3436"
       fill-rule="evenodd"
       id="path131" /></g><g
     clip-path="url(#o)"
     mask="url(#n)"
     transform="matrix(1 0 0 1 -560 -500)"
     id="g137"><path
       d="m 19 635 h 1 v 1 h -1 z m 0 0"
       fill="#2e3436"
       fill-rule="evenodd"
       id="path135" /></g><g
     clip-path="url(#q)"
     mask="url(#p)"
     transform="matrix(1 0 0 1 -560 -500)"
     id="g141"><path
       d="m 136 660 v 7 h 7 v -7 z m 0 0"
       fill="#2e3436"
       id="path139" /></g><g
     clip-path="url(#s)"
     mask="url(#r)"
     transform="matrix(1 0 0 1 -560 -500)"
     id="g145"><path
       d="m 199 642 h 3 v 12 h -3 z m 0 0"
       fill="#2e3436"
       id="path143" /></g><g
     clip-path="url(#u)"
     mask="url(#t)"
     transform="matrix(1 0 0 1 -560 -500)"
     id="g149"><path
       d="m 209.5 144.160156 c 0.277344 0 0.5 0.222656 0.5 0.5 v 1 c 0 0.277344 -0.222656 0.5 -0.5 0.5 s -0.5 -0.222656 -0.5 -0.5 v -1 c 0 -0.277344 0.222656 -0.5 0.5 -0.5 z m 0 0"
       fill="#2e3436"
       id="path147" /></g><g
     clip-path="url(#w)"
     mask="url(#v)"
     transform="matrix(1 0 0 1 -560 -500)"
     id="g153"><path
       d="m 206.5 144.160156 c 0.277344 0 0.5 0.222656 0.5 0.5 v 1 c 0 0.277344 -0.222656 0.5 -0.5 0.5 s -0.5 -0.222656 -0.5 -0.5 v -1 c 0 -0.277344 0.222656 -0.5 0.5 -0.5 z m 0 0"
       fill="#2e3436"
       id="path151" /></g><g
     clip-path="url(#y)"
     mask="url(#x)"
     transform="matrix(1 0 0 1 -560 -500)"
     id="g157"><path
       d="m 229.5 143.160156 c -0.546875 0 -1 0.457032 -1 1 c 0 0.546875 0.453125 1 1 1 s 1 -0.453125 1 -1 c 0 -0.542968 -0.453125 -1 -1 -1 z m 0 0"
       fill="#2e3436"
       id="path155" /></g><g
     clip-path="url(#A)"
     mask="url(#z)"
     transform="matrix(1 0 0 1 -560 -500)"
     id="g161"><path
       d="m 226.453125 143.160156 c -0.519531 0 -0.953125 0.433594 -0.953125 0.953125 v 0.09375 c 0 0.519531 0.433594 0.953125 0.953125 0.953125 h 0.09375 c 0.519531 0 0.953125 -0.433594 0.953125 -0.953125 v -0.09375 c 0 -0.519531 -0.433594 -0.953125 -0.953125 -0.953125 z m 0 0"
       fill="#2e3436"
       id="path159" /></g><g
     id="g8908"><path
       id="path1045"
       style="color:#000000;fill:#2e3436;stroke-dasharray:0.8, 0.8"
       d="M 11.490234 2.4472656 L 11.5 3.2480469 L 11.566406 3.2480469 L 11.693359 3.2519531 L 11.828125 3.2636719 L 11.966797 3.28125 L 12.115234 3.3085938 L 12.203125 3.328125 L 12.375 2.546875 L 12.271484 2.5234375 L 12.089844 2.4921875 L 11.914062 2.46875 L 11.744141 2.453125 L 11.576172 2.4472656 L 11.490234 2.4472656 z M 10.570312 2.6230469 L 10.525391 2.640625 L 10.394531 2.7011719 L 10.267578 2.7695312 L 10.146484 2.84375 L 10.03125 2.9257812 L 9.921875 3.015625 L 9.8183594 3.109375 L 9.7695312 3.1582031 L 10.337891 3.7207031 L 10.371094 3.6875 L 10.441406 3.6230469 L 10.515625 3.5644531 L 10.589844 3.5097656 L 10.669922 3.4609375 L 10.751953 3.4179688 L 10.835938 3.3769531 L 10.857422 3.3691406 L 10.570312 2.6230469 z M 13.191406 2.7949219 L 12.914062 3.5449219 L 12.953125 3.5605469 L 13.140625 3.6367188 L 13.337891 3.7226562 L 13.541016 3.8164062 L 13.607422 3.8496094 L 13.962891 3.1328125 L 13.886719 3.0957031 L 13.666016 2.9921875 L 13.451172 2.8984375 L 13.242188 2.8144531 L 13.191406 2.7949219 z M 9.2382812 3.890625 L 9.2285156 3.90625 L 9.1621094 4.0371094 L 9.0996094 4.1699219 L 9.0410156 4.3066406 L 8.984375 4.4472656 L 8.9335938 4.5898438 L 8.8984375 4.6933594 L 9.65625 4.9492188 L 9.6875 4.8554688 L 9.7324219 4.7324219 L 9.7792969 4.6132812 L 9.8300781 4.4980469 L 9.8808594 4.3886719 L 9.9355469 4.2832031 L 9.9375 4.2792969 L 9.2382812 3.890625 z M 8.6738281 5.5097656 L 8.609375 5.8203125 L 8.5488281 6.1464844 L 8.5214844 6.3144531 L 9.3125 6.4414062 L 9.3378906 6.2832031 L 9.3945312 5.9746094 L 9.4570312 5.6738281 L 8.6738281 5.5097656 z M 2.4570312 10.517578 L 1.9394531 11.126953 L 2.1933594 11.341797 L 2.4433594 11.548828 L 2.5605469 11.644531 L 3.0644531 11.021484 L 2.9492188 10.929688 L 2.7070312 10.730469 L 2.4570312 10.517578 z M 3.6816406 11.501953 L 3.2070312 12.146484 L 3.375 12.269531 L 3.5917969 12.423828 L 3.8046875 12.568359 L 3.8808594 12.617188 L 4.3183594 11.947266 L 4.2480469 11.902344 L 4.0488281 11.767578 L 3.84375 11.621094 L 3.6816406 11.501953 z M 7.6796875 11.751953 L 7.640625 11.851562 L 7.5976562 11.951172 L 7.5527344 12.046875 L 7.5058594 12.134766 L 7.4570312 12.21875 L 7.4082031 12.296875 L 7.3535156 12.373047 L 8.0058594 12.835938 L 8.0703125 12.744141 L 8.140625 12.634766 L 8.2070312 12.521484 L 8.2675781 12.402344 L 8.3261719 12.28125 L 8.3808594 12.15625 L 8.4238281 12.046875 L 7.6796875 11.751953 z M 4.9804688 12.347656 L 4.5898438 13.044922 L 4.5957031 13.048828 L 4.7792969 13.144531 L 4.9609375 13.232422 L 5.1347656 13.3125 L 5.3066406 13.382812 L 5.3730469 13.40625 L 5.6484375 12.654297 L 5.5957031 12.636719 L 5.4511719 12.576172 L 5.2988281 12.507812 L 5.140625 12.431641 L 4.9804688 12.347656 z M 6.9023438 12.744141 L 6.8945312 12.748047 L 6.8261719 12.773438 L 6.7558594 12.792969 L 6.6796875 12.808594 L 6.5996094 12.820312 L 6.5136719 12.826172 L 6.421875 12.826172 L 6.3242188 12.820312 L 6.3320312 12.822266 L 6.2382812 13.617188 L 6.2539062 13.619141 L 6.3984375 13.626953 L 6.5429688 13.626953 L 6.6816406 13.617188 L 6.8183594 13.597656 L 6.9492188 13.570312 L 7.078125 13.533203 L 7.2011719 13.486328 L 7.2363281 13.470703 L 6.9023438 12.744141 z " /><g
       id="g7289"
       transform="translate(-12.119866,-1.6325847)"><path
         style="color:#000000;fill:#2e3436;-inkscape-stroke:none"
         d="m 18.955078,8.5917969 v 0.1503906 4.1132815 h 4.408203 V 8.5917969 Z m 0.300781,0.3007812 h 3.808594 v 3.6621099 h -3.808594 z"
         id="rect5646" /><path
         d="m 21.664456,9.4348009 c -0.0448,0.0028 -0.08868,0.02834 -0.132566,0.07131 l -2.010434,1.9738661 0.543064,0.533007 h 1.315605 l 1.361318,-1.336633 c 0.0768,-0.07497 0.07131,-0.187422 0.0018,-0.255075 L 21.807968,9.5024539 c -0.0512,-0.04937 -0.09783,-0.0704 -0.143538,-0.06765 z m -0.927049,1.3174341 0.64729,0.601576 c 0.04937,0.02925 0.04662,0.13531 0.0082,0.174622 L 21.159763,11.77528 H 20.16506 l -0.29896,-0.294388 0.717686,-0.720429 c 0.04389,-0.04389 0.117024,-0.0448 0.153593,-0.0082 z m 0,0"
         id="path6823"
         style="fill:#2e3436;stroke-width:0.234048" /></g></g></svg>
