<?xml version="1.0" encoding="UTF-8"?>
<svg xmlns="http://www.w3.org/2000/svg" xmlns:xlink="http://www.w3.org/1999/xlink" width="16px" height="16px" viewBox="0 0 16 16" version="1.1">
<g id="surface8525478">
<path style="" d="M 11.5 0 C 9.015625 0 7 2.015625 7 4.5 C 7 6.984375 9.015625 9 11.5 9 C 13.984375 9 16 6.984375 16 4.5 C 16 3.925781 15.890625 3.355469 15.675781 2.824219 L 13.5 5 L 11 5 L 11 2.5 L 13.175781 0.324219 C 12.644531 0.109375 12.074219 0 11.5 0 Z M 11.5 0 "/>
<path style="" d="M 7.730469 4.734375 L 0.730469 11.734375 C 0.261719 12.203125 0 12.835938 0 13.5 C 0 14.164062 0.261719 14.800781 0.730469 15.269531 C 1.707031 16.242188 3.292969 16.242188 4.269531 15.269531 L 11.269531 8.269531 Z M 2.5 12.5 C 3.050781 12.5 3.5 12.949219 3.5 13.5 C 3.5 14.050781 3.050781 14.5 2.5 14.5 C 1.949219 14.5 1.5 14.050781 1.5 13.5 C 1.5 12.949219 1.949219 12.5 2.5 12.5 Z M 2.5 12.5 "/>
</g>
</svg>