<?xml version="1.0" encoding="UTF-8" standalone="no"?>
<svg
   height="16px"
   viewBox="0 0 16 16"
   width="16px"
   version="1.1"
   id="svg163"
   xmlns="http://www.w3.org/2000/svg"
   xmlns:svg="http://www.w3.org/2000/svg">
  <defs
     id="defs167" />
  <filter
     id="a"
     height="1"
     width="1"
     x="0"
     y="0">
    <feColorMatrix
       in="SourceGraphic"
       type="matrix"
       values="0 0 0 0 1 0 0 0 0 1 0 0 0 0 1 0 0 0 1 0"
       id="feColorMatrix2" />
  </filter>
  <mask
     id="b">
    <g
       filter="url(#a)"
       id="g7">
      <path
         d="m 0 0 h 16 v 16 h -16 z"
         fill-opacity="0.3"
         id="path5" />
    </g>
  </mask>
  <clipPath
     id="c">
    <path
       d="m 0 0 h 1024 v 800 h -1024 z"
       id="path10" />
  </clipPath>
  <mask
     id="d">
    <g
       filter="url(#a)"
       id="g15">
      <path
         d="m 0 0 h 16 v 16 h -16 z"
         fill-opacity="0.05"
         id="path13" />
    </g>
  </mask>
  <clipPath
     id="e">
    <path
       d="m 0 0 h 1024 v 800 h -1024 z"
       id="path18" />
  </clipPath>
  <mask
     id="f">
    <g
       filter="url(#a)"
       id="g23">
      <path
         d="m 0 0 h 16 v 16 h -16 z"
         fill-opacity="0.05"
         id="path21" />
    </g>
  </mask>
  <clipPath
     id="g">
    <path
       d="m 0 0 h 1024 v 800 h -1024 z"
       id="path26" />
  </clipPath>
  <mask
     id="h">
    <g
       filter="url(#a)"
       id="g31">
      <path
         d="m 0 0 h 16 v 16 h -16 z"
         fill-opacity="0.05"
         id="path29" />
    </g>
  </mask>
  <clipPath
     id="i">
    <path
       d="m 0 0 h 1024 v 800 h -1024 z"
       id="path34" />
  </clipPath>
  <mask
     id="j">
    <g
       filter="url(#a)"
       id="g39">
      <path
         d="m 0 0 h 16 v 16 h -16 z"
         fill-opacity="0.05"
         id="path37" />
    </g>
  </mask>
  <clipPath
     id="k">
    <path
       d="m 0 0 h 1024 v 800 h -1024 z"
       id="path42" />
  </clipPath>
  <mask
     id="l">
    <g
       filter="url(#a)"
       id="g47">
      <path
         d="m 0 0 h 16 v 16 h -16 z"
         fill-opacity="0.05"
         id="path45" />
    </g>
  </mask>
  <clipPath
     id="m">
    <path
       d="m 0 0 h 1024 v 800 h -1024 z"
       id="path50" />
  </clipPath>
  <mask
     id="n">
    <g
       filter="url(#a)"
       id="g55">
      <path
         d="m 0 0 h 16 v 16 h -16 z"
         fill-opacity="0.05"
         id="path53" />
    </g>
  </mask>
  <clipPath
     id="o">
    <path
       d="m 0 0 h 1024 v 800 h -1024 z"
       id="path58" />
  </clipPath>
  <mask
     id="p">
    <g
       filter="url(#a)"
       id="g63">
      <path
         d="m 0 0 h 16 v 16 h -16 z"
         fill-opacity="0.3"
         id="path61" />
    </g>
  </mask>
  <clipPath
     id="q">
    <path
       d="m 0 0 h 1024 v 800 h -1024 z"
       id="path66" />
  </clipPath>
  <mask
     id="r">
    <g
       filter="url(#a)"
       id="g71">
      <path
         d="m 0 0 h 16 v 16 h -16 z"
         fill-opacity="0.5"
         id="path69" />
    </g>
  </mask>
  <clipPath
     id="s">
    <path
       d="m 0 0 h 1024 v 800 h -1024 z"
       id="path74" />
  </clipPath>
  <mask
     id="t">
    <g
       filter="url(#a)"
       id="g79">
      <path
         d="m 0 0 h 16 v 16 h -16 z"
         fill-opacity="0.4"
         id="path77" />
    </g>
  </mask>
  <clipPath
     id="u">
    <path
       d="m 0 0 h 1024 v 800 h -1024 z"
       id="path82" />
  </clipPath>
  <mask
     id="v">
    <g
       filter="url(#a)"
       id="g87">
      <path
         d="m 0 0 h 16 v 16 h -16 z"
         fill-opacity="0.4"
         id="path85" />
    </g>
  </mask>
  <clipPath
     id="w">
    <path
       d="m 0 0 h 1024 v 800 h -1024 z"
       id="path90" />
  </clipPath>
  <mask
     id="x">
    <g
       filter="url(#a)"
       id="g95">
      <path
         d="m 0 0 h 16 v 16 h -16 z"
         fill-opacity="0.5"
         id="path93" />
    </g>
  </mask>
  <clipPath
     id="y">
    <path
       d="m 0 0 h 1024 v 800 h -1024 z"
       id="path98" />
  </clipPath>
  <mask
     id="z">
    <g
       filter="url(#a)"
       id="g103">
      <path
         d="m 0 0 h 16 v 16 h -16 z"
         fill-opacity="0.5"
         id="path101" />
    </g>
  </mask>
  <clipPath
     id="A">
    <path
       d="m 0 0 h 1024 v 800 h -1024 z"
       id="path106" />
  </clipPath>
  <g
     clip-path="url(#c)"
     mask="url(#b)"
     transform="matrix(1 0 0 1 -560 -500)"
     id="g113">
    <path
       d="m 562.460938 212.058594 h 10.449218 c -1.183594 0.492187 -1.296875 2.460937 0 3 h -10.449218 z m 0 0"
       fill="#2e3436"
       id="path111" />
  </g>
  <g
     clip-path="url(#e)"
     mask="url(#d)"
     transform="matrix(1 0 0 1 -560 -500)"
     id="g117">
    <path
       d="m 16 632 h 1 v 1 h -1 z m 0 0"
       fill="#2e3436"
       fill-rule="evenodd"
       id="path115" />
  </g>
  <g
     clip-path="url(#g)"
     mask="url(#f)"
     transform="matrix(1 0 0 1 -560 -500)"
     id="g121">
    <path
       d="m 17 631 h 1 v 1 h -1 z m 0 0"
       fill="#2e3436"
       fill-rule="evenodd"
       id="path119" />
  </g>
  <g
     clip-path="url(#i)"
     mask="url(#h)"
     transform="matrix(1 0 0 1 -560 -500)"
     id="g125">
    <path
       d="m 18 634 h 1 v 1 h -1 z m 0 0"
       fill="#2e3436"
       fill-rule="evenodd"
       id="path123" />
  </g>
  <g
     clip-path="url(#k)"
     mask="url(#j)"
     transform="matrix(1 0 0 1 -560 -500)"
     id="g129">
    <path
       d="m 16 634 h 1 v 1 h -1 z m 0 0"
       fill="#2e3436"
       fill-rule="evenodd"
       id="path127" />
  </g>
  <g
     clip-path="url(#m)"
     mask="url(#l)"
     transform="matrix(1 0 0 1 -560 -500)"
     id="g133">
    <path
       d="m 17 635 h 1 v 1 h -1 z m 0 0"
       fill="#2e3436"
       fill-rule="evenodd"
       id="path131" />
  </g>
  <g
     clip-path="url(#o)"
     mask="url(#n)"
     transform="matrix(1 0 0 1 -560 -500)"
     id="g137">
    <path
       d="m 19 635 h 1 v 1 h -1 z m 0 0"
       fill="#2e3436"
       fill-rule="evenodd"
       id="path135" />
  </g>
  <g
     clip-path="url(#q)"
     mask="url(#p)"
     transform="matrix(1 0 0 1 -560 -500)"
     id="g141">
    <path
       d="m 136 660 v 7 h 7 v -7 z m 0 0"
       fill="#2e3436"
       id="path139" />
  </g>
  <g
     clip-path="url(#s)"
     mask="url(#r)"
     transform="matrix(1 0 0 1 -560 -500)"
     id="g145">
    <path
       d="m 199 642 h 3 v 12 h -3 z m 0 0"
       fill="#2e3436"
       id="path143" />
  </g>
  <g
     clip-path="url(#u)"
     mask="url(#t)"
     transform="matrix(1 0 0 1 -560 -500)"
     id="g149">
    <path
       d="m 209.5 144.160156 c 0.277344 0 0.5 0.222656 0.5 0.5 v 1 c 0 0.277344 -0.222656 0.5 -0.5 0.5 s -0.5 -0.222656 -0.5 -0.5 v -1 c 0 -0.277344 0.222656 -0.5 0.5 -0.5 z m 0 0"
       fill="#2e3436"
       id="path147" />
  </g>
  <g
     clip-path="url(#w)"
     mask="url(#v)"
     transform="matrix(1 0 0 1 -560 -500)"
     id="g153">
    <path
       d="m 206.5 144.160156 c 0.277344 0 0.5 0.222656 0.5 0.5 v 1 c 0 0.277344 -0.222656 0.5 -0.5 0.5 s -0.5 -0.222656 -0.5 -0.5 v -1 c 0 -0.277344 0.222656 -0.5 0.5 -0.5 z m 0 0"
       fill="#2e3436"
       id="path151" />
  </g>
  <g
     clip-path="url(#y)"
     mask="url(#x)"
     transform="matrix(1 0 0 1 -560 -500)"
     id="g157">
    <path
       d="m 229.5 143.160156 c -0.546875 0 -1 0.457032 -1 1 c 0 0.546875 0.453125 1 1 1 s 1 -0.453125 1 -1 c 0 -0.542968 -0.453125 -1 -1 -1 z m 0 0"
       fill="#2e3436"
       id="path155" />
  </g>
  <g
     clip-path="url(#A)"
     mask="url(#z)"
     transform="matrix(1 0 0 1 -560 -500)"
     id="g161">
    <path
       d="m 226.453125 143.160156 c -0.519531 0 -0.953125 0.433594 -0.953125 0.953125 v 0.09375 c 0 0.519531 0.433594 0.953125 0.953125 0.953125 h 0.09375 c 0.519531 0 0.953125 -0.433594 0.953125 -0.953125 v -0.09375 c 0 -0.519531 -0.433594 -0.953125 -0.953125 -0.953125 z m 0 0"
       fill="#2e3436"
       id="path159" />
  </g>
  <path
     style="color:#000000;fill:#2e3436;stroke-dasharray:2.4, 0.8;stroke-dashoffset:1.04;-inkscape-stroke:none"
     d="M 3.2460938,2.8457031 V 3.2460938 H 2.8457031 V 3.921875 H 3.6445313 V 3.6445313 H 4.6054687 V 2.8457031 Z m 2.1601562,0 V 3.6445313 H 7.8046875 V 2.8457031 Z m 3.1992188,0 V 3.6445313 H 11.005859 V 2.8457031 Z m 3.1992192,0 v 0.7988282 h 0.550781 v 1.0507812 h 0.798828 V 2.8457031 Z M 2.8457031,4.7226562 V 7.1230469 H 3.6445313 V 4.7226562 Z m 9.5097659,0.7734375 v 2.4003907 h 0.798828 V 5.4960937 Z M 2.8457031,7.921875 v 2.400391 H 3.6445313 V 7.921875 Z m 9.5097659,0.7734375 v 2.4003905 h 0.798828 V 8.6953125 Z M 2.8457031,11.123047 v 2.03125 H 4.0136719 V 12.355469 H 3.6445313 v -1.232422 z m 9.5097659,0.773437 v 0.458985 h -1.142578 v 0.798828 h 1.941406 V 11.896484 Z M 4.8125,12.355469 v 0.798828 h 2.4003906 v -0.798828 z m 3.2011719,0 v 0.798828 h 2.3984371 v -0.798828 z"
     id="rect434" />
</svg>
