<?xml version="1.0" encoding="UTF-8" standalone="no"?>
<svg
   width="16"
   height="16"
   version="1.1"
   id="svg4"
   xmlns="http://www.w3.org/2000/svg"
   xmlns:svg="http://www.w3.org/2000/svg">
  <defs
     id="defs8" />
  <g
     id="g17440"
     transform="matrix(1.2649783,0,0,1.2649783,-2.1198267,-2.1198267)">
    <path
       id="rect4136"
       style="fill:#2e3436;fill-opacity:1;stroke:none;stroke-width:2.26772;stroke-dashoffset:1.08"
       d="m 2.8300781,4.9003906 c -0.279797,0 -0.5058593,0.2260624 -0.5058593,0.5058594 v 7.988281 c 0,0.2798 0.2260623,0.50586 0.5058593,0.50586 H 13.818359 c 0.2798,0 0.50586,-0.22606 0.50586,-0.50586 V 5.40625 c 0,-0.279797 -0.22606,-0.5058594 -0.50586,-0.5058594 h -1.49414 v 2.5 H 4.3242188 v -2.5 z M 3.9804688,8.5 H 5.0195312 C 5.1469396,8.5 5.25,8.6030604 5.25,8.7304688 V 9.2695312 C 5.25,9.3969396 5.1469396,9.5 5.0195312,9.5 H 3.9804688 C 3.8530604,9.5 3.75,9.3969396 3.75,9.2695312 V 8.7304688 C 3.75,8.6030604 3.8530604,8.5 3.9804688,8.5 Z m 2.5,0 H 7.5195312 C 7.6469403,8.5 7.75,8.6030597 7.75,8.7304688 V 9.2695312 C 7.75,9.3969403 7.6469403,9.5 7.5195312,9.5 H 6.4804688 C 6.3530597,9.5 6.25,9.3969403 6.25,9.2695312 V 8.7304688 C 6.25,8.6030597 6.3530597,8.5 6.4804688,8.5 Z m 2.5,0 H 10.019531 C 10.14694,8.5 10.25,8.6030598 10.25,8.7304688 V 9.2695312 C 10.25,9.3969402 10.14694,9.5 10.019531,9.5 H 8.9804688 C 8.8530598,9.5 8.75,9.3969402 8.75,9.2695312 V 8.7304688 C 8.75,8.6030598 8.8530598,8.5 8.9804688,8.5 Z m 2.5000002,0 h 1.039062 C 12.64694,8.5 12.75,8.6030599 12.75,8.7304688 V 9.2695312 C 12.75,9.3969401 12.64694,9.5 12.519531,9.5 H 11.480469 C 11.35306,9.5 11.25,9.3969401 11.25,9.2695312 V 8.7304688 C 11.25,8.6030599 11.35306,8.5 11.480469,8.5 Z M 3.4804688,10 H 4.5195312 C 4.6469395,10 4.75,10.10306 4.75,10.230469 v 0.539062 C 4.75,10.89694 4.6469395,11 4.5195312,11 H 3.4804688 C 3.3530605,11 3.25,10.89694 3.25,10.769531 V 10.230469 C 3.25,10.10306 3.3530605,10 3.4804688,10 Z m 2.5,0 H 7.0195312 C 7.1469397,10 7.25,10.10306 7.25,10.230469 v 0.539062 C 7.25,10.89694 7.1469397,11 7.0195312,11 H 5.9804688 C 5.8530603,11 5.75,10.89694 5.75,10.769531 V 10.230469 C 5.75,10.10306 5.8530603,10 5.9804688,10 Z m 2.5,0 H 9.5195312 C 9.6469398,10 9.75,10.10306 9.75,10.230469 v 0.539062 C 9.75,10.89694 9.6469398,11 9.5195312,11 H 8.4804688 C 8.3530602,11 8.25,10.89694 8.25,10.769531 V 10.230469 C 8.25,10.10306 8.3530602,10 8.4804688,10 Z m 2.5000002,0 h 1.039062 C 12.14694,10 12.25,10.10306 12.25,10.230469 v 0.539062 C 12.25,10.89694 12.14694,11 12.019531,11 H 10.980469 C 10.85306,11 10.75,10.89694 10.75,10.769531 V 10.230469 C 10.75,10.10306 10.85306,10 10.980469,10 Z M 3.9804688,11.5 H 5.0195312 C 5.1469394,11.5 5.25,11.60306 5.25,11.730469 v 0.539062 C 5.25,12.39694 5.1469394,12.5 5.0195312,12.5 H 3.9804688 C 3.8530606,12.5 3.75,12.39694 3.75,12.269531 V 11.730469 C 3.75,11.60306 3.8530606,11.5 3.9804688,11.5 Z m 2.5,0 H 10.019531 C 10.14694,11.5 10.25,11.60306 10.25,11.730469 v 0.539062 C 10.25,12.39694 10.14694,12.5 10.019531,12.5 H 6.4804688 C 6.3530607,12.5 6.25,12.39694 6.25,12.269531 V 11.730469 C 6.25,11.60306 6.3530607,11.5 6.4804688,11.5 Z m 5.0000002,0 h 1.039062 C 12.64694,11.5 12.75,11.60306 12.75,11.730469 v 0.539062 C 12.75,12.39694 12.64694,12.5 12.519531,12.5 H 11.480469 C 11.35306,12.5 11.25,12.39694 11.25,12.269531 V 11.730469 C 11.25,11.60306 11.35306,11.5 11.480469,11.5 Z" />
    <path
       style="color:#000000;fill:#2e3436;stroke-dashoffset:1.08;-inkscape-stroke:none"
       d="m 4.8300781,2.0996094 c -0.4413857,0 -0.8046875,0.3652548 -0.8046875,0.8066406 V 7.6992187 H 12.625 V 2.90625 c 0,-0.4413858 -0.365255,-0.8066406 -0.806641,-0.8066406 z m 0,0.5996094 h 6.9882809 c 0.118214,0 0.207032,0.088817 0.207032,0.2070312 V 7.0996094 H 4.625 V 2.90625 c 0,-0.1182142 0.086864,-0.2070312 0.2050781,-0.2070312 z"
       id="rect4138-1" />
    <path
       style="color:#000000;fill:#2e3436;stroke-dashoffset:1.08;-inkscape-stroke:none"
       d="M 5.3242187,3.4003906 V 3.6992188 H 11.324219 V 3.4003906 Z"
       id="path10410" />
    <path
       style="color:#000000;fill:#2e3436;stroke-dashoffset:1.08;-inkscape-stroke:none"
       d="M 5.3242187,4.25 V 4.5507812 H 11.324219 V 4.25 Z"
       id="path10410-9" />
    <path
       style="color:#000000;fill:#2e3436;stroke-dashoffset:1.08;-inkscape-stroke:none"
       d="M 5.3242187,5.0996094 V 5.4003906 H 11.324219 V 5.0996094 Z"
       id="path10410-9-7" />
    <path
       style="color:#000000;fill:#2e3436;stroke-dashoffset:1.08;-inkscape-stroke:none"
       d="M 5.3242187,5.9003906 V 6.1992187 H 8.3242188 V 5.9003906 Z"
       id="path10410-9-7-3" />
    <g
       id="rect16525">
      <path
         style="color:#000000;fill:#2e3436;stroke-width:0.3;stroke-dashoffset:1.08;-inkscape-stroke:none"
         d="m 2.0549805,5.9000001 h 1.0400391 c 0.1274092,0 0.2299804,0.1025713 0.2299804,0.2299805 v 1.540039 c 0,0.1274092 -0.1025712,0.2299805 -0.2299804,0.2299805 H 2.0549805 C 1.9275713,7.9000001 1.825,7.7974288 1.825,7.6700196 v -1.540039 c 0,-0.1274092 0.1025713,-0.2299805 0.2299805,-0.2299805 z"
         id="path17405" />
      <path
         style="color:#000000;fill:#2e3436;stroke-dashoffset:1.08;-inkscape-stroke:none"
         d="m 2.0546875,5.75 c -0.2079144,0 -0.3789062,0.172945 -0.3789063,0.3808594 v 1.5390625 c 10e-8,0.2079144 0.1709919,0.3808594 0.3789063,0.3808594 h 1.0410156 c 0.2079144,0 0.3789063,-0.1729451 0.3789063,-0.3808594 V 6.1308594 C 3.4746094,5.922945 3.3036175,5.75 3.0957031,5.75 Z m 0,0.3007812 h 1.0410156 c 0.046904,0 0.080078,0.033174 0.080078,0.080078 v 1.5390625 c 0,0.046904 -0.033174,0.080078 -0.080078,0.080078 H 2.0546875 c -0.046904,0 -0.080078,-0.033174 -0.080078,-0.080078 V 6.1308594 c 0,-0.046904 0.033174,-0.080078 0.080078,-0.080078 z"
         id="path17407" />
    </g>
  </g>
</svg>
