<?xml version="1.0" encoding="UTF-8" standalone="no"?>
<svg
   width="16"
   height="16"
   version="1.1"
   id="svg4"
   xmlns="http://www.w3.org/2000/svg"
   xmlns:svg="http://www.w3.org/2000/svg">
  <defs
     id="defs8" />
  <path
     id="rect4136"
     style="fill:#2e3436;fill-opacity:1;stroke:none;stroke-width:2.86862;stroke-dashoffset:1.08"
     d="M 2 4.078125 C 1.6460637 4.078125 1.359375 4.3648137 1.359375 4.71875 L 1.359375 14.824219 C 1.359375 15.178158 1.6460637 15.462891 2 15.462891 L 15 15.462891 C 15.353941 15.462891 15.640625 15.178158 15.640625 14.824219 L 15.640625 4.71875 C 15.640625 4.3648137 15.353941 4.078125 15 4.078125 L 13.470703 4.078125 L 13.470703 7.2421875 L 3.3496094 7.2421875 L 3.3496094 4.078125 L 2 4.078125 z M 5.2851562 8 A 0.75 0.75 0 0 1 5.4863281 8.0390625 A 0.75 0.75 0 0 1 5.9746094 8.9433594 L 5.9082031 9.109375 A 0.75 0.75 0 0 1 4.9316406 9.4296875 A 0.75 0.75 0 0 1 4.5527344 8.4726562 A 0.75 0.75 0 0 1 5.2851562 8 z M 7.7851562 8 A 0.75 0.75 0 0 1 7.9863281 8.0390625 A 0.75 0.75 0 0 1 8.4746094 8.9433594 L 8.4082031 9.109375 A 0.75 0.75 0 0 1 7.4316406 9.4296875 A 0.75 0.75 0 0 1 7.0527344 8.4726562 A 0.75 0.75 0 0 1 7.7851562 8 z M 10.285156 8 A 0.75 0.75 0 0 1 10.486328 8.0390625 A 0.75 0.75 0 0 1 10.974609 8.9433594 L 10.908203 9.109375 A 0.75 0.75 0 0 1 9.9316406 9.4296875 A 0.75 0.75 0 0 1 9.5527344 8.4726562 A 0.75 0.75 0 0 1 10.285156 8 z M 12.785156 8 A 0.75 0.75 0 0 1 12.986328 8.0390625 A 0.75 0.75 0 0 1 13.474609 8.9433594 L 13.408203 9.109375 A 0.75 0.75 0 0 1 12.431641 9.4296875 A 0.75 0.75 0 0 1 12.052734 8.4726562 A 0.75 0.75 0 0 1 12.785156 8 z M 4.2851562 10.5 A 0.75 0.75 0 0 1 4.4863281 10.539062 A 0.75 0.75 0 0 1 4.9746094 11.443359 L 4.9082031 11.609375 A 0.75 0.75 0 0 1 3.9316406 11.929688 A 0.75 0.75 0 0 1 3.5527344 10.972656 A 0.75 0.75 0 0 1 4.2851562 10.5 z M 6.7851562 10.5 A 0.75 0.75 0 0 1 6.9863281 10.539062 A 0.75 0.75 0 0 1 7.4746094 11.443359 L 7.4082031 11.609375 A 0.75 0.75 0 0 1 6.4316406 11.929688 A 0.75 0.75 0 0 1 6.0527344 10.972656 A 0.75 0.75 0 0 1 6.7851562 10.5 z M 9.2851562 10.5 A 0.75 0.75 0 0 1 9.4863281 10.539062 A 0.75 0.75 0 0 1 9.9746094 11.443359 L 9.9082031 11.609375 A 0.75 0.75 0 0 1 8.9316406 11.929688 A 0.75 0.75 0 0 1 8.5527344 10.972656 A 0.75 0.75 0 0 1 9.2851562 10.5 z M 11.785156 10.5 A 0.75 0.75 0 0 1 11.986328 10.539062 A 0.75 0.75 0 0 1 12.474609 11.443359 L 12.408203 11.609375 A 0.75 0.75 0 0 1 11.431641 11.929688 A 0.75 0.75 0 0 1 11.052734 10.972656 A 0.75 0.75 0 0 1 11.785156 10.5 z M 3.75 13 L 13 13 C 13.277 13 13.5 13.223 13.5 13.5 L 13.5 14 C 13.5 14.277 13.277 14.5 13 14.5 L 3.75 14.5 C 3.4730006 14.5 3.25 14.277 3.25 14 L 3.25 13.5 C 3.25 13.223 3.4730006 13 3.75 13 z " />
  <path
     style="color:#000000;fill:#2e3436;stroke-width:1.26498;stroke-dashoffset:1.08"
     d="M 4.0179122,0.47961713 C 3.4595689,0.47961713 3,0.94165653 3,1.5 V 7.5630014 H 13.878319 V 1.5 c 0,-0.55834347 -0.462039,-1.02038287 -1.020383,-1.02038287 z m 0,0.75849287 h 8.8400238 c 0.149538,0 0.261891,0.1123516 0.261891,0.26189 V 6.8045086 H 3.7584928 V 1.5 c 0,-0.1495384 0.1098811,-0.26189 0.2594194,-0.26189 z"
     id="rect4138-1" />
  <g
     id="rect16525"
     transform="matrix(1.2649783,0,0,1.2649783,-2.1198267,-2.1198267)">
    <path
       style="color:#000000;fill:#2e3436;stroke-width:0.3;stroke-dashoffset:1.08"
       d="m 2.0549805,5.9000001 h 1.0400391 c 0.1274092,0 0.2299804,0.1025713 0.2299804,0.2299805 v 1.540039 c 0,0.1274092 -0.1025712,0.2299805 -0.2299804,0.2299805 H 2.0549805 C 1.9275713,7.9000001 1.825,7.7974288 1.825,7.6700196 v -1.540039 c 0,-0.1274092 0.1025713,-0.2299805 0.2299805,-0.2299805 z"
       id="path17405" />
    <path
       style="color:#000000;fill:#2e3436;stroke-dashoffset:1.08"
       d="m 2.0546875,5.75 c -0.2079144,0 -0.3789062,0.172945 -0.3789063,0.3808594 v 1.5390625 c 10e-8,0.2079144 0.1709919,0.3808594 0.3789063,0.3808594 h 1.0410156 c 0.2079144,0 0.3789063,-0.1729451 0.3789063,-0.3808594 V 6.1308594 C 3.4746094,5.922945 3.3036175,5.75 3.0957031,5.75 Z m 0,0.3007812 h 1.0410156 c 0.046904,0 0.080078,0.033174 0.080078,0.080078 v 1.5390625 c 0,0.046904 -0.033174,0.080078 -0.080078,0.080078 H 2.0546875 c -0.046904,0 -0.080078,-0.033174 -0.080078,-0.080078 V 6.1308594 c 0,-0.046904 0.033174,-0.080078 0.080078,-0.080078 z"
       id="path17407" />
  </g>
  <path
     style="fill:none;fill-opacity:1;stroke:#2e3436;stroke-width:0.5;stroke-dasharray:none;stroke-opacity:1"
     d="M 5,5.25 H 9"
     id="path1295" />
  <path
     style="fill:none;fill-opacity:1;stroke:#2e3436;stroke-width:0.5;stroke-dasharray:none;stroke-opacity:1"
     d="m 5,3.7 h 7"
     id="path1295-7" />
  <path
     style="fill:none;fill-opacity:1;stroke:#2e3436;stroke-width:0.5;stroke-dasharray:none;stroke-opacity:1"
     d="m 5,2.25 h 7"
     id="path1295-7-8" />
</svg>
