<?xml version="1.0" encoding="UTF-8" standalone="no"?>
<svg
   class="svg-icon"
   style="width: 1em; height: 1em;vertical-align: middle;fill: currentColor;overflow: hidden;"
   viewBox="0 0 1024 1024"
   version="1.1"
   id="svg4"
   xmlns="http://www.w3.org/2000/svg"
   xmlns:svg="http://www.w3.org/2000/svg">
  <defs
     id="defs8" />
  <path
     d="M 600.43479,874.33432 H 405.1248 c -97.655,0 -176.40903,-78.75403 -176.40903,-173.25886 v -72.45371 l -69.30354,-69.30354 c -34.65177,-34.65177 -34.65177,-88.20451 0,-122.85628 15.75081,-15.75081 34.65177,-22.05113 53.55274,-25.20129 -28.35145,-34.65178 -25.20129,-85.05435 6.30032,-116.55596 25.20129,-28.35146 72.45371,-31.50162 103.95532,-12.60065 0,-22.05113 9.45048,-40.95209 25.20129,-56.7029 31.50161,-31.50161 88.20451,-31.50161 122.85628,0 3.15016,-18.90097 12.60065,-34.65177 28.35145,-50.40258 31.50161,-31.50161 88.20451,-31.50161 122.85629,0 l 198.46015,204.76048 c 47.25241,47.25241 75.60386,113.4058 75.60386,182.70934 0,75.60387 -22.05112,138.60709 -66.15338,182.70935 L 761.093,811.3311 c -50.40257,40.95209 -103.95531,63.00322 -160.65821,63.00322 z M 260.21739,660.12337 v 40.95209 c 0,78.75403 66.15338,141.75725 144.90741,141.75725 h 195.30999 c 47.25241,0 94.50483,-18.90097 129.1566,-53.55274 l 69.30355,-66.15338 c 37.80193,-37.80194 56.7029,-94.50484 56.7029,-160.65822 0,-59.85306 -22.05113,-116.55596 -66.15339,-160.65822 L 732.74155,338.80693 594.13447,197.04968 c -18.90097,-22.05113 -56.7029,-22.05113 -75.60387,0 -18.90097,18.90097 -28.35145,47.25242 -6.30032,72.45371 l 12.60064,12.60064 c 6.30032,6.30032 6.30032,15.75081 0,22.05113 -6.30032,6.30032 -15.75081,6.30032 -22.05113,0 l -12.60064,-12.60065 -3.15016,-3.15016 -40.9521,-44.10225 c -18.90096,-22.05113 -56.7029,-22.05113 -75.60387,0 -22.05112,22.05112 -22.05112,56.7029 0,78.75403 l 44.10226,50.40257 c 6.30032,6.30033 6.30032,15.75081 0,22.05113 -6.30032,6.30032 -15.7508,6.30032 -22.05113,0 L 316.92029,316.7558 c -18.90097,-18.90096 -56.7029,-18.90096 -75.60387,0 -22.05113,22.05113 -22.05113,56.7029 0,78.75403 l 75.60387,72.45371 c 6.30032,6.30032 6.30032,15.7508 0,22.05113 -6.30033,6.30032 -15.75081,6.30032 -22.05113,0 l -34.65177,-31.50162 c -22.05113,-22.05112 -56.70291,-22.05112 -78.75403,0 -22.05113,22.05113 -22.05113,56.7029 0,78.75403 l 151.20773,154.3579 c 6.30032,6.30032 6.30032,15.7508 0,22.05112 -6.30032,6.30033 -15.7508,6.30033 -22.05113,0 z"
     fill=""
     id="path795"
     style="stroke-width:0.922899" />
</svg>
