<?xml version="1.0" encoding="UTF-8"?>
<svg xmlns="http://www.w3.org/2000/svg" height="16px" viewBox="0 0 16 16" width="16px"><g fill="#222222"><path d="m 5 1 v 2 h 8 v 9.015625 h 2 v -11.015625 z m 0 0"/><path d="m 1 4 v 1 h 1 v -1 z m 2 0 v 1 h 1 v -1 z m 2 0 v 1 h 1 v -1 z m 2 0 v 1 h 1 v -1 z m 2 0 v 1 h 1 v -1 z m 2.03125 0 v 1 h 1 v -1 z m -10.03125 2 v 1 h 1 v -1 z m 10.03125 0 v 1 h 1 v -1 z m -10.03125 2 v 1 h 1 v -1 z m 10.03125 0 v 1 h 1 v -1 z m -10.03125 2 v 1 h 1 v -1 z m 10.03125 0 v 1 h 1 v -1 z m -10.03125 2 v 1 h 1 v -1 z m 10.03125 0 v 1 h 1 v -1 z m -10.03125 2 v 1 h 1 v -1 z m 2 0 v 1 h 1 v -1 z m 2 0 v 1 h 1 v -1 z m 2 0 v 1 h 1 v -1 z m 2 0 v 1 h 1 v -1 z m 2.03125 0 v 1 h 1 v -1 z m 0 0"/></g></svg>
