<?xml version="1.0" encoding="UTF-8"?>
<svg xmlns="http://www.w3.org/2000/svg" xmlns:xlink="http://www.w3.org/1999/xlink" width="16px" height="16px" viewBox="0 0 16 16" version="1.1">
<g id="surface2973885">
<path style="" d="M 13.949219 8.359375 C 13.949219 8.359375 13.949219 8.378906 13.953125 8.371094 L 8.949219 13.285156 L 9.648438 13 L 5.027344 13 L 5.734375 13.292969 L 2.050781 9.609375 C 2.050781 9.609375 2.050781 9.589844 2.050781 9.589844 L 8.605469 3.035156 C 8.605469 3.035156 8.625 3.035156 8.625 3.035156 L 8.332031 2.328125 C 8.332031 2.59375 8.4375 2.847656 8.625 3.035156 Z M 10.332031 2.328125 C 10.332031 2.0625 10.226562 1.808594 10.039062 1.621094 C 9.25 0.832031 7.980469 0.832031 7.191406 1.621094 L 0.636719 8.175781 C -0.152344 8.964844 -0.152344 10.234375 0.636719 11.023438 L 4.320312 14.707031 C 4.507812 14.894531 4.761719 15 5.027344 15 L 9.648438 15 C 9.910156 15 10.160156 14.898438 10.347656 14.714844 L 15.363281 9.792969 C 16.152344 9.003906 16.152344 7.734375 15.363281 6.945312 L 10.039062 1.621094 Z M 10.332031 2.328125 "/>
<path style="" d="M 8.539062 1.832031 L 3.246094 5.953125 L 11.046875 13.753906 L 15.164062 8.457031 Z M 8.539062 1.832031 "/>
</g>
</svg>