<?xml version="1.0" encoding="UTF-8" standalone="no"?>
<svg
   height="16px"
   viewBox="0 0 16 16"
   width="16px"
   version="1.1"
   id="svg10"
   xmlns="http://www.w3.org/2000/svg"
   xmlns:svg="http://www.w3.org/2000/svg">
  <defs
     id="defs14" />
  <g
     fill="#2e3436"
     id="g8"
     transform="matrix(0.69752251,0,0,0.69752251,2.4198199,3.105081)">
    <path
       d="M 0.11494984,5.5839331 V 11.318515 H 1.1149498 v -0.0075 c 0.265625,0.0037 0.519531,-0.09707 0.707031,-0.272543 l 2,-1.9115269 c 0.390625,-0.3733452 0.390625,-0.9781639 0,-1.3515091 l -2,-1.9115273 c -0.1875,-0.175484 -0.441406,-0.2762874 -0.707031,-0.2725542 v -0.00746 z m 0,0"
       id="path2"
       style="stroke-width:1" />
    <path
       d="m 15.88505,5.5839369 v 5.7345781 h -1 v -0.0075 c -0.265625,0.0037 -0.519531,-0.09707 -0.707031,-0.272542 l -2,-1.9115265 c -0.390625,-0.3733449 -0.390625,-0.9781632 0,-1.3515082 l 2,-1.911526 c 0.1875,-0.1754838 0.441406,-0.2762872 0.707031,-0.2762872 v -0.00374 z m 0,0"
       id="path4"
       style="stroke-width:1" />
    <path
       d="M 6.8633848,3.4334648 V 5.401844 h 1.917969 c -0.054688,0 0.085937,0.1576238 0.085937,0.080734 v 0.9072998 h -1.003906 c -1.714844,0 -3.03125,1.1110575 -3.054688,2.4450959 -0.011718,0.6689418 0.304688,1.3417273 0.859376,1.7953773 0.558593,0.453649 1.316406,0.688164 2.195312,0.688164 H 10.867291 V 5.482578 c 0,-1.1533471 -0.886718,-2.0491132 -2.0859372,-2.0491132 z m 1,4.9286363 h 1.003906 v 0.9880348 h -1.003906 c -0.519531,0 -0.792969,-0.1345574 -0.921875,-0.2383589 -0.125,-0.1038015 -0.132813,-0.1691576 -0.132813,-0.2383589 0.00391,-0.1422459 0.085938,-0.511317 1.054688,-0.511317 z m 0,0"
       id="path6"
       style="stroke-width:1" />
  </g>
</svg>
