<?xml version="1.0" encoding="UTF-8" standalone="no"?>
<svg
   width="16"
   height="16"
   fill="#bebebe"
   version="1.1"
   id="svg6"
   xml:space="preserve"
   xmlns="http://www.w3.org/2000/svg"
   xmlns:svg="http://www.w3.org/2000/svg"><defs
     id="defs10" /><path
     d="m 9.2500001,7.2499999 c -0.1623533,0 -0.3234858,0.040577 -0.46875,0.1229384 C 8.4919434,7.5364577 8.3125,7.838432 8.3125,8.1654724 v 0.00122 0.3079415 C 8.13916,8.4793439 8,8.6166449 8,8.787326 V 10 h 2.5 V 8.787326 C 10.5,8.6166449 10.360842,8.4793839 10.1875,8.4746099 V 8.1654732 C 10.1875,7.8384336 10.008057,7.5364594 9.71875,7.3729391 9.573487,7.2905826 9.4123535,7.2500007 9.2500001,7.2499999 Z m 0,0.5024952 c 0.079341,0 0.1574708,0.0191 0.2282717,0.058488 C 9.619874,7.8909571 9.706544,8.038956 9.706544,8.1988951 V 8.4722239 H 8.7934568 v -0.275716 c 0,-0.1587462 0.08667,-0.3055554 0.2282716,-0.3855253 0.0708,-0.039388 0.1489258,-0.058488 0.2282717,-0.058488 z m 0,0"
     fill="#222222"
     id="path13175"
     style="fill:#353535;fill-opacity:1;stroke-width:0.999997" /><path
     style="color:#000000;fill:#353535;stroke-linecap:round;stroke-linejoin:bevel;-inkscape-stroke:none"
     d="M 7.3125,2.5 C 6.5913721,2.5 6,3.0913721 6,3.8125 v 7.125 C 6,11.658628 6.5913719,12.25 7.3125,12.25 h 4.125 c 0.721128,0 1.3125,-0.591372 1.3125,-1.3125 V 3.8125 C 12.75,3.0913719 12.158628,2.5 11.4375,2.5 Z m 0,0.75 h 4.125 C 11.756101,3.25 12,3.493899 12,3.8125 v 7.125 C 12,11.256101 11.756101,11.5 11.4375,11.5 H 7.3125 C 6.993899,11.5 6.75,11.256101 6.75,10.9375 V 3.8125 C 6.75,3.4938987 6.9938987,3.25 7.3125,3.25 Z"
     id="rect6099" /><path
     id="rect6099-7"
     style="color:#000000;fill:#353535;stroke-linejoin:bevel;stroke-dasharray:1.125, 0.75;stroke-dashoffset:1.125;-inkscape-stroke:none"
     d="M 4.2949219 5.5 L 4.1992188 5.5058594 L 4.1601562 5.5097656 L 4.0683594 5.5234375 L 4.03125 5.53125 L 3.9414062 5.5546875 L 3.90625 5.5644531 L 3.8183594 5.5957031 L 3.7851562 5.6113281 L 3.703125 5.6503906 L 3.671875 5.6679688 L 3.59375 5.7148438 L 3.5644531 5.734375 L 3.4921875 5.7890625 L 3.4628906 5.8105469 L 3.3964844 5.8710938 L 3.3710938 5.8964844 L 3.3105469 5.9628906 L 3.2890625 5.9921875 L 3.234375 6.0644531 L 3.2148438 6.09375 L 3.1679688 6.171875 L 3.1503906 6.203125 L 3.1113281 6.2832031 L 3.7871094 6.609375 L 3.8183594 6.5449219 L 3.8457031 6.4980469 L 3.8789062 6.4550781 L 3.9140625 6.4140625 L 3.9550781 6.3789062 L 3.9980469 6.3457031 L 4.0449219 6.3183594 L 4.09375 6.2949219 L 4.1445312 6.2753906 L 4.1992188 6.2617188 L 4.2539062 6.2539062 L 4.3222656 6.25 L 4.3417969 6.25 L 4.3417969 5.5 L 4.3125 5.5 L 4.2949219 5.5 z M 5.0917969 5.5 L 5.0917969 6.25 L 6.2167969 6.25 L 6.2167969 5.5 L 5.0917969 5.5 z M 6.9667969 5.5 L 6.9667969 6.25 L 8.0917969 6.25 L 8.0917969 5.5 L 6.9667969 5.5 z M 8.8417969 5.5 L 8.8417969 6.25 L 9.9667969 6.25 L 9.9667969 5.5 L 8.8417969 5.5 z M 10.716797 5.5 L 10.716797 6.25 L 11.427734 6.25 L 11.496094 6.2539062 L 11.550781 6.2617188 L 11.605469 6.2753906 L 11.65625 6.2949219 L 11.666016 6.2988281 L 11.990234 5.6230469 L 11.964844 5.6113281 L 11.931641 5.5957031 L 11.84375 5.5644531 L 11.808594 5.5546875 L 11.71875 5.53125 L 11.681641 5.5234375 L 11.589844 5.5097656 L 11.550781 5.5058594 L 11.455078 5.5 L 11.4375 5.5 L 10.716797 5.5 z M 12.671875 6.3710938 L 11.96875 6.6289062 L 11.974609 6.6445312 L 11.988281 6.6992188 L 11.996094 6.7539062 L 12 6.8222656 L 12 7 L 12.75 7 L 12.75 6.8125 L 12.75 6.7949219 L 12.744141 6.6992188 L 12.740234 6.6601562 L 12.726562 6.5683594 L 12.71875 6.53125 L 12.695312 6.4414062 L 12.685547 6.40625 L 12.671875 6.3710938 z M 3 7.1875 L 3 8.3125 L 3.75 8.3125 L 3.75 7.1875 L 3 7.1875 z M 3 9.0625 L 3 10.1875 L 3.75 10.1875 L 3.75 9.0625 L 3 9.0625 z M 3.7753906 11.105469 L 3.0488281 11.291016 L 3.0546875 11.308594 L 3.0644531 11.34375 L 3.0957031 11.431641 L 3.1113281 11.464844 L 3.1503906 11.546875 L 3.1679688 11.578125 L 3.2148438 11.65625 L 3.234375 11.685547 L 3.2890625 11.757812 L 3.3105469 11.787109 L 3.3710938 11.853516 L 3.3964844 11.878906 L 3.4628906 11.939453 L 3.4921875 11.960938 L 3.5644531 12.015625 L 3.59375 12.035156 L 3.671875 12.082031 L 3.703125 12.099609 L 3.7851562 12.138672 L 3.8183594 12.154297 L 3.90625 12.185547 L 3.9414062 12.195312 L 4.03125 12.21875 L 4.0683594 12.226562 L 4.1601562 12.240234 L 4.1992188 12.244141 L 4.2109375 12.246094 L 4.2480469 11.496094 L 4.1992188 11.488281 L 4.1445312 11.474609 L 4.09375 11.455078 L 4.0449219 11.431641 L 3.9980469 11.404297 L 3.9550781 11.371094 L 3.9140625 11.335938 L 3.8789062 11.294922 L 3.8457031 11.251953 L 3.8183594 11.205078 L 3.7949219 11.15625 L 3.7753906 11.105469 z M 4.9785156 11.5 L 4.9785156 12.25 L 6.1035156 12.25 L 6.1035156 11.5 L 4.9785156 11.5 z M 6.8535156 11.5 L 6.8535156 12.25 L 7 12.25 L 7 11.5 L 6.8535156 11.5 z " /></svg>
