<?xml version="1.0" encoding="UTF-8" standalone="no"?>
<svg
   width="16"
   height="16"
   version="1.1"
   id="svg4"
   xmlns="http://www.w3.org/2000/svg"
   xmlns:svg="http://www.w3.org/2000/svg">
  <defs
     id="defs8" />
  <path
     d="M 8,4.4055345 A 3.5913709,3.5913709 0 0 0 4.4055345,8 3.5913709,3.5913709 0 0 0 8,11.594465 3.5913709,3.5913709 0 0 0 11.594465,8 3.5913709,3.5913709 0 0 0 8,4.4055345 Z M 6.4526623,6.4526623 h 0.5317685 c 0.1315235,0.00568 0.2630473,0.066536 0.354856,0.1614389 L 8,7.2742986 8.6767023,6.6141012 C 8.8138996,6.4949563 8.9072558,6.4562727 9.0315585,6.4526623 h 0.5157793 v 0.5157793 c 0,0.1475127 -0.017536,0.2836785 -0.1289449,0.3868344 l -0.6607132,0.6607132 0.644724,0.6447241 c 0.096967,0.096966 0.1449341,0.2341637 0.1449341,0.3708452 V 9.5473378 H 9.0315585 c -0.1366815,0 -0.273363,-0.047968 -0.3708452,-0.1449341 L 8,8.7416905 7.3392868,9.401888 A 0.52351593,0.52351593 0 0 1 6.9684416,9.5473378 H 6.4526623 V 9.0315585 c 0,-0.1366815 0.047968,-0.273363 0.144934,-0.3708452 L 7.2583096,8.0159892 6.598112,7.355276 A 0.46884333,0.46884333 0 0 1 6.4526623,6.9684416 Z"
     style="line-height:normal;-inkscape-font-specification:'Andale Mono';text-indent:0;text-align:start;text-decoration-line:none;text-transform:none;stroke-width:0.515779;marker:none"
     color="#bebebe"
     font-weight="400"
     font-family="'Andale Mono'"
     overflow="visible"
     fill="#474747"
     id="path2" />
</svg>
