<?xml version="1.0" encoding="UTF-8" standalone="no"?>
<svg
   height="16px"
   viewBox="0 0 16 16"
   width="16px"
   version="1.1"
   id="svg38"
   sodipodi:docname="selection-select-all-symbolic.svg"
   inkscape:version="1.1.1 (3bf5ae0d25, 2021-09-20)"
   xmlns:inkscape="http://www.inkscape.org/namespaces/inkscape"
   xmlns:sodipodi="http://sodipodi.sourceforge.net/DTD/sodipodi-0.dtd"
   xmlns="http://www.w3.org/2000/svg"
   xmlns:svg="http://www.w3.org/2000/svg">
  <defs
     id="defs42" />
  <sodipodi:namedview
     id="namedview40"
     pagecolor="#ffffff"
     bordercolor="#666666"
     borderopacity="1.0"
     inkscape:pageshadow="2"
     inkscape:pageopacity="0.0"
     inkscape:pagecheckerboard="0"
     showgrid="false"
     inkscape:zoom="44.4375"
     inkscape:cx="8"
     inkscape:cy="7.9887482"
     inkscape:window-width="2560"
     inkscape:window-height="1365"
     inkscape:window-x="2560"
     inkscape:window-y="38"
     inkscape:window-maximized="1"
     inkscape:current-layer="svg38" />
  <g
     fill="#2e3436"
     id="g36"
     transform="matrix(0.55985806,0,0,0.55985806,3.5211355,3.5211355)">
    <path
       d="M 0,0 H 3 V 3 H 0 Z m 0,0"
       id="path2" />
    <path
       d="m 13,0 h 3 v 3 h -3 z m 0,0"
       id="path4" />
    <path
       d="m 0,13 h 3 v 3 H 0 Z m 0,0"
       id="path6" />
    <path
       d="m 13,13 h 3 v 3 h -3 z m 0,0"
       id="path8" />
    <path
       d="M 0,4 H 2 V 8 H 0 Z m 0,0"
       id="path10" />
    <path
       d="m 0,9 h 2 v 3 H 0 Z m 0,0"
       id="path12" />
    <path
       d="m 14,4 h 2 v 3 h -2 z m 0,0"
       id="path14" />
    <path
       d="m 14,8 h 2 v 4 h -2 z m 0,0"
       id="path16" />
    <g
       fill-opacity="0.327168"
       id="g24">
      <path
         d="m 5,8 h 2 c 0.550781,0 1,0.449219 1,1 v 2 c 0,0.550781 -0.449219,1 -1,1 H 5 C 4.449219,12 4,11.550781 4,11 V 9 C 4,8.449219 4.449219,8 5,8 Z m 0,0"
         id="path18" />
      <path
         d="M 5,4 H 6 C 6.550781,4 7,4.449219 7,5 V 6 C 7,6.550781 6.550781,7 6,7 H 5 C 4.449219,7 4,6.550781 4,6 V 5 C 4,4.449219 4.449219,4 5,4 Z m 0,0"
         id="path20" />
      <path
         d="m 9,4 h 2 c 0.550781,0 1,0.449219 1,1 v 2 c 0,0.550781 -0.449219,1 -1,1 H 9 C 8.449219,8 8,7.550781 8,7 V 5 C 8,4.449219 8.449219,4 9,4 Z m 0,0"
         id="path22" />
    </g>
    <path
       d="M 12,0 V 2 H 8 V 0 Z m 0,0"
       id="path26" />
    <path
       d="M 7,0 V 2 H 4 V 0 Z m 0,0"
       id="path28" />
    <path
       d="m 12,14 v 2 H 9 v -2 z m 0,0"
       id="path30" />
    <path
       d="m 8,14 v 2 H 4 v -2 z m 0,0"
       id="path32" />
    <path
       d="m 10,9 h 1 c 0.550781,0 1,0.449219 1,1 v 1 c 0,0.550781 -0.449219,1 -1,1 H 10 C 9.449219,12 9,11.550781 9,11 V 10 C 9,9.449219 9.449219,9 10,9 Z m 0,0"
       fill-opacity="0.327168"
       id="path34" />
  </g>
</svg>
