<?xml version="1.0" encoding="UTF-8" standalone="no"?>
<svg
   width="16"
   height="16"
   fill="#bebebe"
   version="1.1"
   id="svg6"
   xmlns="http://www.w3.org/2000/svg"
   xmlns:svg="http://www.w3.org/2000/svg">
  <defs
     id="defs10" />
  <g
     id="g829"
     transform="matrix(0.25987853,0,0,0.25987853,6.9624676,6.6280621)"
     style="fill:#3d3d3d;fill-opacity:1">
    <path
       d="m 2,7 v 8 H 12 V 7 Z"
       id="path2"
       style="fill:#3d3d3d;fill-opacity:1" />
    <path
       d="M 7,1 C 4.5,1 3,2.5 3,5 V 8 H 5 V 5 C 5,4 5.5,3 7,3 8.5,3 9,4 9,5 v 3 h 2 V 5 C 11,2.5 9.5,1 7,1 Z"
       id="path4"
       style="fill:#3d3d3d;fill-opacity:1" />
  </g>
  <path
     style="color:#000000;fill:#3d3d3d;stroke-width:0.76705;-inkscape-stroke:none;fill-opacity:1"
     d="M 4.843408,2.5916954 V 2.8988152 12.41054 h 7.517693 V 2.5916954 Z M 5.4576475,3.2059349 H 11.746862 V 11.796299 H 5.4576475 Z"
     id="rect3326" />
  <path
     style="color:#000000;fill:#3d3d3d;stroke-width:0.76705;stroke-dasharray:1.70437, 1.70437;-inkscape-stroke:none;fill-opacity:1"
     d="M 2.8493764,4.9168169 V 5.1999664 H 2.564729 V 6.7385615 H 3.1340242 V 5.4846139 h 1.4202417 v -0.567797 z m 3.4082807,0 v 0.567797 h 1.7048893 v -0.567797 z m 3.4097786,0 v 0.567797 h 1.7033913 v -0.567797 z m 2.1018983,1.3048845 v 1.7048893 h 0.569295 V 6.2217014 Z M 2.564729,8.4419528 V 10.146842 H 3.1340242 V 8.4419528 Z m 9.204605,1.1880292 v 1.70489 h 0.569295 v -1.70489 z m -8.9199576,2.190288 0.029962,0.02996 H 2.564729 v 0.537834 h 1.7363504 v -0.567796 z m 3.1565923,0 v 0.567797 H 7.7093598 V 11.82027 Z m 3.4082804,0 v 0.567797 H 11.119139 V 11.82027 Z"
     id="rect3432" />
  <path
     style="color:#000000;fill:#3d3d3d;stroke-width:0.76705;-inkscape-stroke:none;fill-opacity:1"
     d="m 4.9977169,12.71766 v 0.690645 H 12.206793 V 12.71766 h -0.305622 v 0.383525 H 5.3033385 V 12.71766 Z"
     id="path5912" />
  <path
     style="color:#000000;fill:#3d3d3d;stroke-width:0.76705;-inkscape-stroke:none;fill-opacity:1"
     d="m 12.744626,2.7460044 v 0.3071197 h 0.383526 v 8.8974839 h -0.383526 v 0.307121 h 0.690645 V 2.7460044 Z"
     id="path5912-3" />
</svg>
