<?xml version="1.0" encoding="UTF-8" standalone="no"?>
<svg
   height="16px"
   viewBox="0 0 16 16"
   width="16px"
   version="1.1"
   id="svg318"
   xmlns="http://www.w3.org/2000/svg"
   xmlns:svg="http://www.w3.org/2000/svg">
  <defs
     id="defs322" />
  <path
     d="m 6.4973985,4.0000007 -0.4994797,0.4981685 -1.4984391,0.00195 c 0,0 -0.4994797,0 -0.4994797,0.5001221 L 4.0078,5.4984134 H 11.5 L 11.4922,5.0002448 c 0,-0.5001221 -0.49948,-0.5001221 -0.49948,-0.5001221 L 9.4942743,4.4981677 8.9947946,3.9999992 Z M 4.5072841,5.9985355 v 4.5010985 c 0,1.500367 1.4984391,1.500367 1.4984391,1.500367 h 3.496358 c 1.4984388,0 1.4984388,-1.500367 1.4984388,-1.500367 V 5.9985355 h -0.998959 v 4.5010985 c 0,0.500122 -0.4994798,0.500122 -0.4994798,0.500122 h -3.496358 c 0,0 -0.4994797,0 -0.4994797,-0.500122 V 5.9985355 Z M 6.5052029,6.4986576 V 9.9995123 H 7.0046826 V 6.4986576 Z m 0.9989594,0 V 9.9995123 H 8.003642 V 6.4986576 Z m 0.9989595,0 V 9.9995123 H 9.0026015 V 6.4986576 Z m 0,0"
     fill="#2e3436"
     id="path316"
     style="stroke-width:1" />
</svg>
