<?xml version="1.0" encoding="UTF-8" standalone="no"?>
<svg
   height="16px"
   viewBox="0 0 16 16"
   width="16px"
   version="1.1"
   id="svg8"
   xmlns="http://www.w3.org/2000/svg"
   xmlns:svg="http://www.w3.org/2000/svg">
  <defs
     id="defs12" />
  <g
     fill="#2e3436"
     id="g6"
     transform="matrix(0.62509198,0,0,0.62509198,3.0052565,2.9932717)"
     style="stroke-width:1.59975">
    <path
       d="M 0,0 V 3 H 3 V 0 Z M 4,0 V 2 H 7 V 0 Z m 4,0 v 2 h 4 V 0 Z m 5,0 v 3 h 3 V 0 Z M 0,4 V 8 H 2 V 4 Z m 14,0 v 3 h 2 V 4 Z m 0,4 v 4 h 2 V 8 Z M 0,9 v 3 H 2 V 9 Z m 0,4 v 3 h 3 v -3 z m 13,0 v 3 h 3 v -3 z m -9,1 v 2 h 4 v -2 z m 5,0 v 2 h 3 v -2 z m 0,0"
       id="path2"
       style="stroke-width:1.59975" />
    <path
       d="M 5,4 C 4.445312,4 4,4.445312 4,5 V 6 C 4,6.554688 4.445312,7 5,7 H 6 C 6.554688,7 7,6.554688 7,6 V 5 C 7,4.445312 6.554688,4 6,4 Z M 9,4 C 8.445312,4 8,4.445312 8,5 v 2 c 0,0.554688 0.445312,1 1,1 h 2 c 0.554688,0 1,-0.445312 1,-1 V 5 C 12,4.445312 11.554688,4 11,4 Z M 5,8 C 4.445312,8 4,8.445312 4,9 v 2 c 0,0.554688 0.445312,1 1,1 h 2 c 0.554688,0 1,-0.445312 1,-1 V 9 C 8,8.445312 7.554688,8 7,8 Z m 5,1 C 9.445312,9 9,9.445312 9,10 v 1 c 0,0.554688 0.445312,1 1,1 h 1 c 0.554688,0 1,-0.445312 1,-1 V 10 C 12,9.445312 11.554688,9 11,9 Z m 0,0"
       fill-opacity="0.34902"
       id="path4"
       style="stroke-width:2.26242" />
  </g>
</svg>
