<?xml version="1.0" encoding="UTF-8" standalone="no"?>
<svg
   height="16px"
   viewBox="0 0 16 16"
   width="16px"
   version="1.1"
   id="svg163"
   xmlns="http://www.w3.org/2000/svg"
   xmlns:svg="http://www.w3.org/2000/svg">
  <defs
     id="defs167" />
  <filter
     id="a"
     height="1"
     width="1"
     x="0"
     y="0">
    <feColorMatrix
       in="SourceGraphic"
       type="matrix"
       values="0 0 0 0 1 0 0 0 0 1 0 0 0 0 1 0 0 0 1 0"
       id="feColorMatrix2" />
  </filter>
  <mask
     id="b">
    <g
       filter="url(#a)"
       id="g7">
      <path
         d="m 0 0 h 16 v 16 h -16 z"
         fill-opacity="0.3"
         id="path5" />
    </g>
  </mask>
  <clipPath
     id="c">
    <path
       d="m 0 0 h 1024 v 800 h -1024 z"
       id="path10" />
  </clipPath>
  <mask
     id="d">
    <g
       filter="url(#a)"
       id="g15">
      <path
         d="m 0 0 h 16 v 16 h -16 z"
         fill-opacity="0.05"
         id="path13" />
    </g>
  </mask>
  <clipPath
     id="e">
    <path
       d="m 0 0 h 1024 v 800 h -1024 z"
       id="path18" />
  </clipPath>
  <mask
     id="f">
    <g
       filter="url(#a)"
       id="g23">
      <path
         d="m 0 0 h 16 v 16 h -16 z"
         fill-opacity="0.05"
         id="path21" />
    </g>
  </mask>
  <clipPath
     id="g">
    <path
       d="m 0 0 h 1024 v 800 h -1024 z"
       id="path26" />
  </clipPath>
  <mask
     id="h">
    <g
       filter="url(#a)"
       id="g31">
      <path
         d="m 0 0 h 16 v 16 h -16 z"
         fill-opacity="0.05"
         id="path29" />
    </g>
  </mask>
  <clipPath
     id="i">
    <path
       d="m 0 0 h 1024 v 800 h -1024 z"
       id="path34" />
  </clipPath>
  <mask
     id="j">
    <g
       filter="url(#a)"
       id="g39">
      <path
         d="m 0 0 h 16 v 16 h -16 z"
         fill-opacity="0.05"
         id="path37" />
    </g>
  </mask>
  <clipPath
     id="k">
    <path
       d="m 0 0 h 1024 v 800 h -1024 z"
       id="path42" />
  </clipPath>
  <mask
     id="l">
    <g
       filter="url(#a)"
       id="g47">
      <path
         d="m 0 0 h 16 v 16 h -16 z"
         fill-opacity="0.05"
         id="path45" />
    </g>
  </mask>
  <clipPath
     id="m">
    <path
       d="m 0 0 h 1024 v 800 h -1024 z"
       id="path50" />
  </clipPath>
  <mask
     id="n">
    <g
       filter="url(#a)"
       id="g55">
      <path
         d="m 0 0 h 16 v 16 h -16 z"
         fill-opacity="0.05"
         id="path53" />
    </g>
  </mask>
  <clipPath
     id="o">
    <path
       d="m 0 0 h 1024 v 800 h -1024 z"
       id="path58" />
  </clipPath>
  <mask
     id="p">
    <g
       filter="url(#a)"
       id="g63">
      <path
         d="m 0 0 h 16 v 16 h -16 z"
         fill-opacity="0.3"
         id="path61" />
    </g>
  </mask>
  <clipPath
     id="q">
    <path
       d="m 0 0 h 1024 v 800 h -1024 z"
       id="path66" />
  </clipPath>
  <mask
     id="r">
    <g
       filter="url(#a)"
       id="g71">
      <path
         d="m 0 0 h 16 v 16 h -16 z"
         fill-opacity="0.5"
         id="path69" />
    </g>
  </mask>
  <clipPath
     id="s">
    <path
       d="m 0 0 h 1024 v 800 h -1024 z"
       id="path74" />
  </clipPath>
  <mask
     id="t">
    <g
       filter="url(#a)"
       id="g79">
      <path
         d="m 0 0 h 16 v 16 h -16 z"
         fill-opacity="0.4"
         id="path77" />
    </g>
  </mask>
  <clipPath
     id="u">
    <path
       d="m 0 0 h 1024 v 800 h -1024 z"
       id="path82" />
  </clipPath>
  <mask
     id="v">
    <g
       filter="url(#a)"
       id="g87">
      <path
         d="m 0 0 h 16 v 16 h -16 z"
         fill-opacity="0.4"
         id="path85" />
    </g>
  </mask>
  <clipPath
     id="w">
    <path
       d="m 0 0 h 1024 v 800 h -1024 z"
       id="path90" />
  </clipPath>
  <mask
     id="x">
    <g
       filter="url(#a)"
       id="g95">
      <path
         d="m 0 0 h 16 v 16 h -16 z"
         fill-opacity="0.5"
         id="path93" />
    </g>
  </mask>
  <clipPath
     id="y">
    <path
       d="m 0 0 h 1024 v 800 h -1024 z"
       id="path98" />
  </clipPath>
  <mask
     id="z">
    <g
       filter="url(#a)"
       id="g103">
      <path
         d="m 0 0 h 16 v 16 h -16 z"
         fill-opacity="0.5"
         id="path101" />
    </g>
  </mask>
  <clipPath
     id="A">
    <path
       d="m 0 0 h 1024 v 800 h -1024 z"
       id="path106" />
  </clipPath>
  <g
     clip-path="url(#c)"
     mask="url(#b)"
     transform="matrix(1 0 0 1 -560 -500)"
     id="g113">
    <path
       d="m 562.460938 212.058594 h 10.449218 c -1.183594 0.492187 -1.296875 2.460937 0 3 h -10.449218 z m 0 0"
       fill="#2e3436"
       id="path111" />
  </g>
  <g
     clip-path="url(#e)"
     mask="url(#d)"
     transform="matrix(1 0 0 1 -560 -500)"
     id="g117">
    <path
       d="m 16 632 h 1 v 1 h -1 z m 0 0"
       fill="#2e3436"
       fill-rule="evenodd"
       id="path115" />
  </g>
  <g
     clip-path="url(#g)"
     mask="url(#f)"
     transform="matrix(1 0 0 1 -560 -500)"
     id="g121">
    <path
       d="m 17 631 h 1 v 1 h -1 z m 0 0"
       fill="#2e3436"
       fill-rule="evenodd"
       id="path119" />
  </g>
  <g
     clip-path="url(#i)"
     mask="url(#h)"
     transform="matrix(1 0 0 1 -560 -500)"
     id="g125">
    <path
       d="m 18 634 h 1 v 1 h -1 z m 0 0"
       fill="#2e3436"
       fill-rule="evenodd"
       id="path123" />
  </g>
  <g
     clip-path="url(#k)"
     mask="url(#j)"
     transform="matrix(1 0 0 1 -560 -500)"
     id="g129">
    <path
       d="m 16 634 h 1 v 1 h -1 z m 0 0"
       fill="#2e3436"
       fill-rule="evenodd"
       id="path127" />
  </g>
  <g
     clip-path="url(#m)"
     mask="url(#l)"
     transform="matrix(1 0 0 1 -560 -500)"
     id="g133">
    <path
       d="m 17 635 h 1 v 1 h -1 z m 0 0"
       fill="#2e3436"
       fill-rule="evenodd"
       id="path131" />
  </g>
  <g
     clip-path="url(#o)"
     mask="url(#n)"
     transform="matrix(1 0 0 1 -560 -500)"
     id="g137">
    <path
       d="m 19 635 h 1 v 1 h -1 z m 0 0"
       fill="#2e3436"
       fill-rule="evenodd"
       id="path135" />
  </g>
  <g
     clip-path="url(#q)"
     mask="url(#p)"
     transform="matrix(1 0 0 1 -560 -500)"
     id="g141">
    <path
       d="m 136 660 v 7 h 7 v -7 z m 0 0"
       fill="#2e3436"
       id="path139" />
  </g>
  <g
     clip-path="url(#s)"
     mask="url(#r)"
     transform="matrix(1 0 0 1 -560 -500)"
     id="g145">
    <path
       d="m 199 642 h 3 v 12 h -3 z m 0 0"
       fill="#2e3436"
       id="path143" />
  </g>
  <g
     clip-path="url(#u)"
     mask="url(#t)"
     transform="matrix(1 0 0 1 -560 -500)"
     id="g149">
    <path
       d="m 209.5 144.160156 c 0.277344 0 0.5 0.222656 0.5 0.5 v 1 c 0 0.277344 -0.222656 0.5 -0.5 0.5 s -0.5 -0.222656 -0.5 -0.5 v -1 c 0 -0.277344 0.222656 -0.5 0.5 -0.5 z m 0 0"
       fill="#2e3436"
       id="path147" />
  </g>
  <g
     clip-path="url(#w)"
     mask="url(#v)"
     transform="matrix(1 0 0 1 -560 -500)"
     id="g153">
    <path
       d="m 206.5 144.160156 c 0.277344 0 0.5 0.222656 0.5 0.5 v 1 c 0 0.277344 -0.222656 0.5 -0.5 0.5 s -0.5 -0.222656 -0.5 -0.5 v -1 c 0 -0.277344 0.222656 -0.5 0.5 -0.5 z m 0 0"
       fill="#2e3436"
       id="path151" />
  </g>
  <g
     clip-path="url(#y)"
     mask="url(#x)"
     transform="matrix(1 0 0 1 -560 -500)"
     id="g157">
    <path
       d="m 229.5 143.160156 c -0.546875 0 -1 0.457032 -1 1 c 0 0.546875 0.453125 1 1 1 s 1 -0.453125 1 -1 c 0 -0.542968 -0.453125 -1 -1 -1 z m 0 0"
       fill="#2e3436"
       id="path155" />
  </g>
  <g
     clip-path="url(#A)"
     mask="url(#z)"
     transform="matrix(1 0 0 1 -560 -500)"
     id="g161">
    <path
       d="m 226.453125 143.160156 c -0.519531 0 -0.953125 0.433594 -0.953125 0.953125 v 0.09375 c 0 0.519531 0.433594 0.953125 0.953125 0.953125 h 0.09375 c 0.519531 0 0.953125 -0.433594 0.953125 -0.953125 v -0.09375 c 0 -0.519531 -0.433594 -0.953125 -0.953125 -0.953125 z m 0 0"
       fill="#2e3436"
       id="path159" />
  </g>
  <g
     id="g5459"
     transform="matrix(0.86016576,0,0,0.86016576,1.1186798,1.1186905)">
    <path
       style="color:#000000;fill:#2e3436;stroke-linecap:square;stroke-linejoin:round;stroke-dasharray:3.45246, 1.72623;-inkscape-stroke:none"
       d="M 4.0097656,2.8359375 3.578125,2.8574219 H 3.1679688 v 0.1347656 a 0.43160016,0.43160016 0 0 0 -0.00781,0.00586 l -0.023437,0.017578 a 0.43160016,0.43160016 0 0 0 -0.033203,0.027344 L 3.0820313,3.0625 A 0.43160016,0.43160016 0 0 0 3.0527343,3.091797 L 3.03125,3.1152344 a 0.43160016,0.43160016 0 0 0 -0.025391,0.03125 l -0.019531,0.025391 a 0.43160016,0.43160016 0 0 0 -0.023437,0.035156 l -0.015625,0.025391 a 0.43160016,0.43160016 0 0 0 -0.019531,0.037109 l -0.013672,0.027344 a 0.43160016,0.43160016 0 0 0 -0.017578,0.039063 l -0.00977,0.03125 A 0.43160016,0.43160016 0 0 0 2.8730469,3.40625 l -0.00781,0.03125 a 0.43160016,0.43160016 0 0 0 -0.00781,0.042969 l -0.00391,0.03125 a 0.43160016,0.43160016 0 0 0 -0.00586,0.042969 l -0.00195,0.033203 a 0.43160016,0.43160016 0 0 0 0,0.021484 V 4.0800781 4.5117187 H 3.7089844 V 4.0800781 3.71875 h 3.34375 0.4316406 V 2.8574219 H 7.0527344 4.0117187 Z m 4.3378907,0.021484 V 3.71875 h 0.4296875 3.4531252 0.43164 V 2.8574219 h -0.43164 -3.4531252 z m 3.9433597,1.3710937 v 0.4316406 3.4531251 0.4316406 h 0.863281 V 8.1132813 4.6601562 4.2285156 Z M 2.8457031,5.375 v 0.4316406 3.453125 0.4296875 H 3.7089844 V 9.2597656 5.8066406 5.375 Z M 12.291016,9.4082031 V 9.8398438 12.300781 H 12.025391 11.59375 v 0.863282 h 0.431641 0.375 a 0.43160016,0.43160016 0 0 0 0.02148,0 l 0.0332,-0.002 a 0.43160016,0.43160016 0 0 0 0.04297,-0.0039 l 0.03125,-0.0059 a 0.43160016,0.43160016 0 0 0 0.04297,-0.0078 l 0.03125,-0.0078 a 0.43160016,0.43160016 0 0 0 0.04101,-0.01367 l 0.0293,-0.0098 a 0.43160016,0.43160016 0 0 0 0.03906,-0.01563 l 0.02734,-0.01367 a 0.43160016,0.43160016 0 0 0 0.03711,-0.02148 l 0.02734,-0.01563 a 0.43160016,0.43160016 0 0 0 0.03516,-0.02344 l 0.02344,-0.01758 a 0.43160016,0.43160016 0 0 0 0.0332,-0.02734 l 0.02149,-0.01953 a 0.43160016,0.43160016 0 0 0 0.0293,-0.0293 l 0.02148,-0.02344 a 0.43160016,0.43160016 0 0 0 0.02539,-0.03125 l 0.01953,-0.02539 a 0.43160016,0.43160016 0 0 0 0.02344,-0.03516 l 0.01563,-0.02539 a 0.43160016,0.43160016 0 0 0 0.01953,-0.03711 l 0.01367,-0.0293 a 0.43160016,0.43160016 0 0 0 0.01758,-0.03906 l 0.0098,-0.0293 a 0.43160016,0.43160016 0 0 0 0.01367,-0.04102 l 0.0078,-0.03125 a 0.43160016,0.43160016 0 0 0 0.0078,-0.04101 l 0.0039,-0.0332 a 0.43160016,0.43160016 0 0 0 0.0059,-0.04297 l 0.002,-0.0332 a 0.43160016,0.43160016 0 0 0 0,-0.02149 V 9.8398438 9.4082031 Z M 2.8457031,10.552734 v 0.431641 1.425781 a 0.43160016,0.43160016 0 0 0 0,0.02149 l 0.00195,0.0332 a 0.43160016,0.43160016 0 0 0 0.00586,0.04297 l 0.00391,0.0332 a 0.43160016,0.43160016 0 0 0 0.00781,0.04101 l 0.00781,0.03125 a 0.43160016,0.43160016 0 0 0 0.013672,0.04102 l 0.00977,0.0293 a 0.43160016,0.43160016 0 0 0 0.017578,0.03906 l 0.013672,0.0293 a 0.43160016,0.43160016 0 0 0 0.019531,0.03711 l 0.015625,0.02539 a 0.43160016,0.43160016 0 0 0 0.023437,0.03516 l 0.019531,0.02539 a 0.43160016,0.43160016 0 0 0 0.025391,0.03125 l 0.021484,0.02344 a 0.43160016,0.43160016 0 0 0 0.029297,0.0293 l 0.021484,0.01953 a 0.43160016,0.43160016 0 0 0 0.033203,0.02734 l 0.023437,0.01758 a 0.43160016,0.43160016 0 0 0 0.035156,0.02344 l 0.027344,0.01563 a 0.43160016,0.43160016 0 0 0 0.037109,0.02148 l 0.027344,0.01367 a 0.43160016,0.43160016 0 0 0 0.039063,0.01563 l 0.029297,0.0098 a 0.43160016,0.43160016 0 0 0 0.041016,0.01367 l 0.03125,0.0078 a 0.43160016,0.43160016 0 0 0 0.042969,0.0078 l 0.03125,0.0059 a 0.43160016,0.43160016 0 0 0 0.042969,0.0039 l 0.033203,0.002 a 0.43160016,0.43160016 0 0 0 0.021484,0 H 5.1210937 5.5527344 V 12.300781 H 5.1210937 3.7089844 v -1.316406 -0.431641 z m 3.5683594,1.748047 v 0.863282 h 0.4316406 3.4531249 0.431641 V 12.300781 H 10.298828 6.8457031 Z"
       id="rect5330" />
  </g>
</svg>
