<?xml version="1.0" encoding="UTF-8"?>
<svg height="16px" viewBox="0 0 16 16" width="16px" xmlns="http://www.w3.org/2000/svg">
    <filter id="a" height="100%" width="100%" x="0%" y="0%">
        <feColorMatrix in="SourceGraphic" values="0 0 0 0 1 0 0 0 0 1 0 0 0 0 1 0 0 0 1 0"/>
    </filter>
    <path style="color:#000;display:inline;fill:#2e3436;fill-opacity:1;stroke-width:3.77953" d="M2.994 2.13a.997.997 0 0 0-.996.996c0 .55.446 1.004.996 1.004a1.01 1.01 0 0 0 1.004-1.004c0-.55-.454-.996-1.004-.996zm0 .391c.337 0 .606.269.606.605a.602.602 0 0 1-.606.606.602.602 0 0 1-.605-.606c0-.337.269-.605.605-.605zM12.964 11.954a1.01 1.01 0 0 0-1.004 1.004c0 .55.454.997 1.004.997s.997-.447.997-.997-.447-1.004-.997-1.004zm0 .399c.337 0 .606.268.606.605a.602.602 0 0 1-.606.605.602.602 0 0 1-.605-.605c0-.337.268-.605.605-.605z"/>
    <path style="color:#000;fill:#2e3436;stroke-dashoffset:.1" d="M2.502 3.695v9.803h9.822a.803.803 0 0 1-.049-1H3.502V3.734a.803.803 0 0 1-.47.17.803.803 0 0 1-.53-.209Z"/>
</svg>