<?xml version="1.0" encoding="UTF-8" standalone="no"?>
<svg
   height="16px"
   viewBox="0 0 16 16"
   width="16px"
   version="1.1"
   id="svg11"
   xmlns="http://www.w3.org/2000/svg"
   xmlns:svg="http://www.w3.org/2000/svg">
  <defs
     id="defs15" />
  <filter
     id="a"
     height="100%"
     width="100%"
     x="0%"
     y="0%">
    <feColorMatrix
       in="SourceGraphic"
       values="0 0 0 0 1 0 0 0 0 1 0 0 0 0 1 0 0 0 1 0"
       id="feColorMatrix2" />
  </filter>
  <g
     id="g303"
     transform="translate(-0.22771235,0.23969721)">
    <path
       style="color:#000000;fill:#2e3436;stroke-dashoffset:0.1;-inkscape-stroke:none"
       d="M 3.285,12.715 12.715,3.285 M 11.461,3.832 3.832,11.461 4.539,12.168 12.168,4.539 Z"
       transform="translate(-0.3,0.3)"
       id="path5" />
    <path
       style="color:#000000;display:inline;fill:#2e3436;fill-opacity:1;stroke-width:3.77959"
       d="M 7.734,1.304 A 0.997,0.997 0 0 0 6.737,2.301 C 6.737,2.851 7.184,3.305 7.734,3.305 A 1.01,1.01 0 0 0 8.738,2.3 C 8.738,1.75 8.284,1.303 7.734,1.303 Z M 7.734,1.695 C 8.071,1.695 8.339,1.964 8.339,2.301 A 0.602,0.602 0 0 1 7.734,2.906 0.602,0.602 0 0 1 7.129,2.301 C 7.129,1.964 7.397,1.695 7.734,1.695 Z M 13.83,7.217 A 1.01,1.01 0 0 0 12.826,8.221 C 12.826,8.771 13.28,9.217 13.83,9.217 14.38,9.217 14.827,8.77 14.827,8.221 14.827,7.671 14.38,7.217 13.83,7.217 Z M 13.83,7.615 C 14.167,7.615 14.436,7.884 14.436,8.221 A 0.602,0.602 0 0 1 13.83,8.826 0.602,0.602 0 0 1 13.225,8.221 C 13.225,7.884 13.493,7.615 13.83,7.615 Z"
       id="path7" />
    <path
       style="color:#000000;fill:#2e3436;stroke-width:1.00001;stroke-dashoffset:0.1"
       d="M 7.241,2.87 V 7.76 H 1.173 V 8.76 H 7.24 V 14.695 H 8.242 V 8.762 H 13.19 A 0.803,0.803 0 0 1 13.142,7.762 H 8.242 V 2.909 A 0.803,0.803 0 0 1 7.771,3.079 0.803,0.803 0 0 1 7.241,2.869 Z"
       id="path9" />
  </g>
</svg>
