<?xml version="1.0" encoding="UTF-8" standalone="no"?>
<!-- Created with Inkscape (http://www.inkscape.org/) -->

<svg
   width="32"
   height="32"
   viewBox="0 0 8.4666667 8.4666667"
   version="1.1"
   id="svg5"
   sodipodi:docname="stylus-primary-button.svg"
   inkscape:version="1.1.2 (0a00cf5339, 2022-02-04)"
   xmlns:inkscape="http://www.inkscape.org/namespaces/inkscape"
   xmlns:sodipodi="http://sodipodi.sourceforge.net/DTD/sodipodi-0.dtd"
   xmlns="http://www.w3.org/2000/svg"
   xmlns:svg="http://www.w3.org/2000/svg">
  <sodipodi:namedview
     id="namedview7"
     pagecolor="#ffffff"
     bordercolor="#666666"
     borderopacity="1.0"
     inkscape:pageshadow="2"
     inkscape:pageopacity="0.0"
     inkscape:pagecheckerboard="true"
     inkscape:document-units="mm"
     showgrid="true"
     units="px"
     inkscape:snap-bbox="true"
     inkscape:snap-bbox-midpoints="true"
     inkscape:bbox-nodes="true"
     inkscape:snap-object-midpoints="true"
     inkscape:bbox-paths="true"
     inkscape:object-nodes="true"
     inkscape:snap-smooth-nodes="true"
     inkscape:zoom="21.780321"
     inkscape:cx="16.689378"
     inkscape:cy="17.974942"
     inkscape:window-width="2560"
     inkscape:window-height="1365"
     inkscape:window-x="2560"
     inkscape:window-y="38"
     inkscape:window-maximized="1"
     inkscape:current-layer="layer1"
     inkscape:snap-global="true">
    <inkscape:grid
       type="xygrid"
       id="grid824"
       spacingx="0.21166667"
       spacingy="0.21166667" />
  </sodipodi:namedview>
  <defs
     id="defs2">
    <inkscape:path-effect
       effect="bspline"
       id="path-effect7200"
       is_visible="true"
       lpeversion="1"
       weight="33.333333"
       steps="2"
       helper_size="0"
       apply_no_weight="true"
       apply_with_weight="true"
       only_selected="false" />
    <inkscape:path-effect
       effect="bspline"
       id="path-effect7196"
       is_visible="true"
       lpeversion="1"
       weight="33.333333"
       steps="2"
       helper_size="0"
       apply_no_weight="true"
       apply_with_weight="true"
       only_selected="false" />
    <inkscape:path-effect
       effect="bspline"
       id="path-effect5023"
       is_visible="true"
       lpeversion="1"
       weight="33.333333"
       steps="2"
       helper_size="0"
       apply_no_weight="true"
       apply_with_weight="true"
       only_selected="false" />
    <inkscape:path-effect
       effect="bspline"
       id="path-effect4929"
       is_visible="true"
       lpeversion="1"
       weight="33.333333"
       steps="2"
       helper_size="0"
       apply_no_weight="true"
       apply_with_weight="true"
       only_selected="false" />
  </defs>
  <g
     inkscape:label="Layer 1"
     inkscape:groupmode="layer"
     id="layer1">
    <g
       style="fill:#bebebe"
       id="g857"
       transform="matrix(0.26458333,0,0,0.26458333,-9.6130839,-2.2489583)">
      <path
         d="M 3,1 A 1,1 0 0 0 2,2 v 13 a 1,1 0 0 0 1,1 h 10 a 1,1 0 0 0 1,-1 v -5 a 1,1 0 1 0 -2,0 v 4 H 4 V 3 H 6 A 1,1 0 1 0 6,1 Z m 6,1.02 v 2 H 7 V 6.01 H 9 V 8 h 2 V 6.01 h 2 V 4.02 h -2 v -2 z"
         id="path848" />
    </g>
    <g
       id="g15240"
       transform="rotate(-38.225931,5.203459,5.4464364)">
      <path
         style="color:#000000;fill:#bebebe;stroke-linecap:round;-inkscape-stroke:none"
         d="m 4.65625,-0.09960937 c -0.1709336,0 -0.3105469,0.13961363 -0.3105469,0.31054687 V 6.8730469 H 6.2382812 V 0.2109375 c 10e-8,-0.17093342 -0.1415665,-0.31054687 -0.3125,-0.31054687 z m 0,0.19921874 h 1.2695312 c 0.063593,0 0.1132813,0.04773512 0.1132813,0.11132813 V 6.6738281 H 4.5449219 V 0.2109375 c 0,-0.0635931 0.047735,-0.11132812 0.1113281,-0.11132813 z"
         id="rect881" />
      <g
         id="rect4600-7"
         transform="scale(1,-1)">
        <path
           style="color:#000000;fill:#bebebe;stroke-width:0.20968;stroke-linecap:round;-inkscape-stroke:none"
           d="m 5.0652294,-6.0057421 h 0.4528735 c 0.120431,0 0.2173844,0.098972 0.2173844,0.2219104 v 1.6643283 c 0,0.1229383 -0.096953,0.2219104 -0.2173844,0.2219104 H 5.0652294 c -0.1204309,0 -0.2173843,-0.098972 -0.2173843,-0.2219104 v -1.6643283 c 0,-0.1229383 0.096953,-0.2219104 0.2173843,-0.2219104 z"
           id="path15213" />
        <path
           style="color:#000000;fill:#bebebe;stroke-linecap:round;-inkscape-stroke:none"
           d="m 5.0644531,-6.1113281 c -0.1778704,0 -0.3222656,0.1500668 -0.3222656,0.328125 v 1.6640625 c 0,0.1780585 0.1443955,0.3261718 0.3222656,0.3261718 h 0.453125 c 0.1778705,0 0.3222656,-0.1481136 0.3222656,-0.3261718 v -1.6640625 c 0,-0.1780585 -0.1443954,-0.328125 -0.3222656,-0.328125 z m 0,0.2109375 h 0.453125 c 0.062992,0 0.1132813,0.049369 0.1132813,0.1171875 v 1.6640625 c 0,0.067818 -0.050289,0.1171875 -0.1132813,0.1171875 h -0.453125 c -0.062991,0 -0.1113281,-0.04937 -0.1113281,-0.1171875 v -1.6640625 c 0,-0.067818 0.048336,-0.1171875 0.1113281,-0.1171875 z"
           id="path15215" />
      </g>
      <path
         style="color:#000000;fill:#bebebe;stroke-linecap:round;-inkscape-stroke:none"
         d="m 5.1816406,-3.7070313 c -0.076917,0 -0.1386719,0.065579 -0.1386719,0.1425782 v 0.71875 c 10e-8,0.076999 0.061754,0.1425781 0.1386719,0.1425781 h 0.1972656 c 0.076918,0 0.1386719,-0.065579 0.1386719,-0.1425781 v -0.71875 c 0,-0.076999 -0.061754,-0.1425782 -0.1386719,-0.1425782 z m 0,0.091797 h 0.1972656 c 0.02724,0 0.048828,0.021454 0.048828,0.050781 v 0.71875 c 0,0.029327 -0.021588,0.050781 -0.048828,0.050781 H 5.1816406 c -0.02724,0 -0.046875,-0.021454 -0.046875,-0.050781 v -0.71875 c 0,-0.029327 0.019635,-0.050781 0.046875,-0.050781 z"
         id="rect4600-7-5"
         transform="scale(1,-1)" />
      <path
         style="color:#000000;fill:#bebebe;-inkscape-stroke:none"
         d="m 4.3457031,6.7734375 c 0,0.2119311 2.071e-4,0.4498685 0.1503906,0.75 0.1501647,0.3000936 0.4348074,0.6533723 0.7167969,1.0058594 l 0.078125,0.097656 0.078125,-0.097656 C 5.6513368,8.1765515 5.9358713,7.8234211 6.0859375,7.5234375 6.2360153,7.2234306 6.2382812,6.9853686 6.2382812,6.7734375 H 6.0390625 c 0,0.2119311 0.00131,0.3959473 -0.1308594,0.6601562 C 5.7909009,7.6680818 5.5393366,7.9828486 5.2910156,8.2949219 5.0428728,7.9830699 4.79317,7.6681871 4.6757812,7.4335937 4.5435049,7.1692484 4.5449219,6.9853686 4.5449219,6.7734375 Z"
         id="path7194" />
      <path
         style="color:#000000;fill:#bebebe;stroke-linecap:round;-inkscape-stroke:none"
         d="M 4.953125,7.6054687 A 0.075,0.075 0 0 0 4.939453,7.7089844 l 0.2929688,0.3808594 a 0.075,0.075 0 0 0 0.1054687,0.013672 0.075,0.075 0 0 0 0.013672,-0.1054687 L 5.0585937,7.6191406 A 0.075,0.075 0 0 0 4.953125,7.6054687 Z"
         id="path12826" />
    </g>
  </g>
</svg>
