<?xml version="1.0" encoding="UTF-8"?>
<svg xmlns="http://www.w3.org/2000/svg" height="16px" viewBox="0 0 16 16" width="16px"><path d="m 4.492188 3 v 2 h 6 c 0.429687 0 0.609374 0.28125 0.484374 0.730469 l -0.351562 1.269531 h -5.242188 c -1.835937 0 -3.128906 1.34375 -3.503906 2.738281 c -0.1875 0.699219 -0.175781 1.480469 0.238282 2.15625 c 0.410156 0.675781 1.25 1.105469 2.160156 1.105469 h 6.757812 l 1.867188 -6.730469 c 0.433594 -1.570312 -0.726563 -3.269531 -2.410156 -3.269531 z m 0.890624 6 h 4.6875 l -0.554687 2 h -5.238281 c -0.398438 0 -0.410156 -0.070312 -0.453125 -0.144531 s -0.09375 -0.292969 -0.015625 -0.59375 c 0.164062 -0.605469 0.730468 -1.261719 1.574218 -1.261719 z m 0 0" fill="#2e3436"/></svg>
