<?xml version="1.0" encoding="UTF-8"?>
<svg xmlns="http://www.w3.org/2000/svg" height="16px" viewBox="0 0 16 16" width="16px"><path d="m 8 5 h -5 c -0.550781 0 -1 -0.449219 -1 -1 s 0.449219 -1 1 -1 h 5 c 0.550781 0 1 0.449219 1 1 s -0.449219 1 -1 1 z m 0 0"/><path d="m 8 9 h -6 c -0.550781 0 -1 -0.449219 -1 -1 s 0.449219 -1 1 -1 h 6 c 0.550781 0 1 0.449219 1 1 s -0.449219 1 -1 1 z m 0 0"/><path d="m 14 13 h -7 c -0.550781 0 -1 -0.449219 -1 -1 s 0.449219 -1 1 -1 h 7 c 0.550781 0 1 0.449219 1 1 s -0.449219 1 -1 1 z m 0 0"/><path d="m 13.707031 4.707031 l -2 2 v -1.414062 l 2 2 c 0.390625 0.390625 0.390625 1.023437 0 1.414062 s -1.023437 0.390625 -1.414062 0 l -2 -2 c -0.390625 -0.390625 -0.390625 -1.023437 0 -1.414062 l 2 -2 c 0.390625 -0.390625 1.023437 -0.390625 1.414062 0 s 0.390625 1.023437 0 1.414062 z m 0 0"/></svg>
