<?xml version="1.0" encoding="UTF-8" standalone="no"?>
<svg
   height="16px"
   viewBox="0 0 16 16"
   width="16px"
   version="1.1"
   id="svg8"
   xmlns="http://www.w3.org/2000/svg"
   xmlns:svg="http://www.w3.org/2000/svg">
  <defs
     id="defs12" />
  <path
     id="path2"
     style="fill:#222222"
     d="M 3 0 C 1.3554706 0 0 1.3554706 0 3 C 0 4.6445294 1.3554706 6 3 6 L 7 6 L 7 3.5039062 C 7 2.9492188 7.4531255 2.5117182 8 2.5039062 C 8.5859374 2.4921873 9 2.9492188 9 3.5039062 L 9 6 L 10 6 L 10 4 C 10 3.4453126 10.445313 3 11 3 C 11.554687 3 12 3.4453126 12 4 L 12 6 L 13 6 C 14.644529 6 16 4.6445294 16 3 C 16 1.3554706 14.644529 0 13 0 L 3 0 z M 12 6 L 10 6 L 10 9.5 C 10 9.5 9.9999995 10 9.5 10 C 9.0000005 10 9 9.5 9 9.5 L 9 6 L 7 6 L 7 9.5 C 7 9.5 6.9999995 10 6.5 10 C 6.0000005 10 6 9.5 6 9.5 L 6 9 C 6 8.4453126 5.5546874 8 5 8 C 4.4453126 8 4 8.4453126 4 9 L 4 9.5 C 4 9.5 3.9999995 10 3.5 10 C 3.0000005 10 3 9.5 3 9.5 L 3 8.9453125 C 3 8.3906261 2.5546874 7.9453125 2 7.9453125 C 1.4453126 7.9453125 1 8.3906261 1 8.9453125 L 1 13 C 1 13 1.000003 16 4 16 L 10 16 C 10.949218 15.996094 12.000001 15.499999 12.707031 14.707031 L 15.707031 11.707031 C 16.15625 11.257813 16.093749 10.074219 15.011719 9.9882812 C 14.738281 9.9921882 14.480469 10.097656 14.292969 10.292969 L 12.5 12 C 12.5 12 12 11.999999 12 11.5 L 12 6 z " />
</svg>
