<?xml version="1.0" encoding="UTF-8" standalone="no"?>
<svg
   height="16px"
   viewBox="0 0 16 16"
   width="16px"
   version="1.1"
   id="svg8"
   xmlns="http://www.w3.org/2000/svg"
   xmlns:svg="http://www.w3.org/2000/svg">
  <defs
     id="defs12" />
  <path
     id="path2"
     style="fill:#222222;stroke-width:0.999999"
     d="M 4.2500001,2.0000001 C 3.0166031,2.0000001 2,3.0166031 2,4.2500002 2,5.4833974 3.0166031,6.5000005 4.2500001,6.5000005 H 7.2500005 V 4.6279298 c 0,-0.4160156 0.339844,-0.744141 0.7500001,-0.7499999 0.4394531,-0.00879 0.75,0.3339845 0.75,0.7499999 V 6.5000004 H 9.5000005 V 5.0000003 c 0,-0.4160157 0.3339848,-0.7500001 0.7499995,-0.7500001 0.416016,0 0.750001,0.3339845 0.750001,0.7500001 v 1.5000002 h 0.75 C 12.983398,6.5000005 14,5.4833974 14,4.2500002 14,3.0166031 12.983398,2.0000001 11.750001,2.0000001 Z M 11.000001,6.5000004 H 9.5000005 v 2.6250001 c 0,0 -3e-7,0.375 -0.375,0.375 -0.3749996,0 -0.3749999,-0.375 -0.3749999,-0.375 V 6.5000004 H 7.2500005 v 2.6250001 c 0,0 -5e-7,0.375 -0.375,0.375 -0.3749997,0 -0.375,-0.375 -0.375,-0.375 V 8.7500006 c -10e-8,-0.4160157 -0.3339846,-0.75 -0.7500002,-0.75 -0.4160157,0 -0.75,0.3339843 -0.75,0.75 v 0.3749999 c 0,0 -3e-7,0.375 -0.3750001,0.375 -0.3749997,0 -0.375,-0.375 -0.375,-0.375 V 8.708985 c 0,-0.4160149 -0.3339845,-0.7500002 -0.75,-0.7500002 -0.4160156,0 -0.7500001,0.3339853 -0.7500001,0.7500002 v 3.041016 c 0,0 2.3e-6,2.249999 2.2500002,2.249999 h 4.5000002 c 0.7119135,-0.003 1.5000005,-0.375 2.0302735,-0.969726 l 2.25,-2.250001 c 0.336914,-0.336913 0.290039,-1.2246082 -0.521484,-1.2890615 -0.205079,0.00293 -0.398438,0.082031 -0.539062,0.2285158 l -1.344727,1.2802737 c 0,0 -0.375,-10e-7 -0.375,-0.375001 z" />
</svg>
