<?xml version="1.0" encoding="UTF-8"?>
<svg xmlns="http://www.w3.org/2000/svg" height="16px" viewBox="0 0 16 16" width="16px"><g fill="#222222"><path d="m 4.996094 9.996094 l 7 -7 l 2 2 l -7 7 h -2 z m 0 0" fill-rule="evenodd"/><path d="m 1.152344 -0.00390625 c -0.570313 0 -1.0937502 0.50390625 -1.0937502 1.06250025 v 13.875 c 0 0.5625 0.5234372 1.0625 1.0937502 1.0625 h 10.8125 c 0.554687 0 1.074218 -0.484375 1.09375 -1.03125 v -6.96875 l -2 2 v 4 h -9 v -12 h 5 l 2 2 l 1.53125 -1.53125 l -2.1875 -2.125 c -0.207032 -0.210938 -0.488282 -0.33593775 -0.78125 -0.34375025 z m 0 0"/><path d="m 14.152344 1.101562 c -0.136719 0 -0.265625 0.054688 -0.363282 0.152344 l -1.160156 1.160156 l 2.003906 2.003907 l 1.160157 -1.160157 c 0.203125 -0.203124 0.203125 -0.527343 0 -0.730468 l -1.277344 -1.273438 c -0.09375 -0.097656 -0.226563 -0.152344 -0.363281 -0.152344 z m 0 0" fill-rule="evenodd"/></g></svg>
