<?xml version="1.0" encoding="UTF-8"?>
<svg xmlns="http://www.w3.org/2000/svg" height="16px" viewBox="0 0 16 16" width="16px"><g fill="#2e3436"><path d="m 8.03125 0.996094 c -0.03125 0 -0.066406 0 -0.101562 0.003906 c -0.515626 0.042969 -0.914063 0.472656 -0.917969 0.992188 l -0.003907 1.007812 h -1.988281 l 0.015625 -0.980469 c 0.003906 -0.285156 -0.109375 -0.554687 -0.3125 -0.746093 c -0.203125 -0.195313 -0.480468 -0.292969 -0.761718 -0.273438 c -0.515626 0.039062 -0.917969 0.464844 -0.925782 0.980469 l -0.023437 1.28125 c -1.183594 0.503906 -2.011719 1.671875 -2.011719 3.046875 v 4.386718 c 0 1.375 0.832031 2.546876 2.019531 3.046876 v 1.257812 c 0 0.550781 0.449219 1 1 1 c 0.554688 0 1 -0.449219 1 -1 v -1 h 1.980469 v 1 c 0 0.550781 0.449219 1 1 1 s 1 -0.449219 1 -1 v -1 h 2 v 1 c 0 0.550781 0.449219 1 1 1 s 1 -0.449219 1 -1 v -1.269531 c 1.179688 -0.503907 2 -1.671875 2 -3.035157 v -4.386718 c 0 -1.367188 -0.820312 -2.53125 -1.992188 -3.039063 l 0.003907 -1.261719 c 0.003906 -0.28125 -0.109375 -0.550781 -0.316407 -0.742187 c -0.207031 -0.195313 -0.484374 -0.289063 -0.765624 -0.265625 c -0.515626 0.042969 -0.914063 0.472656 -0.917969 0.992188 l -0.003907 1.007812 h -2 l 0.003907 -0.992188 c 0.007812 -0.550781 -0.429688 -1 -0.980469 -1.011718 z m -3.722656 4.003906 h 7.386718 c 0.722657 0 1.304688 0.582031 1.304688 1.308594 v 4.386718 c 0 0.257813 -0.074219 0.5 -0.207031 0.699219 c -0.1875 -0.246093 -0.480469 -0.394531 -0.792969 -0.394531 c -0.550781 0 -1 0.449219 -1 1 h -2 c 0 -0.550781 -0.449219 -1 -1 -1 s -1 0.449219 -1 1 h -1.980469 c 0 -0.550781 -0.445312 -1 -1 -1 c -0.316406 0.003906 -0.613281 0.160156 -0.800781 0.417969 c -0.136719 -0.207031 -0.21875 -0.457031 -0.21875 -0.722657 v -4.386718 c 0 -0.726563 0.582031 -1.308594 1.308594 -1.308594 z m 0 0"/><path d="m 3 10 c 0 0.546875 0.46875 1 1.019531 1 h 7.980469 c 0.59375 0 1 -0.515625 1 -1 h 1 v 0.933594 l -2 2.046875 l -8 0.019531 l -2 -2.304688 v -0.695312 z m 0 0"/></g></svg>
