<?xml version="1.0" encoding="UTF-8"?>
<svg xmlns="http://www.w3.org/2000/svg" height="16px" viewBox="0 0 16 16" width="16px"><path d="m 5 3 c -0.554688 0 -1 0.445312 -1 1 v 2 c 0 -0.554688 -0.445312 -1 -1 -1 s -1 0.445312 -1 1 v 2 h -0.820312 c -0.652344 0 -1.179688 0.445312 -1.179688 1 s 0.527344 1 1.179688 1 h 0.820312 v 2 c 0 0.554688 0.445312 1 1 1 s 1 -0.445312 1 -1 v 2 c 0 0.554688 0.445312 1 1 1 s 1 -0.445312 1 -1 v -4 h 4 v 4 c 0 0.554688 0.445312 1 1 1 s 1 -0.445312 1 -1 v -2 c 0 0.554688 0.445312 1 1 1 s 1 -0.445312 1 -1 v -2 h 0.820312 c 0.652344 0 1.179688 -0.445312 1.179688 -1 s -0.527344 -1 -1.179688 -1 h -0.820312 v -2 c 0 -0.554688 -0.445312 -1 -1 -1 s -1 0.445312 -1 1 v -2 c 0 -0.554688 -0.445312 -1 -1 -1 s -1 0.445312 -1 1 v 4 h -4 v -4 c 0 -0.554688 -0.445312 -1 -1 -1 z m 0 0" fill="#222222"/></svg>
