<?xml version="1.0" encoding="UTF-8"?>
<svg xmlns="http://www.w3.org/2000/svg" height="16px" viewBox="0 0 16 16" width="16px"><path d="m 5 1 v 7.34375 c -0.453125 -0.210938 -0.96875 -0.34375 -1.5 -0.34375 c -1.921875 0 -3.5 1.578125 -3.5 3.5 s 1.578125 3.5 3.5 3.5 c 1.910156 0 3.480469 -1.5625 3.5 -3.46875 c 0 -0.011719 0 -0.019531 0 -0.03125 v -7.5 h 6 v 4.34375 c -0.453125 -0.210938 -0.96875 -0.34375 -1.5 -0.34375 c -1.921875 0 -3.5 1.578125 -3.5 3.5 s 1.578125 3.5 3.5 3.5 c 1.898438 0 3.464844 -1.546875 3.5 -3.4375 c 0 -0.023438 0 -0.039062 0 -0.0625 v -10.5 z m 0 0" fill="#222222"/></svg>
