<?xml version="1.0" encoding="UTF-8"?>
<svg xmlns="http://www.w3.org/2000/svg" height="16px" viewBox="0 0 16 16" width="16px"><g fill="#222222"><path d="m 10.128906 1.144531 c -0.1875 0 -0.375 0.011719 -0.558594 0.039063 c -0.566406 0.078125 -1.25 0.351562 -2.015624 0.753906 c -1.539063 -0.84375 -2.742188 -0.898438 -3.75 -0.636719 c -1.066407 0.273438 -1.9375 0.71875 -3.289063 0.679688 l -0.515625 -0.015625 v 14.035156 h 15 v -14.019531 l -0.519531 0.019531 c -1.515625 0.054688 -2.269531 -0.394531 -3.25 -0.683594 c -0.355469 -0.109375 -0.726563 -0.167968 -1.101563 -0.171875 z m -0.109375 0.972657 c 0.328125 0 0.617188 0.066406 0.925781 0.15625 c 0.535157 0.160156 1.195313 0.414062 2.054688 0.558593 v 8.597657 c -0.570312 -0.152344 -1.164062 -0.339844 -1.8125 -0.5 c -0.980469 -0.242188 -2.089844 -0.183594 -3.1875 0.484374 v -8.625 c 0.714844 -0.390624 1.238281 -0.582031 1.679688 -0.644531 c 0.121093 -0.015625 0.234374 -0.027343 0.339843 -0.027343 z m -4.933593 0.003906 c 0.53125 0.007812 1.121093 0.160156 1.914062 0.597656 v 8.660156 c -1.105469 -0.636718 -2.210938 -0.683594 -3.183594 -0.441406 c -0.652344 0.160156 -1.246094 0.347656 -1.816406 0.496094 v -8.640625 c 0.804688 -0.144531 1.472656 -0.378907 2.054688 -0.523438 c 0.347656 -0.089843 0.675781 -0.152343 1.03125 -0.148437 z m 4.714843 9.628906 c 0.375 -0.011719 0.746094 0.054688 1.144531 0.152344 c 0.644532 0.160156 1.324219 0.441406 2.054688 0.640625 v 1.457031 h -11 v -1.449219 c 0.726562 -0.199219 1.40625 -0.480469 2.054688 -0.644531 c 1.074218 -0.261719 1.992187 -0.292969 3.144531 0.738281 l 0.335937 0.304688 l 0.335938 -0.304688 c 0.703125 -0.648437 1.3125 -0.878906 1.929687 -0.894531 z m 0 0"/><path d="m 0.9375 14.75 v -2.1875 l 4.21875 -1.128906 l 2.34375 0.59375 l 2.386719 -0.667969 l 3.742187 1 v 2.453125 z m 0 0" fill-opacity="0.34902"/></g></svg>
