<?xml version="1.0" encoding="UTF-8"?>
<svg xmlns="http://www.w3.org/2000/svg" height="16px" viewBox="0 0 16 16" width="16px"><path d="m 6.5 1 c -0.277344 0 -0.5 0.222656 -0.5 0.5 v 1 c 0 0.277344 0.222656 0.5 0.5 0.5 h 1 c 0.277344 0 0.5 -0.222656 0.5 -0.5 v -1 c 0 -0.277344 -0.222656 -0.5 -0.5 -0.5 z m -3.742188 1.546875 c -0.128906 0 -0.253906 0.050781 -0.351562 0.152344 l -0.707031 0.707031 c -0.199219 0.195312 -0.199219 0.507812 0 0.703125 l 0.707031 0.707031 c 0.195312 0.199219 0.507812 0.199219 0.707031 0 l 0.707031 -0.707031 c 0.195313 -0.195313 0.195313 -0.507813 0 -0.703125 l -0.707031 -0.707031 c -0.101562 -0.101563 -0.226562 -0.148438 -0.355469 -0.152344 z m 8.484376 0 c -0.128907 0 -0.253907 0.050781 -0.355469 0.152344 l -0.707031 0.707031 c -0.195313 0.195312 -0.195313 0.507812 0 0.703125 l 0.707031 0.707031 c 0.199219 0.199219 0.511719 0.199219 0.707031 0 l 0.707031 -0.707031 c 0.199219 -0.195313 0.199219 -0.507813 0 -0.703125 l -0.707031 -0.707031 c -0.097656 -0.101563 -0.222656 -0.148438 -0.351562 -0.152344 z m -4.253907 1.457031 c -2.195312 0 -4 1.808594 -4 4 c 0 1.898438 1.347657 3.496094 3.128907 3.898438 c 0 -0.003906 0 -0.003906 0 -0.011719 c 0.480468 -2.085937 2.140624 -3.003906 4.046874 -2.808594 c 0.191407 0.046875 0.371094 0.117188 0.546876 0.195313 c 0.015624 0.007812 0.027343 0.007812 0.042968 0.015625 c 0.140625 -0.40625 0.234375 -0.835938 0.234375 -1.289063 c 0 -2.191406 -1.804687 -4 -4 -4 z m -6.488281 2.996094 c -0.277344 0 -0.5 0.222656 -0.5 0.5 v 1 c 0 0.277344 0.222656 0.5 0.5 0.5 h 1 c 0.277344 0 0.5 -0.222656 0.5 -0.5 v -1 c 0 -0.277344 -0.222656 -0.5 -0.5 -0.5 z m 12 0 c -0.277344 0 -0.5 0.222656 -0.5 0.5 v 1 c 0 0.277344 0.222656 0.5 0.5 0.5 h 1 c 0.277344 0 0.5 -0.222656 0.5 -0.5 v -1 c 0 -0.277344 -0.222656 -0.5 -0.5 -0.5 z m -3 3 c -1.378906 0 -2.5 1.121094 -2.5 2.5 c 0 0.21875 0.042969 0.421875 0.09375 0.625 c -0.179688 -0.074219 -0.386719 -0.125 -0.59375 -0.125 c -0.828125 0 -1.5 0.671875 -1.5 1.5 s 0.671875 1.5 1.5 1.5 h 8 c 0.828125 0 1.5 -0.671875 1.5 -1.5 s -0.671875 -1.5 -1.5 -1.5 c 0 -1.105469 -0.894531 -2 -2 -2 c -0.316406 0 -0.609375 0.089844 -0.875 0.21875 c -0.4375 -0.726562 -1.214844 -1.21875 -2.125 -1.21875 z m -6.742188 1.035156 c -0.128906 0 -0.253906 0.046875 -0.351562 0.148438 l -0.707031 0.707031 c -0.199219 0.195313 -0.199219 0.507813 0 0.703125 l 0.707031 0.707031 c 0.195312 0.199219 0.507812 0.199219 0.707031 0 l 0.707031 -0.707031 c 0.195313 -0.195312 0.195313 -0.507812 0 -0.703125 l -0.707031 -0.707031 c -0.101562 -0.101563 -0.226562 -0.148438 -0.355469 -0.148438 z m 0 0" fill="#222222"/></svg>
