<?xml version="1.0" encoding="UTF-8"?>
<svg height="16px" viewBox="0 0 16 16" width="16px" xmlns="http://www.w3.org/2000/svg">
    <path d="m 8 1.003906 c -2.050781 0 -4.097656 0.78125 -5.65625 2.339844 c -3.117188 3.117188 -3.117188 8.195312 0 11.3125 c 0.390625 0.390625 1.023438 0.390625 1.414062 0 c 0.390626 -0.390625 0.390626 -1.023438 0 -1.414062 c -2.351562 -2.351563 -2.351562 -6.132813 0 -8.484376 c 2.351563 -2.351562 6.132813 -2.351562 8.484376 0 c 2.351562 2.351563 2.351562 6.132813 0 8.484376 c -0.390626 0.390624 -0.390626 1.023437 0 1.414062 c 0.390624 0.390625 1.023437 0.390625 1.414062 0 c 3.117188 -3.117188 3.117188 -8.195312 0 -11.3125 c -1.558594 -1.558594 -3.605469 -2.339844 -5.65625 -2.339844 z m -1 2.996094 v 3.273438 c -0.617188 0.355468 -0.996094 1.015624 -1 1.726562 c 0 1.105469 0.894531 2 2 2 s 2 -0.894531 2 -2 c 0 -0.714844 -0.382812 -1.375 -1 -1.730469 v -3.269531 l -1 -1 z m 0 0" fill="#2e3434"/>
    <path d="m 12 9 c -0.003906 1.058594 -0.429688 2.074219 -1.179688 2.820312 l 2.128907 2.128907 c 1.3125 -1.3125 2.050781 -3.09375 2.050781 -4.949219 z m 0 0" fill="#2e3436" fill-opacity="0.34902"/>
</svg>
