<?xml version="1.0" encoding="UTF-8"?>
<svg xmlns="http://www.w3.org/2000/svg" height="16px" viewBox="0 0 16 16" width="16px"><path d="m 12.246094 2.339844 l -0.707032 0.707031 c -0.390624 0.390625 -0.390624 1.023437 0 1.414063 c 0.390626 0.390624 1.023438 0.390624 1.414063 0 l 0.707031 -0.707032 c 0.390625 -0.390625 0.390625 -1.023437 0 -1.414062 s -1.023437 -0.390625 -1.414062 0 z m -5.242188 -1.347656 v 1 c 0 0.550781 0.449219 1 1 1 c 0.554688 0 1 -0.449219 1 -1 v -1 c 0 -0.554688 -0.445312 -1.0000005 -1 -1.0000005 c -0.550781 0 -1 0.4453125 -1 1.0000005 z m -4.660156 2.75 l 0.707031 0.707031 c 0.253907 0.253906 0.621094 0.355469 0.96875 0.261719 c 0.34375 -0.09375 0.613281 -0.363282 0.707031 -0.707032 c 0.089844 -0.347656 -0.007812 -0.714844 -0.261718 -0.96875 l -0.707032 -0.707031 c -0.253906 -0.253906 -0.621093 -0.351563 -0.964843 -0.257813 c -0.347657 0.089844 -0.617188 0.359376 -0.710938 0.707032 c -0.089843 0.34375 0.007813 0.714844 0.261719 0.964844 z m -1.347656 5.242187 h 1 c 0.550781 0 1 -0.445313 1 -1 c 0 -0.550781 -0.449219 -1 -1 -1 h -1 c -0.554688 0 -1.00000025 0.449219 -1.00000025 1 c 0 0.554687 0.44531225 1 1.00000025 1 z m 0 0"/><path d="m 6.132812 8.71875 c -0.371093 -0.96875 0.070313 -2.074219 1.003907 -2.523438 c 0.9375 -0.445312 2.078125 -0.09375 2.59375 0.804688 c 0.277343 0.480469 0.890625 0.644531 1.367187 0.367188 c 0.480469 -0.277344 0.644532 -0.890626 0.367188 -1.367188 c -1.046875 -1.816406 -3.300782 -2.511719 -5.191406 -1.609375 c -1.890626 0.902344 -2.757813 3.09375 -2.003907 5.050781 c 0.199219 0.511719 0.777344 0.769532 1.292969 0.570313 s 0.769531 -0.777344 0.570312 -1.292969 z m 0 0"/><path d="m 8.113281 11.097656 l 1.515625 -0.613281 c -0.484375 -0.316406 -1.050781 -0.484375 -1.628906 -0.484375 c -1.660156 0 -3 1.339844 -3 3 s 1.339844 3 3 3 h 4 c 2.214844 0 4 -1.785156 4 -4 s -1.785156 -4 -4 -4 c -1.863281 0 -3.46875 1.285156 -3.886719 3.097656 z m 5.886719 0.902344 c 0 1.097656 -0.902344 2 -2 2 h -4 c -0.546875 0 -1 -0.453125 -1 -1 s 0.453125 -1 1 -1 c 0.191406 0 0.378906 0.054688 0.542969 0.160156 c 0.273437 0.179688 0.613281 0.210938 0.917969 0.089844 c 0.300781 -0.121094 0.527343 -0.382812 0.597656 -0.703125 c 0.210937 -0.902344 1.019531 -1.546875 1.941406 -1.546875 c 1.097656 0 2 0.902344 2 2 z m 0 0"/></svg>
