<?xml version="1.0" encoding="UTF-8"?>
<svg xmlns="http://www.w3.org/2000/svg" height="16px" viewBox="0 0 16 16" width="16px"><path d="m 3.042969 1 c -1.128907 0 -2.042969 0.914062 -2.042969 2.042969 v 9.875 c 0 1.132812 0.914062 2.042969 2.042969 2.042969 h 9.914062 c 1.128907 0 2.042969 -0.910157 2.042969 -2.042969 v -9.875 c 0 -1.128907 -0.914062 -2.042969 -2.042969 -2.042969 z m -0.042969 4.960938 h 10 v 7 h -10 z m 1 1.039062 v 2 h 2 v -2 z m 3 0 v 2 h 2 v -2 z m 3 0 v 2 h 2 v -2 z m -6 3 v 2 h 2 v -2 z m 3 0 v 2 h 2 v -2 z m 0 0"/></svg>
