<?xml version="1.0" encoding="UTF-8"?>
<svg xmlns="http://www.w3.org/2000/svg" height="16px" viewBox="0 0 16 16" width="16px"><g fill="#222222"><path d="m 3 1 c -0.550781 0 -1 0.449219 -1 1 v 13 c 0 0.550781 0.449219 1 1 1 h 10 c 0.550781 0 1 -0.449219 1 -1 v -9.5 c 0 -0.265625 -0.105469 -0.519531 -0.292969 -0.707031 l -3.5 -3.5 c -0.1875 -0.1875 -0.441406 -0.292969 -0.707031 -0.292969 z m 1 2 h 5.085938 l 2.914062 2.914062 v 8.085938 h -8 z m 0 0"/><path d="m 9 2 v 4 h 4 z m -2.5 2 c -0.824219 0 -1.5 0.675781 -1.5 1.5 s 0.675781 1.5 1.5 1.5 s 1.5 -0.675781 1.5 -1.5 s -0.675781 -1.5 -1.5 -1.5 z m 0 1 c 0.28125 0 0.5 0.21875 0.5 0.5 s -0.21875 0.5 -0.5 0.5 s -0.5 -0.21875 -0.5 -0.5 s 0.21875 -0.5 0.5 -0.5 z m -1.5 3 v 1 h 6 v -1 z m 0 2 v 1 h 6 v -1 z m 0 2 v 1 h 6 v -1 z m 0 0"/></g></svg>
