<svg viewBox="0 0 600 600" xmlns="http://www.w3.org/2000/svg">
<path d="M106.1809,91.18755 C115.15896,156.47064,121.776665,264.98483,110.82503,401.14938" fill="None" stroke="rgb(000,000,000,1.000)" stroke-width="1"/>
<path d="M90.68387,379.77396 C172.48026,394.33972,247.50444,414.64233,413.9064,406.91708" fill="None" stroke="rgb(000,000,000,1.000)" stroke-width="1"/>
<path d="M101.35111,100.19929 C188.64919,95.23125,254.46948,89.66089,384.9911,111.81001" fill="None" stroke="rgb(000,000,000,1.000)" stroke-width="1"/>
<path d="M391.36523,119.55154 C389.23975,178.24861,385.93115,278.87805,420.0089,409.10193" fill="None" stroke="rgb(000,000,000,1.000)" stroke-width="1"/>
<path d="M87.336655,101.001625 C94.30919,181.3078,115.828636,278.3061,100.80485,400.2718" fill="None" stroke="rgb(000,000,000,1.000)" stroke-width="1"/>
<path d="M112.36591,395.11917 C178.07764,402.41324,274.29645,389.45773,419.67175,401.7556" fill="None" stroke="rgb(000,000,000,1.000)" stroke-width="1"/>
<path d="M102.135796,89.442055 C176.56819,113.930084,272.9787,104.05911,408.21277,81.09534" fill="None" stroke="rgb(000,000,000,1.000)" stroke-width="1"/>
<path d="M410.0467,111.8614 C389.09665,152.67517,408.63492,223.388,413.65042,380.38696" fill="None" stroke="rgb(000,000,000,1.000)" stroke-width="1"/>
</svg>